<svg xmlns="http://www.w3.org/2000/svg" width="65" height="65" viewBox="0 0 65 65" fill="none">
  <path d="M43.8478 5.41666H21.1519C11.2936 5.41666 5.4165 11.2937 5.4165 21.1521V43.8208C5.4165 53.7062 11.2936 59.5833 21.1519 59.5833H43.8207C53.679 59.5833 59.5561 53.7062 59.5561 43.8479V21.1521C59.5832 11.2937 53.7061 5.41666 43.8478 5.41666ZM46.7457 26.975L40.4894 35.0458C40.1096 35.5426 39.6329 35.9571 39.0883 36.2644C38.5436 36.5716 37.9423 36.7652 37.3207 36.8333C36.6984 36.9141 36.0663 36.8695 35.4616 36.702C34.8569 36.5345 34.2919 36.2477 33.7998 35.8583L28.8436 31.9583C28.7743 31.8972 28.6917 31.8532 28.6023 31.8297C28.513 31.8062 28.4194 31.8038 28.329 31.8229C28.2366 31.8295 28.1469 31.8574 28.0671 31.9044C27.9872 31.9514 27.9193 32.0162 27.8686 32.0937L21.4228 40.4625C21.2331 40.7057 20.9908 40.9028 20.714 41.0388C20.4373 41.1748 20.1332 41.2463 19.8248 41.2479C19.3724 41.249 18.9331 41.0962 18.579 40.8146C18.3674 40.6528 18.1897 40.4508 18.0561 40.2203C17.9225 39.9899 17.8356 39.7353 17.8004 39.4712C17.7652 39.2072 17.7824 38.9387 17.8509 38.6813C17.9194 38.4239 18.038 38.1824 18.1998 37.9708L24.6457 29.6021C25.028 29.1052 25.5049 28.6891 26.049 28.3776C26.593 28.0662 27.1934 27.8656 27.8154 27.7876C28.4374 27.7095 29.0687 27.7555 29.6729 27.9228C30.277 28.0901 30.842 28.3755 31.3353 28.7625L36.2915 32.6625C36.3602 32.7245 36.4428 32.7692 36.5323 32.7927C36.6219 32.8163 36.7157 32.8181 36.8061 32.7979C36.8985 32.7913 36.9882 32.7634 37.068 32.7164C37.1479 32.6694 37.2158 32.6046 37.2665 32.5271L43.5228 24.4562C43.6843 24.2436 43.8868 24.0655 44.1182 23.9323C44.3497 23.7992 44.6054 23.7137 44.8704 23.6809C45.1354 23.648 45.4043 23.6686 45.6612 23.7413C45.9182 23.814 46.158 23.9374 46.3665 24.1042C46.7927 24.438 47.0711 24.9255 47.142 25.4622C47.2128 25.9989 47.0706 26.542 46.7457 26.975Z" fill="#158B7F"/>
</svg>