<svg xmlns="http://www.w3.org/2000/svg" width="21" height="21" viewBox="0 0 21 21" fill="none">
  <path d="M19.3421 12.1578H1.65789C1.21909 12.1549 0.799077 11.9793 0.488787 11.669C0.178497 11.3588 0.00289651 10.9387 0 10.4999C0.00289651 10.0611 0.178497 9.64112 0.488787 9.33083C0.799077 9.02054 1.21909 8.84494 1.65789 8.84204H19.3421C19.7809 8.84494 20.2009 9.02054 20.5112 9.33083C20.8215 9.64112 20.9971 10.0611 21 10.4999C20.9971 10.9387 20.8215 11.3588 20.5112 11.669C20.2009 11.9793 19.7809 12.1549 19.3421 12.1578Z" fill="white"/>
  <path d="M10.5 21C10.0612 20.9971 9.64118 20.8215 9.33089 20.5112C9.0206 20.2009 8.845 19.7809 8.8421 19.3421V1.65789C8.845 1.21909 9.0206 0.799077 9.33089 0.488787C9.64118 0.178497 10.0612 0.00289651 10.5 0C10.9388 0.00289651 11.3588 0.178497 11.6691 0.488787C11.9794 0.799077 12.155 1.21909 12.1579 1.65789V19.3421C12.155 19.7809 11.9794 20.2009 11.6691 20.5112C11.3588 20.8215 10.9388 20.9971 10.5 21Z" fill="white"/>
</svg>