<svg width="35" height="35" viewBox="0 0 35 35" fill="none" xmlns="http://www.w3.org/2000/svg">
<path d="M18 20.25C17.3572 20.25 16.7289 20.0594 16.1944 19.7023C15.6599 19.3452 15.2434 18.8376 14.9974 18.2437C14.7514 17.6499 14.687 16.9964 14.8124 16.366C14.9379 15.7355 15.2474 15.1564 15.7019 14.7019C16.1564 14.2474 16.7355 13.9379 17.366 13.8124C17.9964 13.687 18.6499 13.7514 19.2437 13.9974C19.8376 14.2434 20.3452 14.6599 20.7023 15.1944C21.0594 15.7289 21.25 16.3572 21.25 17C21.2484 17.8615 20.9055 18.6872 20.2963 19.2963C19.6872 19.9055 18.8615 20.2484 18 20.25ZM18 15.25C17.6539 15.25 17.3155 15.3526 17.0278 15.5449C16.74 15.7372 16.5157 16.0105 16.3832 16.3303C16.2508 16.6501 16.2161 17.0019 16.2836 17.3414C16.3512 17.6809 16.5178 17.9927 16.7626 18.2374C17.0073 18.4822 17.3191 18.6489 17.6586 18.7164C17.9981 18.7839 18.3499 18.7492 18.6697 18.6168C18.9895 18.4843 19.2628 18.26 19.4551 17.9722C19.6474 17.6845 19.75 17.3461 19.75 17C19.7479 16.5365 19.5628 16.0926 19.2351 15.7649C18.9074 15.4372 18.4635 15.2521 18 15.25Z" fill="#007AFF"/>
<path d="M24.5 20.25C24.3015 20.2487 24.1115 20.1693 23.9711 20.0289C23.8307 19.8885 23.7513 19.6985 23.75 19.5V14.5C23.7513 14.3015 23.8307 14.1115 23.9711 13.9711C24.1115 13.8307 24.3015 13.7513 24.5 13.75C24.6985 13.7513 24.8885 13.8307 25.0289 13.9711C25.1693 14.1115 25.2487 14.3015 25.25 14.5V19.5C25.2487 19.6985 25.1693 19.8885 25.0289 20.0289C24.8885 20.1693 24.6985 20.2487 24.5 20.25Z" fill="#007AFF"/>
<path d="M11 27.75C10.1811 27.7502 9.37612 27.5373 8.6643 27.1323C7.95248 26.7273 7.35826 26.1441 6.94002 25.44C6.48656 24.7071 6.24752 23.8618 6.25002 23C6.25002 21.7402 6.75046 20.532 7.64126 19.6412C8.53206 18.7504 9.74024 18.25 11 18.25C12.2598 18.25 13.468 18.7504 14.3588 19.6412C15.2496 20.532 15.75 21.7402 15.75 23C15.7512 23.8648 15.5123 24.7129 15.06 25.45C14.6396 26.1514 14.0446 26.7319 13.3331 27.135C12.6216 27.5381 11.8178 27.7499 11 27.75ZM11 19.75C10.1386 19.7516 9.31282 20.0945 8.70367 20.7037C8.09452 21.3128 7.75161 22.1385 7.75002 23C7.7483 23.5895 7.91106 24.1679 8.22002 24.67C8.507 25.1508 8.91367 25.5491 9.40037 25.826C9.88708 26.1029 10.4372 26.249 10.9972 26.25C11.5571 26.251 12.1078 26.1069 12.5955 25.8317C13.0832 25.5566 13.4913 25.1598 13.78 24.68C14.0893 24.1743 14.252 23.5927 14.25 23C14.2484 22.1385 13.9055 21.3128 13.2964 20.7037C12.6872 20.0945 11.8615 19.7516 11 19.75Z" fill="#007AFF"/>
<path d="M12.4998 23.73H9.50977C9.31126 23.7287 9.12125 23.6492 8.98088 23.5089C8.84051 23.3685 8.76108 23.1785 8.75977 22.98C8.76108 22.7815 8.84051 22.5915 8.98088 22.4511C9.12125 22.3107 9.31126 22.2313 9.50977 22.23H12.4998C12.6983 22.2313 12.8883 22.3107 13.0286 22.4511C13.169 22.5915 13.2485 22.7815 13.2498 22.98C13.2485 23.1785 13.169 23.3685 13.0286 23.5089C12.8883 23.6492 12.6983 23.7287 12.4998 23.73Z" fill="#007AFF"/>
<path d="M11 25.26C10.8015 25.2587 10.6115 25.1793 10.4711 25.0389C10.3307 24.8985 10.2513 24.7085 10.25 24.51V21.52C10.2513 21.3215 10.3307 21.1315 10.4711 20.9911C10.6115 20.8508 10.8015 20.7713 11 20.77C11.1985 20.7713 11.3885 20.8508 11.5289 20.9911C11.6693 21.1315 11.7487 21.3215 11.75 21.52V24.51C11.7501 24.6085 11.7308 24.7061 11.6932 24.7972C11.6555 24.8882 11.6003 24.971 11.5306 25.0406C11.461 25.1103 11.3782 25.1656 11.2872 25.2032C11.1961 25.2408 11.0985 25.2602 11 25.26Z" fill="#007AFF"/>
<path d="M23 25.75H14.5C14.3011 25.75 14.1103 25.671 13.9697 25.5303C13.829 25.3897 13.75 25.1989 13.75 25C13.75 24.8011 13.829 24.6103 13.9697 24.4697C14.1103 24.329 14.3011 24.25 14.5 24.25H23C25.86 24.25 27.25 22.86 27.25 20V14C27.25 11.14 25.86 9.75 23 9.75H13C10.14 9.75 8.75 11.14 8.75 14V20.3C8.74869 20.4985 8.66925 20.6885 8.52888 20.8289C8.38851 20.9693 8.19851 21.0487 8 21.05C7.80149 21.0487 7.61149 20.9693 7.47112 20.8289C7.33075 20.6885 7.25131 20.4985 7.25 20.3V14C7.25 10.35 9.35 8.25 13 8.25H23C26.65 8.25 28.75 10.35 28.75 14V20C28.75 23.65 26.65 25.75 23 25.75Z" fill="#007AFF"/>
<rect opacity="0.1" width="35" height="35" rx="4" fill="#007AFF"/>
</svg>
