<svg xmlns="http://www.w3.org/2000/svg" width="35" height="35" viewBox="0 0 35 35" fill="none">
  <rect opacity="0.1" width="35" height="35" rx="4" fill="#007AFF"/>
  <path d="M24 17.75H12C11.8015 17.7487 11.6115 17.6693 11.4711 17.5289C11.3307 17.3885 11.2513 17.1985 11.25 17C11.2513 16.8015 11.3307 16.6115 11.4711 16.4711C11.6115 16.3307 11.8015 16.2513 12 16.25H24C24.1985 16.2513 24.3885 16.3307 24.5289 16.4711C24.6693 16.6115 24.7487 16.8015 24.75 17C24.7487 17.1985 24.6693 17.3885 24.5289 17.5289C24.3885 17.6693 24.1985 17.7487 24 17.75Z" fill="#007AFF"/>
  <path d="M18 23.75C17.8015 23.7487 17.6115 23.6693 17.4711 23.5289C17.3307 23.3885 17.2513 23.1985 17.25 23V11C17.2513 10.8015 17.3307 10.6115 17.4711 10.4711C17.6115 10.3307 17.8015 10.2513 18 10.25C18.1985 10.2513 18.3885 10.3307 18.5289 10.4711C18.6693 10.6115 18.7487 10.8015 18.75 11V23C18.7487 23.1985 18.6693 23.3885 18.5289 23.5289C18.3885 23.6693 18.1985 23.7487 18 23.75Z" fill="#007AFF"/>
</svg>