<svg xmlns="http://www.w3.org/2000/svg" width="24" height="24" viewBox="0 0 24 24" fill="none">
  <path d="M12 22.75C9.87386 22.75 7.79545 22.1195 6.02762 20.9383C4.2598 19.7571 2.88194 18.0782 2.0683 16.1139C1.25466 14.1495 1.04177 11.9881 1.45656 9.90278C1.87135 7.81749 2.89519 5.90202 4.39861 4.39861C5.90202 2.89519 7.81749 1.87135 9.90278 1.45656C11.9881 1.04177 14.1495 1.25466 16.1139 2.0683C18.0782 2.88194 19.7571 4.2598 20.9383 6.02762C22.1195 7.79545 22.75 9.87386 22.75 12C22.7476 14.8504 21.6143 17.5833 19.5988 19.5988C17.5833 21.6143 14.8504 22.7476 12 22.75ZM12 2.75C10.1705 2.75 8.38213 3.29251 6.86098 4.30891C5.33983 5.32531 4.15423 6.76997 3.45412 8.46018C2.75401 10.1504 2.57083 12.0103 2.92774 13.8046C3.28465 15.5989 4.16563 17.2471 5.45927 18.5407C6.7529 19.8344 8.40109 20.7154 10.1954 21.0723C11.9897 21.4292 13.8496 21.246 15.5398 20.5459C17.23 19.8458 18.6747 18.6602 19.6911 17.139C20.7075 15.6179 21.25 13.8295 21.25 12C21.2471 9.54765 20.2716 7.19656 18.5375 5.46248C16.8034 3.7284 14.4524 2.75292 12 2.75Z" fill="#5A5A5A"/>
  <path d="M16 12.75H8C7.80149 12.7487 7.61149 12.6693 7.47112 12.5289C7.33075 12.3885 7.25131 12.1985 7.25 12C7.25131 11.8015 7.33075 11.6115 7.47112 11.4711C7.61149 11.3307 7.80149 11.2513 8 11.25H16C16.1985 11.2513 16.3885 11.3307 16.5289 11.4711C16.6693 11.6115 16.7487 11.8015 16.75 12C16.7487 12.1985 16.6693 12.3885 16.5289 12.5289C16.3885 12.6693 16.1985 12.7487 16 12.75Z" fill="#5A5A5A"/>
  <path d="M12 16.75C11.8015 16.7487 11.6115 16.6693 11.4711 16.5289C11.3307 16.3885 11.2513 16.1985 11.25 16V8C11.2513 7.80149 11.3307 7.61149 11.4711 7.47112C11.6115 7.33075 11.8015 7.25131 12 7.25C12.1985 7.25131 12.3885 7.33075 12.5289 7.47112C12.6693 7.61149 12.7487 7.80149 12.75 8V16C12.7487 16.1985 12.6693 16.3885 12.5289 16.5289C12.3885 16.6693 12.1985 16.7487 12 16.75Z" fill="#5A5A5A"/>
</svg>