<svg width="24" height="24" viewBox="0 0 24 24" fill="none" xmlns="http://www.w3.org/2000/svg">
<path d="M14.9298 2.5V8.4C14.9305 8.49758 14.9026 8.59322 14.8496 8.67513C14.7965 8.75704 14.7207 8.82165 14.6314 8.86098C14.5421 8.90032 14.4432 8.91266 14.347 8.89649C14.2508 8.88033 14.1614 8.83636 14.0898 8.77L12.3398 7.16C12.2474 7.07425 12.1259 7.02661 11.9998 7.02661C11.8737 7.02661 11.7523 7.07425 11.6598 7.16L9.90982 8.76C9.8389 8.82579 9.75042 8.86959 9.65511 8.8861C9.55979 8.90261 9.46173 8.89111 9.37282 8.85301C9.28391 8.8149 9.20796 8.75182 9.15418 8.67141C9.1004 8.59101 9.07109 8.49673 9.06982 8.4V2.5C9.06982 2.36739 9.1225 2.24021 9.21627 2.14645C9.31004 2.05268 9.43722 2 9.56982 2H14.4298C14.5624 2 14.6896 2.05268 14.7834 2.14645C14.8771 2.24021 14.9298 2.36739 14.9298 2.5Z" fill="white"/>
<path d="M16.98 2.05597C16.9103 2.04896 16.8398 2.05669 16.7733 2.07866C16.7067 2.10063 16.6455 2.13635 16.5937 2.1835C16.5418 2.23064 16.5004 2.28817 16.4722 2.35234C16.444 2.41651 16.4296 2.48589 16.43 2.55597V8.57597C16.4308 8.94925 16.3225 9.31462 16.1186 9.62726C15.9147 9.93989 15.6239 10.1862 15.2819 10.3359C14.94 10.4856 14.5618 10.5323 14.1938 10.4701C13.8257 10.408 13.4838 10.2397 13.21 9.98597L12.34 9.18597C12.2475 9.10023 12.1261 9.05258 12 9.05258C11.8739 9.05258 11.7525 9.10023 11.66 9.18597L10.79 9.98597C10.5163 10.2391 10.1747 10.407 9.80711 10.4691C9.4395 10.5313 9.06174 10.485 8.72 10.336C8.37847 10.1855 8.08798 9.93906 7.88383 9.62662C7.67969 9.31419 7.57066 8.94919 7.57 8.57597V2.55597C7.57035 2.48589 7.55596 2.41651 7.52777 2.35234C7.49958 2.28817 7.4582 2.23064 7.40634 2.1835C7.35448 2.13635 7.29329 2.10063 7.22673 2.07866C7.16017 2.05669 7.08974 2.04896 7.02 2.05597C4.22 2.40997 3 4.29997 3 6.99997V17C3 20 4.5 22 8 22H16C19.5 22 21 20 21 17V6.99997C21 4.29997 19.78 2.40997 16.98 2.05597ZM17.5 18.746H9C8.80109 18.746 8.61032 18.667 8.46967 18.5263C8.32902 18.3857 8.25 18.1949 8.25 17.996C8.25 17.7971 8.32902 17.6063 8.46967 17.4656C8.61032 17.325 8.80109 17.246 9 17.246H17.5C17.6989 17.246 17.8897 17.325 18.0303 17.4656C18.171 17.6063 18.25 17.7971 18.25 17.996C18.25 18.1949 18.171 18.3857 18.0303 18.5263C17.8897 18.667 17.6989 18.746 17.5 18.746ZM17.5 14.746H13.25C13.0511 14.746 12.8603 14.667 12.7197 14.5263C12.579 14.3857 12.5 14.1949 12.5 13.996C12.5 13.7971 12.579 13.6063 12.7197 13.4656C12.8603 13.325 13.0511 13.246 13.25 13.246H17.5C17.6989 13.246 17.8897 13.325 18.0303 13.4656C18.171 13.6063 18.25 13.7971 18.25 13.996C18.25 14.1949 18.171 14.3857 18.0303 14.5263C17.8897 14.667 17.6989 14.746 17.5 14.746Z" fill="white"/>
</svg>
