<svg xmlns="http://www.w3.org/2000/svg" width="24" height="24" viewBox="0 0 24 24" fill="none">
  <path d="M17.9199 8.17993H6.07995C5.86677 8.17995 5.6584 8.24324 5.48121 8.36177C5.30403 8.4803 5.166 8.64875 5.08462 8.84578C5.00324 9.04281 4.98216 9.25956 5.02405 9.46858C5.06594 9.67759 5.16892 9.86948 5.31995 10.0199L10.5009 15.1999C10.9004 15.5984 11.4417 15.8222 12.0059 15.8222C12.5702 15.8222 13.1115 15.5984 13.5109 15.1999L15.4809 13.2299L18.6909 10.0199C18.8402 9.8679 18.9413 9.67518 18.9814 9.46595C19.0216 9.25671 18.9991 9.04028 18.9168 8.84378C18.8344 8.64727 18.6959 8.47945 18.5186 8.36136C18.3412 8.24326 18.133 8.18015 17.9199 8.17993Z" fill="#5A5A5A"/>
</svg>