<svg xmlns="http://www.w3.org/2000/svg" width="24" height="24" viewBox="0 0 24 24" fill="none">
  <path d="M9.57 18.819C9.47147 18.8194 9.37387 18.8001 9.28287 18.7623C9.19187 18.7245 9.10931 18.669 9.04 18.599L2.971 12.529C2.83152 12.3879 2.7533 12.1974 2.7533 11.999C2.7533 11.8006 2.83152 11.6101 2.971 11.469L9.04 5.40001C9.18217 5.26753 9.37022 5.1954 9.56452 5.19883C9.75882 5.20226 9.94421 5.28097 10.0816 5.41839C10.219 5.5558 10.2977 5.74118 10.3012 5.93548C10.3046 6.12979 10.2325 6.31783 10.1 6.46001L4.56 12L10.1 17.54C10.2395 17.6811 10.3177 17.8716 10.3177 18.07C10.3177 18.2684 10.2395 18.4589 10.1 18.6C10.0312 18.6706 9.9487 18.7265 9.85757 18.7641C9.76644 18.8018 9.66859 18.8205 9.57 18.819Z" fill="#231F20"/>
  <path d="M18.344 12.75H3.57803C3.39214 12.7356 3.21924 12.6491 3.09629 12.509C2.97333 12.3689 2.91007 12.1862 2.92003 12C2.91007 11.8138 2.97333 11.6311 3.09629 11.491C3.21924 11.3509 3.39214 11.2644 3.57803 11.25H18.344C18.5299 11.2644 18.7028 11.3509 18.8258 11.491C18.9487 11.6311 19.012 11.8138 19.002 12C19.012 12.1862 18.9487 12.3689 18.8258 12.509C18.7028 12.6491 18.5299 12.7356 18.344 12.75Z" fill="#231F20"/>
</svg>