<svg xmlns="http://www.w3.org/2000/svg" width="24" height="24" viewBox="0 0 24 24" fill="none">
  <path d="M5.93144 13.68C6.02997 13.6796 6.12757 13.6989 6.21857 13.7367C6.30957 13.7745 6.39213 13.83 6.46144 13.9L12.0014 19.44L17.5414 13.9C17.6836 13.7675 17.8717 13.6954 18.066 13.6988C18.2603 13.7023 18.4457 13.781 18.5831 13.9184C18.7205 14.0558 18.7992 14.2412 18.8026 14.4355C18.806 14.6298 18.7339 14.8178 18.6014 14.96L12.5304 21.029C12.3893 21.1685 12.1989 21.2467 12.0004 21.2467C11.802 21.2467 11.6116 21.1685 11.4704 21.029L5.40044 14.959C5.26096 14.8179 5.18274 14.6274 5.18274 14.429C5.18274 14.2306 5.26096 14.0401 5.40044 13.899C5.46937 13.8283 5.55202 13.7723 5.64333 13.7347C5.73464 13.697 5.83268 13.6784 5.93144 13.68Z" fill="#158B7F"/>
  <path d="M12 2.75002C12.1985 2.75133 12.3885 2.83076 12.5289 2.97113C12.6693 3.1115 12.7487 3.30151 12.75 3.50002L12.75 20.33C12.7487 20.5285 12.6693 20.7185 12.5289 20.8589C12.3885 20.9993 12.1985 21.0787 12 21.08C11.8015 21.0787 11.6115 20.9993 11.4711 20.8589C11.3307 20.7185 11.2513 20.5285 11.25 20.33L11.25 3.50002C11.2513 3.30151 11.3308 3.1115 11.4711 2.97113C11.6115 2.83076 11.8015 2.75133 12 2.75002Z" fill="#158B7F"/>
</svg>