<svg xmlns="http://www.w3.org/2000/svg" width="24" height="24" viewBox="0 0 24 24" fill="none">
  <path d="M3.32934 8.90993C3.32899 8.81141 3.34826 8.7138 3.38603 8.6228C3.4238 8.53181 3.47932 8.44924 3.54934 8.37993C3.69048 8.24045 3.88091 8.16223 4.07934 8.16223C4.27777 8.16223 4.4682 8.24045 4.60934 8.37993L11.1293 14.8999C11.3602 15.1305 11.6731 15.26 11.9993 15.26C12.3256 15.26 12.6385 15.1305 12.8693 14.8999L19.3883 8.38093C19.5309 8.25103 19.7179 8.18102 19.9107 8.18544C20.1035 8.18986 20.2872 8.26837 20.4236 8.40466C20.5601 8.54096 20.6387 8.72456 20.6433 8.91735C20.6479 9.11014 20.5781 9.29729 20.4483 9.43993L13.9293 15.9629C13.6761 16.2167 13.3753 16.418 13.0441 16.5553C12.7129 16.6926 12.3579 16.7632 11.9993 16.7629C11.6405 16.7654 11.2848 16.6959 10.9533 16.5585C10.6218 16.4211 10.3212 16.2186 10.0693 15.9629L3.54934 9.44293C3.41113 9.29955 3.3325 9.10905 3.32934 8.90993Z" fill="#838383"/>
</svg>