<svg xmlns="http://www.w3.org/2000/svg" width="24" height="24" viewBox="0 0 24 24" fill="none">
  <path d="M3.32952 8.90993C3.32917 8.81141 3.34844 8.7138 3.38621 8.6228C3.42398 8.53181 3.4795 8.44924 3.54952 8.37993C3.69066 8.24045 3.88109 8.16223 4.07952 8.16223C4.27795 8.16223 4.46839 8.24045 4.60952 8.37993L11.1295 14.8999C11.3603 15.1305 11.6733 15.26 11.9995 15.26C12.3258 15.26 12.6387 15.1305 12.8695 14.8999L19.3885 8.38093C19.531 8.25103 19.7181 8.18102 19.9109 8.18544C20.1037 8.18986 20.2874 8.26837 20.4238 8.40466C20.5602 8.54096 20.6389 8.72456 20.6435 8.91735C20.6481 9.11014 20.5783 9.29729 20.4485 9.43993L13.9295 15.9629C13.6763 16.2167 13.3755 16.418 13.0443 16.5553C12.7131 16.6926 12.358 16.7632 11.9995 16.7629C11.6407 16.7654 11.285 16.6959 10.9535 16.5585C10.6219 16.4211 10.3214 16.2186 10.0695 15.9629L3.54952 9.44293C3.41131 9.29955 3.33269 9.10905 3.32952 8.90993Z" fill="#838383"/>
</svg>