<svg xmlns="http://www.w3.org/2000/svg" width="24" height="24" viewBox="0 0 24 24" fill="none">
  <path d="M18.0686 10.32C17.97 10.3204 17.8724 10.3011 17.7814 10.2633C17.6904 10.2255 17.6079 10.17 17.5386 10.1L11.9986 4.56L6.45856 10.1C6.31638 10.2325 6.12834 10.3046 5.93403 10.3012C5.73973 10.2977 5.55435 10.219 5.41694 10.0816C5.27952 9.94421 5.20081 9.75882 5.19738 9.56452C5.19395 9.37022 5.26608 9.18217 5.39856 9.04L11.4696 2.971C11.6107 2.83152 11.8011 2.7533 11.9996 2.7533C12.198 2.7533 12.3884 2.83152 12.5296 2.971L18.5996 9.041C18.739 9.18214 18.8173 9.37257 18.8173 9.571C18.8173 9.76943 18.739 9.95986 18.5996 10.101C18.5306 10.1717 18.448 10.2277 18.3567 10.2653C18.2654 10.303 18.1673 10.3216 18.0686 10.32Z" fill="#EA5148"/>
  <path d="M12 21.25C11.8015 21.2487 11.6115 21.1692 11.4711 21.0289C11.3307 20.8885 11.2513 20.6985 11.25 20.5V3.66998C11.2513 3.47148 11.3307 3.28147 11.4711 3.1411C11.6115 3.00073 11.8015 2.92129 12 2.91998C12.1985 2.92129 12.3885 3.00073 12.5289 3.1411C12.6693 3.28147 12.7487 3.47148 12.75 3.66998V20.5C12.7487 20.6985 12.6693 20.8885 12.5289 21.0289C12.3885 21.1692 12.1985 21.2487 12 21.25Z" fill="#EA5148"/>
</svg>