<svg xmlns="http://www.w3.org/2000/svg" width="26" height="26" viewBox="0 0 26 26" fill="none">
  <path d="M16.4668 11.3641L14.3327 9.22996L10.8552 5.75246C10.6905 5.59083 10.4819 5.48138 10.2553 5.43783C10.0287 5.39427 9.79434 5.41855 9.58151 5.50761C9.36868 5.59668 9.18686 5.74657 9.05884 5.93851C8.93082 6.13046 8.8623 6.35591 8.86185 6.58663L8.86184 19.4133C8.86187 19.6442 8.93042 19.87 9.05883 20.0619C9.18724 20.2539 9.36973 20.4034 9.58318 20.4916C9.79662 20.5797 10.0314 20.6026 10.2579 20.5572C10.4843 20.5118 10.6922 20.4002 10.8552 20.2366L16.4668 14.6228C16.8979 14.1901 17.1399 13.6042 17.1399 12.9935C17.1399 12.3827 16.8979 11.7968 16.4668 11.3641Z" fill="#5A5A5A"/>
</svg>