<svg width="35" height="35" viewBox="0 0 35 35" fill="none" xmlns="http://www.w3.org/2000/svg">
<rect opacity="0.1" width="35" height="35" rx="4" fill="#158B7F"/>
<path d="M14.0004 28.32C13.7107 28.3192 13.4257 28.2471 13.1704 28.11C12.8918 27.961 12.6589 27.7389 12.4968 27.4676C12.3348 27.1963 12.2496 26.886 12.2504 26.57V25.15C10.8327 25.0493 9.51201 24.393 8.57567 23.3237C7.63933 22.2544 7.16305 20.8586 7.25045 19.44V13.44C7.20583 12.6732 7.32399 11.9057 7.59717 11.1878C7.87036 10.47 8.29237 9.81811 8.83547 9.275C9.37857 8.7319 10.0305 8.30989 10.7483 8.03671C11.4661 7.76353 12.2337 7.64536 13.0004 7.68998H23.0004C23.7672 7.64536 24.5347 7.76353 25.2526 8.03671C25.9704 8.30989 26.6223 8.7319 27.1654 9.275C27.7085 9.81811 28.1305 10.47 28.4037 11.1878C28.6769 11.9057 28.7951 12.6732 28.7504 13.44V19.44C28.7951 20.2067 28.6769 20.9743 28.4037 21.6921C28.1305 22.41 27.7085 23.0618 27.1654 23.605C26.6223 24.1481 25.9704 24.5701 25.2526 24.8432C24.5347 25.1164 23.7672 25.2346 23.0004 25.19H19.2304L14.9704 28.03C14.6821 28.2187 14.3451 28.3194 14.0004 28.32ZM13.0004 9.17998C12.4322 9.14058 11.8621 9.2235 11.3286 9.42315C10.7951 9.6228 10.3106 9.93453 9.90779 10.3373C9.505 10.7401 9.19327 11.2246 8.99362 11.7581C8.79397 12.2916 8.71105 12.8617 8.75045 13.43V19.43C8.71105 19.9982 8.79397 20.5684 8.99362 21.1019C9.19327 21.6354 9.505 22.1198 9.90779 22.5226C10.3106 22.9254 10.7951 23.2372 11.3286 23.4368C11.8621 23.6365 12.4322 23.7194 13.0004 23.68C13.199 23.6813 13.389 23.7607 13.5293 23.9011C13.6697 24.0415 13.7491 24.2315 13.7504 24.43V26.56C13.7506 26.6053 13.763 26.6498 13.7863 26.6887C13.8096 26.7276 13.843 26.7595 13.883 26.781C13.9229 26.8025 13.9679 26.8128 14.0132 26.8109C14.0585 26.809 14.1025 26.7948 14.1404 26.77L18.5904 23.81C18.7149 23.7268 18.8608 23.6816 19.0104 23.68H23.0104C23.5787 23.7194 24.1488 23.6365 24.6823 23.4368C25.2158 23.2372 25.7003 22.9254 26.1031 22.5226C26.5059 22.1198 26.8176 21.6354 27.0173 21.1019C27.2169 20.5684 27.2998 19.9982 27.2604 19.43V13.43C27.2998 12.8617 27.2169 12.2916 27.0173 11.7581C26.8176 11.2246 26.5059 10.7401 26.1031 10.3373C25.7003 9.93453 25.2158 9.6228 24.6823 9.42315C24.1488 9.2235 23.5787 9.14058 23.0104 9.17998H13.0004Z" fill="#158B7F"/>
<path d="M17.9998 18.11C17.8013 18.1087 17.6113 18.0292 17.471 17.8889C17.3306 17.7485 17.2512 17.5585 17.2498 17.36V17.15C17.2617 16.752 17.3756 16.3637 17.5804 16.0223C17.7853 15.6809 18.0743 15.3978 18.4198 15.2C18.7898 14.95 18.9098 14.78 18.9098 14.52C18.9098 14.4005 18.8863 14.2821 18.8406 14.1717C18.7948 14.0613 18.7278 13.961 18.6433 13.8765C18.5588 13.792 18.4585 13.725 18.3481 13.6793C18.2377 13.6335 18.1193 13.61 17.9998 13.61C17.8803 13.61 17.762 13.6335 17.6516 13.6793C17.5412 13.725 17.4409 13.792 17.3564 13.8765C17.2719 13.961 17.2048 14.0613 17.1591 14.1717C17.1134 14.2821 17.0898 14.4005 17.0898 14.52C17.0885 14.7185 17.0091 14.9085 16.8687 15.0489C16.7284 15.1892 16.5384 15.2687 16.3398 15.27C16.1413 15.2687 15.9513 15.1892 15.811 15.0489C15.6706 14.9085 15.5912 14.7185 15.5898 14.52C15.5898 13.8808 15.8438 13.2678 16.2957 12.8159C16.7477 12.3639 17.3607 12.11 17.9998 12.11C18.639 12.11 19.252 12.3639 19.704 12.8159C20.1559 13.2678 20.4098 13.8808 20.4098 14.52C20.3981 14.9116 20.2862 15.2936 20.0849 15.6297C19.8836 15.9658 19.5995 16.2448 19.2598 16.44C18.8698 16.7 18.7498 16.87 18.7498 17.15V17.36C18.75 17.4585 18.7307 17.5561 18.693 17.6472C18.6554 17.7382 18.6001 17.8209 18.5305 17.8906C18.4608 17.9603 18.3781 18.0155 18.287 18.0532C18.196 18.0908 18.0984 18.1101 17.9998 18.11Z" fill="#158B7F"/>
<path d="M18 20.6C17.8517 20.6 17.7067 20.556 17.5833 20.4736C17.46 20.3912 17.3639 20.274 17.3071 20.137C17.2503 19.9999 17.2355 19.8491 17.2644 19.7037C17.2934 19.5582 17.3648 19.4245 17.4697 19.3196C17.5746 19.2148 17.7082 19.1433 17.8537 19.1144C17.9992 19.0854 18.15 19.1003 18.287 19.1571C18.4241 19.2138 18.5412 19.31 18.6236 19.4333C18.706 19.5566 18.75 19.7016 18.75 19.85C18.7501 19.9485 18.7308 20.0461 18.6932 20.1371C18.6555 20.2282 18.6003 20.3109 18.5306 20.3806C18.461 20.4503 18.3782 20.5055 18.2872 20.5432C18.1961 20.5808 18.0985 20.6001 18 20.6Z" fill="#158B7F"/>
</svg>
