<svg xmlns="http://www.w3.org/2000/svg" width="30" height="30" viewBox="0 0 30 30" fill="none">
  <path d="M14.9992 28.4339C14.2712 28.4424 13.553 28.2661 12.9117 27.9214L6.99922 24.5089C4.54922 22.8626 4.38672 22.5589 4.38672 19.9751V13.7751C4.38672 11.1876 4.54922 10.8876 6.94922 9.27512L12.9242 5.82512C13.5657 5.48654 14.2801 5.30957 15.0055 5.30957C15.7308 5.30957 16.4452 5.48654 17.0867 5.82512L22.9992 9.23762C25.4492 10.8876 25.6117 11.1876 25.6117 13.7751V19.9751C25.6117 22.5626 25.4492 22.8626 23.0492 24.4751L17.0742 27.9251C16.4392 28.274 15.7236 28.4495 14.9992 28.4339ZM14.9992 7.18387C14.5999 7.17327 14.2044 7.26355 13.8492 7.44637L7.93672 10.8614C6.26172 11.9989 6.26172 11.9989 6.26172 13.7739V19.9739C6.26172 21.7489 6.26172 21.7489 7.99922 22.9239L13.8617 26.2989C14.2183 26.4715 14.6093 26.5611 15.0055 26.5611C15.4016 26.5611 15.7926 26.4715 16.1492 26.2989L22.0617 22.8864C23.7367 21.7489 23.7367 21.7489 23.7367 19.9739V13.7751C23.7367 12.0001 23.7367 12.0001 21.9992 10.8251L16.1367 7.45012C15.787 7.2643 15.3951 7.17255 14.9992 7.18387Z" fill="#313131"/>
  <path d="M21.8751 10.4751C21.627 10.4735 21.3895 10.3742 21.214 10.1988C21.0386 10.0233 20.9393 9.78578 20.9376 9.53765V6.25015C20.9376 4.27515 20.1001 3.43765 18.1251 3.43765H11.8751C9.90015 3.43765 9.06265 4.27515 9.06265 6.25015V9.45015C9.06265 9.69879 8.96388 9.93725 8.78806 10.1131C8.61225 10.2889 8.37379 10.3876 8.12515 10.3876C7.87651 10.3876 7.63805 10.2889 7.46224 10.1131C7.28642 9.93725 7.18765 9.69879 7.18765 9.45015V6.25015C7.11375 5.61672 7.18416 4.97479 7.3936 4.37244C7.60304 3.7701 7.94608 3.22296 8.39702 2.77202C8.84796 2.32108 9.3951 1.97804 9.99744 1.7686C10.5998 1.55916 11.2417 1.48875 11.8751 1.56265H18.1251C18.7586 1.48875 19.4005 1.55916 20.0029 1.7686C20.6052 1.97804 21.1523 2.32108 21.6033 2.77202C22.0542 3.22296 22.3973 3.7701 22.6067 4.37244C22.8161 4.97479 22.8865 5.61672 22.8126 6.25015V9.53765C22.811 9.78578 22.7117 10.0233 22.5363 10.1988C22.3608 10.3742 22.1233 10.4735 21.8751 10.4751Z" fill="#313131"/>
  <path d="M17.0378 22.0372C16.759 22.0365 16.483 21.9813 16.2253 21.8747L15.0003 21.3997L13.7753 21.8872C13.4805 22.0187 13.157 22.0727 12.8355 22.0443C12.514 22.0159 12.205 21.9059 11.9378 21.7247C11.6835 21.5254 11.4837 21.265 11.357 20.9678C11.2302 20.6706 11.1806 20.3462 11.2128 20.0247L11.2878 18.7122L10.4503 17.6997C10.2345 17.4569 10.0845 17.1628 10.0145 16.8455C9.94444 16.5283 9.95679 16.1984 10.0503 15.8872C10.1586 15.5833 10.343 15.3123 10.5859 15.1C10.8289 14.8877 11.1222 14.7413 11.4378 14.6747L12.7128 14.3497L13.4253 13.2372C13.5881 12.9629 13.8195 12.7356 14.0968 12.5778C14.374 12.4199 14.6875 12.3369 15.0066 12.3369C15.3256 12.3369 15.6391 12.4199 15.9164 12.5778C16.1936 12.7356 16.425 12.9629 16.5878 13.2372L17.3003 14.3497L18.5753 14.6747C18.891 14.7413 19.1843 14.8877 19.4272 15.1C19.6701 15.3123 19.8545 15.5833 19.9628 15.8872C20.0509 16.1978 20.0593 16.5255 19.9872 16.8401C19.9151 17.1547 19.7648 17.4461 19.5503 17.6872L18.7128 18.6997L18.7878 20.0122C18.8187 20.3336 18.7685 20.6576 18.6419 20.9546C18.5152 21.2516 18.3161 21.5121 18.0628 21.7122C17.7637 21.9255 17.4051 22.0392 17.0378 22.0372ZM11.9003 16.4997L12.7378 17.5122C13.0307 17.8855 13.1813 18.3507 13.1628 18.8247L13.0878 20.1372L14.3128 19.6497C14.7567 19.4872 15.2439 19.4872 15.6878 19.6497L16.9128 20.1372L16.8378 18.8247C16.8208 18.3509 16.9713 17.8862 17.2628 17.5122L18.1003 16.4997L16.8253 16.1747C16.3741 16.0427 15.9816 15.7605 15.7128 15.3747L15.0128 14.2747L14.3003 15.3747C14.0361 15.7675 13.6423 16.055 13.1878 16.1872L11.9003 16.4997Z" fill="#313131"/>
</svg>