<svg xmlns="http://www.w3.org/2000/svg" width="24" height="24" viewBox="0 0 24 24" fill="none">
  <path d="M17.8098 5.49004V6.23004L14.2698 4.18004C13.5732 3.80107 12.7928 3.60253 11.9998 3.60253C11.2068 3.60253 10.4264 3.80107 9.72981 4.18004L6.18981 6.24004V5.49004C6.13399 5.01915 6.1855 4.54173 6.3405 4.09358C6.49549 3.64544 6.74994 3.2382 7.08476 2.90241C7.41959 2.56663 7.82609 2.31101 8.27379 2.15473C8.72149 1.99845 9.19876 1.94557 9.66981 2.00004H14.3298C14.8009 1.94557 15.2781 1.99845 15.7258 2.15473C16.1735 2.31101 16.58 2.56663 16.9149 2.90241C17.2497 3.2382 17.5041 3.64544 17.6591 4.09358C17.8141 4.54173 17.8656 5.01915 17.8098 5.49004Z" fill="white"/>
  <path d="M17.84 7.96999L17.7 7.89999L16.34 7.11999L13.52 5.48999C13.0512 5.24368 12.5296 5.11499 12 5.11499C11.4704 5.11499 10.9488 5.24368 10.48 5.48999L7.66 7.11499L6.3 7.91499L6.12 8.00499C4.37 9.17999 4.25 9.39999 4.25 11.29V15.815C4.25 17.705 4.37 17.925 6.16 19.135L10.48 21.625C10.9442 21.8827 11.4693 22.0105 12 21.995C12.5301 22.0044 13.0536 21.877 13.52 21.625L17.88 19.105C19.64 17.925 19.75 17.715 19.75 15.815V11.29C19.75 9.39999 19.63 9.17999 17.84 7.96999ZM14.79 13.5L14.18 14.25C14.0729 14.3829 14.0163 14.5494 14.02 14.72L14.08 15.68C14.1055 15.7991 14.096 15.9231 14.0526 16.0369C14.0092 16.1507 13.9338 16.2495 13.8354 16.3214C13.7371 16.3934 13.62 16.4353 13.4984 16.4421C13.3768 16.4489 13.2558 16.4204 13.15 16.36L12.26 16C12.0937 15.95 11.9163 15.95 11.75 16L10.86 16.35C10.7543 16.4114 10.6331 16.4406 10.511 16.4342C10.389 16.4278 10.2715 16.3859 10.1728 16.3138C10.0742 16.2417 9.99871 16.1424 9.95558 16.0281C9.91245 15.9137 9.90356 15.7893 9.93 15.67L9.99 14.71C9.99373 14.5394 9.93706 14.3729 9.83 14.24L9.21 13.5C9.11982 13.4176 9.05533 13.3109 9.02428 13.1927C8.99322 13.0745 8.99692 12.9499 9.03492 12.8338C9.07293 12.7177 9.14362 12.615 9.23853 12.538C9.33344 12.4611 9.44853 12.4132 9.57 12.4L10.5 12.16C10.6618 12.1049 10.8018 11.9999 10.9 11.86L11.42 11.06C11.4703 10.9483 11.5518 10.8534 11.6547 10.7869C11.7575 10.7203 11.8775 10.6849 12 10.6849C12.1225 10.6849 12.2425 10.7203 12.3453 10.7869C12.4482 10.8534 12.5297 10.9483 12.58 11.06L13.1 11.86C13.1974 12.0006 13.3378 12.1058 13.5 12.16L14.43 12.4C14.5515 12.4132 14.6666 12.4611 14.7615 12.538C14.8564 12.615 14.9271 12.7177 14.9651 12.8338C15.0031 12.9499 15.0068 13.0745 14.9757 13.1927C14.9447 13.3109 14.8802 13.4176 14.79 13.5Z" fill="white"/>
</svg>