<svg xmlns="http://www.w3.org/2000/svg" width="45" height="37" viewBox="0 0 45 37" fill="none">
  <path d="M16.875 13.875C16.875 14.7897 16.6001 15.6839 16.085 16.4445C15.5699 17.2051 14.8379 17.7979 13.9813 18.1479C13.1248 18.498 12.1823 18.5896 11.273 18.4111C10.3637 18.2327 9.5285 17.7922 8.87294 17.1454C8.21738 16.4986 7.77094 15.6745 7.59007 14.7773C7.4092 13.8801 7.50203 12.9502 7.85681 12.1051C8.2116 11.26 8.81241 10.5377 9.58326 10.0295C10.3541 9.52125 11.2604 9.25 12.1875 9.25C13.4307 9.25 14.623 9.73728 15.5021 10.6046C16.3811 11.472 16.875 12.6484 16.875 13.875ZM45 18.5V14.8C45 12.8374 44.2098 10.9552 42.8033 9.56741C41.3968 8.17964 39.4891 7.4 37.5 7.4H28.125C26.1359 7.4 24.2282 8.17964 22.8217 9.56741C21.4152 10.9552 20.625 12.8374 20.625 14.8V18.5H45ZM3.75 22.2V1.85C3.75 1.35935 3.55246 0.888795 3.20083 0.541852C2.84919 0.19491 2.37228 0 1.875 0C1.37772 0 0.900806 0.19491 0.549175 0.541852C0.197544 0.888795 0 1.35935 0 1.85L0 35.15C0 35.6407 0.197544 36.1112 0.549175 36.4581C0.900806 36.8051 1.37772 37 1.875 37C2.37228 37 2.84919 36.8051 3.20083 36.4581C3.55246 36.1112 3.75 35.6407 3.75 35.15V31.45H41.25V35.15C41.25 35.6407 41.4475 36.1112 41.7992 36.4581C42.1508 36.8051 42.6277 37 43.125 37C43.6223 37 44.0992 36.8051 44.4508 36.4581C44.8025 36.1112 45 35.6407 45 35.15V22.2H3.75Z" fill="#5A5A5A"/>
</svg>