<svg xmlns="http://www.w3.org/2000/svg" width="24" height="24" viewBox="0 0 24 24" fill="none">
  <path d="M16.5 8.62995C16.3015 8.62864 16.1115 8.5492 15.9711 8.40883C15.8307 8.26846 15.7513 8.07846 15.75 7.87995V6.49995C15.7486 5.97667 15.6385 5.45939 15.4268 4.98085C15.2151 4.50232 14.9063 4.07295 14.52 3.71995C14.1327 3.36641 13.675 3.09895 13.1768 2.9352C12.6787 2.77145 12.1515 2.71513 11.63 2.76995C10.6954 2.92521 9.84506 3.40373 9.22731 4.122C8.60956 4.84027 8.26367 5.75267 8.25 6.69995V7.66995C8.24869 7.86846 8.16925 8.05846 8.02888 8.19883C7.88851 8.3392 7.69851 8.41864 7.5 8.41995C7.30149 8.41864 7.11149 8.3392 6.97112 8.19883C6.83075 8.05846 6.75131 7.86846 6.75 7.66995V6.68995C6.76558 5.37018 7.2515 4.09926 8.12037 3.10574C8.98925 2.11221 10.1841 1.46127 11.49 1.26995C12.2199 1.19499 12.9573 1.27567 13.6537 1.50665C14.3501 1.73763 14.9896 2.11367 15.53 2.60995C16.0712 3.10326 16.5037 3.70395 16.7999 4.37372C17.096 5.04349 17.2493 5.76763 17.25 6.49995V7.87995C17.2487 8.07846 17.1693 8.26846 17.0289 8.40883C16.8885 8.5492 16.6985 8.62864 16.5 8.62995Z" fill="#5A5A5A"/>
  <path d="M14.996 22.75H8.99601C4.37601 22.75 3.51601 20.6 3.29601 18.51L2.55001 12.52C2.42337 11.8606 2.43811 11.1817 2.59325 10.5284C2.7484 9.87508 3.04041 9.26211 3.45001 8.73C4.35001 7.73 5.84001 7.25 7.99601 7.25H15.996C18.166 7.25 19.656 7.74 20.546 8.73C20.9523 9.25999 21.2424 9.86961 21.3975 10.5192C21.5525 11.1687 21.5691 11.8436 21.446 12.5L20.696 18.51C20.48 20.6 19.62 22.75 14.996 22.75ZM7.99601 8.75C6.30601 8.75 5.14601 9.08 4.55601 9.74C4.28925 10.1133 4.10494 10.5391 4.01528 10.9891C3.92563 11.4391 3.9327 11.903 4.03601 12.35L4.78601 18.34C4.95601 19.94 5.39601 21.26 8.99601 21.26H14.996C18.596 21.26 19.036 19.95 19.206 18.36L19.956 12.35C20.0575 11.9045 20.0636 11.4425 19.974 10.9944C19.8843 10.5463 19.701 10.1223 19.436 9.75C18.846 9.08 17.686 8.75 15.996 8.75H7.99601Z" fill="#5A5A5A"/>
  <path d="M15.4202 13.15C15.222 13.152 15.0276 13.095 14.8619 12.9863C14.6961 12.8777 14.5664 12.7222 14.4892 12.5396C14.412 12.3571 14.3907 12.1557 14.4282 11.9611C14.4656 11.7665 14.5601 11.5873 14.6995 11.4465C14.839 11.3056 15.0171 11.2094 15.2114 11.17C15.4056 11.1306 15.6072 11.1498 15.7905 11.2252C15.9738 11.3006 16.1306 11.4287 16.2409 11.5934C16.3512 11.758 16.4101 11.9518 16.4102 12.15C16.4109 12.2807 16.386 12.4103 16.3366 12.5313C16.2873 12.6523 16.2145 12.7624 16.1226 12.8553C16.0306 12.9482 15.9212 13.022 15.8007 13.0726C15.6802 13.1232 15.5509 13.1495 15.4202 13.15Z" fill="#5A5A5A"/>
  <path d="M8.42016 13.15C8.22196 13.152 8.02765 13.095 7.86189 12.9863C7.69613 12.8777 7.5664 12.7222 7.48918 12.5396C7.41195 12.3571 7.39072 12.1557 7.42817 11.9611C7.46562 11.7665 7.56006 11.5873 7.69951 11.4465C7.83895 11.3056 8.01711 11.2094 8.21136 11.17C8.40561 11.1306 8.60719 11.1498 8.79049 11.2252C8.9738 11.3006 9.13058 11.4287 9.24091 11.5934C9.35124 11.758 9.41015 11.9518 9.41016 12.15C9.41095 12.2807 9.38595 12.4103 9.3366 12.5313C9.28725 12.6523 9.21452 12.7624 9.12256 12.8553C9.03061 12.9482 8.92123 13.022 8.80071 13.0726C8.68018 13.1232 8.55086 13.1495 8.42016 13.15Z" fill="#5A5A5A"/>
</svg>