<svg xmlns="http://www.w3.org/2000/svg" width="32" height="32" viewBox="0 0 32 32" fill="none">
  <path d="M25.7868 19.32L24.4535 17.1067C24.1404 16.4932 23.9588 15.8211 23.9201 15.1334V11.76C23.9187 10.2721 23.4959 8.8149 22.7007 7.55722C21.9055 6.29953 20.7704 5.29275 19.4268 4.65338C19.0839 4.04451 18.5837 3.53891 17.9786 3.18943C17.3735 2.83995 16.6856 2.65943 15.9868 2.66672C15.2828 2.66593 14.5913 2.85343 13.9842 3.20977C13.377 3.56612 12.8761 4.07835 12.5335 4.69338C11.2153 5.34533 10.1051 6.35212 9.32778 7.60052C8.55047 8.84893 8.13687 10.2894 8.13348 11.76V15.1334C8.0965 15.8171 7.91472 16.4852 7.60015 17.0934L6.25348 19.32C5.98516 19.7285 5.81665 20.1942 5.76156 20.6798C5.70648 21.1653 5.76636 21.657 5.93637 22.1152C6.10639 22.5733 6.38177 22.985 6.74027 23.3171C7.09878 23.6491 7.53036 23.8922 8.00015 24.0267C10.5862 24.8986 13.2978 25.34 16.0268 25.3334C18.7546 25.3379 21.4652 24.9012 24.0535 24.0401C24.512 23.8877 24.9302 23.6339 25.2771 23.2976C25.624 22.9613 25.8907 22.5512 26.0572 22.0976C26.2238 21.6441 26.286 21.1588 26.2391 20.678C26.1923 20.1971 26.0377 19.7329 25.7868 19.32Z" fill="#5A5A5A"/>
  <path d="M19.7736 26.6801C19.4932 27.4563 18.9806 28.1273 18.3055 28.6021C17.6304 29.0768 16.8255 29.3321 16.0002 29.3334C15.4738 29.3338 14.9526 29.229 14.4672 29.0252C13.9818 28.8215 13.542 28.5228 13.1736 28.1467C12.748 27.7356 12.4279 27.2279 12.2402 26.6667C12.4136 26.6934 12.5869 26.7067 12.7736 26.7334C13.0802 26.7734 13.4002 26.8134 13.7202 26.8401C14.4802 26.9067 15.2536 26.9467 16.0269 26.9467C16.8002 26.9467 17.5469 26.9067 18.2936 26.8401C18.5736 26.8134 18.8536 26.8001 19.1202 26.7601L19.7736 26.6801Z" fill="#5A5A5A"/>
</svg>