<svg xmlns="http://www.w3.org/2000/svg" width="24" height="24" viewBox="0 0 24 24" fill="none">
  <path d="M12.0002 22.08C11.7036 22.083 11.4112 22.0107 11.1502 21.87C8.87784 20.7179 6.44324 19.9188 3.93017 19.5L3.64017 19.46C2.98565 19.3598 2.38734 19.0323 1.95028 18.5349C1.51322 18.0375 1.26535 17.402 1.25017 16.74V4.66004C1.24592 4.2796 1.32176 3.90251 1.47277 3.5533C1.62378 3.20408 1.84659 2.89055 2.1267 2.63308C2.40681 2.3756 2.73796 2.17994 3.09863 2.05882C3.45931 1.9377 3.84143 1.89382 4.22017 1.93004C6.8277 2.23536 9.34562 3.069 11.6202 4.38004L11.8602 4.52004C11.949 4.55804 12.0488 4.5616 12.1402 4.53004L12.3002 4.43004C14.5792 3.11376 17.0987 2.26712 19.7102 1.94004H19.8302C20.201 1.90857 20.5743 1.95552 20.9258 2.07785C21.2772 2.20017 21.599 2.39513 21.8702 2.65004C22.1515 2.90735 22.3754 3.2212 22.527 3.57103C22.6787 3.92086 22.7547 4.29878 22.7502 4.68004V16.75C22.7362 17.414 22.4874 18.0514 22.0481 18.5494C21.6087 19.0473 21.0072 19.3735 20.3502 19.47L20.0202 19.51C17.5163 19.9274 15.0914 20.7267 12.8302 21.88C12.5759 22.0186 12.2896 22.0876 12.0002 22.08ZM3.98017 3.41804C3.6697 3.41421 3.3694 3.52861 3.14017 3.73804C3.01475 3.85583 2.91529 3.9985 2.84814 4.15691C2.78099 4.31532 2.74762 4.486 2.75017 4.65804V16.738C2.7637 17.0363 2.87781 17.3212 3.07392 17.5464C3.27002 17.7715 3.53657 17.9237 3.83017 17.978L4.13017 18.018C6.8106 18.4594 9.40746 19.3092 11.8302 20.538C11.9149 20.5757 12.0092 20.5862 12.1002 20.568C14.5278 19.3193 17.1361 18.4589 19.8302 18.018L20.1702 17.978C20.4642 17.9253 20.7314 17.7739 20.9277 17.5488C21.1241 17.3238 21.2378 17.0385 21.2502 16.74V4.67004C21.2528 4.49652 21.2195 4.32433 21.1524 4.16429C21.0852 4.00424 20.9858 3.85981 20.8602 3.74004C20.7295 3.62552 20.5773 3.53823 20.4124 3.48328C20.2476 3.42834 20.0734 3.40683 19.9002 3.42004H19.7802C17.4326 3.73314 15.1677 4.49716 13.1102 5.67004L12.9502 5.78004C12.6687 5.94609 12.3483 6.03451 12.0215 6.03627C11.6948 6.03802 11.3734 5.95306 11.0902 5.79004L10.8502 5.65004C8.76653 4.47461 6.4738 3.71648 4.10017 3.41804H3.98017Z" fill="#5A5A5A"/>
  <path d="M12 21.24C11.8015 21.2387 11.6115 21.1592 11.4711 21.0189C11.3307 20.8785 11.2513 20.6885 11.25 20.49V5.48999C11.2513 5.29148 11.3307 5.10148 11.4711 4.96111C11.6115 4.82074 11.8015 4.7413 12 4.73999C12.1985 4.7413 12.3885 4.82074 12.5289 4.96111C12.6693 5.10148 12.7487 5.29148 12.75 5.48999V20.49C12.7501 20.5885 12.7308 20.6861 12.6932 20.7772C12.6555 20.8682 12.6003 20.9509 12.5306 21.0206C12.461 21.0903 12.3782 21.1455 12.2872 21.1832C12.1961 21.2208 12.0985 21.2401 12 21.24Z" fill="#5A5A5A"/>
  <path d="M7.75 9.23999H5.5C5.30149 9.23868 5.11149 9.15924 4.97112 9.01887C4.83075 8.8785 4.75131 8.6885 4.75 8.48999C4.75131 8.29148 4.83075 8.10148 4.97112 7.96111C5.11149 7.82074 5.30149 7.7413 5.5 7.73999H7.75C7.94851 7.7413 8.13851 7.82074 8.27888 7.96111C8.41925 8.10148 8.49869 8.29148 8.5 8.48999C8.49869 8.6885 8.41925 8.8785 8.27888 9.01887C8.13851 9.15924 7.94851 9.23868 7.75 9.23999Z" fill="#5A5A5A"/>
  <path d="M8.5 12.24H5.5C5.30149 12.2387 5.11149 12.1592 4.97112 12.0189C4.83075 11.8785 4.75131 11.6885 4.75 11.49C4.75131 11.2915 4.83075 11.1015 4.97112 10.9611C5.11149 10.8207 5.30149 10.7413 5.5 10.74H8.5C8.69851 10.7413 8.88851 10.8207 9.02888 10.9611C9.16925 11.1015 9.24869 11.2915 9.25 11.49C9.24869 11.6885 9.16925 11.8785 9.02888 12.0189C8.88851 12.1592 8.69851 12.2387 8.5 12.24Z" fill="#5A5A5A"/>
</svg>