<svg xmlns="http://www.w3.org/2000/svg" width="30" height="30" viewBox="0 0 30 30" fill="none">
  <path d="M18.75 28.4375H11.25C4.4625 28.4375 1.5625 25.5375 1.5625 18.75V11.25C1.5625 4.4625 4.4625 1.5625 11.25 1.5625H18.75C25.5375 1.5625 28.4375 4.4625 28.4375 11.25V18.75C28.4375 25.5375 25.5375 28.4375 18.75 28.4375ZM11.25 3.4375C5.4875 3.4375 3.4375 5.4875 3.4375 11.25V18.75C3.4375 24.5125 5.4875 26.5625 11.25 26.5625H18.75C24.5125 26.5625 26.5625 24.5125 26.5625 18.75V11.25C26.5625 5.4875 24.5125 3.4375 18.75 3.4375H11.25Z" fill="#313131"/>
  <path d="M10.85 19.1623C10.3476 19.167 9.85255 19.0422 9.41251 18.7998C8.8731 18.4511 8.43905 17.9619 8.15711 17.3848C7.87517 16.8077 7.75602 16.1646 7.81251 15.5248V3.0498C7.81414 2.80167 7.91344 2.56416 8.0889 2.3887C8.26437 2.21324 8.50187 2.11394 8.75001 2.1123C8.99814 2.11394 9.23565 2.21324 9.41111 2.3887C9.58657 2.56416 9.68587 2.80167 9.68751 3.0498V15.5248C9.64582 15.8306 9.68375 16.142 9.79762 16.4289C9.91148 16.7157 10.0974 16.9683 10.3375 17.1623C10.6472 17.2707 10.9792 17.2989 11.3027 17.2442C11.6262 17.1896 11.9306 17.0539 12.1875 16.8498L13.8375 15.8623C14.191 15.6653 14.589 15.5618 14.9938 15.5618C15.3985 15.5618 15.7965 15.6653 16.15 15.8623L17.8 16.8498C18.0557 17.0562 18.3601 17.1934 18.6841 17.2481C19.0081 17.3029 19.3407 17.2733 19.65 17.1623C19.8878 16.9665 20.0722 16.7136 20.1859 16.4272C20.2995 16.1409 20.3388 15.8304 20.3 15.5248V3.0498C20.3 2.80116 20.3988 2.56271 20.5746 2.38689C20.7504 2.21108 20.9889 2.1123 21.2375 2.1123C21.4861 2.1123 21.7246 2.21108 21.9004 2.38689C22.0762 2.56271 22.175 2.80116 22.175 3.0498V15.5248C22.2315 16.1646 22.1123 16.8077 21.8304 17.3848C21.5485 17.9619 21.1144 18.4511 20.575 18.7998C19.9786 19.0822 19.3175 19.1998 18.6603 19.1404C18.003 19.0811 17.3737 18.847 16.8375 18.4623L15.1875 17.4748C15.0632 17.4248 14.9243 17.4248 14.8 17.4748L13.15 18.4623C12.4596 18.8968 11.6654 19.1385 10.85 19.1623Z" fill="#313131"/>
  <path d="M18.75 28.4375H11.25C4.4625 28.4375 1.5625 25.5375 1.5625 18.75V11.25C1.5625 4.4625 4.4625 1.5625 11.25 1.5625H18.75C25.5375 1.5625 28.4375 4.4625 28.4375 11.25V18.75C28.4375 25.5375 25.5375 28.4375 18.75 28.4375ZM11.25 3.4375C5.4875 3.4375 3.4375 5.4875 3.4375 11.25V18.75C3.4375 24.5125 5.4875 26.5625 11.25 26.5625H18.75C24.5125 26.5625 26.5625 24.5125 26.5625 18.75V11.25C26.5625 5.4875 24.5125 3.4375 18.75 3.4375H11.25Z" fill="#313131"/>
  <path d="M10.85 19.1623C10.3476 19.167 9.85255 19.0422 9.41251 18.7998C8.8731 18.4511 8.43905 17.9619 8.15711 17.3848C7.87517 16.8077 7.75602 16.1646 7.81251 15.5248V3.0498C7.81414 2.80167 7.91344 2.56416 8.0889 2.3887C8.26437 2.21324 8.50187 2.11394 8.75001 2.1123C8.99814 2.11394 9.23565 2.21324 9.41111 2.3887C9.58657 2.56416 9.68587 2.80167 9.68751 3.0498V15.5248C9.64582 15.8306 9.68375 16.142 9.79762 16.4289C9.91148 16.7157 10.0974 16.9683 10.3375 17.1623C10.6472 17.2707 10.9792 17.2989 11.3027 17.2442C11.6262 17.1896 11.9306 17.0539 12.1875 16.8498L13.8375 15.8623C14.191 15.6653 14.589 15.5618 14.9938 15.5618C15.3985 15.5618 15.7965 15.6653 16.15 15.8623L17.8 16.8498C18.0557 17.0562 18.3601 17.1934 18.6841 17.2481C19.0081 17.3029 19.3407 17.2733 19.65 17.1623C19.8878 16.9665 20.0722 16.7136 20.1859 16.4272C20.2995 16.1409 20.3388 15.8304 20.3 15.5248V3.0498C20.3 2.80116 20.3988 2.56271 20.5746 2.38689C20.7504 2.21108 20.9889 2.1123 21.2375 2.1123C21.4861 2.1123 21.7246 2.21108 21.9004 2.38689C22.0762 2.56271 22.175 2.80116 22.175 3.0498V15.5248C22.2315 16.1646 22.1123 16.8077 21.8304 17.3848C21.5485 17.9619 21.1144 18.4511 20.575 18.7998C19.9786 19.0822 19.3175 19.1998 18.6603 19.1404C18.003 19.0811 17.3737 18.847 16.8375 18.4623L15.1875 17.4748C15.0632 17.4248 14.9243 17.4248 14.8 17.4748L13.15 18.4623C12.4596 18.8968 11.6654 19.1385 10.85 19.1623Z" fill="#313131"/>
</svg>