<svg xmlns="http://www.w3.org/2000/svg" width="30" height="30" viewBox="0 0 30 30" fill="none">
  <path d="M15.0002 27.6001C14.6296 27.6038 14.264 27.5135 13.9377 27.3376C11.0973 25.8975 8.05404 24.8985 4.91271 24.3751L4.55021 24.3251C3.73206 24.1999 2.98418 23.7904 2.43785 23.1687C1.89153 22.5469 1.58168 21.7526 1.56271 20.9251V5.82511C1.5574 5.34956 1.6522 4.8782 1.84097 4.44169C2.02973 4.00517 2.30823 3.61325 2.65837 3.29141C3.00851 2.96956 3.42245 2.72499 3.87329 2.57359C4.32413 2.42219 4.80179 2.36734 5.27521 2.41261C8.53462 2.79426 11.682 3.83631 14.5252 5.47511L14.8252 5.65011C14.9363 5.69761 15.061 5.70206 15.1752 5.66261L15.3752 5.53761C18.224 3.89227 21.3734 2.83397 24.6377 2.42511H24.7877C25.2512 2.38577 25.7179 2.44446 26.1572 2.59737C26.5965 2.75028 26.9988 2.99398 27.3377 3.31261C27.6894 3.63425 27.9692 4.02656 28.1588 4.46385C28.3484 4.90114 28.4434 5.37354 28.4377 5.85011V20.9376C28.4202 21.7675 28.1093 22.5644 27.5601 23.1868C27.0109 23.8092 26.259 24.2169 25.4377 24.3376L25.0252 24.3876C21.8954 24.9093 18.8643 25.9085 16.0377 27.3501C15.7199 27.5233 15.362 27.6095 15.0002 27.6001ZM4.97521 4.27261C4.58713 4.26783 4.21175 4.41083 3.92521 4.67261C3.76844 4.81985 3.64412 4.99818 3.56017 5.1962C3.47623 5.39421 3.43452 5.60756 3.43771 5.82261V20.9226C3.45463 21.2955 3.59726 21.6516 3.84239 21.9331C4.08753 22.2145 4.42072 22.4047 4.78771 22.4726L5.16271 22.5226C8.51325 23.0743 11.7593 24.1366 14.7877 25.6726C14.8936 25.7197 15.0115 25.7328 15.1252 25.7101C18.1597 24.1492 21.4201 23.0737 24.7877 22.5226L25.2127 22.4726C25.5802 22.4067 25.9142 22.2174 26.1596 21.9361C26.4051 21.6548 26.5473 21.2981 26.5627 20.9251V5.83761C26.566 5.62071 26.5243 5.40547 26.4404 5.20542C26.3565 5.00537 26.2322 4.82482 26.0752 4.67511C25.9119 4.53196 25.7216 4.42285 25.5155 4.35417C25.3095 4.28548 25.0918 4.2586 24.8752 4.27511H24.7252C21.7908 4.66648 18.9596 5.62151 16.3877 7.08761L16.1877 7.22511C15.8359 7.43268 15.4354 7.5432 15.0269 7.54539C14.6184 7.54759 14.2167 7.44138 13.8627 7.23761L13.5627 7.06261C10.9582 5.59332 8.09225 4.64566 5.12521 4.27261H4.97521Z" fill="#313131"/>
  <path d="M15 26.55C14.7519 26.5484 14.5144 26.4491 14.3389 26.2737C14.1634 26.0982 14.0641 25.8607 14.0625 25.6125V6.86255C14.0641 6.61441 14.1634 6.37691 14.3389 6.20145C14.5144 6.02598 14.7519 5.92669 15 5.92505C15.2481 5.92669 15.4856 6.02598 15.6611 6.20145C15.8366 6.37691 15.9359 6.61441 15.9375 6.86255V25.6125C15.9377 25.7357 15.9135 25.8577 15.8665 25.9715C15.8194 26.0853 15.7504 26.1887 15.6633 26.2758C15.5762 26.3629 15.4728 26.432 15.359 26.479C15.2451 26.5261 15.1232 26.5502 15 26.55Z" fill="#313131"/>
  <path d="M9.6875 11.55H6.875C6.62687 11.5484 6.38936 11.4491 6.2139 11.2737C6.03844 11.0982 5.93914 10.8607 5.9375 10.6125C5.93914 10.3644 6.03844 10.1269 6.2139 9.95145C6.38936 9.77598 6.62687 9.67669 6.875 9.67505H9.6875C9.93563 9.67669 10.1731 9.77598 10.3486 9.95145C10.5241 10.1269 10.6234 10.3644 10.625 10.6125C10.6234 10.8607 10.5241 11.0982 10.3486 11.2737C10.1731 11.4491 9.93563 11.5484 9.6875 11.55Z" fill="#313131"/>
  <path d="M10.625 15.3H6.875C6.62687 15.2984 6.38936 15.1991 6.2139 15.0237C6.03844 14.8482 5.93914 14.6107 5.9375 14.3625C5.93914 14.1144 6.03844 13.8769 6.2139 13.7014C6.38936 13.526 6.62687 13.4267 6.875 13.425H10.625C10.8731 13.4267 11.1106 13.526 11.2861 13.7014C11.4616 13.8769 11.5609 14.1144 11.5625 14.3625C11.5609 14.6107 11.4616 14.8482 11.2861 15.0237C11.1106 15.1991 10.8731 15.2984 10.625 15.3Z" fill="#313131"/>
</svg>