<svg xmlns="http://www.w3.org/2000/svg" width="24" height="24" viewBox="0 0 24 24" fill="none">
  <path d="M12 13.3C11.8667 13.3013 11.7355 13.2667 11.62 13.2L2.79002 8.08703C2.61989 7.98495 2.49634 7.82047 2.44572 7.62863C2.3951 7.43678 2.4214 7.23276 2.51902 7.06003C2.56859 6.97419 2.63463 6.89901 2.71336 6.83879C2.79209 6.77857 2.88194 6.73451 2.97775 6.70914C3.07357 6.68376 3.17345 6.67758 3.27167 6.69095C3.36988 6.70432 3.46448 6.73697 3.55002 6.78703L12 11.677L20.4 6.81703C20.5729 6.71839 20.7776 6.69141 20.9701 6.74188C21.1627 6.79236 21.3278 6.91626 21.43 7.08703C21.5287 7.25992 21.5556 7.46457 21.5052 7.65711C21.4547 7.84966 21.3308 8.01476 21.16 8.11703L12.39 13.197C12.269 13.2592 12.1359 13.2943 12 13.3Z" fill="#5A5A5A"/>
  <path d="M12 22.36C11.8015 22.3587 11.6115 22.2793 11.4711 22.1389C11.3307 21.9986 11.2513 21.8085 11.25 21.61V12.54C11.2513 12.3415 11.3307 12.1515 11.4711 12.0112C11.6115 11.8708 11.8015 11.7913 12 11.79C12.1985 11.7913 12.3885 11.8708 12.5289 12.0112C12.6693 12.1515 12.7487 12.3415 12.75 12.54V21.61C12.7487 21.8085 12.6693 21.9986 12.5289 22.1389C12.3885 22.2793 12.1985 22.3587 12 22.36Z" fill="#5A5A5A"/>
  <path d="M12 22.7501C11.1521 22.7644 10.3138 22.5685 9.56001 22.1801L4.22001 19.2101C3.46465 18.7441 2.83468 18.1005 2.385 17.3354C1.93532 16.5702 1.67956 15.7067 1.64001 14.8201L1.64001 9.17005C1.68076 8.2837 1.93701 7.42064 2.38658 6.65568C2.83615 5.89071 3.46547 5.24691 4.22001 4.78005L9.56001 1.82005C10.3187 1.44507 11.1537 1.25 12 1.25C12.8463 1.25 13.6813 1.44507 14.44 1.82005L19.78 4.79005C20.5354 5.256 21.1653 5.89959 21.615 6.66475C22.0647 7.42991 22.3205 8.29342 22.36 9.18005V14.8301C22.3193 15.7164 22.063 16.5795 21.6134 17.3444C21.1639 18.1094 20.5346 18.7532 19.78 19.2201L14.44 22.1801C13.6862 22.5685 12.8479 22.7644 12 22.7501ZM12 2.75005C11.4078 2.73747 10.8212 2.86782 10.29 3.13005L4.95001 6.10005C4.43155 6.43705 3.99827 6.88966 3.68422 7.42234C3.37017 7.95501 3.18389 8.55325 3.14001 9.17005V14.8201C3.18509 15.4379 3.3718 16.0371 3.68568 16.5712C3.99955 17.1053 4.43217 17.56 4.95001 17.9001L10.29 20.8701C10.8249 21.1219 11.4088 21.2525 12 21.2525C12.5912 21.2525 13.1751 21.1219 13.71 20.8701L19.05 17.9001C19.5687 17.5609 20.002 17.1065 20.3159 16.5722C20.6299 16.0379 20.8161 15.4382 20.86 14.8201V9.17005C20.8149 8.55219 20.6282 7.95299 20.3144 7.41888C20.0005 6.88478 19.5679 6.43009 19.05 6.09005L13.71 3.12005C13.1764 2.86585 12.591 2.73918 12 2.75005Z" fill="#5A5A5A"/>
</svg>