<svg xmlns="http://www.w3.org/2000/svg" width="42" height="42" viewBox="0 0 42 42" fill="none">
  <path d="M41.9859 20.1259C41.9849 18.9191 41.6275 17.7394 40.9584 16.735C40.2893 15.7306 39.3384 14.9462 38.2251 14.4804C37.5146 10.4245 35.3966 6.74904 32.2438 4.1005C29.0909 1.45196 25.1051 0 20.9875 0C16.8698 0 12.884 1.45196 9.73115 4.1005C6.5783 6.74904 4.46035 10.4245 3.74983 14.4804C2.47933 15.0149 1.42625 15.9623 0.76089 17.1695C0.0955289 18.3766 -0.14322 19.7729 0.0832501 21.1325C0.30972 22.4921 0.98817 23.7356 2.00889 24.6619C3.02961 25.5882 4.33293 26.1432 5.70809 26.237C6.61196 28.1551 7.83778 29.9042 9.33237 31.4083C7.14238 33.7995 5.75253 36.8141 5.35634 40.0323C5.32533 40.2785 5.34701 40.5285 5.41996 40.7656C5.49291 41.0027 5.61545 41.2217 5.77945 41.4079C5.94345 41.594 6.14517 41.7432 6.37122 41.8455C6.59727 41.9478 6.84249 42.0008 7.0906 42.0011H34.8441C35.0921 42.001 35.3374 41.9482 35.5635 41.8461C35.7896 41.7441 35.9915 41.5951 36.1556 41.4091C36.3198 41.2231 36.4426 41.0043 36.5157 40.7672C36.5889 40.5302 36.6108 40.2803 36.5801 40.0341C36.1867 36.824 34.8038 33.816 32.6233 31.4275C34.1261 29.9188 35.3586 28.1631 36.2668 26.237C37.8175 26.134 39.271 25.4454 40.3329 24.3107C41.3948 23.176 41.9857 21.68 41.9859 20.1259ZM35.4198 22.7037C35.0116 22.6289 34.5901 22.7027 34.2316 22.9116C33.8731 23.1206 33.6012 23.451 33.465 23.843C31.862 28.3895 26.4632 33.251 20.9857 33.251C15.5082 33.251 10.1094 28.386 8.50636 23.8395C8.36993 23.4477 8.09795 23.1175 7.73951 22.9086C7.38106 22.6997 6.95975 22.6258 6.5516 22.7002C6.40617 22.7287 6.25871 22.7457 6.1106 22.751C5.46097 22.7432 4.8373 22.4948 4.36021 22.0538C3.88311 21.6129 3.58649 21.0106 3.52771 20.3636C3.46893 19.7166 3.65217 19.0708 4.04199 18.5511C4.4318 18.0313 5.0005 17.6746 5.63809 17.5499C6.01017 17.4825 6.35039 17.2963 6.60782 17.0193C6.86525 16.7423 7.02603 16.3894 7.0661 16.0134C7.3204 13.5844 8.20839 11.2647 9.64114 9.28683C11.0739 7.30892 13.0012 5.74212 15.2299 4.74333C14.8613 5.68104 14.7274 6.69461 14.8398 7.69588C14.9522 8.69715 15.3075 9.65579 15.8748 10.4884C16.4422 11.3211 17.2044 12.0025 18.0951 12.4734C18.9858 12.9443 19.9781 13.1905 20.9857 13.1905C21.9933 13.1905 22.9856 12.9443 23.8763 12.4734C24.767 12.0025 25.5292 11.3211 26.0966 10.4884C26.6639 9.65579 27.0192 8.69715 27.1316 7.69588C27.244 6.69461 27.1101 5.68104 26.7415 4.74333C28.9703 5.74212 30.8975 7.30892 32.3303 9.28683C33.763 11.2647 34.651 13.5844 34.9053 16.0134C34.9454 16.3894 35.1062 16.7423 35.3636 17.0193C35.621 17.2963 35.9612 17.4825 36.3333 17.5499C36.9709 17.6746 37.5396 18.0313 37.9294 18.5511C38.3192 19.0708 38.5025 19.7166 38.4437 20.3636C38.3849 21.0106 38.0883 21.6129 37.6112 22.0538C37.1341 22.4948 36.5104 22.7432 35.8608 22.751C35.7128 22.7469 35.5653 22.7311 35.4198 22.7037Z" fill="#5A5A5A"/>
  <path d="M16.6113 22.751C18.0611 22.751 19.2364 21.5757 19.2364 20.1259C19.2364 18.6762 18.0611 17.5009 16.6113 17.5009C15.1616 17.5009 13.9863 18.6762 13.9863 20.1259C13.9863 21.5757 15.1616 22.751 16.6113 22.751Z" fill="#5A5A5A"/>
  <path d="M25.3613 22.751C26.8111 22.751 27.9864 21.5757 27.9864 20.1259C27.9864 18.6762 26.8111 17.5009 25.3613 17.5009C23.9116 17.5009 22.7363 18.6762 22.7363 20.1259C22.7363 21.5757 23.9116 22.751 25.3613 22.751Z" fill="#5A5A5A"/>
</svg>