<svg width="24" height="24" viewBox="0 0 24 24" fill="none" xmlns="http://www.w3.org/2000/svg">
<path d="M15.998 22.75H7.99798C3.37798 22.75 2.51798 20.6 2.29798 18.51L1.54998 10.5C1.42748 9.84522 1.44432 9.17197 1.59939 8.52412C1.75446 7.87627 2.04429 7.26837 2.44998 6.74001C3.34998 5.74001 4.83998 5.26001 6.99798 5.26001H16.998C19.168 5.26001 20.658 5.75001 21.548 6.74001C21.9543 7.27 22.2444 7.87962 22.3995 8.52917C22.5545 9.17872 22.5711 9.85364 22.448 10.51L21.698 18.5C21.48 20.6 20.62 22.75 15.998 22.75ZM6.99798 6.75001C5.30798 6.75001 4.14798 7.08001 3.55798 7.74001C3.29123 8.11332 3.10691 8.5391 3.01726 8.98908C2.92761 9.43906 2.93467 9.90297 3.03798 10.35L3.78798 18.36C3.95798 19.94 4.38798 21.25 7.99798 21.25H15.998C19.598 21.25 20.038 19.94 20.208 18.35L20.958 10.36C21.0619 9.91139 21.0692 9.44581 20.9796 8.99412C20.8899 8.54243 20.7053 8.11496 20.438 7.74001C19.848 7.08001 18.688 6.75001 16.998 6.75001H6.99798Z" fill="#5A5A5A"/>
<path d="M16 6.75C15.8015 6.74869 15.6115 6.66925 15.4711 6.52888C15.3307 6.38851 15.2513 6.19851 15.25 6V5.2C15.25 3.42 15.25 2.75 12.8 2.75H11.2C8.75 2.75 8.75 3.42 8.75 5.2V6C8.74869 6.19851 8.66925 6.38851 8.52888 6.52888C8.38851 6.66925 8.19851 6.74869 8 6.75C7.80149 6.74869 7.61149 6.66925 7.47112 6.52888C7.33075 6.38851 7.25131 6.19851 7.25 6V5.2C7.25 3.44 7.25 1.25 11.2 1.25H12.8C16.75 1.25 16.75 3.44 16.75 5.2V6C16.7487 6.19851 16.6693 6.38851 16.5289 6.52888C16.3885 6.66925 16.1985 6.74869 16 6.75Z" fill="#5A5A5A"/>
<path d="M12 16.75C9.25 16.75 9.25 15.05 9.25 14.03V13C9.25 11.59 9.59 11.25 11 11.25H13C14.41 11.25 14.75 11.59 14.75 13V14C14.75 15.04 14.75 16.75 12 16.75ZM10.75 12.75V14.03C10.75 15.06 10.75 15.25 12 15.25C13.25 15.25 13.25 15.09 13.25 14.02V12.75H10.75Z" fill="#5A5A5A"/>
<path d="M14 14.7701C13.8172 14.7699 13.6408 14.7025 13.5044 14.5809C13.368 14.4592 13.281 14.2917 13.26 14.1101C13.2353 13.9126 13.2898 13.7134 13.4116 13.556C13.5334 13.3986 13.7126 13.2958 13.91 13.2701C16.547 12.9404 19.0581 11.9497 21.21 10.3901C21.2897 10.3314 21.3804 10.2892 21.4767 10.2659C21.5729 10.2427 21.6729 10.2389 21.7706 10.2547C21.8684 10.2705 21.962 10.3057 22.0461 10.3581C22.1301 10.4106 22.2028 10.4792 22.26 10.5601C22.3762 10.7221 22.4235 10.9234 22.3917 11.1202C22.3598 11.317 22.2513 11.4931 22.09 11.6101C19.7305 13.3177 16.9794 14.4044 14.09 14.7701H14Z" fill="#5A5A5A"/>
<path d="M9.99995 14.7801H9.90995C7.13994 14.4587 4.49009 13.4667 2.18995 11.8901C2.02963 11.777 1.92008 11.6055 1.88485 11.4125C1.84963 11.2195 1.89154 11.0204 2.00157 10.858C2.11161 10.6955 2.28098 10.5828 2.47328 10.5439C2.66558 10.505 2.86546 10.5432 3.02995 10.6501C5.12913 12.0854 7.54459 12.9912 10.0699 13.2901C10.2674 13.3129 10.4478 13.4131 10.5715 13.5687C10.6952 13.7243 10.7522 13.9226 10.7299 14.1201C10.7143 14.302 10.6303 14.4713 10.4948 14.5937C10.3594 14.7162 10.1825 14.7828 9.99995 14.7801Z" fill="#5A5A5A"/>
</svg>
