<svg xmlns="http://www.w3.org/2000/svg" width="20" height="20" viewBox="0 0 20 20" fill="none">
  <path d="M6.66602 4.79175C6.50059 4.79066 6.34225 4.72446 6.22528 4.60748C6.10831 4.49051 6.04211 4.33217 6.04102 4.16675V1.66675C6.04211 1.50132 6.10831 1.34299 6.22528 1.22601C6.34225 1.10904 6.50059 1.04284 6.66602 1.04175C6.83144 1.04284 6.98978 1.10904 7.10675 1.22601C7.22372 1.34299 7.28992 1.50132 7.29102 1.66675V4.16675C7.28992 4.33217 7.22372 4.49051 7.10675 4.60748C6.98978 4.72446 6.83144 4.79066 6.66602 4.79175Z" fill="#5A5A5A"/>
  <path d="M13.334 4.79175C13.1686 4.79066 13.0102 4.72446 12.8932 4.60748C12.7763 4.49051 12.7101 4.33217 12.709 4.16675V1.66675C12.7101 1.50132 12.7763 1.34299 12.8932 1.22601C13.0102 1.10904 13.1686 1.04284 13.334 1.04175C13.4994 1.04284 13.6577 1.10904 13.7747 1.22601C13.8917 1.34299 13.9579 1.50132 13.959 1.66675V4.16675C13.9579 4.33217 13.8917 4.49051 13.7747 4.60748C13.6577 4.72446 13.4994 4.79066 13.334 4.79175Z" fill="#5A5A5A"/>
  <path d="M7.08333 12.0832C6.97444 12.0819 6.86685 12.0593 6.76667 12.0166C6.66442 11.9753 6.57105 11.9148 6.49167 11.8382C6.33896 11.6802 6.2525 11.4697 6.25 11.2499C6.25132 11.141 6.27397 11.0334 6.31667 10.9332C6.35894 10.8323 6.41812 10.7393 6.49167 10.6582C6.57134 10.5829 6.66468 10.5235 6.76667 10.4832C6.91882 10.4217 7.08553 10.4055 7.24669 10.4365C7.40786 10.4676 7.55661 10.5446 7.675 10.6582C7.82714 10.818 7.91343 11.0293 7.91667 11.2499C7.91484 11.3058 7.90928 11.3614 7.9 11.4166C7.89093 11.4688 7.87407 11.5193 7.85 11.5666C7.83179 11.6197 7.80656 11.6701 7.775 11.7166C7.74424 11.7602 7.71084 11.802 7.675 11.8416C7.51521 11.9937 7.30394 12.08 7.08333 12.0832Z" fill="#5A5A5A"/>
  <path d="M9.99935 12.084C9.89045 12.0826 9.78287 12.06 9.68268 12.0173C9.5807 11.977 9.48735 11.9176 9.40768 11.8423C9.25419 11.6834 9.16766 11.4716 9.16602 11.2506C9.16722 11.1414 9.18987 11.0336 9.23268 10.9331C9.27496 10.8322 9.33414 10.7392 9.40768 10.6581C9.48735 10.5828 9.5807 10.5234 9.68268 10.4831C9.83444 10.4193 10.0017 10.4019 10.1634 10.433C10.325 10.4642 10.4738 10.5425 10.591 10.6581C10.7433 10.8181 10.8297 11.0297 10.8327 11.2506C10.8309 11.3065 10.8253 11.3622 10.816 11.4173C10.8069 11.4695 10.7901 11.5201 10.766 11.5673C10.7478 11.6204 10.7226 11.6709 10.691 11.7173C10.6603 11.761 10.6269 11.8027 10.591 11.8423C10.4312 11.9944 10.22 12.0807 9.99935 12.084Z" fill="#5A5A5A"/>
  <path d="M12.9173 12.084C12.8084 12.0826 12.7008 12.06 12.6007 12.0173C12.4987 11.977 12.4053 11.9176 12.3257 11.8423L12.2257 11.7173C12.1941 11.6709 12.1689 11.6204 12.1507 11.5673C12.1266 11.5201 12.1097 11.4695 12.1007 11.4173C12.0914 11.3622 12.0858 11.3065 12.084 11.2506C12.087 11.0297 12.1733 10.8181 12.3257 10.6581C12.4053 10.5828 12.4987 10.5234 12.6007 10.4831C12.7524 10.4193 12.9197 10.4019 13.0813 10.433C13.243 10.4642 13.3918 10.5425 13.509 10.6581C13.6613 10.8181 13.7476 11.0297 13.7507 11.2506C13.7488 11.3065 13.7433 11.3622 13.734 11.4173C13.7249 11.4695 13.7081 11.5201 13.684 11.5673C13.6658 11.6204 13.6405 11.6709 13.609 11.7173C13.5782 11.761 13.5448 11.8027 13.509 11.8423C13.3492 11.9944 13.1379 12.0807 12.9173 12.084Z" fill="#5A5A5A"/>
  <path d="M7.08333 14.9999C6.97444 14.9986 6.86685 14.9759 6.76667 14.9332C6.66589 14.8917 6.57291 14.8334 6.49167 14.7607C6.33895 14.6003 6.25261 14.388 6.25 14.1666C6.25132 14.0577 6.27397 13.9501 6.31667 13.8499C6.35502 13.7472 6.41466 13.6538 6.49167 13.5757C6.65282 13.427 6.86406 13.3445 7.08333 13.3445C7.30261 13.3445 7.51384 13.427 7.675 13.5757C7.82694 13.7353 7.91322 13.9463 7.91667 14.1666C7.91343 14.3872 7.82714 14.5985 7.675 14.7582C7.51521 14.9104 7.30394 14.9967 7.08333 14.9999Z" fill="#5A5A5A"/>
  <path d="M9.99935 14.9999C9.77908 14.9974 9.56785 14.912 9.40768 14.7607C9.25496 14.6003 9.16862 14.388 9.16602 14.1666C9.16733 14.0577 9.18998 13.9501 9.23268 13.8499C9.27103 13.7472 9.33067 13.6538 9.40768 13.5757C9.56884 13.427 9.78007 13.3445 9.99935 13.3445C10.2186 13.3445 10.4299 13.427 10.591 13.5757C10.6681 13.654 10.7278 13.7477 10.766 13.8507C10.8086 13.9507 10.8313 14.058 10.8327 14.1666C10.8294 14.3872 10.7432 14.5985 10.591 14.7582C10.4312 14.9104 10.22 14.9967 9.99935 14.9999Z" fill="#5A5A5A"/>
  <path d="M12.9173 14.9991C12.6967 14.9959 12.4854 14.9096 12.3257 14.7575C12.2485 14.6792 12.1889 14.5855 12.1507 14.4825C12.108 14.3823 12.0853 14.2747 12.084 14.1658C12.0854 14.0572 12.1081 13.9499 12.1507 13.85C12.1889 13.747 12.2485 13.6532 12.3257 13.575C12.4227 13.4789 12.5418 13.4081 12.6726 13.3689C12.8034 13.3297 12.9418 13.3232 13.0757 13.35C13.1308 13.3577 13.1844 13.3746 13.234 13.4C13.2871 13.4182 13.3375 13.4434 13.384 13.475C13.4276 13.5057 13.4694 13.5391 13.509 13.575C13.6609 13.7345 13.7472 13.9455 13.7507 14.1658C13.7474 14.3864 13.6611 14.5977 13.509 14.7575C13.3492 14.9096 13.1379 14.9959 12.9173 14.9991Z" fill="#5A5A5A"/>
  <path d="M17.0827 8.2002H2.91602C2.75059 8.1991 2.59225 8.1329 2.47528 8.01593C2.35831 7.89896 2.29211 7.74062 2.29102 7.5752C2.29211 7.40977 2.35831 7.25143 2.47528 7.13446C2.59225 7.01749 2.75059 6.95129 2.91602 6.9502H17.0827C17.2481 6.95129 17.4064 7.01749 17.5234 7.13446C17.6404 7.25143 17.7066 7.40977 17.7077 7.5752C17.7066 7.74062 17.6404 7.89896 17.5234 8.01593C17.4064 8.1329 17.2481 8.1991 17.0827 8.2002Z" fill="#5A5A5A"/>
  <path d="M13.3333 18.9584H6.66667C3.625 18.9584 1.875 17.2084 1.875 14.1667V7.08341C1.875 4.04175 3.625 2.29175 6.66667 2.29175H13.3333C16.375 2.29175 18.125 4.04175 18.125 7.08341V14.1667C18.125 17.2084 16.375 18.9584 13.3333 18.9584ZM6.66667 3.54175C4.28333 3.54175 3.125 4.70008 3.125 7.08341V14.1667C3.125 16.5501 4.28333 17.7084 6.66667 17.7084H13.3333C15.7167 17.7084 16.875 16.5501 16.875 14.1667V7.08341C16.875 4.70008 15.7167 3.54175 13.3333 3.54175H6.66667Z" fill="#5A5A5A"/>
</svg>