<svg xmlns="http://www.w3.org/2000/svg" width="32" height="32" viewBox="0 0 32 32" fill="none">
  <path d="M26.6269 11.6662H22.7069C22.343 11.6999 21.9762 11.653 21.6325 11.5288C21.2889 11.4047 20.9767 11.2064 20.7183 10.948C20.46 10.6897 20.2617 10.3775 20.1375 10.0339C20.0134 9.69017 19.9665 9.32337 20.0002 8.95952V5.03952C19.9665 4.67566 20.0134 4.30886 20.1375 3.96518C20.2617 3.62149 20.46 3.30937 20.7183 3.05098C20.9767 2.7926 21.2889 2.5943 21.6325 2.47019C21.9762 2.34607 22.343 2.29918 22.7069 2.33285H26.6269C26.9907 2.29918 27.3575 2.34607 27.7012 2.47019C28.0449 2.5943 28.357 2.7926 28.6154 3.05098C28.8738 3.30937 29.0721 3.62149 29.1962 3.96518C29.3203 4.30886 29.3672 4.67566 29.3335 5.03952V8.95952C29.3672 9.32337 29.3203 9.69017 29.1962 10.0339C29.0721 10.3775 28.8738 10.6897 28.6154 10.948C28.357 11.2064 28.0449 11.4047 27.7012 11.5288C27.3575 11.653 26.9907 11.6999 26.6269 11.6662ZM26.9202 7.25285C26.7636 7.09911 26.553 7.01297 26.3335 7.01297C26.1141 7.01297 25.9034 7.09911 25.7469 7.25285L25.5069 7.49285V4.50618C25.5069 4.2834 25.4184 4.06974 25.2608 3.91221C25.1033 3.75468 24.8897 3.66618 24.6669 3.66618C24.4441 3.66618 24.2304 3.75468 24.0729 3.91221C23.9154 4.06974 23.8269 4.2834 23.8269 4.50618V7.49285L23.5869 7.25285C23.4313 7.09726 23.2203 7.00984 23.0002 7.00984C22.7802 7.00984 22.5691 7.09726 22.4135 7.25285C22.2579 7.40844 22.1705 7.61947 22.1705 7.83952C22.1705 8.05956 22.2579 8.27059 22.4135 8.42618L24.0802 10.0928C24.1541 10.1613 24.24 10.2155 24.3335 10.2528C24.3602 10.2662 24.3869 10.2662 24.4135 10.2795C24.4813 10.3068 24.5538 10.3204 24.6269 10.3195H24.7069C24.7986 10.3212 24.8895 10.303 24.9735 10.2662H25.0002C25.0897 10.2287 25.1712 10.1744 25.2402 10.1062C25.2535 10.0928 25.2535 10.0928 25.2669 10.0928L26.9335 8.42618C27.0102 8.34856 27.0708 8.25649 27.1117 8.15531C27.1525 8.05413 27.173 7.94585 27.1717 7.83673C27.1705 7.72762 27.1476 7.61983 27.1044 7.5196C27.0613 7.41938 26.9986 7.32871 26.9202 7.25285Z" fill="white"/>
  <path d="M2.66663 15.2803V21.947C2.66575 22.6721 2.80793 23.3903 3.08503 24.0604C3.36212 24.7306 3.76869 25.3394 4.28144 25.8522C4.7942 26.3649 5.40307 26.7715 6.07318 27.0486C6.74329 27.3257 7.46149 27.4679 8.18663 27.467H23.8C25.2672 27.4659 26.674 26.8826 27.7115 25.8451C28.7489 24.8077 29.3322 23.4009 29.3333 21.9337V15.2803C29.3337 15.0684 29.2922 14.8584 29.2112 14.6625C29.1303 14.4666 29.0114 14.2886 28.8615 14.1387C28.7117 13.9889 28.5337 13.87 28.3378 13.7891C28.1419 13.7081 27.9319 13.6666 27.72 13.667H4.27996C4.068 13.6666 3.85805 13.7081 3.66215 13.7891C3.46626 13.87 3.28826 13.9889 3.13838 14.1387C2.9885 14.2886 2.86968 14.4666 2.78872 14.6625C2.70777 14.8584 2.66628 15.0684 2.66663 15.2803ZM10.6666 23.0003H7.99996C7.73475 23.0003 7.48039 22.895 7.29286 22.7074C7.10532 22.5199 6.99996 22.2655 6.99996 22.0003C6.99996 21.7351 7.10532 21.4808 7.29286 21.2932C7.48039 21.1057 7.73475 21.0003 7.99996 21.0003H10.6666C10.9318 21.0003 11.1862 21.1057 11.3737 21.2932C11.5613 21.4808 11.6666 21.7351 11.6666 22.0003C11.6666 22.2655 11.5613 22.5199 11.3737 22.7074C11.1862 22.895 10.9318 23.0003 10.6666 23.0003ZM19.3333 23.0003H14C13.7347 23.0003 13.4804 22.895 13.2929 22.7074C13.1053 22.5199 13 22.2655 13 22.0003C13 21.7351 13.1053 21.4808 13.2929 21.2932C13.4804 21.1057 13.7347 21.0003 14 21.0003H19.3333C19.5985 21.0003 19.8529 21.1057 20.0404 21.2932C20.2279 21.4808 20.3333 21.7351 20.3333 22.0003C20.3333 22.2655 20.2279 22.5199 20.0404 22.7074C19.8529 22.895 19.5985 23.0003 19.3333 23.0003Z" fill="white"/>
  <path d="M18 6.14655V10.0532C18.0004 10.2652 17.9589 10.4751 17.8779 10.671C17.797 10.8669 17.6782 11.0449 17.5283 11.1948C17.3784 11.3447 17.2004 11.4635 17.0045 11.5445C16.8086 11.6254 16.5987 11.6669 16.3867 11.6665H4.28004C4.06632 11.6652 3.85497 11.6216 3.65813 11.5384C3.46128 11.4551 3.28279 11.3338 3.13291 11.1815C2.98303 11.0291 2.86469 10.8487 2.78469 10.6505C2.70469 10.4523 2.66459 10.2403 2.66671 10.0265C2.67059 8.5662 3.25426 7.16716 4.28938 6.13704C5.32451 5.10692 6.72635 4.53003 8.18671 4.53322H16.3867C16.5987 4.53287 16.8086 4.57436 17.0045 4.65531C17.2004 4.73626 17.3784 4.85509 17.5283 5.00497C17.6782 5.15485 17.797 5.33284 17.8779 5.52874C17.9589 5.72464 18.0004 5.93459 18 6.14655Z" fill="white"/>
</svg>