<svg xmlns="http://www.w3.org/2000/svg" width="24" height="24" viewBox="0 0 24 24" fill="none">
  <path d="M10.1103 18.15H6.32031C6.1218 18.1487 5.9318 18.0693 5.79143 17.9289C5.65106 17.7885 5.57162 17.5985 5.57031 17.4V12.28C5.57294 11.7796 5.77291 11.3004 6.12678 10.9465C6.48066 10.5926 6.95986 10.3926 7.46031 10.39H10.1103C10.3088 10.3913 10.4988 10.4708 10.6392 10.6111C10.7796 10.7515 10.859 10.9415 10.8603 11.14V17.39C10.8609 17.59 10.7823 17.7821 10.6418 17.9245C10.5014 18.0668 10.3103 18.1479 10.1103 18.15ZM7.07031 16.65H9.36031V11.9H7.46031C7.35688 11.9 7.25768 11.9411 7.18454 12.0142C7.1114 12.0874 7.07031 12.1866 7.07031 12.29V16.65Z" fill="#5A5A5A"/>
  <path d="M13.8896 18.15H10.0996C9.9011 18.1487 9.7111 18.0692 9.57073 17.9289C9.43036 17.7885 9.35092 17.5985 9.34961 17.4V7.73998C9.35224 7.23953 9.5522 6.76032 9.90608 6.40645C10.26 6.05257 10.7392 5.8526 11.2396 5.84998L12.7596 5.84998C13.2601 5.8526 13.7393 6.05257 14.0931 6.40645C14.447 6.76032 14.647 7.23953 14.6496 7.73998V17.4C14.646 17.5995 14.5644 17.7896 14.4224 17.9298C14.2804 18.0699 14.0891 18.149 13.8896 18.15ZM10.8596 16.65H13.1496V7.73998C13.1496 7.63654 13.1085 7.53734 13.0354 7.4642C12.9622 7.39106 12.863 7.34998 12.7596 7.34998H11.2396C11.1362 7.34998 11.037 7.39106 10.9638 7.4642C10.8907 7.53734 10.8496 7.63654 10.8496 7.73998V16.65H10.8596Z" fill="#5A5A5A"/>
  <path d="M17.6806 18.15H13.8906C13.6921 18.1487 13.5021 18.0692 13.3617 17.9289C13.2214 17.7885 13.1419 17.5985 13.1406 17.4V12.85C13.1419 12.6515 13.2214 12.4615 13.3617 12.3211C13.5021 12.1807 13.6921 12.1013 13.8906 12.1H16.5406C17.0411 12.1026 17.5203 12.3026 17.8742 12.6564C18.228 13.0103 18.428 13.4895 18.4306 13.99V17.4C18.4308 17.4985 18.4114 17.5961 18.3738 17.6871C18.3362 17.7782 18.2809 17.8609 18.2112 17.9306C18.1416 18.0003 18.0588 18.0555 17.9678 18.0932C17.8767 18.1308 17.7792 18.1501 17.6806 18.15ZM14.6406 16.65H16.9306V13.99C16.9306 13.8865 16.8895 13.7873 16.8164 13.7142C16.7433 13.6411 16.6441 13.6 16.5406 13.6H14.6406V16.65Z" fill="#5A5A5A"/>
  <path d="M15 22.75H9C3.57 22.75 1.25 20.43 1.25 15V9C1.25 3.57 3.57 1.25 9 1.25H15C20.43 1.25 22.75 3.57 22.75 9V15C22.75 20.43 20.43 22.75 15 22.75ZM9 2.75C4.39 2.75 2.75 4.39 2.75 9V15C2.75 19.61 4.39 21.25 9 21.25H15C19.61 21.25 21.25 19.61 21.25 15V9C21.25 4.39 19.61 2.75 15 2.75H9Z" fill="#5A5A5A"/>
</svg>