<svg xmlns="http://www.w3.org/2000/svg" width="18" height="18" viewBox="0 0 18 18" fill="none">
  <path d="M18 9C18 13.9706 13.9706 18 9 18C4.02944 18 0 13.9706 0 9C0 4.02944 4.02944 0 9 0C13.9706 0 18 4.02944 18 9ZM4.60651 9C4.60651 11.4265 6.57354 13.3935 9 13.3935C11.4265 13.3935 13.3935 11.4265 13.3935 9C13.3935 6.57354 11.4265 4.60651 9 4.60651C6.57354 4.60651 4.60651 6.57354 4.60651 9Z" fill="#D6D6D6"/>
  <path d="M9 0C10.9019 2.26795e-08 12.7548 0.602484 14.293 1.72099C15.8312 2.8395 16.9755 4.41654 17.5618 6.22579C18.148 8.03504 18.146 9.98351 17.5561 11.7916C16.9662 13.5996 15.8187 15.1743 14.2782 16.2897C12.7378 17.4051 10.8836 18.0038 8.98175 18C7.07989 17.9961 5.22814 17.3899 3.69223 16.2683C2.15632 15.1466 1.0152 13.5673 0.43263 11.7568C-0.14994 9.9464 -0.144013 7.99795 0.44956 6.19109L4.82597 7.62879C4.53621 8.51083 4.53331 9.462 4.8177 10.3458C5.10209 11.2296 5.65915 12.0006 6.40893 12.5481C7.15871 13.0957 8.06267 13.3916 8.99109 13.3935C9.91951 13.3954 10.8247 13.1031 11.5767 12.5586C12.3287 12.0141 12.8888 11.2454 13.1768 10.3627C13.4648 9.48011 13.4657 8.52894 13.1796 7.64573C12.8934 6.76251 12.3348 5.99266 11.5839 5.44664C10.833 4.90062 9.92842 4.60651 9 4.60651V0Z" fill="#007AFF"/>
</svg>