<svg xmlns="http://www.w3.org/2000/svg" width="13" height="9" viewBox="0 0 13 9" fill="none">
  <path d="M4.48194 9C4.35801 8.99996 4.23532 8.97548 4.12086 8.92798C4.00641 8.88047 3.90245 8.81086 3.81492 8.72313L0.253329 5.16027C0.0866007 4.98135 -0.0041674 4.74469 0.000147054 4.50016C0.00446151 4.25562 0.103522 4.02232 0.276458 3.84938C0.449394 3.67644 0.682704 3.57738 0.927234 3.57307C1.17177 3.56875 1.40842 3.65952 1.58735 3.82625L4.48194 6.72083L10.9507 0.253329C11.1296 0.0866007 11.3663 -0.0041674 11.6108 0.000147054C11.8553 0.00446151 12.0887 0.103522 12.2616 0.276458C12.4345 0.449394 12.5336 0.682704 12.5379 0.927234C12.5422 1.17177 12.4514 1.40842 12.2847 1.58735L8.71683 5.15524L5.14895 8.72313C5.06142 8.81086 4.95746 8.88047 4.84301 8.92798C4.72856 8.97548 4.60586 8.99996 4.48194 9Z" fill="white"/>
</svg>