<svg xmlns="http://www.w3.org/2000/svg" width="273" height="273" viewBox="0 0 273 273" fill="none">
  <path d="M136.5 272.219C109.657 272.219 83.4176 264.259 61.0988 249.346C38.7799 234.433 21.3845 213.237 11.1123 188.437C0.840054 163.638 -1.84763 136.349 3.38911 110.023C8.62585 83.6958 21.5518 59.513 40.5324 40.5324C59.513 21.5518 83.6958 8.62585 110.023 3.38911C136.349 -1.84763 163.638 0.840054 188.437 11.1123C213.237 21.3845 234.433 38.7799 249.346 61.0988C264.259 83.4176 272.219 109.657 272.219 136.5C272.189 172.486 257.88 206.989 232.434 232.434C206.989 257.88 172.486 272.189 136.5 272.219ZM136.5 19.7188C113.403 19.7188 90.8244 26.5679 71.6199 39.4C52.4153 52.2321 37.4471 70.4708 28.6083 91.8098C19.7694 113.149 17.4567 136.63 21.9627 159.283C26.4688 181.936 37.5911 202.745 53.9232 219.077C70.2554 235.409 91.0638 246.531 113.717 251.037C136.37 255.543 159.851 253.231 181.19 244.392C202.529 235.553 220.768 220.585 233.6 201.38C246.432 182.176 253.281 159.597 253.281 136.5C253.245 105.539 240.929 75.8566 219.036 53.9638C197.144 32.0711 167.461 19.7556 136.5 19.7188Z" fill="#F8BB86"/>
</svg>