<svg xmlns="http://www.w3.org/2000/svg" width="24" height="24" viewBox="0 0 24 24" fill="none">
  <path d="M16.75 3.56V2C16.75 1.80109 16.671 1.61032 16.5303 1.46967C16.3897 1.32902 16.1989 1.25 16 1.25C15.8011 1.25 15.6103 1.32902 15.4697 1.46967C15.329 1.61032 15.25 1.80109 15.25 2V3.5H8.74999V2C8.74999 1.80109 8.67097 1.61032 8.53032 1.46967C8.38966 1.32902 8.1989 1.25 7.99999 1.25C7.80107 1.25 7.61031 1.32902 7.46966 1.46967C7.329 1.61032 7.24999 1.80109 7.24999 2V3.56C6.12942 3.56976 5.05811 4.0219 4.26938 4.81793C3.48066 5.61396 3.03842 6.6894 3.03899 7.81C3.03489 7.87814 3.04479 7.9464 3.06808 8.01057C3.09137 8.07474 3.12755 8.13346 3.17439 8.18311C3.22123 8.23277 3.27775 8.2723 3.34045 8.29928C3.40316 8.32627 3.47072 8.34012 3.53899 8.34H20.459C20.5273 8.34012 20.5948 8.32627 20.6575 8.29928C20.7202 8.2723 20.7767 8.23277 20.8236 8.18311C20.8704 8.13346 20.9066 8.07474 20.9299 8.01057C20.9532 7.9464 20.9631 7.87814 20.959 7.81C20.9596 6.68974 20.5176 5.6146 19.7293 4.81863C18.941 4.02265 17.8702 3.57028 16.75 3.56Z" fill="#158B7F"/>
  <path d="M19 15C17.9391 15 16.9217 15.4214 16.1716 16.1716C15.4214 16.9217 15 17.9391 15 19C14.9986 19.7272 15.1994 20.4404 15.58 21.06C15.9337 21.6514 16.4347 22.141 17.0342 22.4809C17.6336 22.8209 18.3109 22.9996 19 22.9996C19.6891 22.9996 20.3664 22.8209 20.9659 22.4809C21.5653 22.141 22.0663 21.6514 22.42 21.06C22.8006 20.4404 23.0014 19.7272 23 19C23 17.9391 22.5786 16.9217 21.8284 16.1716C21.0783 15.4214 20.0609 15 19 15ZM21.07 18.57L18.94 20.54C18.8006 20.6675 18.6189 20.7388 18.43 20.74C18.3315 20.7404 18.2339 20.7211 18.1429 20.6833C18.0519 20.6455 17.9693 20.59 17.9 20.52L16.91 19.53C16.7775 19.3878 16.7054 19.1998 16.7088 19.0055C16.7123 18.8112 16.791 18.6258 16.9284 18.4884C17.0658 18.351 17.2512 18.2723 17.4455 18.2688C17.6398 18.2654 17.8278 18.3375 17.97 18.47L18.45 18.95L20.05 17.47C20.1222 17.403 20.2069 17.3509 20.2993 17.3167C20.3917 17.2825 20.4899 17.2668 20.5883 17.2705C20.6867 17.2742 20.7835 17.2972 20.873 17.3383C20.9625 17.3794 21.043 17.4378 21.11 17.51C21.177 17.5822 21.2291 17.6669 21.2633 17.7593C21.2975 17.8517 21.3133 17.9499 21.3095 18.0483C21.3058 18.1467 21.2828 18.2434 21.2417 18.333C21.2006 18.4225 21.1422 18.503 21.07 18.57Z" fill="#158B7F"/>
  <path d="M20 9.83997H4C3.73478 9.83997 3.48043 9.94532 3.29289 10.1329C3.10536 10.3204 3 10.5747 3 10.84V17C3 20 4.5 22 8 22H12.93C13.089 22.0004 13.2458 21.9629 13.3874 21.8905C13.529 21.8182 13.6514 21.7132 13.7442 21.5841C13.8371 21.4551 13.8979 21.3057 13.9215 21.1485C13.9451 20.9912 13.9309 20.8306 13.88 20.68C13.6742 20.1414 13.5495 19.5752 13.51 19C13.5126 17.5421 14.093 16.1447 15.1238 15.1138C16.1547 14.0829 17.5521 13.5026 19.01 13.5C19.2982 13.498 19.5859 13.5214 19.87 13.57C20.0109 13.5899 20.1544 13.5795 20.291 13.5395C20.4276 13.4996 20.554 13.4309 20.6619 13.3381C20.7698 13.2454 20.8567 13.1306 20.9167 13.0016C20.9768 12.8726 21.0086 12.7323 21.01 12.59V10.85C21.0074 10.5829 20.9001 10.3275 20.7113 10.1387C20.5224 9.94982 20.2671 9.84257 20 9.83997ZM9.21 18.21C9.02044 18.3959 8.76551 18.5 8.5 18.5C8.23449 18.5 7.97956 18.3959 7.79 18.21C7.60409 18.0204 7.49994 17.7655 7.49994 17.5C7.49994 17.2345 7.60409 16.9795 7.79 16.79C7.88561 16.6996 7.99762 16.6283 8.12 16.58C8.30211 16.5034 8.50282 16.4825 8.69681 16.5198C8.8908 16.5572 9.06938 16.6512 9.21 16.79C9.39591 16.9795 9.50006 17.2345 9.50006 17.5C9.50006 17.7655 9.39591 18.0204 9.21 18.21ZM9.21 14.71L9.06 14.83C9.00427 14.8678 8.94374 14.8981 8.88 14.92C8.82334 14.9489 8.76266 14.9691 8.7 14.98C8.63386 14.9911 8.56704 14.9978 8.5 15C8.36831 15.0013 8.23767 14.9764 8.11574 14.9266C7.99381 14.8768 7.88304 14.8032 7.78991 14.7101C7.69679 14.6169 7.62318 14.5062 7.5734 14.3842C7.52362 14.2623 7.49866 14.1317 7.5 14C7.50388 13.7352 7.60743 13.4817 7.79 13.29C7.9079 13.1738 8.05257 13.0884 8.21127 13.0413C8.36996 12.9942 8.53781 12.9869 8.7 13.02C8.76266 13.0309 8.82334 13.0511 8.88 13.08C8.94374 13.1018 9.00427 13.1321 9.06 13.17L9.21 13.29C9.39591 13.4795 9.50006 13.7345 9.50006 14C9.50006 14.2655 9.39591 14.5204 9.21 14.71ZM12.71 14.71C12.5701 14.851 12.3914 14.9472 12.1967 14.9862C12.0019 15.0253 11.8 15.0055 11.6165 14.9293C11.4331 14.8532 11.2765 14.7241 11.1667 14.5586C11.0569 14.3931 10.9988 14.1986 11 14C11.0039 13.7352 11.1074 13.4817 11.29 13.29C11.4834 13.1115 11.7369 13.0125 12 13.0125C12.2631 13.0125 12.5166 13.1115 12.71 13.29C12.8959 13.4795 13.0001 13.7345 13.0001 14C13.0001 14.2655 12.8959 14.5204 12.71 14.71Z" fill="#158B7F"/>
</svg>