<svg xmlns="http://www.w3.org/2000/svg" width="24" height="24" viewBox="0 0 24 24" fill="none">
  <path d="M14 6.75H10C9.04 6.75 7.25 6.75 7.25 4C7.25 1.25 9.04 1.25 10 1.25H14C14.96 1.25 16.75 1.25 16.75 4C16.75 4.96 16.75 6.75 14 6.75ZM10 2.75C9.01 2.75 8.75 2.75 8.75 4C8.75 5.25 9.01 5.25 10 5.25H14C15.25 5.25 15.25 4.99 15.25 4C15.25 2.75 14.99 2.75 14 2.75H10Z" fill="#5A5A5A"/>
  <path d="M14 22.7499H9C3.38 22.7499 2.25 20.1699 2.25 15.9999V9.9999C2.25 5.4399 3.9 3.4899 7.96 3.2789C8.15818 3.27116 8.35158 3.341 8.49909 3.47357C8.64661 3.60615 8.73662 3.79102 8.75 3.9889C8.75511 4.08685 8.74075 4.18485 8.70774 4.27721C8.67474 4.36958 8.62375 4.45449 8.55772 4.52702C8.4917 4.59956 8.41195 4.65828 8.32308 4.6998C8.23422 4.74132 8.138 4.7648 8.04 4.7689C5.2 4.9299 3.75 5.7789 3.75 9.9999V15.9999C3.75 19.6999 4.48 21.2499 9 21.2499H14C14.1989 21.2499 14.3897 21.3289 14.5303 21.4696C14.671 21.6102 14.75 21.801 14.75 21.9999C14.75 22.1988 14.671 22.3896 14.5303 22.5302C14.3897 22.6709 14.1989 22.7499 14 22.7499Z" fill="#5A5A5A"/>
  <path d="M20.9998 15.7499C20.8013 15.7486 20.6113 15.6691 20.4709 15.5288C20.3306 15.3884 20.2511 15.1984 20.2498 14.9999V9.99989C20.2498 5.77989 18.7998 4.92989 15.9598 4.76989C15.7613 4.75801 15.5754 4.66848 15.4424 4.52065C15.3093 4.37282 15.2398 4.17857 15.2488 3.97989C15.2607 3.78118 15.3504 3.59515 15.4984 3.46208C15.6465 3.329 15.841 3.2596 16.0398 3.26889C20.0998 3.48889 21.7498 5.43889 21.7498 9.98889V14.9889C21.7506 15.1891 21.6722 15.3814 21.5317 15.524C21.3912 15.6666 21.2 15.7478 20.9998 15.7499Z" fill="#5A5A5A"/>
  <path d="M15 19.75C14.8015 19.7487 14.6115 19.6693 14.4711 19.5289C14.3307 19.3885 14.2513 19.1985 14.25 19V16C14.2513 15.8015 14.3307 15.6115 14.4711 15.4711C14.6115 15.3307 14.8015 15.2513 15 15.25H18C18.1985 15.2513 18.3885 15.3307 18.5289 15.4711C18.6693 15.6115 18.7487 15.8015 18.75 16C18.7487 16.1985 18.6693 16.3885 18.5289 16.5289C18.3885 16.6693 18.1985 16.7487 18 16.75H15.75V19C15.7487 19.1985 15.6693 19.3885 15.5289 19.5289C15.3885 19.6693 15.1985 19.7487 15 19.75Z" fill="#5A5A5A"/>
  <path d="M21.0002 22.7502C20.9016 22.7505 20.804 22.7312 20.713 22.6935C20.622 22.6557 20.5395 22.6002 20.4702 22.5302L14.5112 16.5702C14.3834 16.4273 14.3152 16.2409 14.3206 16.0493C14.326 15.8578 14.4045 15.6755 14.54 15.54C14.6755 15.4045 14.8578 15.326 15.0493 15.3206C15.2409 15.3152 15.4273 15.3834 15.5702 15.5112L21.5302 21.4712C21.6696 21.6123 21.7479 21.8027 21.7479 22.0012C21.7479 22.1996 21.6696 22.39 21.5302 22.5312C21.4608 22.601 21.3782 22.6563 21.2872 22.6939C21.1962 22.7315 21.0986 22.7506 21.0002 22.7502Z" fill="#5A5A5A"/>
</svg>