<svg width="35" height="35" viewBox="0 0 35 35" fill="none" xmlns="http://www.w3.org/2000/svg">
<rect opacity="0.1" width="35" height="35" rx="4" fill="#158B7F"/>
<path d="M21 17.95H14C13.8015 17.9486 13.6115 17.8692 13.4711 17.7288C13.3307 17.5885 13.2513 17.3985 13.25 17.2C13.2513 17.0014 13.3307 16.8114 13.4711 16.6711C13.6115 16.5307 13.8015 16.4513 14 16.45H21C21.1985 16.4513 21.3885 16.5307 21.5289 16.6711C21.6693 16.8114 21.7487 17.0014 21.75 17.2C21.7487 17.3985 21.6693 17.5885 21.5289 17.7288C21.3885 17.8692 21.1985 17.9486 21 17.95Z" fill="#158B7F"/>
<path d="M18.38 21.95H14C13.8015 21.9486 13.6115 21.8692 13.4711 21.7288C13.3307 21.5885 13.2513 21.3985 13.25 21.2C13.2513 21.0014 13.3307 20.8114 13.4711 20.6711C13.6115 20.5307 13.8015 20.4513 14 20.45H18.38C18.5785 20.4513 18.7685 20.5307 18.9089 20.6711C19.0493 20.8114 19.1287 21.0014 19.13 21.2C19.1287 21.3985 19.0493 21.5885 18.9089 21.7288C18.7685 21.8692 18.5785 21.9486 18.38 21.95Z" fill="#158B7F"/>
<path d="M20 11.75H16C15.04 11.75 13.25 11.75 13.25 9C13.25 6.25 15.04 6.25 16 6.25H20C20.96 6.25 22.75 6.25 22.75 9C22.75 9.96 22.75 11.75 20 11.75ZM16 7.75C15.01 7.75 14.75 7.75 14.75 9C14.75 10.25 15.01 10.25 16 10.25H20C21.25 10.25 21.25 9.99 21.25 9C21.25 7.75 20.99 7.75 20 7.75H16Z" fill="#158B7F"/>
<path d="M21 27.75H15C9.38 27.75 8.25 25.169 8.25 21V15C8.25 10.44 9.9 8.48997 13.96 8.27997C14.1586 8.27067 14.3528 8.33997 14.5007 8.47286C14.6486 8.60574 14.7381 8.79152 14.75 8.98997C14.7551 9.08792 14.7407 9.18592 14.7077 9.27828C14.6747 9.37065 14.6238 9.45555 14.5577 9.52809C14.4917 9.60063 14.4119 9.65935 14.3231 9.70087C14.2342 9.74239 14.138 9.76587 14.04 9.76997C11.2 9.92997 9.75 10.78 9.75 15V21C9.75 24.7 10.48 26.25 15 26.25H21C25.52 26.25 26.25 24.7 26.25 21V15C26.25 10.78 24.8 9.92997 21.96 9.76997C21.7616 9.75784 21.576 9.6682 21.4432 9.52039C21.3104 9.37259 21.241 9.17849 21.25 8.97997C21.2619 8.78144 21.3514 8.59556 21.4992 8.46252C21.6471 8.32947 21.8413 8.25994 22.04 8.26897C26.1 8.48897 27.75 10.439 27.75 14.989V20.989C27.75 25.169 26.62 27.75 21 27.75Z" fill="#158B7F"/>
</svg>
