<svg xmlns="http://www.w3.org/2000/svg" width="24" height="24" viewBox="0 0 24 24" fill="none">
  <path d="M13.89 2.88002L9.19999 2.14002C5.28999 1.53002 3.47999 2.85002 2.85999 6.76002L2.11999 11.45C1.71999 14.01 2.13999 15.67 3.58999 16.68C4.54093 17.2868 5.61874 17.6666 6.73999 17.79L11.43 18.53C15.34 19.14 17.15 17.82 17.77 13.91L18.5 9.22002C18.6182 8.53676 18.6617 7.84269 18.63 7.15002C18.5 4.65002 17.03 3.37002 13.89 2.88002ZM8.23999 9.35002C7.82126 9.35101 7.41166 9.22768 7.06308 8.99566C6.71451 8.76364 6.44265 8.43338 6.28195 8.04671C6.12125 7.66004 6.07895 7.23437 6.16039 6.82363C6.24184 6.4129 6.44338 6.03558 6.73947 5.73949C7.03556 5.44341 7.41287 5.24187 7.82361 5.16042C8.23434 5.07897 8.66001 5.12128 9.04668 5.28198C9.43335 5.44268 9.76362 5.71453 9.99563 6.06311C10.2277 6.41168 10.351 6.82129 10.35 7.24002C10.3476 7.7989 10.1246 8.33421 9.72937 8.7294C9.33418 9.12459 8.79887 9.34765 8.23999 9.35002Z" fill="#313131"/>
  <path d="M20.5001 13.4701L19.0001 17.9801C17.7501 21.7401 15.7501 22.7401 11.9901 21.4901L7.48014 19.9901C6.31548 19.6693 5.25194 19.0566 4.39014 18.2101C5.09687 18.4803 5.83134 18.6714 6.58014 18.7801L11.2801 19.5201C11.8754 19.6164 12.4772 19.6665 13.0801 19.6701C16.3801 19.6701 18.1501 17.8901 18.7601 14.0601L19.4901 9.37006C19.5816 8.85505 19.6284 8.33312 19.6301 7.81006C21.1501 9.06006 21.3701 10.8401 20.5001 13.4701Z" fill="#313131"/>
</svg>