<svg xmlns="http://www.w3.org/2000/svg" width="47" height="47" viewBox="0 0 47 47" fill="none">
  <path d="M23.4994 3.91666C19.6261 3.91666 15.8399 5.0652 12.6194 7.21704C9.39898 9.36889 6.88893 12.4274 5.40672 16.0058C3.9245 19.5842 3.53669 23.5217 4.29231 27.3205C5.04794 31.1193 6.91307 34.6087 9.65185 37.3475C12.3906 40.0863 15.88 41.9514 19.6788 42.707C23.4776 43.4627 27.4152 43.0748 30.9936 41.5926C34.572 40.1104 37.6305 37.6004 39.7823 34.3799C41.9341 31.1594 43.0827 27.3732 43.0827 23.5C43.0744 18.3087 41.0085 13.3324 37.3377 9.66163C33.6669 5.99084 28.6906 3.92494 23.4994 3.91666ZM32.0181 30.4912C31.8885 30.7134 31.7025 30.8974 31.479 31.0246C31.2555 31.1518 31.0024 31.2178 30.7452 31.2158C30.4811 31.2206 30.2217 31.1455 30.001 31.0004L23.9302 27.3775C23.1547 26.8735 22.5115 26.1907 22.0549 25.3865C21.5982 24.5822 21.3414 23.68 21.306 22.7558V14.7267C21.306 14.3371 21.4608 13.9635 21.7362 13.6881C22.0117 13.4126 22.3852 13.2579 22.7748 13.2579C23.1643 13.2579 23.5379 13.4126 23.8133 13.6881C24.0888 13.9635 24.2435 14.3371 24.2435 14.7267V22.7558C24.2803 23.1705 24.406 23.5723 24.6121 23.9339C24.8183 24.2955 25.1 24.6084 25.4381 24.8512L31.5089 28.4742C31.677 28.5711 31.8239 28.7007 31.941 28.8555C32.058 29.0102 32.1428 29.1869 32.1903 29.375C32.2378 29.5631 32.247 29.7588 32.2174 29.9506C32.1878 30.1423 32.1201 30.3262 32.0181 30.4912Z" fill="#5A5A5A"/>
</svg>