<svg width="19" height="20" viewBox="0 0 19 20" fill="none" xmlns="http://www.w3.org/2000/svg">
<line x1="0.5" y1="2.18557e-08" x2="0.499999" y2="20" stroke="#838383"/>
<path d="M11.7477 14.1777C11.6492 14.1781 11.5516 14.1588 11.4606 14.121C11.3696 14.0832 11.287 14.0277 11.2177 13.9577C11.0782 13.8166 11 13.6261 11 13.4277C11 13.2293 11.0782 13.0388 11.2177 12.8977L16.8787 7.23871C16.9474 7.16502 17.0302 7.10592 17.1222 7.06493C17.2142 7.02394 17.3135 7.00189 17.4142 7.00012C17.5149 6.99834 17.6149 7.01686 17.7083 7.05459C17.8017 7.09231 17.8865 7.14845 17.9577 7.21967C18.029 7.29089 18.0851 7.37572 18.1228 7.46911C18.1605 7.5625 18.1791 7.66253 18.1773 7.76323C18.1755 7.86393 18.1535 7.96325 18.1125 8.05525C18.0715 8.14725 18.0124 8.23005 17.9387 8.29871L12.2787 13.9587C12.2098 14.0295 12.1271 14.0854 12.0358 14.123C11.9445 14.1607 11.8465 14.1793 11.7477 14.1777Z" fill="#5A5A5A"/>
<path d="M17.4077 14.1777C17.3091 14.178 17.2115 14.1588 17.1205 14.121C17.0295 14.0832 16.947 14.0277 16.8777 13.9577L11.2187 8.29769C11.0909 8.15481 11.0228 7.96845 11.0281 7.77687C11.0335 7.58529 11.112 7.40304 11.2475 7.26752C11.383 7.132 11.5653 7.05351 11.7569 7.04815C11.9484 7.04278 12.1348 7.11097 12.2777 7.23869L17.9377 12.8987C18.0772 13.0398 18.1554 13.2303 18.1554 13.4287C18.1554 13.6271 18.0772 13.8176 17.9377 13.9587C17.8683 14.0285 17.7857 14.0839 17.6947 14.1215C17.6037 14.1591 17.5061 14.1782 17.4077 14.1777Z" fill="#5A5A5A"/>
</svg>
