<svg xmlns="http://www.w3.org/2000/svg" width="20" height="20" viewBox="0 0 20 20" fill="none">
  <path d="M10.0003 1.6665C8.35215 1.6665 6.74099 2.15525 5.37058 3.07092C4.00017 3.9866 2.93206 5.28809 2.30133 6.81081C1.6706 8.33353 1.50558 10.0091 1.82712 11.6256C2.14866 13.2421 2.94234 14.727 4.10777 15.8924C5.27321 17.0578 6.75807 17.8515 8.37458 18.173C9.99109 18.4946 11.6666 18.3296 13.1894 17.6988C14.7121 17.0681 16.0136 16 16.9292 14.6296C17.8449 13.2592 18.3337 11.648 18.3337 9.99984C18.3301 7.79078 17.451 5.67321 15.889 4.11118C14.327 2.54914 12.2094 1.67003 10.0003 1.6665ZM12.8003 11.9165C12.9166 12.0341 12.9817 12.1928 12.9817 12.3582C12.9817 12.5235 12.9166 12.6822 12.8003 12.7998C12.7424 12.858 12.6736 12.9041 12.5978 12.9356C12.522 12.9671 12.4407 12.9833 12.3587 12.9833C12.2766 12.9833 12.1953 12.9671 12.1195 12.9356C12.0437 12.9041 11.9749 12.858 11.917 12.7998L10.0003 10.8832L8.08366 12.7998C8.02575 12.858 7.95692 12.9041 7.88113 12.9356C7.80533 12.9671 7.72407 12.9833 7.642 12.9833C7.55992 12.9833 7.47866 12.9671 7.40287 12.9356C7.32707 12.9041 7.25824 12.858 7.20033 12.7998C7.0841 12.6822 7.01891 12.5235 7.01891 12.3582C7.01891 12.1928 7.0841 12.0341 7.20033 11.9165L9.117 9.99984L7.20033 8.08317C7.08993 7.96469 7.02983 7.80799 7.03268 7.64607C7.03554 7.48415 7.10113 7.32966 7.21564 7.21515C7.33015 7.10064 7.48464 7.03505 7.64656 7.03219C7.80848 7.02934 7.96518 7.08944 8.08366 7.19984L10.0003 9.1165L11.917 7.19984C12.0355 7.08944 12.1922 7.02934 12.3541 7.03219C12.516 7.03505 12.6705 7.10064 12.785 7.21515C12.8995 7.32966 12.9651 7.48415 12.968 7.64607C12.9708 7.80799 12.9107 7.96469 12.8003 8.08317L10.8837 9.99984L12.8003 11.9165Z" fill="#EA5148"/>
</svg>