<svg xmlns="http://www.w3.org/2000/svg" width="40" height="40" viewBox="0 0 40 40" fill="none">
  <path d="M26.983 3.3335H13.0163C6.94967 3.3335 3.33301 6.95016 3.33301 13.0168V26.9668C3.33301 33.0502 6.94967 36.6668 13.0163 36.6668H26.9663C33.033 36.6668 36.6497 33.0502 36.6497 26.9835V13.0168C36.6663 6.95016 33.0497 3.3335 26.983 3.3335ZM25.5997 23.8335C25.8321 24.0687 25.9625 24.3861 25.9625 24.7168C25.9625 25.0475 25.8321 25.3649 25.5997 25.6002C25.4838 25.7165 25.3462 25.8088 25.1946 25.8717C25.043 25.9347 24.8805 25.9671 24.7163 25.9671C24.5522 25.9671 24.3897 25.9347 24.2381 25.8717C24.0865 25.8088 23.9488 25.7165 23.833 25.6002L19.9997 21.7668L16.1663 25.6002C16.0505 25.7165 15.9129 25.8088 15.7613 25.8717C15.6097 25.9347 15.4472 25.9671 15.283 25.9671C15.1189 25.9671 14.9563 25.9347 14.8047 25.8717C14.6532 25.8088 14.5155 25.7165 14.3997 25.6002C14.1672 25.3649 14.0368 25.0475 14.0368 24.7168C14.0368 24.3861 14.1672 24.0687 14.3997 23.8335L18.233 20.0002L14.3997 16.1668C14.1789 15.9299 14.0587 15.6165 14.0644 15.2926C14.0701 14.9688 14.2013 14.6598 14.4303 14.4308C14.6593 14.2018 14.9683 14.0706 15.2921 14.0649C15.616 14.0592 15.9294 14.1794 16.1663 14.4002L19.9997 18.2335L23.833 14.4002C24.07 14.1794 24.3834 14.0592 24.7072 14.0649C25.031 14.0706 25.34 14.2018 25.569 14.4308C25.7981 14.6598 25.9293 14.9688 25.935 15.2926C25.9407 15.6165 25.8205 15.9299 25.5997 16.1668L21.7663 20.0002L25.5997 23.8335Z" fill="#EA5148"/>
</svg>