<svg width="30" height="30" viewBox="0 0 24 24" fill="none" xmlns="http://www.w3.org/2000/svg">
<path d="M16.19 2H7.81C4.17 2 2 4.17 2 7.81V16.18C2 19.83 4.17 22 7.81 22H16.18C19.82 22 21.99 19.83 21.99 16.19V7.81C22 4.17 19.83 2 16.19 2ZM15.36 14.3C15.4995 14.4411 15.5777 14.6316 15.5777 14.83C15.5777 15.0284 15.4995 15.2189 15.36 15.36C15.2905 15.4298 15.2079 15.4852 15.117 15.5229C15.026 15.5607 14.9285 15.5802 14.83 15.5802C14.7315 15.5802 14.634 15.5607 14.543 15.5229C14.4521 15.4852 14.3695 15.4298 14.3 15.36L12 13.06L9.7 15.36C9.6305 15.4298 9.54791 15.4852 9.45696 15.5229C9.366 15.5607 9.26849 15.5802 9.17 15.5802C9.07151 15.5802 8.974 15.5607 8.88304 15.5229C8.79209 15.4852 8.7095 15.4298 8.64 15.36C8.50052 15.2189 8.4223 15.0284 8.4223 14.83C8.4223 14.6316 8.50052 14.4411 8.64 14.3L10.94 12L8.64 9.7C8.50752 9.55783 8.4354 9.36978 8.43883 9.17548C8.44225 8.98118 8.52097 8.79579 8.65838 8.65838C8.79579 8.52097 8.98118 8.44225 9.17548 8.43883C9.36978 8.4354 9.55783 8.50752 9.7 8.64L12 10.94L14.3 8.64C14.4422 8.50752 14.6302 8.4354 14.8245 8.43883C15.0188 8.44225 15.2042 8.52097 15.3416 8.65838C15.479 8.79579 15.5577 8.98118 15.5612 9.17548C15.5646 9.36978 15.4925 9.55783 15.36 9.7L13.06 12L15.36 14.3Z" fill="#EA5148"/>
</svg>
