<svg xmlns="http://www.w3.org/2000/svg" width="24" height="24" viewBox="0 0 24 24" fill="none">
  <path d="M12 2C10.0222 2 8.08879 2.58649 6.4443 3.6853C4.79981 4.78412 3.51809 6.3459 2.76121 8.17317C2.00433 10.0004 1.8063 12.0111 2.19215 13.9509C2.578 15.8907 3.53041 17.6725 4.92894 19.0711C6.32746 20.4696 8.10929 21.422 10.0491 21.8079C11.9889 22.1937 13.9996 21.9957 15.8268 21.2388C17.6541 20.4819 19.2159 19.2002 20.3147 17.5557C21.4135 15.9112 22 13.9778 22 12C21.9958 9.34913 20.9408 6.80805 19.0664 4.93361C17.192 3.05916 14.6509 2.00423 12 2ZM8 13C7.80222 13 7.60888 12.9414 7.44443 12.8315C7.27998 12.7216 7.15181 12.5654 7.07612 12.3827C7.00044 12.2 6.98063 11.9989 7.01922 11.8049C7.0578 11.6109 7.15305 11.4327 7.2929 11.2929C7.43275 11.153 7.61093 11.0578 7.80491 11.0192C7.9989 10.9806 8.19996 11.0004 8.38269 11.0761C8.56541 11.1518 8.72159 11.28 8.83147 11.4444C8.94136 11.6089 9 11.8022 9 12C9 12.2652 8.89465 12.5196 8.70711 12.7071C8.51957 12.8946 8.26522 13 8 13ZM12 13C11.8022 13 11.6089 12.9414 11.4444 12.8315C11.28 12.7216 11.1518 12.5654 11.0761 12.3827C11.0004 12.2 10.9806 11.9989 11.0192 11.8049C11.0578 11.6109 11.153 11.4327 11.2929 11.2929C11.4328 11.153 11.6109 11.0578 11.8049 11.0192C11.9989 10.9806 12.2 11.0004 12.3827 11.0761C12.5654 11.1518 12.7216 11.28 12.8315 11.4444C12.9414 11.6089 13 11.8022 13 12C13 12.2652 12.8946 12.5196 12.7071 12.7071C12.5196 12.8946 12.2652 13 12 13ZM16 13C15.8022 13 15.6089 12.9414 15.4444 12.8315C15.28 12.7216 15.1518 12.5654 15.0761 12.3827C15.0004 12.2 14.9806 11.9989 15.0192 11.8049C15.0578 11.6109 15.153 11.4327 15.2929 11.2929C15.4328 11.153 15.6109 11.0578 15.8049 11.0192C15.9989 10.9806 16.2 11.0004 16.3827 11.0761C16.5654 11.1518 16.7216 11.28 16.8315 11.4444C16.9414 11.6089 17 11.8022 17 12C17 12.2652 16.8946 12.5196 16.7071 12.7071C16.5196 12.8946 16.2652 13 16 13Z" fill="#007AFF"/>
</svg>