<svg xmlns="http://www.w3.org/2000/svg" width="24" height="24" viewBox="0 0 24 24" fill="none">
  <path d="M12.1097 22.7201H5.88974C5.27292 22.7483 4.65701 22.6476 4.0813 22.4244C3.5056 22.2011 2.98276 21.8604 2.54615 21.4237C2.10954 20.9871 1.76875 20.4643 1.54553 19.8886C1.32232 19.3129 1.22158 18.697 1.24974 18.0802V10.3102C1.22158 9.69333 1.32232 9.07742 1.54553 8.50171C1.76875 7.92601 2.10954 7.40317 2.54615 6.96656C2.98276 6.52995 3.5056 6.18916 4.0813 5.96594C4.65701 5.74273 5.27292 5.64199 5.88974 5.67015H9.71974C10.9492 5.67534 12.1273 6.16383 12.9997 7.03015L15.3897 9.41015C16.2584 10.281 16.7473 11.4601 16.7497 12.6902V18.0802C16.7779 18.697 16.6772 19.3129 16.454 19.8886C16.2307 20.4643 15.8899 20.9871 15.4533 21.4237C15.0167 21.8604 14.4939 22.2011 13.9182 22.4244C13.3425 22.6476 12.7266 22.7483 12.1097 22.7201ZM5.88974 7.17015C5.46975 7.14046 5.04829 7.20132 4.65386 7.34862C4.25943 7.49592 3.90125 7.72622 3.60353 8.02394C3.30581 8.32166 3.07551 8.67984 2.92821 9.07427C2.78091 9.4687 2.72005 9.89016 2.74974 10.3102V18.0802C2.72005 18.5001 2.78091 18.9216 2.92821 19.316C3.07551 19.7105 3.30581 20.0686 3.60353 20.3664C3.90125 20.6641 4.25943 20.8944 4.65386 21.0417C5.04829 21.189 5.46975 21.2498 5.88974 21.2202H12.1097C12.5297 21.2498 12.9512 21.189 13.3456 21.0417C13.74 20.8944 14.0982 20.6641 14.396 20.3664C14.6937 20.0686 14.924 19.7105 15.0713 19.316C15.2186 18.9216 15.2794 18.5001 15.2497 18.0802V12.6902C15.2448 11.8584 14.9146 11.0616 14.3297 10.4702L11.9397 8.09015C11.3498 7.50301 10.552 7.17239 9.71974 7.17015H5.88974Z" fill="#5A5A5A"/>
  <path d="M18.1097 18.28H15.9997C15.8012 18.2786 15.6112 18.1992 15.4709 18.0588C15.3305 17.9185 15.2511 17.7285 15.2497 17.53V12.69C15.2448 11.8582 14.9146 11.0614 14.3297 10.47L11.9397 8.08996C11.3498 7.50281 10.552 7.17219 9.71974 7.16996H7.99974C7.80123 7.16865 7.61123 7.08921 7.47086 6.94884C7.33049 6.80847 7.25105 6.61846 7.24974 6.41996V5.85996C7.22158 5.24314 7.32232 4.62722 7.54553 4.05152C7.76875 3.47582 8.10954 2.95298 8.54615 2.51636C8.98276 2.07975 9.5056 1.73896 10.0813 1.51575C10.657 1.29253 11.2729 1.19179 11.8897 1.21996H15.7197C16.9492 1.22514 18.1273 1.71363 18.9997 2.57996L21.3897 4.96996C21.8224 5.3993 22.1655 5.91036 22.399 6.47344C22.6325 7.03652 22.7517 7.64039 22.7497 8.24996V13.64C22.7779 14.2568 22.6772 14.8727 22.454 15.4484C22.2307 16.0241 21.8899 16.5469 21.4533 16.9835C21.0167 17.4202 20.4939 17.7609 19.9182 17.9842C19.3425 18.2074 18.7266 18.3081 18.1097 18.28ZM16.7497 16.78H18.1097C18.5297 16.8096 18.9512 16.7488 19.3456 16.6015C19.74 16.4542 20.0982 16.2239 20.396 15.9262C20.6937 15.6285 20.924 15.2703 21.0713 14.8758C21.2186 14.4814 21.2794 14.0599 21.2497 13.64V8.24996C21.2505 7.83751 21.1696 7.42898 21.0117 7.04796C20.8538 6.66693 20.622 6.32094 20.3297 6.02996L17.9397 3.63996C17.3494 3.05345 16.5519 2.72295 15.7197 2.71996H11.8897C11.486 2.69093 11.0806 2.74587 10.6991 2.88133C10.3177 3.01679 9.96842 3.22982 9.6734 3.50699C9.37838 3.78416 9.14399 4.11945 8.98502 4.49173C8.82605 4.864 8.74594 5.26518 8.74974 5.66996H9.71974C10.9492 5.67514 12.1273 6.16363 12.9997 7.02996L15.3897 9.40996C16.2584 10.2808 16.7473 11.4599 16.7497 12.69V16.78Z" fill="#5A5A5A"/>
</svg>