<svg xmlns="http://www.w3.org/2000/svg" width="24" height="24" viewBox="0 0 24 24" fill="none">
  <path d="M12.1499 19.35C11.9514 19.3487 11.7614 19.2693 11.621 19.1289C11.4807 18.9885 11.4012 18.7985 11.3999 18.6V16.5C11.4012 16.3015 11.4807 16.1115 11.621 15.9711C11.7614 15.8307 11.9514 15.7513 12.1499 15.75C12.3484 15.7513 12.5384 15.8307 12.6788 15.9711C12.8192 16.1115 12.8986 16.3015 12.8999 16.5V18.6C12.8986 18.7985 12.8192 18.9885 12.6788 19.1289C12.5384 19.2693 12.3484 19.3487 12.1499 19.35Z" fill="#5A5A5A"/>
  <path d="M17.8999 22.75H6.3999V21C6.39964 20.6388 6.47059 20.2811 6.6087 19.9473C6.74681 19.6135 6.94936 19.3103 7.20477 19.0549C7.46019 18.7995 7.76345 18.5969 8.09721 18.4588C8.43098 18.3207 8.78869 18.2497 9.1499 18.25H15.1499C15.5111 18.2497 15.8688 18.3207 16.2026 18.4588C16.5364 18.5969 16.8396 18.7995 17.095 19.0549C17.3504 19.3103 17.553 19.6135 17.6911 19.9473C17.8292 20.2811 17.9002 20.6388 17.8999 21V22.75ZM7.8999 21.25H16.3999V21C16.3999 20.6685 16.2682 20.3505 16.0338 20.1161C15.7994 19.8817 15.4814 19.75 15.1499 19.75H9.1499C8.81838 19.75 8.50044 19.8817 8.26602 20.1161C8.0316 20.3505 7.8999 20.6685 7.8999 21V21.25Z" fill="#5A5A5A"/>
  <path d="M18.1499 22.75H6.1499C5.95139 22.7487 5.76139 22.6693 5.62102 22.5289C5.48065 22.3885 5.40121 22.1985 5.3999 22C5.40121 21.8015 5.48065 21.6115 5.62102 21.4711C5.76139 21.3307 5.95139 21.2513 6.1499 21.25H18.1499C18.3484 21.2513 18.5384 21.3307 18.6788 21.4711C18.8192 21.6115 18.8986 21.8015 18.8999 22C18.8986 22.1985 18.8192 22.3885 18.6788 22.5289C18.5384 22.6693 18.3484 22.7487 18.1499 22.75Z" fill="#5A5A5A"/>
  <path d="M18.43 12.4401C18.322 12.4396 18.2153 12.4162 18.117 12.3713C18.0187 12.3265 17.9311 12.2613 17.86 12.1801C17.7665 12.0737 17.7054 11.9427 17.6842 11.8026C17.6629 11.6626 17.6823 11.5194 17.74 11.3901C18.0801 10.6077 18.2538 9.76315 18.25 8.91006V5.91006C18.2479 5.55256 18.187 5.19784 18.07 4.86006C18.06 4.83006 18.05 4.79006 18.04 4.75006C18.0122 4.60506 17.9988 4.45768 18 4.31006C18.0013 4.11155 18.0807 3.92155 18.2211 3.78118C18.3615 3.64081 18.5515 3.56137 18.75 3.56006H19.35C19.7833 3.56658 20.2112 3.6584 20.6091 3.83029C21.007 4.00218 21.3671 4.25077 21.6689 4.56185C21.9707 4.87294 22.2083 5.24043 22.368 5.64334C22.5278 6.04625 22.6066 6.47668 22.6 6.91006C22.5897 8.45986 21.9701 9.94339 20.875 11.0401C20.855 11.0601 20.795 11.1101 20.785 11.1201C20.1687 11.7013 19.4334 12.1415 18.63 12.4101C18.5651 12.4298 18.4977 12.4399 18.43 12.4401ZM19.675 5.09006C19.7231 5.36071 19.7465 5.63517 19.745 5.91006V8.91006C19.7452 9.31175 19.7151 9.71289 19.655 10.1101L19.825 9.97006C20.6334 9.15617 21.0895 8.05717 21.095 6.91006C21.1037 6.48965 20.9673 6.07909 20.7086 5.74756C20.4499 5.41603 20.0849 5.18382 19.675 5.09006Z" fill="#5A5A5A"/>
  <path d="M5.58006 12.4001C5.50155 12.4015 5.42351 12.3879 5.35006 12.3601C4.50739 12.0844 3.74283 11.6112 3.12006 10.9801C2.04121 9.87307 1.42594 8.39573 1.40006 6.85014C1.39579 6.42215 1.47693 5.99761 1.63874 5.60137C1.80055 5.20513 2.03979 4.84515 2.34243 4.54251C2.64508 4.23986 3.00506 4.00063 3.4013 3.83881C3.79754 3.677 4.22208 3.59586 4.65006 3.60014H5.30006C5.42484 3.60113 5.54748 3.63263 5.65729 3.6919C5.7671 3.75116 5.86074 3.83638 5.93006 3.94014C5.99832 4.04416 6.03956 4.16356 6.05003 4.28753C6.06051 4.41151 6.0399 4.53614 5.99006 4.65014C5.82723 5.02902 5.74548 5.43777 5.75006 5.85014V8.85014C5.74779 9.71055 5.92489 10.562 6.27006 11.3501C6.32657 11.4821 6.34435 11.6274 6.32133 11.769C6.29831 11.9107 6.23544 12.0429 6.14006 12.1501C6.06894 12.2281 5.98249 12.2905 5.88614 12.3335C5.78978 12.3766 5.68558 12.3992 5.58006 12.4001ZM4.30006 5.13014C3.90245 5.20796 3.54467 5.42264 3.28891 5.73687C3.03314 6.0511 2.89556 6.445 2.90006 6.85014C2.9276 8.01225 3.3959 9.12044 4.21006 9.95014C4.25178 9.99851 4.29873 10.0421 4.35006 10.0801C4.28202 9.6737 4.24857 9.26223 4.25006 8.85014V5.85014C4.25178 5.60933 4.26848 5.36887 4.30006 5.13014Z" fill="#5A5A5A"/>
  <path d="M12 16.75C9.94563 16.7466 7.97638 15.9289 6.52372 14.4763C5.07106 13.0236 4.25344 11.0544 4.25 9V6C4.25106 4.74055 4.75184 3.53298 5.64241 2.64241C6.53298 1.75184 7.74055 1.25106 9 1.25L15 1.25C16.2595 1.25106 17.467 1.75184 18.3576 2.64241C19.2482 3.53298 19.7489 4.74055 19.75 6V9C19.7466 11.0544 18.9289 13.0236 17.4763 14.4763C16.0236 15.9289 14.0544 16.7466 12 16.75ZM9 2.75C8.13853 2.75159 7.3128 3.09451 6.70365 3.70365C6.09451 4.3128 5.75159 5.13853 5.75 6V9C5.75 10.6576 6.40848 12.2473 7.58058 13.4194C8.75269 14.5915 10.3424 15.25 12 15.25C13.6576 15.25 15.2473 14.5915 16.4194 13.4194C17.5915 12.2473 18.25 10.6576 18.25 9V6C18.2484 5.13853 17.9055 4.3128 17.2963 3.70365C16.6872 3.09451 15.8615 2.75159 15 2.75H9Z" fill="#5A5A5A"/>
</svg>