<svg xmlns="http://www.w3.org/2000/svg" width="20" height="20" viewBox="0 0 20 20" fill="none">
  <path d="M10 12.2917C9.83458 12.2906 9.67624 12.2244 9.55926 12.1074C9.44229 11.9904 9.37609 11.8321 9.375 11.6667V7.5C9.37609 7.33458 9.44229 7.17624 9.55926 7.05926C9.67624 6.94229 9.83458 6.87609 10 6.875C10.1654 6.87609 10.3238 6.94229 10.4407 7.05926C10.5577 7.17624 10.6239 7.33458 10.625 7.5V11.6667C10.6239 11.8321 10.5577 11.9904 10.4407 12.1074C10.3238 12.2244 10.1654 12.2906 10 12.2917Z" fill="#EA5148"/>
  <path d="M9.99935 14.9977C9.94348 14.9958 9.8878 14.9903 9.83268 14.981C9.78046 14.9719 9.7299 14.9551 9.68268 14.931C9.62957 14.9128 9.57912 14.8876 9.53268 14.856L9.40768 14.756C9.25554 14.5962 9.16925 14.3849 9.16602 14.1643C9.16987 13.9446 9.25613 13.7343 9.40768 13.5752L9.53268 13.4743C9.57912 13.4428 9.62957 13.4175 9.68268 13.3993C9.7299 13.3752 9.78046 13.3584 9.83268 13.3493C9.93957 13.3243 10.0508 13.3243 10.1577 13.3493C10.2129 13.357 10.2664 13.3739 10.316 13.3993C10.3691 13.4175 10.4196 13.4428 10.466 13.4743L10.591 13.5743C10.7428 13.7337 10.829 13.9443 10.8327 14.1643C10.8294 14.3849 10.7432 14.5962 10.591 14.756L10.466 14.856C10.4196 14.8876 10.3691 14.9128 10.316 14.931C10.2664 14.9564 10.2129 14.9733 10.1577 14.981C10.1054 14.9907 10.0525 14.9962 9.99935 14.9977Z" fill="#EA5148"/>
  <path d="M15.051 18.4668H4.95438C4.27635 18.5255 3.5949 18.4028 2.97988 18.1114C2.36486 17.82 1.83837 17.3703 1.45438 16.8084C1.14882 16.1998 1.01092 15.5208 1.05486 14.8412C1.0988 14.1616 1.32299 13.506 1.70438 12.9418L6.75438 3.85845C7.58771 2.35845 8.73771 1.53345 10.0044 1.53345C11.271 1.53345 12.421 2.35845 13.2544 3.85845L18.3044 12.9501C18.6875 13.5136 18.9127 14.1694 18.9567 14.8494C19.0006 15.5293 18.8617 16.2087 18.5544 16.8168C18.1681 17.3766 17.6405 17.8242 17.0251 18.1141C16.4098 18.4039 15.7287 18.5256 15.051 18.4668ZM10.001 2.78345C9.21771 2.78345 8.45104 3.38345 7.84271 4.46678L2.80104 13.5584C2.53273 13.9353 2.36706 14.3754 2.3203 14.8357C2.27355 15.2959 2.34732 15.7604 2.53438 16.1834C2.81205 16.5541 3.18217 16.8454 3.60772 17.0282C4.03327 17.211 4.49936 17.2789 4.95938 17.2251H15.0594C15.5193 17.278 15.9851 17.2097 16.4105 17.0269C16.8359 16.8442 17.2061 16.5534 17.4844 16.1834C17.6737 15.7609 17.7487 15.296 17.7019 14.8353C17.6551 14.3746 17.4881 13.9343 17.2177 13.5584L12.1594 4.46678C11.551 3.38345 10.7877 2.78345 10.001 2.78345Z" fill="#EA5148"/>
</svg>