<svg xmlns="http://www.w3.org/2000/svg" width="40" height="40" viewBox="0 0 40 40" fill="none">
  <path d="M20 40C31.0457 40 40 31.0457 40 20C40 8.9543 31.0457 0 20 0C8.9543 0 0 8.9543 0 20C0 31.0457 8.9543 40 20 40Z" fill="#158B7F"/>
  <path d="M16 13.75C15.8015 13.7487 15.6115 13.6693 15.4711 13.5289C15.3307 13.3885 15.2513 13.1985 15.25 13V10C15.2513 9.80149 15.3307 9.61149 15.4711 9.47112C15.6115 9.33075 15.8015 9.25131 16 9.25C16.1985 9.25131 16.3885 9.33075 16.5289 9.47112C16.6693 9.61149 16.7487 9.80149 16.75 10V13C16.7487 13.1985 16.6693 13.3885 16.5289 13.5289C16.3885 13.6693 16.1985 13.7487 16 13.75Z" fill="white"/>
  <path d="M24 13.75C23.8015 13.7487 23.6115 13.6693 23.4711 13.5289C23.3307 13.3885 23.2513 13.1985 23.25 13V10C23.2513 9.80149 23.3307 9.61149 23.4711 9.47112C23.6115 9.33075 23.8015 9.25131 24 9.25C24.1985 9.25131 24.3885 9.33075 24.5289 9.47112C24.6693 9.61149 24.7487 9.80149 24.75 10V13C24.7487 13.1985 24.6693 13.3885 24.5289 13.5289C24.3885 13.6693 24.1985 13.7487 24 13.75Z" fill="white"/>
  <path d="M16.5 22.5C16.3693 22.4984 16.2402 22.4712 16.12 22.42C15.9973 22.3705 15.8853 22.2978 15.79 22.206C15.6068 22.0163 15.503 21.7637 15.5 21.5C15.5016 21.3693 15.5288 21.2402 15.58 21.12C15.6307 20.9989 15.7017 20.8873 15.79 20.79C15.8856 20.6996 15.9976 20.6283 16.12 20.58C16.3026 20.5061 16.5026 20.4867 16.696 20.5239C16.8894 20.5612 17.0679 20.6536 17.21 20.79C17.3926 20.9817 17.4961 21.2353 17.5 21.5C17.4978 21.567 17.4911 21.6339 17.48 21.7C17.4691 21.7627 17.4489 21.8233 17.42 21.88C17.3981 21.9437 17.3679 22.0043 17.33 22.06C17.2931 22.1124 17.253 22.1625 17.21 22.21C17.0183 22.3926 16.7647 22.4961 16.5 22.5Z" fill="white"/>
  <path d="M20 22.501C19.8693 22.4994 19.7402 22.4723 19.62 22.421C19.4976 22.3727 19.3856 22.3014 19.29 22.211C19.1058 22.0203 19.002 21.7661 19 21.501C19.0014 21.37 19.0286 21.2406 19.08 21.12C19.1307 20.9989 19.2017 20.8873 19.29 20.79C19.3856 20.6996 19.4976 20.6283 19.62 20.58C19.8021 20.5034 20.0028 20.4825 20.1968 20.5199C20.3908 20.5573 20.5694 20.6513 20.71 20.79C20.8928 20.982 20.9964 21.2359 21 21.501C20.9978 21.5681 20.9911 21.6349 20.98 21.701C20.9691 21.7637 20.9489 21.8244 20.92 21.881C20.8981 21.9448 20.8679 22.0053 20.83 22.061C20.7931 22.1134 20.753 22.1635 20.71 22.211C20.5183 22.3936 20.2647 22.4971 20 22.501Z" fill="white"/>
  <path d="M23.5 22.501C23.3693 22.4994 23.2402 22.4723 23.12 22.421C22.9976 22.3727 22.8856 22.3014 22.79 22.211L22.67 22.061C22.6321 22.0053 22.6019 21.9448 22.58 21.881C22.5511 21.8244 22.5309 21.7637 22.52 21.701C22.5089 21.6349 22.5022 21.5681 22.5 21.501C22.5036 21.2359 22.6072 20.982 22.79 20.79C22.8856 20.6996 22.9976 20.6283 23.12 20.58C23.3021 20.5034 23.5028 20.4825 23.6968 20.5199C23.8908 20.5573 24.0694 20.6513 24.21 20.79C24.3928 20.982 24.4964 21.2359 24.5 21.501C24.4978 21.5681 24.4911 21.6349 24.48 21.701C24.4691 21.7637 24.4489 21.8244 24.42 21.881C24.3981 21.9448 24.3679 22.0053 24.33 22.061C24.2931 22.1134 24.253 22.1635 24.21 22.211C24.0183 22.3936 23.7647 22.4971 23.5 22.501Z" fill="white"/>
  <path d="M16.5 26C16.3693 25.9984 16.2402 25.9712 16.12 25.92C15.9991 25.8702 15.8875 25.8002 15.79 25.713C15.6067 25.5205 15.5031 25.2658 15.5 25C15.5016 24.8693 15.5288 24.7402 15.58 24.62C15.626 24.4968 15.6976 24.3846 15.79 24.291C15.9834 24.1126 16.2369 24.0135 16.5 24.0135C16.7631 24.0135 17.0166 24.1126 17.21 24.291C17.3923 24.4825 17.4959 24.7356 17.5 25C17.4961 25.2647 17.3926 25.5183 17.21 25.71C17.0183 25.8926 16.7647 25.9961 16.5 26Z" fill="white"/>
  <path d="M20 26C19.7357 25.9969 19.4822 25.8945 19.29 25.713C19.1067 25.5205 19.0031 25.2658 19 25C19.0016 24.8693 19.0288 24.7402 19.08 24.62C19.126 24.4968 19.1976 24.3846 19.29 24.291C19.4834 24.1126 19.7369 24.0135 20 24.0135C20.2631 24.0135 20.5166 24.1126 20.71 24.291C20.8025 24.3849 20.8741 24.4974 20.92 24.621C20.9711 24.7409 20.9983 24.8697 21 25C20.9961 25.2647 20.8926 25.5183 20.71 25.71C20.5183 25.8926 20.2647 25.9961 20 26Z" fill="white"/>
  <path d="M23.5 25.999C23.2353 25.9951 22.9817 25.8916 22.79 25.709C22.6975 25.6151 22.6259 25.5026 22.58 25.379C22.5288 25.2588 22.5016 25.1297 22.5 24.999C22.5017 24.8687 22.5289 24.7399 22.58 24.62C22.6259 24.4964 22.6975 24.3839 22.79 24.29C22.9064 24.1747 23.0494 24.0898 23.2063 24.0427C23.3632 23.9956 23.5293 23.9878 23.69 24.02C23.7562 24.0293 23.8205 24.0496 23.88 24.08C23.9437 24.1019 24.0043 24.1321 24.06 24.17C24.1124 24.2069 24.1625 24.247 24.21 24.29C24.3923 24.4815 24.4959 24.7346 24.5 24.999C24.4961 25.2637 24.3926 25.5173 24.21 25.709C24.0183 25.8916 23.7647 25.9951 23.5 25.999Z" fill="white"/>
  <path d="M28.5 17.84H11.5C11.3015 17.8387 11.1115 17.7592 10.9711 17.6189C10.8307 17.4785 10.7513 17.2885 10.75 17.09C10.7513 16.8915 10.8307 16.7015 10.9711 16.5611C11.1115 16.4207 11.3015 16.3413 11.5 16.34H28.5C28.6985 16.3413 28.8885 16.4207 29.0289 16.5611C29.1693 16.7015 29.2487 16.8915 29.25 17.09C29.2487 17.2885 29.1693 17.4785 29.0289 17.6189C28.8885 17.7592 28.6985 17.8387 28.5 17.84Z" fill="white"/>
  <path d="M24 30.75H16C12.35 30.75 10.25 28.65 10.25 25V16.5C10.25 12.85 12.35 10.75 16 10.75H24C27.65 10.75 29.75 12.85 29.75 16.5V25C29.75 28.65 27.65 30.75 24 30.75ZM16 12.25C13.14 12.25 11.75 13.64 11.75 16.5V25C11.75 27.86 13.14 29.25 16 29.25H24C26.86 29.25 28.25 27.86 28.25 25V16.5C28.25 13.64 26.86 12.25 24 12.25H16Z" fill="white"/>
</svg>