<svg width="33" height="43" viewBox="0 0 33 43" fill="none" xmlns="http://www.w3.org/2000/svg">
<line x1="0.5" y1="0.5" x2="0.500002" y2="42.5" stroke="#ADADAD" stroke-linecap="round"/>
<path d="M21.3543 28.0005C21.1758 28.0012 20.999 27.9663 20.8342 27.8979C20.6694 27.8294 20.5198 27.7289 20.3943 27.6021C20.1417 27.3464 20 27.0015 20 26.6421C20 26.2827 20.1417 25.9378 20.3943 25.6822L30.6477 15.4324C30.7721 15.2989 30.9221 15.1918 31.0887 15.1176C31.2553 15.0434 31.4352 15.0034 31.6176 15.0002C31.8 14.997 31.9812 15.0305 32.1503 15.0989C32.3195 15.1672 32.4731 15.2689 32.6021 15.3979C32.7311 15.5269 32.8328 15.6805 32.9011 15.8497C32.9695 16.0188 33.003 16.2 32.9998 16.3824C32.9966 16.5648 32.9566 16.7447 32.8824 16.9113C32.8082 17.0779 32.7011 17.2279 32.5676 17.3523L22.316 27.6039C22.1912 27.732 22.0415 27.8333 21.8761 27.9015C21.7107 27.9697 21.5331 28.0034 21.3543 28.0005Z" fill="#838383"/>
<path d="M31.6062 28.0005C31.4277 28.0011 31.2509 27.9662 31.0861 27.8978C30.9213 27.8294 30.7718 27.7289 30.6462 27.602L20.3964 17.3504C20.1651 17.0916 20.0416 16.7541 20.0513 16.4071C20.061 16.0601 20.2032 15.73 20.4487 15.4845C20.6941 15.2391 21.0242 15.0969 21.3712 15.0872C21.7182 15.0775 22.0557 15.201 22.3145 15.4323L32.5661 25.6839C32.8188 25.9396 32.9605 26.2845 32.9605 26.6439C32.9605 27.0033 32.8188 27.3482 32.5661 27.6038C32.4405 27.7303 32.2908 27.8306 32.126 27.8987C31.9612 27.9668 31.7845 28.0014 31.6062 28.0005Z" fill="#838383"/>
</svg>
