<svg xmlns="http://www.w3.org/2000/svg" width="32" height="32" viewBox="0 0 32 32" fill="none">
  <path d="M28.0001 8.97334H27.8934C20.8979 8.17862 13.8402 8.08928 6.82677 8.70667L4.10677 8.97334C3.97404 8.9879 3.83974 8.9759 3.71169 8.93805C3.58363 8.9002 3.46439 8.83725 3.3609 8.75287C3.25742 8.66849 3.17175 8.56437 3.10889 8.44656C3.04603 8.32875 3.00724 8.19962 2.99477 8.06667C2.98096 7.93611 2.99317 7.8041 3.03069 7.67828C3.06821 7.55247 3.1303 7.43534 3.21338 7.33367C3.29645 7.23199 3.39885 7.1478 3.51467 7.08595C3.63048 7.02411 3.75741 6.98583 3.8881 6.97334L6.6081 6.70667C13.7592 6.08277 20.9547 6.1721 28.0881 6.97334C28.3512 7.00062 28.5929 7.13092 28.7603 7.33577C28.9276 7.54062 29.0072 7.80339 28.9814 8.06667C28.9611 8.31322 28.849 8.54315 28.6673 8.71103C28.4856 8.87891 28.2475 8.97251 28.0001 8.97334Z" fill="#5A5A5A"/>
  <path d="M11.3333 7.62666C11.2752 7.62837 11.2171 7.6239 11.1599 7.61332C10.9012 7.5667 10.6711 7.4205 10.5191 7.2061C10.367 6.9917 10.3051 6.72621 10.3466 6.46666L10.6399 4.71999C10.8533 3.43999 11.1466 1.66666 14.2533 1.66666H17.7466C20.8666 1.66666 21.1599 3.50666 21.3599 4.73332L21.6533 6.46666C21.6802 6.59743 21.6805 6.73229 21.6542 6.86319C21.6279 6.99409 21.5755 7.11836 21.5002 7.22858C21.4248 7.33881 21.328 7.43273 21.2156 7.50476C21.1032 7.57679 20.9774 7.62545 20.8458 7.64783C20.7142 7.67022 20.5794 7.66587 20.4495 7.63506C20.3196 7.60424 20.1972 7.54759 20.0896 7.46847C19.9821 7.38935 19.8915 7.28939 19.8235 7.17454C19.7554 7.0597 19.7111 6.93231 19.6933 6.79999L19.3986 5.06666C19.2119 3.90666 19.1719 3.67999 17.7586 3.67999H14.2666C12.8533 3.67999 12.8266 3.86666 12.6266 5.05332L12.3199 6.78666C12.2819 7.021 12.1618 7.23419 11.9811 7.38809C11.8003 7.54199 11.5707 7.62655 11.3333 7.62666Z" fill="#5A5A5A"/>
  <path d="M20.2796 30.3333H11.7196C7.06627 30.3333 6.87961 27.76 6.73294 25.68L5.86361 12.252C5.84782 11.9872 5.93689 11.7269 6.11155 11.5273C6.28621 11.3276 6.53242 11.2048 6.79694 11.1853C7.06162 11.1699 7.32177 11.2591 7.5213 11.4337C7.72083 11.6082 7.84377 11.8543 7.86361 12.1186L8.73027 25.5453C8.87694 27.572 8.93027 28.332 11.7169 28.332H20.2769C23.0769 28.332 23.1303 27.572 23.2636 25.5453L24.1303 12.1186C24.1521 11.855 24.2756 11.6102 24.4747 11.436C24.6737 11.2619 24.9328 11.1719 25.1969 11.1853C25.3283 11.1939 25.4567 11.2284 25.5747 11.2867C25.6927 11.345 25.7981 11.426 25.8848 11.5251C25.9715 11.6242 26.0378 11.7394 26.0799 11.8641C26.122 11.9888 26.1391 12.1206 26.1303 12.252L25.2636 25.6786C25.1196 27.76 24.9303 30.3333 20.2796 30.3333Z" fill="#5A5A5A"/>
  <path d="M18.2134 23H13.7734C13.5088 22.9983 13.2554 22.8923 13.0683 22.7052C12.8811 22.518 12.7752 22.2647 12.7734 22C12.7752 21.7353 12.8811 21.482 13.0683 21.2948C13.2554 21.1077 13.5088 21.0017 13.7734 21H18.2134C18.4781 21.0017 18.7315 21.1077 18.9186 21.2948C19.1058 21.482 19.2117 21.7353 19.2134 22C19.2117 22.2647 19.1058 22.518 18.9186 22.7052C18.7315 22.8923 18.4781 22.9983 18.2134 23Z" fill="#5A5A5A"/>
  <path d="M19.3332 17.6667H12.6665C12.4018 17.6649 12.1485 17.559 11.9613 17.3718C11.7742 17.1847 11.6683 16.9313 11.6665 16.6667C11.6683 16.402 11.7742 16.1486 11.9613 15.9615C12.1485 15.7743 12.4018 15.6684 12.6665 15.6667H19.3332C19.5978 15.6684 19.8512 15.7743 20.0383 15.9615C20.2255 16.1486 20.3314 16.402 20.3332 16.6667C20.3314 16.9313 20.2255 17.1847 20.0383 17.3718C19.8512 17.559 19.5978 17.6649 19.3332 17.6667Z" fill="#5A5A5A"/>
</svg>