<svg width="35" height="43" viewBox="0 0 35 43" fill="none" xmlns="http://www.w3.org/2000/svg">
<line x1="34.5" y1="0.5" x2="34.5" y2="42.5" stroke="#ADADAD" stroke-linecap="round"/>
<path d="M1.35427 28.0005C1.17582 28.0012 0.999024 27.9663 0.834207 27.8979C0.669391 27.8294 0.51985 27.7289 0.394309 27.6021C0.141677 27.3464 0 27.0015 0 26.6421C0 26.2827 0.141677 25.9378 0.394309 25.6822L10.6477 15.4324C10.7721 15.2989 10.9221 15.1918 11.0887 15.1176C11.2553 15.0434 11.4352 15.0034 11.6176 15.0002C11.8 14.997 11.9812 15.0305 12.1503 15.0989C12.3195 15.1672 12.4731 15.2689 12.6021 15.3979C12.7311 15.5269 12.8328 15.6805 12.9011 15.8497C12.9695 16.0188 13.003 16.2 12.9998 16.3824C12.9966 16.5648 12.9566 16.7447 12.8824 16.9113C12.8082 17.0779 12.7011 17.2279 12.5676 17.3523L2.31603 27.6039C2.1912 27.732 2.04149 27.8333 1.87611 27.9015C1.71072 27.9697 1.53314 28.0034 1.35427 28.0005Z" fill="#838383"/>
<path d="M11.6062 28.0005C11.4277 28.0011 11.2509 27.9662 11.0861 27.8978C10.9213 27.8294 10.7718 27.7289 10.6462 27.602L0.396437 17.3504C0.165095 17.0916 0.0416025 16.7541 0.0513134 16.4071C0.0610244 16.0601 0.203202 15.73 0.448656 15.4845C0.694111 15.2391 1.02422 15.0969 1.37121 15.0872C1.7182 15.0775 2.05574 15.201 2.31454 15.4323L12.5661 25.6839C12.8188 25.9396 12.9605 26.2845 12.9605 26.6439C12.9605 27.0033 12.8188 27.3482 12.5661 27.6038C12.4405 27.7303 12.2908 27.8306 12.126 27.8987C11.9612 27.9668 11.7845 28.0014 11.6062 28.0005Z" fill="#838383"/>
</svg>
