<svg xmlns="http://www.w3.org/2000/svg" width="35" height="35" viewBox="0 0 35 35" fill="none">
  <rect opacity="0.1" width="35" height="35" rx="4" fill="#EA5148"/>
  <path d="M27.0003 12.73H26.9203C21.6737 12.1339 16.3804 12.0669 11.1203 12.53L9.08032 12.73C8.98077 12.7409 8.88005 12.7319 8.78401 12.7035C8.68797 12.6751 8.59854 12.6279 8.52092 12.5646C8.44331 12.5013 8.37906 12.4232 8.33191 12.3349C8.28477 12.2465 8.25567 12.1497 8.24632 12.05C8.23596 11.9521 8.24512 11.853 8.27326 11.7587C8.3014 11.6643 8.34797 11.5765 8.41028 11.5002C8.47258 11.424 8.54938 11.3608 8.63624 11.3144C8.7231 11.268 8.8183 11.2393 8.91632 11.23L10.9563 11.03C16.3197 10.562 21.7163 10.629 27.0663 11.23C27.2637 11.2504 27.4449 11.3482 27.5704 11.5018C27.696 11.6554 27.7556 11.8525 27.7363 12.05C27.7211 12.2349 27.637 12.4073 27.5007 12.5332C27.3644 12.6592 27.1859 12.7294 27.0003 12.73Z" fill="#EA5148"/>
  <path d="M14.5004 11.72C14.4569 11.7213 14.4133 11.7179 14.3704 11.71C14.1764 11.675 14.0038 11.5654 13.8898 11.4046C13.7757 11.2438 13.7293 11.0447 13.7604 10.85L13.9804 9.54C14.1404 8.58 14.3604 7.25 16.6904 7.25H19.3104C21.6504 7.25 21.8704 8.63 22.0204 9.55L22.2404 10.85C22.2606 10.9481 22.2609 11.0492 22.2411 11.1474C22.2214 11.2456 22.1821 11.3388 22.1256 11.4214C22.0691 11.5041 21.9965 11.5746 21.9122 11.6286C21.8279 11.6826 21.7336 11.7191 21.6348 11.7359C21.5361 11.7527 21.435 11.7494 21.3376 11.7263C21.2402 11.7032 21.1484 11.6607 21.0677 11.6014C20.987 11.542 20.9191 11.4671 20.8681 11.3809C20.817 11.2948 20.7838 11.1992 20.7704 11.1L20.5494 9.8C20.4094 8.93 20.3794 8.76 19.3194 8.76H16.7004C15.6404 8.76 15.6204 8.9 15.4704 9.79L15.2404 11.09C15.2119 11.2658 15.1219 11.4257 14.9863 11.5411C14.8507 11.6565 14.6785 11.7199 14.5004 11.72Z" fill="#EA5148"/>
  <path d="M21.2098 28.75H14.7898C11.2998 28.75 11.1598 26.82 11.0498 25.26L10.3978 15.189C10.386 14.9904 10.4528 14.7952 10.5838 14.6454C10.7148 14.4957 10.8994 14.4036 11.0978 14.389C11.2963 14.3774 11.4914 14.4443 11.6411 14.5752C11.7907 14.7062 11.8829 14.8907 11.8978 15.089L12.5478 25.159C12.6578 26.679 12.6978 27.249 14.7878 27.249H21.2078C23.3078 27.249 23.3478 26.679 23.4478 25.159L24.0978 15.089C24.1142 14.8913 24.2068 14.7077 24.3561 14.577C24.5054 14.4464 24.6997 14.379 24.8978 14.389C24.9963 14.3955 25.0926 14.4213 25.1811 14.465C25.2697 14.5088 25.3487 14.5695 25.4137 14.6438C25.4787 14.7181 25.5285 14.8045 25.5601 14.8981C25.5916 14.9916 25.6045 15.0905 25.5978 15.189L24.9478 25.259C24.8398 26.82 24.6978 28.75 21.2098 28.75Z" fill="#EA5148"/>
  <path d="M19.6601 23.25H16.3301C16.1316 23.2487 15.9416 23.1693 15.8012 23.0289C15.6608 22.8885 15.5814 22.6985 15.5801 22.5C15.5814 22.3015 15.6608 22.1115 15.8012 21.9711C15.9416 21.8307 16.1316 21.7513 16.3301 21.75H19.6601C19.8586 21.7513 20.0486 21.8307 20.189 21.9711C20.3293 22.1115 20.4088 22.3015 20.4101 22.5C20.4088 22.6985 20.3293 22.8885 20.189 23.0289C20.0486 23.1693 19.8586 23.2487 19.6601 23.25Z" fill="#EA5148"/>
  <path d="M20.5 19.25H15.5C15.3015 19.2487 15.1115 19.1693 14.9711 19.0289C14.8307 18.8885 14.7513 18.6985 14.75 18.5C14.7513 18.3015 14.8307 18.1115 14.9711 17.9711C15.1115 17.8307 15.3015 17.7513 15.5 17.75H20.5C20.6985 17.7513 20.8885 17.8307 21.0289 17.9711C21.1693 18.1115 21.2487 18.3015 21.25 18.5C21.2487 18.6985 21.1693 18.8885 21.0289 19.0289C20.8885 19.1693 20.6985 19.2487 20.5 19.25Z" fill="#EA5148"/>
</svg>