<svg xmlns="http://www.w3.org/2000/svg" width="49" height="48" viewBox="0 0 49 48" fill="none">
  <rect opacity="0.1" x="0.457031" width="48" height="48" rx="4" fill="#EA5148"/>
  <path d="M37.4852 17.4586H37.3755C30.1801 16.6412 22.9207 16.5493 15.7069 17.1843L12.9092 17.4586C12.7727 17.4736 12.6345 17.4612 12.5028 17.4223C12.3711 17.3834 12.2485 17.3186 12.142 17.2318C12.0356 17.1451 11.9475 17.038 11.8828 16.9168C11.8182 16.7956 11.7783 16.6628 11.7654 16.526C11.7512 16.3917 11.7638 16.256 11.8024 16.1266C11.841 15.9971 11.9048 15.8767 11.9903 15.7721C12.0757 15.6675 12.1811 15.5809 12.3002 15.5173C12.4193 15.4537 12.5499 15.4143 12.6843 15.4015L15.482 15.1272C22.8374 14.4855 30.2385 14.5773 37.5757 15.4015C37.8464 15.4295 38.0949 15.5635 38.2671 15.7743C38.4392 15.985 38.521 16.2552 38.4946 16.526C38.4736 16.7796 38.3583 17.0161 38.1714 17.1888C37.9845 17.3615 37.7397 17.4578 37.4852 17.4586Z" fill="#EA5148"/>
  <path d="M20.3428 16.0732C20.283 16.0749 20.2233 16.0703 20.1645 16.0594C19.8984 16.0115 19.6617 15.8611 19.5053 15.6406C19.3489 15.4201 19.2852 15.147 19.3279 14.88L19.6296 13.0834C19.8491 11.7669 20.1508 9.94287 23.3462 9.94287H26.9393C30.1485 9.94287 30.4502 11.8354 30.6559 13.0972L30.9576 14.88C30.9853 15.0145 30.9856 15.1532 30.9586 15.2879C30.9315 15.4225 30.8777 15.5503 30.8002 15.6637C30.7226 15.7771 30.6231 15.8737 30.5075 15.9478C30.3918 16.0219 30.2625 16.0719 30.1271 16.0949C29.9917 16.118 29.8531 16.1135 29.7194 16.0818C29.5858 16.0501 29.4599 15.9918 29.3493 15.9105C29.2387 15.8291 29.1456 15.7263 29.0755 15.6081C29.0055 15.49 28.96 15.359 28.9416 15.2229L28.6385 13.44C28.4465 12.2469 28.4054 12.0137 26.9517 12.0137H23.3599C21.9062 12.0137 21.8788 12.2057 21.6731 13.4263L21.3576 15.2092C21.3186 15.4502 21.195 15.6695 21.0091 15.8278C20.8231 15.9861 20.587 16.073 20.3428 16.0732Z" fill="#EA5148"/>
  <path d="M29.5446 39.4288H20.74C15.9537 39.4288 15.7617 36.7819 15.6109 34.6425L14.7167 20.8308C14.7005 20.5585 14.7921 20.2907 14.9717 20.0854C15.1514 19.8801 15.4046 19.7538 15.6767 19.7337C15.9489 19.7178 16.2165 19.8096 16.4217 19.9891C16.627 20.1687 16.7534 20.4218 16.7738 20.6937L17.6653 34.504C17.8161 36.5886 17.871 37.3703 20.7373 37.3703H29.5418C32.4218 37.3703 32.4767 36.5886 32.6138 34.504L33.5053 20.6937C33.5277 20.4226 33.6547 20.1708 33.8595 19.9916C34.0643 19.8124 34.3307 19.72 34.6024 19.7337C34.7375 19.7426 34.8696 19.778 34.991 19.838C35.1124 19.898 35.2207 19.9813 35.3099 20.0832C35.3991 20.1851 35.4673 20.3036 35.5106 20.4319C35.5539 20.5602 35.5715 20.6957 35.5624 20.8308L34.671 34.6411C34.5229 36.7819 34.3281 39.4288 29.5446 39.4288Z" fill="#EA5148"/>
  <path d="M27.4196 31.8858H22.8528C22.5806 31.884 22.32 31.775 22.1275 31.5825C21.935 31.39 21.826 31.1294 21.8242 30.8572C21.826 30.5849 21.935 30.3244 22.1275 30.1319C22.32 29.9394 22.5806 29.8304 22.8528 29.8286H27.4196C27.6919 29.8304 27.9525 29.9394 28.145 30.1319C28.3375 30.3244 28.4464 30.5849 28.4482 30.8572C28.4464 31.1294 28.3375 31.39 28.145 31.5825C27.9525 31.775 27.6919 31.884 27.4196 31.8858Z" fill="#EA5148"/>
  <path d="M28.5713 26.3999H21.7141C21.4419 26.3981 21.1813 26.2892 20.9888 26.0967C20.7963 25.9042 20.6873 25.6436 20.6855 25.3713C20.6873 25.0991 20.7963 24.8385 20.9888 24.646C21.1813 24.4535 21.4419 24.3446 21.7141 24.3428H28.5713C28.8435 24.3446 29.1041 24.4535 29.2966 24.646C29.4891 24.8385 29.598 25.0991 29.5998 25.3713C29.598 25.6436 29.4891 25.9042 29.2966 26.0967C29.1041 26.2892 28.8435 26.3981 28.5713 26.3999Z" fill="#EA5148"/>
</svg>