<svg xmlns="http://www.w3.org/2000/svg" width="24" height="24" viewBox="0 0 24 24" fill="none">
  <path d="M15 22.75H9C3.57 22.75 1.25 20.43 1.25 15V9C1.25 3.57 3.57 1.25 9 1.25H14C14.1985 1.25131 14.3885 1.33075 14.5289 1.47112C14.6693 1.61149 14.7487 1.80149 14.75 2C14.7487 2.19851 14.6693 2.38851 14.5289 2.52888C14.3885 2.66925 14.1985 2.74869 14 2.75H9C4.39 2.75 2.75 4.39 2.75 9V15C2.75 19.61 4.39 21.25 9 21.25H15C19.61 21.25 21.25 19.61 21.25 15V10C21.25 9.80109 21.329 9.61032 21.4697 9.46967C21.6103 9.32902 21.8011 9.25 22 9.25C22.1989 9.25 22.3897 9.32902 22.5303 9.46967C22.671 9.61032 22.75 9.80109 22.75 10V15C22.75 20.43 20.43 22.75 15 22.75Z" fill="#5A5A5A"/>
  <path d="M22 10.751H18C14.58 10.751 13.25 9.42 13.25 6V2C13.2491 1.85223 13.2925 1.70758 13.3745 1.58463C13.4564 1.46167 13.5733 1.36604 13.71 1.31C13.8473 1.25327 13.9983 1.23819 14.1441 1.26664C14.2899 1.29509 14.4241 1.36581 14.53 1.47L22.53 9.47C22.6346 9.57502 22.7058 9.70865 22.7346 9.85406C22.7634 9.99947 22.7486 10.1501 22.6919 10.2871C22.6352 10.4241 22.5393 10.5412 22.4162 10.6238C22.293 10.7063 22.1482 10.7506 22 10.751ZM14.75 3.81V6C14.75 8.58 15.42 9.251 18 9.251H20.19L14.75 3.81Z" fill="#5A5A5A"/>
  <path d="M13 13.75H7C6.80149 13.7487 6.61149 13.6693 6.47112 13.5289C6.33075 13.3885 6.25131 13.1985 6.25 13C6.25131 12.8015 6.33075 12.6115 6.47112 12.4711C6.61149 12.3307 6.80149 12.2513 7 12.25H13C13.1985 12.2513 13.3885 12.3307 13.5289 12.4711C13.6693 12.6115 13.7487 12.8015 13.75 13C13.7487 13.1985 13.6693 13.3885 13.5289 13.5289C13.3885 13.6693 13.1985 13.7487 13 13.75Z" fill="#5A5A5A"/>
  <path d="M11 17.75H7C6.80149 17.7487 6.61149 17.6693 6.47112 17.5289C6.33075 17.3885 6.25131 17.1985 6.25 17C6.25131 16.8015 6.33075 16.6115 6.47112 16.4711C6.61149 16.3307 6.80149 16.2513 7 16.25H11C11.1985 16.2513 11.3885 16.3307 11.5289 16.4711C11.6693 16.6115 11.7487 16.8015 11.75 17C11.7487 17.1985 11.6693 17.3885 11.5289 17.5289C11.3885 17.6693 11.1985 17.7487 11 17.75Z" fill="#5A5A5A"/>
</svg>