<svg xmlns="http://www.w3.org/2000/svg" width="35" height="35" viewBox="0 0 35 35" fill="none">
  <rect opacity="0.1" width="35" height="35" rx="4" fill="#007AFF"/>
  <path d="M20 18.95H13C12.8015 18.9487 12.6115 18.8693 12.4711 18.7289C12.3307 18.5885 12.2513 18.3985 12.25 18.2C12.2513 18.0015 12.3307 17.8115 12.4711 17.6711C12.6115 17.5308 12.8015 17.4513 13 17.45H20C20.1985 17.4513 20.3885 17.5308 20.5289 17.6711C20.6693 17.8115 20.7487 18.0015 20.75 18.2C20.7487 18.3985 20.6693 18.5885 20.5289 18.7289C20.3885 18.8693 20.1985 18.9487 20 18.95Z" fill="#007AFF"/>
  <path d="M17.38 22.95H13C12.8015 22.9487 12.6115 22.8693 12.4711 22.7289C12.3307 22.5885 12.2513 22.3985 12.25 22.2C12.2513 22.0015 12.3307 21.8115 12.4711 21.6711C12.6115 21.5308 12.8015 21.4513 13 21.45H17.38C17.5785 21.4513 17.7685 21.5308 17.9089 21.6711C18.0493 21.8115 18.1287 22.0015 18.13 22.2C18.1287 22.3985 18.0493 22.5885 17.9089 22.7289C17.7685 22.8693 17.5785 22.9487 17.38 22.95Z" fill="#007AFF"/>
  <path d="M19 12.75H15C14.04 12.75 12.25 12.75 12.25 10C12.25 7.25 14.04 7.25 15 7.25H19C19.96 7.25 21.75 7.25 21.75 10C21.75 10.96 21.75 12.75 19 12.75ZM15 8.75C14.01 8.75 13.75 8.75 13.75 10C13.75 11.25 14.01 11.25 15 11.25H19C20.25 11.25 20.25 10.99 20.25 10C20.25 8.75 19.99 8.75 19 8.75H15Z" fill="#007AFF"/>
  <path d="M20 28.75H14C8.38 28.75 7.25 26.169 7.25 22V16C7.25 11.44 8.9 9.48997 12.96 9.27997C13.1586 9.27067 13.3528 9.33997 13.5007 9.47286C13.6486 9.60574 13.7381 9.79152 13.75 9.98997C13.7551 10.0879 13.7407 10.1859 13.7077 10.2783C13.6747 10.3706 13.6238 10.4556 13.5577 10.5281C13.4917 10.6006 13.4119 10.6594 13.3231 10.7009C13.2342 10.7424 13.138 10.7659 13.04 10.77C10.2 10.93 8.75 11.78 8.75 16V22C8.75 25.7 9.48 27.25 14 27.25H20C24.52 27.25 25.25 25.7 25.25 22V16C25.25 11.78 23.8 10.93 20.96 10.77C20.7616 10.7578 20.576 10.6682 20.4432 10.5204C20.3104 10.3726 20.241 10.1785 20.25 9.97997C20.2619 9.78144 20.3514 9.59556 20.4992 9.46252C20.6471 9.32947 20.8413 9.25994 21.04 9.26897C25.1 9.48897 26.75 11.439 26.75 15.989V21.989C26.75 26.169 25.62 28.75 20 28.75Z" fill="#007AFF"/>
</svg>