<svg xmlns="http://www.w3.org/2000/svg" width="48" height="48" viewBox="0 0 48 48" fill="none">
  <path d="M31.6013 4.41998C31.4215 4.23714 31.1919 4.1112 30.9411 4.05782C30.6902 4.00444 30.4292 4.02598 30.1905 4.11975C29.9518 4.21352 29.746 4.3754 29.5985 4.58524C29.4511 4.79508 29.3686 5.04363 29.3613 5.29998V12.28C29.3908 13.7148 29.9847 15.0801 31.0144 16.0798C32.044 17.0795 33.4263 17.6329 34.8613 17.62C36.7613 17.64 39.4013 17.64 41.6613 17.64C41.9121 17.6467 42.1591 17.5786 42.371 17.4443C42.5828 17.31 42.7498 17.1156 42.8507 16.886C42.9516 16.6563 42.9817 16.4018 42.9373 16.155C42.8929 15.9081 42.7759 15.6801 42.6013 15.5C39.7213 12.6 34.5613 7.37998 31.6013 4.41998Z" fill="#5A5A5A"/>
  <path d="M41.0036 20.38H35.2236C32.9437 20.3769 30.7581 19.4698 29.146 17.8577C27.5338 16.2455 26.6268 14.0599 26.6236 11.78V6.00004C26.6236 5.46961 26.4129 4.9609 26.0378 4.58583C25.6627 4.21076 25.154 4.00004 24.6236 4.00004H16.1436C14.6584 3.91501 13.172 4.14492 11.7819 4.67468C10.3918 5.20443 9.12943 6.02208 8.07752 7.07398C7.02562 8.12589 6.20797 9.38829 5.67822 10.7784C5.14846 12.1685 4.91855 13.6549 5.00358 15.14V32.86C4.91855 34.3452 5.14846 35.8316 5.67822 37.2217C6.20797 38.6118 7.02562 39.8742 8.07752 40.9261C9.12943 41.978 10.3918 42.7957 11.7819 43.3254C13.172 43.8552 14.6584 44.0851 16.1436 44H31.8636C33.3488 44.0851 34.8352 43.8552 36.2252 43.3254C37.6153 42.7957 38.8777 41.978 39.9296 40.9261C40.9815 39.8742 41.7992 38.6118 42.3289 37.2217C42.8587 35.8316 43.0886 34.3452 43.0036 32.86V22.38C43.0036 21.8496 42.7929 21.3409 42.4178 20.9658C42.0427 20.5908 41.534 20.38 41.0036 20.38ZM23.0036 35.5H15.0036C14.6058 35.5 14.2242 35.342 13.9429 35.0607C13.6616 34.7794 13.5036 34.3979 13.5036 34C13.5036 33.6022 13.6616 33.2207 13.9429 32.9394C14.2242 32.6581 14.6058 32.5 15.0036 32.5H23.0036C23.4014 32.5 23.7829 32.6581 24.0642 32.9394C24.3455 33.2207 24.5036 33.6022 24.5036 34C24.5036 34.3979 24.3455 34.7794 24.0642 35.0607C23.7829 35.342 23.4014 35.5 23.0036 35.5ZM27.0036 27.5H15.0036C14.6058 27.5 14.2242 27.342 13.9429 27.0607C13.6616 26.7794 13.5036 26.3979 13.5036 26C13.5036 25.6022 13.6616 25.2207 13.9429 24.9394C14.2242 24.6581 14.6058 24.5 15.0036 24.5H27.0036C27.4014 24.5 27.7829 24.6581 28.0642 24.9394C28.3455 25.2207 28.5036 25.6022 28.5036 26C28.5036 26.3979 28.3455 26.7794 28.0642 27.0607C27.7829 27.342 27.4014 27.5 27.0036 27.5Z" fill="#5A5A5A"/>
</svg>