<svg xmlns="http://www.w3.org/2000/svg" width="27" height="26" viewBox="0 0 27 26" fill="none">
  <path d="M13.5 25.6882C11.8502 25.6682 10.2203 25.3251 8.7025 24.6782C7.16399 23.9995 5.75446 23.0598 4.53625 21.9007C3.39499 20.6936 2.49508 19.2795 1.885 17.7344C1.254 16.2558 0.911191 14.6703 0.875 13.0632C0.886657 11.3921 1.22996 9.73993 1.885 8.20253C2.52546 6.67315 3.42206 5.2642 4.53625 4.03628C5.76417 2.92209 7.17312 2.02549 8.7025 1.38503C11.7762 0.122306 15.2238 0.122306 18.2975 1.38503C19.8269 2.02549 21.2358 2.92209 22.4638 4.03628C23.5779 5.2642 24.4745 6.67315 25.115 8.20253C25.77 9.73993 26.1133 11.3921 26.125 13.0632C26.1051 14.713 25.7619 16.3429 25.115 17.8607C24.5049 19.4057 23.605 20.8199 22.4638 22.0269C21.2358 23.1411 19.8269 24.0377 18.2975 24.6782C16.7797 25.3251 15.1498 25.6682 13.5 25.6882Z" fill="#F8BB86"/>
</svg>