<svg width="28" height="28" viewBox="0 0 28 28" fill="none" xmlns="http://www.w3.org/2000/svg">
<circle cx="14" cy="14" r="13.25" fill="#158B7F" stroke="white" stroke-width="1.5"/>
<path d="M19.6902 8.68758C18.2221 7.21947 16.7843 7.18164 15.2784 8.68758L14.3627 9.60326C14.3249 9.64283 14.2981 9.69153 14.2848 9.7446C14.2715 9.79767 14.2723 9.85327 14.287 9.90596C14.5764 10.8991 15.1116 11.8032 15.8431 12.5347C16.5746 13.2662 17.4787 13.8014 18.4719 14.0908C18.5014 14.0995 18.5319 14.1046 18.5627 14.106C18.6035 14.1064 18.644 14.0986 18.6817 14.083C18.7194 14.0674 18.7536 14.0443 18.7821 14.0151L19.6902 13.0995C20.0135 12.8287 20.2787 12.4954 20.4699 12.1196C20.6611 11.7438 20.7743 11.3332 20.8027 10.9124C20.78 10.4851 20.6695 10.067 20.4781 9.68418C20.2867 9.30139 20.0185 8.96214 19.6902 8.68758Z" fill="white"/>
<path d="M17.111 14.7795C16.8915 14.6735 16.6796 14.5676 16.4753 14.4465C16.3088 14.3481 16.1499 14.2422 15.991 14.1287C15.8435 14.0286 15.702 13.9199 15.5672 13.8033C15.5209 13.7695 15.4778 13.7315 15.4385 13.6897C15.1565 13.4504 14.8957 13.1871 14.6591 12.9027C14.6169 12.8611 14.5789 12.8154 14.5456 12.7665C14.4314 12.6342 14.3253 12.4952 14.2277 12.3503C14.1199 12.208 14.0213 12.0588 13.9326 11.9038C13.8115 11.6995 13.7056 11.4951 13.5996 11.2833C13.4937 11.0562 13.4104 10.8368 13.3347 10.6324L8.58232 15.3849C8.47661 15.5028 8.40356 15.6463 8.37042 15.8011L7.96178 18.6995C7.91961 18.935 7.93251 19.1771 7.99946 19.4069C8.06641 19.6366 8.18561 19.8478 8.34772 20.0238C8.63406 20.293 9.01425 20.4396 9.40718 20.4324C9.49846 20.4324 9.58958 20.4248 9.67961 20.4097L12.5856 20.0011C12.7415 19.9711 12.8858 19.8977 13.0018 19.7892L17.7542 15.0368C17.5423 14.9611 17.338 14.8779 17.111 14.7795Z" fill="white"/>
</svg>
