<svg xmlns="http://www.w3.org/2000/svg" width="35" height="35" viewBox="0 0 35 35" fill="none">
  <rect opacity="0.1" width="35" height="35" rx="4" fill="#7BBC67"/>
  <path d="M11.5404 25.52C10.953 25.5312 10.3838 25.3164 9.95036 24.92C9.68647 24.6581 9.48752 24.3382 9.36945 23.9857C9.25137 23.6332 9.21743 23.2579 9.27036 22.89L9.64036 19.65C9.74391 18.9588 10.0462 18.3125 10.5104 17.79L18.7204 9.09999C20.7704 6.92999 22.9104 6.86999 25.0804 8.91999C27.2504 10.97 27.3104 13.11 25.2604 15.28L17.0524 23.97C16.556 24.4622 15.9271 24.7992 15.2424 24.94L12.0224 25.49C11.8524 25.5 11.7004 25.52 11.5404 25.52ZM21.9304 8.90999C21.5136 8.9539 21.1103 9.08309 20.7456 9.28954C20.3809 9.49598 20.0625 9.77525 19.8104 10.11L11.6004 18.81C11.3651 19.1004 11.2038 19.4435 11.1304 19.81L10.7604 23.05C10.7334 23.1866 10.7393 23.3276 10.7776 23.4615C10.8158 23.5954 10.8853 23.7182 10.9804 23.82C11.0877 23.9081 11.2139 23.9703 11.3492 24.0015C11.4846 24.0327 11.6253 24.0322 11.7604 24L14.9804 23.45C15.342 23.3603 15.6754 23.1815 15.9504 22.93L24.1604 14.24C25.4004 12.92 25.8504 11.7 24.0404 9.99999C23.5054 9.37629 22.7486 8.98536 21.9304 8.90999Z" fill="#7BBC67"/>
  <path d="M23.3401 16.95H23.2701C21.7545 16.8015 20.3314 16.1529 19.2252 15.1064C18.1189 14.0599 17.3924 12.675 17.1601 11.17C17.1318 10.9727 17.1819 10.7722 17.2996 10.6115C17.4174 10.4507 17.5935 10.3425 17.7901 10.31C17.9873 10.2817 18.1878 10.3318 18.3486 10.4495C18.5093 10.5673 18.6176 10.7434 18.6501 10.94C18.8332 12.1166 19.402 13.1991 20.2673 14.0172C21.1325 14.8354 22.245 15.3429 23.4301 15.46C23.6274 15.4804 23.8086 15.5782 23.9342 15.7318C24.0597 15.8854 24.1194 16.0825 24.1001 16.28C24.0751 16.4643 23.9845 16.6336 23.8449 16.7566C23.7054 16.8796 23.5261 16.9483 23.3401 16.95Z" fill="#7BBC67"/>
</svg>