<svg xmlns="http://www.w3.org/2000/svg" width="24" height="24" viewBox="0 0 24 24" fill="none">
  <path d="M19.0201 3.48004C17.0801 1.54004 15.1801 1.49004 13.1901 3.48004L11.9801 4.69004C11.9302 4.74232 11.8947 4.80669 11.8772 4.87681C11.8597 4.94694 11.8607 5.02041 11.8801 5.09004C12.2625 6.40242 12.9698 7.59716 13.9364 8.56375C14.903 9.53035 16.0977 10.2376 17.4101 10.62C17.4491 10.6316 17.4894 10.6383 17.5301 10.64C17.584 10.6406 17.6375 10.6303 17.6874 10.6097C17.7372 10.589 17.7823 10.5586 17.8201 10.52L19.0201 9.31004C19.4473 8.95228 19.7977 8.51185 20.0503 8.01521C20.3029 7.51856 20.4525 6.97597 20.4901 6.42004C20.4601 5.8553 20.3141 5.30279 20.0612 4.79697C19.8083 4.29114 19.4539 3.84285 19.0201 3.48004Z" fill="white"/>
  <path d="M15.6099 11.53C15.3199 11.39 15.0399 11.25 14.7699 11.09C14.5499 10.96 14.3399 10.82 14.1299 10.67C13.935 10.5378 13.748 10.3942 13.5699 10.24C13.5087 10.1954 13.4518 10.1452 13.3999 10.09C13.0271 9.7738 12.6825 9.42583 12.3699 9.05005C12.3142 8.99501 12.264 8.93473 12.2199 8.87005C12.0691 8.69521 11.9288 8.51156 11.7999 8.32005C11.6573 8.13197 11.5271 7.93489 11.4099 7.73005C11.2499 7.46005 11.1099 7.19005 10.9699 6.91005C10.8299 6.61005 10.7199 6.32005 10.6199 6.05005L4.33987 12.33C4.20018 12.4858 4.10366 12.6754 4.05987 12.88L3.51987 16.71C3.46415 17.0213 3.48119 17.3413 3.56967 17.6449C3.65814 17.9484 3.81565 18.2274 4.02987 18.46C4.40825 18.8157 4.91064 19.0095 5.42987 19C5.55049 19 5.6709 18.99 5.78987 18.97L9.62987 18.43C9.83593 18.3904 10.0266 18.2934 10.1799 18.15L16.4599 11.87C16.1799 11.77 15.9099 11.66 15.6099 11.53Z" fill="white"/>
</svg>