<svg xmlns="http://www.w3.org/2000/svg" width="24" height="24" viewBox="0 0 24 24" fill="none">
  <path d="M15 22.75H9C3.57 22.75 1.25 20.43 1.25 15V9C1.25 3.57 3.57 1.25 9 1.25H11C11.1985 1.25131 11.3885 1.33075 11.5289 1.47112C11.6693 1.61149 11.7487 1.80149 11.75 2C11.7487 2.19851 11.6693 2.38851 11.5289 2.52888C11.3885 2.66925 11.1985 2.74869 11 2.75H9C4.39 2.75 2.75 4.39 2.75 9V15C2.75 19.61 4.39 21.25 9 21.25H15C19.61 21.25 21.25 19.61 21.25 15V13C21.25 12.8011 21.329 12.6103 21.4697 12.4697C21.6103 12.329 21.8011 12.25 22 12.25C22.1989 12.25 22.3897 12.329 22.5303 12.4697C22.671 12.6103 22.75 12.8011 22.75 13V15C22.75 20.43 20.43 22.75 15 22.75Z" fill="#5A5A5A"/>
  <path d="M8.50164 17.6901C7.91402 17.6988 7.34653 17.4761 6.92164 17.0701C6.67683 16.8144 6.49581 16.5045 6.39329 16.1657C6.29077 15.8268 6.26965 15.4686 6.33164 15.1201L6.76164 12.1101C6.87969 11.4589 7.18157 10.8552 7.63164 10.3701L15.5116 2.49006C17.5016 0.500059 19.5216 0.500059 21.5116 2.49006C21.9913 2.89502 22.3735 3.40293 22.6297 3.97601C22.886 4.54908 23.0097 5.17256 22.9916 5.80006C22.831 6.84037 22.3066 7.78999 21.5116 8.48006L13.6316 16.3601C13.1465 16.8101 12.5428 17.112 11.8916 17.2301L8.88164 17.6601C8.75654 17.6845 8.62904 17.6946 8.50164 17.6901ZM16.5716 3.55006L8.69164 11.4301C8.47014 11.6848 8.3155 11.9907 8.24164 12.3201L7.81164 15.3301C7.78536 15.4488 7.78703 15.5721 7.81653 15.6901C7.84603 15.8081 7.90256 15.9176 7.98164 16.0101C8.07407 16.0891 8.1836 16.1457 8.30161 16.1752C8.41962 16.2047 8.54287 16.2063 8.66164 16.1801L11.6716 15.7501C12.0018 15.6783 12.3082 15.5234 12.5616 15.3001L20.4416 7.42006C20.9812 6.96694 21.3484 6.34195 21.4816 5.65006C21.4733 5.24366 21.3759 4.84405 21.1962 4.47945C21.0165 4.11485 20.7589 3.79417 20.4416 3.54006C18.8406 1.93906 17.7406 2.39006 16.5706 3.55006H16.5716Z" fill="#5A5A5A"/>
  <path d="M19.851 9.82999C19.7832 9.83057 19.7157 9.82045 19.651 9.79999C18.3514 9.42994 17.1677 8.73421 16.2123 7.77872C15.2568 6.82322 14.561 5.63961 14.191 4.33999C14.1384 4.14775 14.1635 3.94256 14.2607 3.7686C14.358 3.59465 14.5197 3.46587 14.711 3.40999C14.8055 3.38342 14.9044 3.3758 15.0019 3.38758C15.0994 3.39936 15.1936 3.4303 15.2791 3.47863C15.3646 3.52696 15.4397 3.59172 15.5001 3.66918C15.5605 3.74664 15.605 3.83528 15.631 3.92999C15.9305 4.98207 16.4937 5.94024 17.2672 6.71374C18.0407 7.48724 18.9989 8.05044 20.051 8.34999C20.243 8.40473 20.4056 8.53331 20.503 8.70761C20.6005 8.88191 20.6249 9.08772 20.571 9.27999C20.5295 9.43884 20.4361 9.57925 20.3056 9.67891C20.1752 9.77857 20.0151 9.83175 19.851 9.82999Z" fill="#5A5A5A"/>
</svg>