<svg xmlns="http://www.w3.org/2000/svg" width="24" height="24" viewBox="0 0 24 24" fill="none">
  <path d="M15 22.75H9C3.57 22.75 1.25 20.43 1.25 15V9C1.25 3.57 3.57 1.25 9 1.25H15C20.43 1.25 22.75 3.57 22.75 9V15C22.75 20.43 20.43 22.75 15 22.75ZM9 2.75C4.39 2.75 2.75 4.39 2.75 9V15C2.75 19.61 4.39 21.25 9 21.25H15C19.61 21.25 21.25 19.61 21.25 15V9C21.25 4.39 19.61 2.75 15 2.75H9Z" fill="#5A5A5A"/>
  <path d="M10.6408 9.49996C10.5423 9.50032 10.4447 9.48105 10.3537 9.44327C10.2627 9.4055 10.1801 9.34998 10.1108 9.27996C9.76809 8.93897 9.30429 8.74755 8.82082 8.74755C8.33736 8.74755 7.87356 8.93897 7.53082 9.27996C7.38865 9.41244 7.2006 9.48457 7.0063 9.48114C6.812 9.47771 6.62661 9.399 6.4892 9.26159C6.35179 9.12417 6.27308 8.93879 6.26965 8.74449C6.26622 8.55018 6.33834 8.36214 6.47082 8.21996C7.09596 7.60026 7.94058 7.25256 8.82082 7.25256C9.70107 7.25256 10.5457 7.60026 11.1708 8.21996C11.3103 8.3611 11.3885 8.55153 11.3885 8.74996C11.3885 8.94839 11.3103 9.13883 11.1708 9.27996C11.1015 9.34998 11.0189 9.4055 10.928 9.44327C10.837 9.48105 10.7393 9.50032 10.6408 9.49996Z" fill="#5A5A5A"/>
  <path d="M13.359 9.49996C13.2605 9.50032 13.1629 9.48105 13.0719 9.44327C12.9809 9.4055 12.8983 9.34998 12.829 9.27996C12.6895 9.13883 12.6113 8.94839 12.6113 8.74996C12.6113 8.55153 12.6895 8.3611 12.829 8.21996C13.4542 7.60026 14.2988 7.25256 15.179 7.25256C16.0593 7.25256 16.9039 7.60026 17.529 8.21996C17.6615 8.36214 17.7336 8.55018 17.7302 8.74449C17.7268 8.93879 17.6481 9.12417 17.5107 9.26159C17.3732 9.399 17.1879 9.47771 16.9936 9.48114C16.7993 9.48457 16.6112 9.41244 16.469 9.27996C16.1263 8.93897 15.6625 8.74755 15.179 8.74755C14.6956 8.74755 14.2318 8.93897 13.889 9.27996C13.8209 9.3515 13.7385 9.40801 13.6472 9.44589C13.556 9.48378 13.4578 9.50219 13.359 9.49996Z" fill="#5A5A5A"/>
  <path d="M15.6 18.45H8.4C7.96256 18.4495 7.54318 18.2754 7.23386 17.9661C6.92454 17.6568 6.75053 17.2374 6.75 16.8C6.75 15.4076 7.30312 14.0722 8.28769 13.0877C9.27226 12.1031 10.6076 11.55 12 11.55C13.3924 11.55 14.7277 12.1031 15.7123 13.0877C16.6969 14.0722 17.25 15.4076 17.25 16.8C17.2495 17.2374 17.0755 17.6568 16.7661 17.9661C16.4568 18.2754 16.0374 18.4495 15.6 18.45ZM12 13.05C11.0055 13.0503 10.0518 13.4454 9.34864 14.1486C8.64544 14.8518 8.25027 15.8055 8.25 16.8C8.25101 16.8395 8.26714 16.877 8.29505 16.9049C8.32297 16.9328 8.36054 16.949 8.4 16.95H15.6C15.6395 16.949 15.677 16.9328 15.7049 16.9049C15.7329 16.877 15.749 16.8395 15.75 16.8C15.7497 15.8055 15.3546 14.8518 14.6514 14.1486C13.9482 13.4454 12.9945 13.0503 12 13.05Z" fill="#5A5A5A"/>
</svg>