<svg xmlns="http://www.w3.org/2000/svg" width="48" height="48" viewBox="0 0 48 48" fill="none">
  <path d="M32.38 4H15.62C8.34 4 4 8.34 4 15.62V32.36C4 39.66 8.34 44 15.62 44H32.36C39.64 44 43.98 39.66 43.98 32.38V15.62C44 8.34 39.66 4 32.38 4ZM12.94 18.56C12.661 18.2777 12.5046 17.8969 12.5046 17.5C12.5046 17.1031 12.661 16.7223 12.94 16.44C14.1903 15.2006 15.8795 14.5052 17.64 14.5052C19.4005 14.5052 21.0897 15.2006 22.34 16.44C22.619 16.7223 22.7754 17.1031 22.7754 17.5C22.7754 17.8969 22.619 18.2777 22.34 18.56C22.201 18.6996 22.0358 18.8103 21.8539 18.8859C21.672 18.9614 21.477 19.0003 21.28 19.0003C21.083 19.0003 20.888 18.9614 20.7061 18.8859C20.5242 18.8103 20.359 18.6996 20.22 18.56C19.5345 17.878 18.6069 17.4952 17.64 17.4952C16.6731 17.4952 15.7455 17.878 15.06 18.56C14.9225 18.7023 14.7578 18.8154 14.5757 18.8927C14.3936 18.9699 14.1978 19.0098 14 19.0098C13.8022 19.0098 13.6064 18.9699 13.4243 18.8927C13.2422 18.8154 13.0775 18.7023 12.94 18.56ZM31.2 36.16H16.8C16.4651 36.159 16.1336 36.0919 15.8246 35.9626C15.5156 35.8333 15.2351 35.6444 14.9992 35.4066C14.7633 35.1689 14.5766 34.8869 14.4497 34.5769C14.3229 34.2669 14.2584 33.9349 14.26 33.6C14.26 31.0115 15.2883 28.529 17.1186 26.6986C18.949 24.8683 21.4315 23.84 24.02 23.84C26.6085 23.84 29.091 24.8683 30.9214 26.6986C32.7517 28.529 33.78 31.0115 33.78 33.6C33.7696 34.2792 33.4938 34.9273 33.0116 35.4057C32.5295 35.8841 31.8792 36.1549 31.2 36.16ZM35.06 18.56C34.7777 18.839 34.3969 18.9954 34 18.9954C33.6031 18.9954 33.2223 18.839 32.94 18.56C32.2545 17.878 31.3269 17.4952 30.36 17.4952C29.3931 17.4952 28.4655 17.878 27.78 18.56C27.641 18.6996 27.4758 18.8103 27.2939 18.8859C27.112 18.9614 26.917 19.0003 26.72 19.0003C26.523 19.0003 26.328 18.9614 26.1461 18.8859C25.9642 18.8103 25.799 18.6996 25.66 18.56C25.381 18.2777 25.2246 17.8969 25.2246 17.5C25.2246 17.1031 25.381 16.7223 25.66 16.44C26.9103 15.2006 28.5995 14.5052 30.36 14.5052C32.1205 14.5052 33.8097 15.2006 35.06 16.44C35.339 16.7223 35.4954 17.1031 35.4954 17.5C35.4954 17.8969 35.339 18.2777 35.06 18.56Z" fill="white"/>
</svg>