<svg xmlns="http://www.w3.org/2000/svg" width="24" height="24" viewBox="0 0 24 24" fill="none">
  <path d="M16.19 2H7.81C4.17 2 2 4.17 2 7.81V16.18C2 19.83 4.17 22 7.81 22H16.18C19.82 22 21.99 19.83 21.99 16.19V7.81C22 4.17 19.83 2 16.19 2ZM6.47 7.72C6.61114 7.58052 6.80157 7.5023 7 7.5023C7.19843 7.5023 7.38886 7.58052 7.53 7.72C7.87273 8.06099 8.33653 8.25241 8.82 8.25241C9.30347 8.25241 9.76727 8.06099 10.11 7.72C10.1787 7.64631 10.2615 7.58721 10.3535 7.54622C10.4455 7.50523 10.5448 7.48319 10.6455 7.48141C10.7462 7.47963 10.8462 7.49816 10.9396 7.53588C11.033 7.5736 11.1178 7.62974 11.189 7.70096C11.2603 7.77218 11.3164 7.85701 11.3541 7.9504C11.3918 8.04379 11.4104 8.14382 11.4086 8.24452C11.4068 8.34523 11.3848 8.44454 11.3438 8.53654C11.3028 8.62854 11.2437 8.71134 11.17 8.78C10.5456 9.40116 9.70073 9.74986 8.82 9.74986C7.93927 9.74986 7.09437 9.40116 6.47 8.78C6.33052 8.63886 6.2523 8.44843 6.2523 8.25C6.2523 8.05157 6.33052 7.86114 6.47 7.72ZM12 18.78C10.7063 18.7781 9.46614 18.2634 8.55136 17.3486C7.63659 16.4339 7.12185 15.1937 7.12 13.9C7.11999 13.5622 7.25347 13.2382 7.49136 12.9984C7.72925 12.7587 8.05226 12.6226 8.39 12.62H15.59C15.7575 12.6205 15.9232 12.6541 16.0777 12.7187C16.2322 12.7833 16.3724 12.8778 16.4904 12.9967C16.6084 13.1156 16.7017 13.2565 16.7651 13.4115C16.8286 13.5665 16.8608 13.7325 16.86 13.9C16.863 14.54 16.7395 15.1743 16.4966 15.7665C16.2537 16.3586 15.8962 16.8969 15.4445 17.3504C14.9929 17.8039 14.4561 18.1636 13.8649 18.409C13.2738 18.6543 12.64 18.7804 12 18.78ZM17.53 8.78C16.9056 9.40116 16.0607 9.74986 15.18 9.74986C14.2993 9.74986 13.4544 9.40116 12.83 8.78C12.6975 8.63783 12.6254 8.44978 12.6288 8.25548C12.6323 8.06118 12.711 7.87579 12.8484 7.73838C12.9858 7.60097 13.1712 7.52225 13.3655 7.51883C13.5598 7.5154 13.7478 7.58752 13.89 7.72C14.2327 8.06099 14.6965 8.25241 15.18 8.25241C15.6635 8.25241 16.1273 8.06099 16.47 7.72C16.6122 7.58752 16.8002 7.5154 16.9945 7.51883C17.1888 7.52225 17.3742 7.60097 17.5116 7.73838C17.649 7.87579 17.7277 8.06118 17.7312 8.25548C17.7346 8.44978 17.6625 8.63783 17.53 8.78Z" fill="#158B7F"/>
</svg>