<svg xmlns="http://www.w3.org/2000/svg" width="48" height="48" viewBox="0 0 48 48" fill="none">
  <path d="M32.38 4H15.62C8.34 4 4 8.34 4 15.62V32.36C4 39.66 8.34 44 15.62 44H32.36C39.64 44 43.98 39.66 43.98 32.38V15.62C44 8.34 39.66 4 32.38 4ZM17 12.76C17.7445 12.76 18.4723 12.981 19.091 13.3951C19.7098 13.8091 20.1917 14.3976 20.4757 15.0858C20.7596 15.774 20.8329 16.531 20.6862 17.2609C20.5395 17.9908 20.1794 18.6608 19.6516 19.1858C19.1237 19.7108 18.4519 20.0674 17.7212 20.2102C16.9905 20.353 16.2339 20.2757 15.5472 19.988C14.8605 19.7004 14.2747 19.2153 13.8639 18.5944C13.4532 17.9734 13.236 17.2445 13.24 16.5C13.2474 15.5069 13.6465 14.5569 14.3506 13.8565C15.0547 13.1562 16.0069 12.7621 17 12.76ZM24 38.16C21.4126 38.1563 18.9323 37.1268 17.1027 35.2973C15.2732 33.4677 14.2437 30.9874 14.24 28.4C14.24 27.7245 14.5069 27.0764 14.9827 26.5968C15.4585 26.1173 16.1045 25.8453 16.78 25.84H31.18C31.5149 25.841 31.8464 25.9081 32.1554 26.0374C32.4644 26.1667 32.7449 26.3556 32.9808 26.5934C33.2167 26.8311 33.4034 27.1131 33.5303 27.4231C33.6571 27.7331 33.7216 28.0651 33.72 28.4C33.7261 29.68 33.4791 30.9486 32.9932 32.1329C32.5074 33.3172 31.7923 34.3937 30.889 35.3007C29.9858 36.2077 28.9121 36.9272 27.7299 37.4179C26.5476 37.9086 25.28 38.1608 24 38.16ZM31 20.24C30.2563 20.24 29.5294 20.0195 28.9111 19.6063C28.2927 19.1932 27.8108 18.6059 27.5262 17.9189C27.2416 17.2318 27.1672 16.4758 27.3122 15.7465C27.4573 15.0171 27.8154 14.3471 28.3413 13.8213C28.8671 13.2954 29.5371 12.9373 30.2665 12.7922C30.9958 12.6472 31.7518 12.7216 32.4389 13.0062C33.1259 13.2908 33.7132 13.7727 34.1263 14.3911C34.5395 15.0094 34.76 15.7363 34.76 16.48C34.7579 17.4766 34.3611 18.4317 33.6564 19.1364C32.9517 19.8411 31.9966 20.2379 31 20.24Z" fill="white"/>
</svg>