<svg xmlns="http://www.w3.org/2000/svg" width="46" height="46" viewBox="0 0 46 46" fill="none">
  <path d="M28.4619 7.5708V14.8541H25.5869V7.5708C25.5866 7.4454 25.5556 7.32196 25.4965 7.21133C25.4375 7.10069 25.3522 7.00624 25.2481 6.93624C25.1441 6.86624 25.0244 6.82283 24.8997 6.80982C24.775 6.79682 24.649 6.81461 24.5327 6.86164L9.33353 12.5925C8.83957 12.7783 8.41467 13.1115 8.1164 13.5469C7.81813 13.9823 7.66091 14.4989 7.66603 15.0266V16.3108C6.77182 16.9788 6.04617 17.8467 5.54699 18.845C5.04781 19.8434 4.78894 20.9446 4.79103 22.0608V15.0266C4.78855 13.9162 5.12482 12.8314 5.75495 11.917C6.38508 11.0026 7.2791 10.3022 8.3177 9.90914L23.536 4.15914C23.9475 4.00873 24.3821 3.93091 24.8202 3.92914C25.7852 3.93167 26.71 4.31615 27.3924 4.99855C28.0748 5.68095 28.4593 6.60575 28.4619 7.5708Z" fill="#5A5A5A"/>
  <path d="M41.1975 27.7916V29.7083C41.1976 29.9592 41.0992 30.2001 40.9236 30.3793C40.748 30.5584 40.5092 30.6616 40.2583 30.6666H37.4696C36.9759 30.6798 36.4951 30.5083 36.1211 30.1857C35.7472 29.8632 35.507 29.4127 35.4475 28.9225C35.4217 28.6417 35.4581 28.3588 35.5542 28.0937C35.6503 27.8287 35.8036 27.5881 36.0033 27.3891C36.1781 27.2083 36.3883 27.0656 36.6208 26.9699C36.8534 26.8742 37.1032 26.8277 37.3546 26.8333H40.2392C40.4933 26.8333 40.7371 26.9343 40.9168 27.114C41.0965 27.2937 41.1975 27.5375 41.1975 27.7916Z" fill="#5A5A5A"/>
  <path d="M37.336 24.8209H39.291C39.7994 24.8209 40.2869 24.6189 40.6463 24.2595C41.0058 23.9 41.2077 23.4125 41.2077 22.9042V22.0609C41.2036 20.1508 40.4431 18.3201 39.0924 16.9694C37.7418 15.6188 35.9111 14.8582 34.001 14.8542H11.9977C10.4328 14.8493 8.91003 15.3614 7.66603 16.3109C6.77182 16.9789 6.04616 17.8467 5.54699 18.8451C5.04781 19.8434 4.78894 20.9447 4.79103 22.0609V34.96C4.79508 36.8701 5.55565 38.7008 6.90629 40.0514C8.25692 41.4021 10.0876 42.1626 11.9977 42.1667H34.001C35.9111 42.1626 37.7418 41.4021 39.0924 40.0514C40.4431 38.7008 41.2036 36.8701 41.2077 34.96V34.5959C41.2077 34.0875 41.0058 33.6 40.6463 33.2406C40.2869 32.8811 39.7994 32.6792 39.291 32.6792H37.6235C36.7188 32.7036 35.8307 32.4324 35.094 31.9067C34.3573 31.381 33.8121 30.6294 33.541 29.7659C33.3892 29.1841 33.3723 28.5753 33.4916 27.9859C33.6109 27.3966 33.8632 26.8423 34.2292 26.3653C34.5953 25.8883 35.0655 25.5012 35.6039 25.2335C36.1423 24.9659 36.7348 24.8247 37.336 24.8209ZM26.8327 24.4375H13.416C13.0348 24.4375 12.6691 24.2861 12.3996 24.0165C12.13 23.7469 11.9785 23.3813 11.9785 23C11.9785 22.6188 12.13 22.2531 12.3996 21.9836C12.6691 21.714 13.0348 21.5625 13.416 21.5625H26.8327C27.2139 21.5625 27.5796 21.714 27.8492 21.9836C28.1187 22.2531 28.2702 22.6188 28.2702 23C28.2702 23.3813 28.1187 23.7469 27.8492 24.0165C27.5796 24.2861 27.2139 24.4375 26.8327 24.4375Z" fill="#5A5A5A"/>
</svg>