<svg xmlns="http://www.w3.org/2000/svg" width="24" height="24" viewBox="0 0 24 24" fill="none">
  <path d="M15.8101 20.18C15.5362 20.1809 15.2625 20.1676 14.9901 20.14C14.4099 20.0897 13.8347 19.9927 13.2701 19.85L11.5901 19.45C6.98007 18.36 5.47007 15.92 6.55007 11.32L7.53007 7.13001C7.70327 6.3147 7.97179 5.52259 8.33007 4.77002C10.0501 1.22002 13.3401 1.54001 15.6801 2.09001L17.3501 2.48001C19.6901 3.03001 21.1701 3.90001 22.0001 5.23002C22.8301 6.56002 22.9501 8.27001 22.4001 10.61L21.4201 14.79C20.5601 18.451 18.7701 20.18 15.8101 20.18ZM13.1171 3.25101C12.3879 3.20272 11.6622 3.38672 11.0442 3.77659C10.4261 4.16647 9.94752 4.74216 9.67707 5.42102C9.37482 6.07786 9.14351 6.76509 8.98707 7.47101L8.00707 11.661C7.11707 15.441 8.14707 17.091 11.9271 17.991L13.6071 18.391C14.1035 18.5117 14.6082 18.5952 15.1171 18.641C17.8371 18.911 19.1871 17.721 19.9471 14.451L20.9271 10.271C21.3771 8.34102 21.3171 6.99101 20.7171 6.02101C20.1171 5.05101 18.9371 4.39102 16.9971 3.94102L15.3301 3.55101C14.6066 3.36515 13.8639 3.26446 13.1171 3.25101Z" fill="#5A5A5A"/>
  <path d="M8.33005 22.254C5.76005 22.254 4.12005 20.714 3.07005 17.464L1.79005 13.51C0.370052 9.11003 1.64005 6.63003 6.02005 5.21003L7.60005 4.70003C8.01276 4.56386 8.43358 4.45365 8.86005 4.37003C8.99726 4.33987 9.14029 4.35028 9.27168 4.4C9.40308 4.44972 9.51717 4.53659 9.60005 4.65003C9.68329 4.7623 9.73467 4.89497 9.74875 5.03402C9.76283 5.17307 9.73909 5.31335 9.68005 5.44003C9.37543 6.09151 9.14725 6.77607 9.00005 7.48003L8.02005 11.67C7.13005 15.45 8.16005 17.1 11.9401 18L13.6201 18.4C14.1165 18.5207 14.6212 18.6043 15.1301 18.65C15.2853 18.6644 15.4326 18.7257 15.5522 18.8257C15.6719 18.9257 15.7583 19.0598 15.8001 19.21C15.8393 19.3595 15.8316 19.5175 15.7779 19.6624C15.7243 19.8073 15.6272 19.9322 15.5001 20.02C14.7131 20.5284 13.8579 20.9223 12.9601 21.19L11.3801 21.71C10.3967 22.0443 9.36835 22.2277 8.33005 22.254ZM7.78005 6.22403L6.49005 6.64403C2.92005 7.79403 2.07005 9.47403 3.22005 13.054L4.50005 17.004C5.66005 20.574 7.34005 21.434 10.9101 20.284L12.4901 19.764C12.5501 19.744 12.6001 19.724 12.6601 19.704L11.6001 19.454C6.99005 18.364 5.48005 15.924 6.56005 11.324L7.54005 7.13403C7.61005 6.81003 7.69005 6.50003 7.78005 6.22003V6.22403Z" fill="#5A5A5A"/>
  <path d="M17.4872 10.5102C17.4235 10.508 17.36 10.5013 17.2972 10.4902L12.4502 9.26022C12.355 9.23593 12.2655 9.19312 12.1868 9.13424C12.1082 9.07536 12.0419 9.00156 11.9917 8.91706C11.8905 8.7464 11.8611 8.5425 11.9102 8.35022C11.9593 8.15794 12.0827 7.99302 12.2534 7.89175C12.424 7.79048 12.6279 7.76116 12.8202 7.81022L17.6702 9.04022C17.847 9.08414 18.0016 9.19123 18.1049 9.34131C18.2082 9.49138 18.253 9.67406 18.2308 9.85489C18.2087 10.0357 18.1211 10.2022 17.9847 10.3229C17.8483 10.4436 17.6724 10.5103 17.4902 10.5102H17.4872Z" fill="#5A5A5A"/>
  <path d="M14.5602 13.8902C14.4965 13.888 14.433 13.8813 14.3702 13.8702L11.4602 13.1302C11.365 13.1059 11.2755 13.0631 11.1968 13.0042C11.1182 12.9454 11.0519 12.8716 11.0017 12.7871C10.9005 12.6164 10.8711 12.4125 10.9202 12.2202C10.9693 12.0279 11.0927 11.863 11.2634 11.7617C11.434 11.6605 11.6379 11.6312 11.8302 11.6802L14.7402 12.4202C14.9324 12.4695 15.0972 12.5929 15.1984 12.7635C15.2996 12.9341 15.3291 13.1379 15.2802 13.3302C15.2419 13.4916 15.1497 13.6351 15.0188 13.737C14.8878 13.8388 14.7261 13.8929 14.5602 13.8902Z" fill="#5A5A5A"/>
</svg>