<svg xmlns="http://www.w3.org/2000/svg" width="18" height="18" viewBox="0 0 18 18" fill="none">
  <path d="M12.1425 1.5H5.8575C3.1275 1.5 1.5 3.1275 1.5 5.8575V12.135C1.5 14.8725 3.1275 16.5 5.8575 16.5H12.135C14.865 16.5 16.4925 14.8725 16.4925 12.1425V5.8575C16.5 3.1275 14.8725 1.5 12.1425 1.5ZM12.9375 9.2475C12.9375 9.39668 12.8782 9.53976 12.7727 9.64525C12.6673 9.75074 12.5242 9.81 12.375 9.81C12.2258 9.81 12.0827 9.75074 11.9773 9.64525C11.8718 9.53976 11.8125 9.39668 11.8125 9.2475V6.9825L6.0225 12.7725C5.97038 12.8248 5.90843 12.8664 5.84022 12.8947C5.772 12.923 5.69887 12.9376 5.625 12.9376C5.55113 12.9376 5.478 12.923 5.40978 12.8947C5.34157 12.8664 5.27962 12.8248 5.2275 12.7725C5.12289 12.6666 5.06422 12.5238 5.06422 12.375C5.06422 12.2262 5.12289 12.0834 5.2275 11.9775L11.0175 6.1875H8.7525C8.60332 6.1875 8.46024 6.12824 8.35475 6.02275C8.24926 5.91726 8.19 5.77418 8.19 5.625C8.19 5.47582 8.24926 5.33274 8.35475 5.22725C8.46024 5.12176 8.60332 5.0625 8.7525 5.0625H12.375C12.5239 5.06348 12.6664 5.12306 12.7717 5.22834C12.8769 5.33362 12.9365 5.47612 12.9375 5.625V9.2475Z" fill="#5856D6"/>
</svg>