<svg xmlns="http://www.w3.org/2000/svg" width="92" height="92" viewBox="0 0 92 92" fill="none">
  <path d="M58.4988 85.2915H33.5055C14.6838 85.2915 6.63379 77.2415 6.63379 58.4199V57.9215C6.63379 40.9015 13.3421 32.6982 28.3688 31.2722C29.1273 31.2197 29.8768 31.4612 30.4621 31.9465C31.0473 32.4318 31.4233 33.1238 31.5121 33.8789C31.5485 34.2566 31.5099 34.6379 31.3984 35.0006C31.2869 35.3634 31.1048 35.7006 30.8626 35.9927C30.6203 36.2848 30.3227 36.5262 29.9868 36.7029C29.6509 36.8795 29.2834 36.9881 28.9055 37.0222C16.8688 38.1339 12.3838 43.8072 12.3838 57.9522V58.4505C12.3838 74.0522 17.9038 79.5722 33.5055 79.5722H58.4988C74.1005 79.5722 79.6205 74.0522 79.6205 58.4505V57.9522C79.6205 43.7305 75.0588 38.0572 62.7921 37.0222C62.4113 36.9971 62.0392 36.8963 61.6979 36.7256C61.3565 36.5548 61.0526 36.3177 60.8041 36.028C60.5556 35.7383 60.3674 35.4019 60.2506 35.0385C60.1338 34.6751 60.0908 34.2921 60.1239 33.9118C60.1571 33.5316 60.2659 33.1618 60.4438 32.8241C60.6218 32.4865 60.8654 32.1878 61.1603 31.9455C61.4552 31.7032 61.7956 31.5222 62.1614 31.4132C62.5271 31.3042 62.911 31.2693 63.2905 31.3105C78.5471 32.6139 85.3705 40.8555 85.3705 57.9905V58.4889C85.3705 77.2415 77.3205 85.2915 58.4988 85.2915Z" fill="#838383"/>
  <path d="M46 60.375C45.2391 60.37 44.5107 60.0655 43.9726 59.5274C43.4345 58.9893 43.13 58.261 43.125 57.5V13.8767C43.13 13.1158 43.4345 12.3874 43.9726 11.8493C44.5107 11.3112 45.2391 11.0067 46 11.0017C46.7609 11.0067 47.4893 11.3112 48.0274 11.8493C48.5655 12.3874 48.87 13.1158 48.875 13.8767V57.5C48.87 58.261 48.5655 58.9893 48.0274 59.5274C47.4893 60.0655 46.7609 60.37 46 60.375Z" fill="#838383"/>
  <path d="M58.8461 25.3C58.4685 25.3013 58.0943 25.2275 57.7455 25.0827C57.3967 24.9379 57.0802 24.7251 56.8145 24.4566L46.0121 13.6466L35.2021 24.4566C34.6571 24.9645 33.9363 25.2409 33.1915 25.2278C32.4466 25.2147 31.736 24.9129 31.2093 24.3862C30.6825 23.8594 30.3808 23.1488 30.3676 22.404C30.3545 21.6592 30.631 20.9383 31.1388 20.3933L43.9728 7.55547C44.5138 7.0208 45.2438 6.72095 46.0045 6.72095C46.7651 6.72095 47.4951 7.0208 48.0361 7.55547L60.8778 20.3971C61.4125 20.9382 61.7123 21.6682 61.7123 22.4288C61.7123 23.1895 61.4125 23.9194 60.8778 24.4605C60.614 24.7312 60.2978 24.9453 59.9485 25.0896C59.5992 25.234 59.2241 25.3056 58.8461 25.3Z" fill="#838383"/>
</svg>