<svg xmlns="http://www.w3.org/2000/svg" width="24" height="24" viewBox="0 0 24 24" fill="none">
  <path d="M11.9999 16.33C11.1435 16.33 10.3064 16.076 9.5943 15.6002C8.88224 15.1245 8.32725 14.4482 7.99953 13.657C7.6718 12.8658 7.58605 11.9952 7.75312 11.1552C7.9202 10.3153 8.33259 9.54377 8.93815 8.93821C9.54371 8.33265 10.3152 7.92026 11.1552 7.75318C11.9951 7.58611 12.8657 7.67186 13.6569 7.99959C14.4481 8.32731 15.1244 8.8823 15.6002 9.59437C16.076 10.3064 16.3299 11.1436 16.3299 12C16.3294 13.1482 15.873 14.2493 15.0611 15.0612C14.2492 15.8731 13.1481 16.3295 11.9999 16.33ZM11.9999 9.16998C11.4402 9.16998 10.8931 9.33596 10.4277 9.64693C9.96227 9.95789 9.59954 10.3999 9.38534 10.917C9.17115 11.4341 9.11511 12.0031 9.2243 12.5521C9.3335 13.1011 9.60303 13.6053 9.99881 14.0011C10.3946 14.3969 10.8989 14.6664 11.4478 14.7756C11.9968 14.8848 12.5658 14.8288 13.0829 14.6146C13.6 14.4004 14.042 14.0376 14.353 13.5722C14.6639 13.1069 14.8299 12.5597 14.8299 12C14.8289 11.2497 14.5304 10.5305 13.9999 10C13.4694 9.46954 12.7502 9.17104 11.9999 9.16998Z" fill="#5A5A5A"/>
  <path d="M12.0001 21.02C8.24006 21.02 4.69006 18.82 2.25006 15C1.72906 14.086 1.45508 13.052 1.45508 12C1.45508 10.9479 1.72906 9.91399 2.25006 8.99998C4.70006 5.17998 8.25506 2.97998 12.0001 2.97998C15.7451 2.97998 19.3001 5.17998 21.7401 8.99998C22.2611 9.91399 22.535 10.9479 22.535 12C22.535 13.052 22.2611 14.086 21.7401 15C19.3001 18.82 15.7551 21.02 12.0001 21.02ZM12.0001 4.47998C8.77006 4.47998 5.68006 6.41998 3.52006 9.80998C3.15101 10.4809 2.9575 11.2342 2.9575 12C2.9575 12.7657 3.15101 13.519 3.52006 14.19C5.68006 17.58 8.77006 19.52 12.0001 19.52C15.2301 19.52 18.3201 17.58 20.4801 14.19C20.8491 13.519 21.0426 12.7657 21.0426 12C21.0426 11.2342 20.8491 10.4809 20.4801 9.80998C18.3201 6.41998 15.2301 4.47998 12.0001 4.47998Z" fill="#5A5A5A"/>
</svg>