<svg xmlns="http://www.w3.org/2000/svg" width="24" height="24" viewBox="0 0 24 24" fill="none">
  <path d="M11.9697 2C9.99192 2 8.05852 2.58649 6.41403 3.6853C4.76954 4.78412 3.48781 6.3459 2.73094 8.17317C1.97406 10.0004 1.77603 12.0111 2.16188 13.9509C2.54773 15.8907 3.50014 17.6725 4.89866 19.0711C6.29719 20.4696 8.07902 21.422 10.0188 21.8079C11.9586 22.1937 13.9693 21.9957 15.7966 21.2388C17.6238 20.4819 19.1856 19.2002 20.2844 17.5557C21.3832 15.9112 21.9697 13.9778 21.9697 12C21.9697 9.34784 20.9162 6.8043 19.0408 4.92893C17.1654 3.05357 14.6219 2 11.9697 2ZM15.7197 12.35L11.9997 16.58L11.5597 17.08C10.9497 17.77 10.4497 17.59 10.4497 16.66V12.7H8.74973C7.97973 12.7 7.76973 12.23 8.27973 11.65L11.9997 7.42L12.4397 6.92C13.0497 6.23 13.5497 6.41 13.5497 7.34V11.3H15.2497C16.0197 11.3 16.2297 11.77 15.7197 12.35Z" fill="#158B7F"/>
</svg>