<svg xmlns="http://www.w3.org/2000/svg" width="17" height="22" viewBox="0 0 17 22" fill="none">
  <path d="M6.01082 21.7448C5.84645 21.7468 5.6833 21.7162 5.53082 21.6548C5.13082 21.5048 4.45082 21.0148 4.45082 19.4648V13.0148H2.11082C1.71672 13.071 1.31483 13.0054 0.959117 12.8266C0.603402 12.6479 0.310882 12.3646 0.120825 12.0148C-0.0171755 11.6406 -0.0374921 11.2331 0.0625984 10.8471C0.162689 10.461 0.378403 10.1148 0.680825 9.85476L8.25082 1.25476C9.27082 0.0947573 10.1008 0.174757 10.5008 0.324757C10.9008 0.474757 11.5808 0.964757 11.5808 2.51476V8.96476H13.9208C14.3149 8.9085 14.7168 8.97416 15.0725 9.15291C15.4282 9.33166 15.7208 9.61495 15.9108 9.96476C16.0488 10.3389 16.0691 10.7464 15.9691 11.1324C15.869 11.5185 15.6532 11.8648 15.3508 12.1248L7.78082 20.7248C7.57718 21.0127 7.31346 21.2531 7.00786 21.4292C6.70227 21.6053 6.36209 21.713 6.01082 21.7448ZM9.95082 1.73976C9.74106 1.89011 9.54975 2.06464 9.38083 2.25976L1.81082 10.8598C1.6506 11.0103 1.53914 11.2053 1.49082 11.4198C1.68558 11.5059 1.89831 11.5437 2.11082 11.5298H5.20082C5.39933 11.5311 5.58934 11.6105 5.72971 11.7509C5.87008 11.8912 5.94951 12.0813 5.95082 12.2798V19.4798C5.92765 19.7466 5.97237 20.0149 6.08082 20.2598C6.29059 20.1094 6.4819 19.9349 6.65082 19.7398L14.2208 11.1398C14.3811 10.9893 14.4925 10.7942 14.5408 10.5798C14.3461 10.4936 14.1333 10.4558 13.9208 10.4698H10.8308C10.6323 10.4684 10.4423 10.389 10.3019 10.2486C10.1616 10.1083 10.0821 9.91827 10.0808 9.71976V2.51976C10.108 2.25281 10.0631 1.98345 9.95082 1.73976Z" fill="#007AFF"/>
</svg>