<svg xmlns="http://www.w3.org/2000/svg" width="24" height="24" viewBox="0 0 24 24" fill="none">
  <path d="M9.98934 22.7448C9.82496 22.7468 9.66181 22.7162 9.50934 22.6548C9.10934 22.5048 8.42934 22.0148 8.42934 20.4648V14.0148H6.08934C5.69523 14.071 5.29335 14.0054 4.93763 13.8266C4.58192 13.6479 4.2894 13.3646 4.09934 13.0148C3.96134 12.6406 3.94102 12.2331 4.04111 11.8471C4.1412 11.461 4.35692 11.1148 4.65934 10.8548L12.2293 2.25476C13.2493 1.09476 14.0793 1.17476 14.4793 1.32476C14.8793 1.47476 15.5593 1.96476 15.5593 3.51476V9.96476H17.8993C18.2934 9.9085 18.6953 9.97416 19.051 10.1529C19.4068 10.3317 19.6993 10.615 19.8893 10.9648C20.0273 11.3389 20.0477 11.7464 19.9476 12.1324C19.8475 12.5185 19.6318 12.8648 19.3293 13.1248L11.7593 21.7248C11.5557 22.0127 11.292 22.2531 10.9864 22.4292C10.6808 22.6053 10.3406 22.713 9.98934 22.7448ZM13.9293 2.73976C13.7196 2.89011 13.5283 3.06464 13.3593 3.25976L5.78934 11.8598C5.62911 12.0103 5.51766 12.2053 5.46934 12.4198C5.6641 12.5059 5.87682 12.5437 6.08934 12.5298H9.17934C9.37785 12.5311 9.56785 12.6105 9.70822 12.7509C9.84859 12.8912 9.92803 13.0813 9.92934 13.2798V20.4798C9.90617 20.7466 9.95089 21.0149 10.0593 21.2598C10.2691 21.1094 10.4604 20.9349 10.6293 20.7398L18.1993 12.1398C18.3596 11.9893 18.471 11.7942 18.5193 11.5798C18.3246 11.4936 18.1119 11.4558 17.8993 11.4698H14.8093C14.6108 11.4684 14.4208 11.389 14.2805 11.2486C14.1401 11.1083 14.0607 10.9183 14.0593 10.7198V3.51976C14.0866 3.25281 14.0417 2.98345 13.9293 2.73976Z" fill="#5A5A5A"/>
</svg>