<svg xmlns="http://www.w3.org/2000/svg" width="24" height="24" viewBox="0 0 24 24" fill="none">
  <path d="M14.4297 15.3H9.42969C9.23118 15.2987 9.04117 15.2193 8.90081 15.0789C8.76044 14.9386 8.681 14.7486 8.67969 14.55C8.681 14.3515 8.76044 14.1615 8.90081 14.0212C9.04117 13.8808 9.23118 13.8014 9.42969 13.8H14.4297C14.6282 13.8014 14.8182 13.8808 14.9586 14.0212C15.0989 14.1615 15.1784 14.3515 15.1797 14.55C15.1784 14.7486 15.0989 14.9386 14.9586 15.0789C14.8182 15.2193 14.6282 15.2987 14.4297 15.3Z" fill="#5A5A5A"/>
  <path d="M17 22.75H7C2.59 22.75 1.25 21.41 1.25 17V7.00001C1.25 2.59001 2.59 1.25001 7 1.25001H8.5C9.09136 1.18492 9.68894 1.29182 10.2211 1.55788C10.7532 1.82394 11.1973 2.23787 11.5 2.75001L13 4.75001C13.33 5.19001 13.38 5.25001 14 5.25001H17C21.41 5.25001 22.75 6.59001 22.75 11V17C22.75 21.41 21.41 22.75 17 22.75ZM7 2.75001C3.42 2.75001 2.75 3.43001 2.75 7.00001V17C2.75 20.57 3.42 21.25 7 21.25H17C20.58 21.25 21.25 20.57 21.25 17V11C21.25 7.43001 20.58 6.75001 17 6.75001H14C13.5668 6.7937 13.1301 6.71353 12.7406 6.5188C12.3512 6.32408 12.025 6.0228 11.8 5.65001L10.3 3.65001C10.1371 3.32599 9.87383 3.0633 9.54945 2.90111C9.22507 2.73892 8.85696 2.68592 8.5 2.75001H7Z" fill="#5A5A5A"/>
</svg>