<svg xmlns="http://www.w3.org/2000/svg" width="24" height="24" viewBox="0 0 24 24" fill="none">
  <path d="M10 22.75H9C3.57 22.75 1.25 20.43 1.25 15V9C1.25 3.57 3.57 1.25 9 1.25H15C20.43 1.25 22.75 3.57 22.75 9V11C22.75 11.1989 22.671 11.3897 22.5303 11.5303C22.3897 11.671 22.1989 11.75 22 11.75C21.8011 11.75 21.6103 11.671 21.4697 11.5303C21.329 11.3897 21.25 11.1989 21.25 11V9C21.25 4.39 19.61 2.75 15 2.75H9C4.39 2.75 2.75 4.39 2.75 9V15C2.75 19.61 4.39 21.25 9 21.25H10C10.1989 21.25 10.3897 21.329 10.5303 21.4697C10.671 21.6103 10.75 21.8011 10.75 22C10.75 22.1989 10.671 22.3897 10.5303 22.5303C10.3897 22.671 10.1989 22.75 10 22.75Z" fill="#5A5A5A"/>
  <path d="M22 9.25H2.03003C1.83152 9.24869 1.64152 9.16925 1.50115 9.02888C1.36078 8.88851 1.28134 8.69851 1.28003 8.5C1.28134 8.30149 1.36078 8.11149 1.50115 7.97112C1.64152 7.83075 1.83152 7.75131 2.03003 7.75H22C22.1985 7.75131 22.3885 7.83075 22.5289 7.97112C22.6693 8.11149 22.7487 8.30149 22.75 8.5C22.7487 8.69851 22.6693 8.88851 22.5289 9.02888C22.3885 9.16925 22.1985 9.24869 22 9.25Z" fill="#5A5A5A"/>
  <path d="M12 16.25H2.03003C1.83152 16.2487 1.64152 16.1693 1.50115 16.0289C1.36078 15.8885 1.28134 15.6985 1.28003 15.5C1.28134 15.3015 1.36078 15.1115 1.50115 14.9711C1.64152 14.8307 1.83152 14.7513 2.03003 14.75H12C12.1985 14.7513 12.3885 14.8307 12.5289 14.9711C12.6693 15.1115 12.7487 15.3015 12.75 15.5C12.7487 15.6985 12.6693 15.8885 12.5289 16.0289C12.3885 16.1693 12.1985 16.2487 12 16.25Z" fill="#5A5A5A"/>
  <path d="M8.51001 22.74C8.3115 22.7387 8.1215 22.6592 7.98113 22.5189C7.84076 22.3785 7.76132 22.1885 7.76001 21.99V2.01999C7.76132 1.82148 7.84076 1.63148 7.98113 1.49111C8.1215 1.35074 8.3115 1.2713 8.51001 1.26999C8.70852 1.2713 8.89852 1.35074 9.03889 1.49111C9.17926 1.63148 9.2587 1.82148 9.26001 2.01999V21.99C9.26014 22.0885 9.24083 22.1861 9.20319 22.2772C9.16554 22.3682 9.1103 22.4509 9.04063 22.5206C8.97096 22.5903 8.88823 22.6455 8.79718 22.6832C8.70612 22.7208 8.60854 22.7401 8.51001 22.74Z" fill="#5A5A5A"/>
  <path d="M15.51 12.74C15.3115 12.7387 15.1215 12.6592 14.9811 12.5189C14.8408 12.3785 14.7613 12.1885 14.76 11.99V2.01999C14.7613 1.82148 14.8408 1.63148 14.9811 1.49111C15.1215 1.35074 15.3115 1.2713 15.51 1.26999C15.7085 1.2713 15.8985 1.35074 16.0389 1.49111C16.1793 1.63148 16.2587 1.82148 16.26 2.01999V11.99C16.2601 12.0885 16.2408 12.1861 16.2032 12.2772C16.1655 12.3682 16.1103 12.4509 16.0406 12.5206C15.971 12.5903 15.8882 12.6455 15.7972 12.6832C15.7061 12.7208 15.6085 12.7401 15.51 12.74Z" fill="#5A5A5A"/>
  <path d="M15.951 22.753C15.3933 22.7544 14.8577 22.5351 14.461 22.143L12.871 20.543C12.4817 20.1467 12.2636 19.6135 12.2636 19.058C12.2636 18.5025 12.4817 17.9692 12.871 17.573L14.781 15.673C14.9221 15.5335 15.1126 15.4553 15.311 15.4553C15.5094 15.4553 15.6999 15.5335 15.841 15.673L19.341 19.173C19.4108 19.2425 19.4662 19.3251 19.5039 19.416C19.5417 19.507 19.5612 19.6045 19.5612 19.703C19.5612 19.8015 19.5417 19.899 19.5039 19.9899C19.4662 20.0809 19.4108 20.1635 19.341 20.233L17.441 22.133C17.0453 22.5277 16.5099 22.7505 15.951 22.753ZM15.301 17.273L13.931 18.643C13.8204 18.7568 13.7586 18.9093 13.7586 19.068C13.7586 19.2267 13.8204 19.3791 13.931 19.493L15.511 21.083C15.6249 21.1936 15.7773 21.2554 15.936 21.2554C16.0947 21.2554 16.2472 21.1936 16.361 21.083L17.741 19.713L15.301 17.273Z" fill="#5A5A5A"/>
  <path d="M18.8 20.45C18.6018 20.4513 18.4113 20.3739 18.27 20.235L14.771 16.735C14.6315 16.5939 14.5533 16.4034 14.5533 16.205C14.5533 16.0066 14.6315 15.8161 14.771 15.675L17.58 12.85C17.9758 12.456 18.5115 12.2348 19.07 12.2348C19.6285 12.2348 20.1642 12.456 20.56 12.85L22.141 14.435C22.5318 14.8324 22.7509 15.3676 22.7509 15.925C22.7509 16.4824 22.5318 17.0175 22.141 17.415L19.341 20.235C19.2698 20.3052 19.1852 20.3604 19.0923 20.3973C18.9993 20.4342 18.9 20.4521 18.8 20.45ZM16.37 16.21L18.81 18.65L21.08 16.37C21.1365 16.3128 21.1809 16.2448 21.2107 16.1701C21.2404 16.0953 21.2548 16.0154 21.253 15.935C21.2546 15.775 21.1936 15.6206 21.083 15.505L19.503 13.915C19.3891 13.8044 19.2367 13.7426 19.078 13.7426C18.9193 13.7426 18.7668 13.8044 18.653 13.915L16.37 16.21Z" fill="#5A5A5A"/>
</svg>