<svg width="20" height="20" viewBox="0 0 20 20" fill="none" xmlns="http://www.w3.org/2000/svg">
<path d="M2.08349 20.0008C1.80895 20.0018 1.53696 19.9481 1.2834 19.8429C1.02983 19.7376 0.799769 19.5829 0.60663 19.3878C0.217965 18.9945 0 18.4639 0 17.9109C0 17.358 0.217965 16.8274 0.60663 16.4341L16.3811 0.665166C16.5725 0.459836 16.8032 0.295146 17.0595 0.180921C17.3159 0.0666963 17.5926 0.00527629 17.8732 0.000325246C18.1539 -0.0046258 18.4326 0.0469935 18.6928 0.152104C18.953 0.257214 19.1894 0.413662 19.3879 0.612115C19.5863 0.810567 19.7428 1.04696 19.8479 1.30719C19.953 1.56741 20.0046 1.84615 19.9997 2.12676C19.9947 2.40737 19.9333 2.68411 19.8191 2.94047C19.7049 3.19682 19.5402 3.42755 19.3348 3.61888L3.56313 19.3906C3.37107 19.5877 3.14076 19.7436 2.88632 19.8485C2.63188 19.9534 2.35868 20.0053 2.08349 20.0008Z" fill="#EA5148"/>
<path d="M17.8552 20.0008C17.5807 20.0018 17.3087 19.9481 17.0551 19.8428C16.8015 19.7376 16.5715 19.5829 16.3783 19.3878L0.609416 3.61607C0.253504 3.21791 0.0635156 2.69862 0.0784555 2.16479C0.0933953 1.63096 0.31213 1.1231 0.689752 0.745477C1.06738 0.367855 1.57523 0.14912 2.10906 0.134181C2.64289 0.119241 3.16219 0.309229 3.56034 0.665141L19.332 16.4368C19.7207 16.8301 19.9387 17.3608 19.9387 17.9137C19.9387 18.4666 19.7207 18.9973 19.332 19.3906C19.1387 19.5852 18.9085 19.7394 18.655 19.8441C18.4014 19.9489 18.1295 20.0022 17.8552 20.0008Z" fill="#EA5148"/>
</svg>
