<svg xmlns="http://www.w3.org/2000/svg" width="40" height="40" viewBox="0 0 40 40" fill="none">
  <path d="M20 40C31.0457 40 40 31.0457 40 20C40 8.9543 31.0457 0 20 0C8.9543 0 0 8.9543 0 20C0 31.0457 8.9543 40 20 40Z" fill="white"/>
  <path d="M15.56 13.6C13.3213 13.6 11.5 15.4348 11.5 17.69C11.5 18.6628 11.6504 19.6211 11.9472 20.5383L11.9503 20.548C12.7162 22.9717 14.3667 24.7608 15.6164 25.8349C17.1919 27.1889 18.8418 28.0421 19.8613 28.3893C19.8809 28.3931 19.9304 28.4 20 28.4C20.0696 28.4 20.1191 28.3931 20.1387 28.3893C21.1582 28.0421 22.8081 27.1889 24.3836 25.8349C25.6333 24.7608 27.2838 22.9717 28.0497 20.548L28.0528 20.5383C28.3496 19.6211 28.5 18.6628 28.5 17.69C28.5 15.4348 26.6787 13.6 24.44 13.6C23.1748 13.6 21.964 14.2088 21.2011 15.2286L20 16.834L18.7989 15.2286C18.036 14.2088 16.8252 13.6 15.56 13.6ZM15.56 12.1C17.37 12.1 18.99 12.98 20 14.33C21.01 12.98 22.63 12.1 24.44 12.1C27.51 12.1 30 14.6 30 17.69C30 18.88 29.81 19.98 29.48 21C27.9 26 23.03 28.99 20.62 29.81C20.28 29.93 19.72 29.93 19.38 29.81C16.97 28.99 12.1 26 10.52 21C10.19 19.98 10 18.88 10 17.69C10 14.6 12.49 12.1 15.56 12.1Z" fill="#231F20"/>
</svg>