<svg xmlns="http://www.w3.org/2000/svg" width="24" height="24" viewBox="0 0 24 24" fill="none">
  <path d="M16.4508 15.15C16.2523 15.1487 16.0623 15.0693 15.9219 14.9289C15.7815 14.7885 15.7021 14.5985 15.7008 14.4V8.5C15.701 8.4671 15.6948 8.43447 15.6823 8.40401C15.6698 8.37356 15.6514 8.3459 15.6282 8.32263C15.6049 8.29936 15.5772 8.28096 15.5468 8.26849C15.5163 8.25602 15.4837 8.24973 15.4508 8.25H12.5508C12.3523 8.24869 12.1623 8.16925 12.0219 8.02888C11.8815 7.88851 11.8021 7.69851 11.8008 7.5C11.8021 7.30149 11.8815 7.11149 12.0219 6.97112C12.1623 6.83075 12.3523 6.75131 12.5508 6.75H15.4508C15.9143 6.7521 16.3582 6.93715 16.6859 7.26489C17.0136 7.59262 17.1987 8.03652 17.2008 8.5V14.4C17.1995 14.5985 17.12 14.7885 16.9797 14.9289C16.8393 15.0693 16.6493 15.1487 16.4508 15.15Z" fill="#5A5A5A"/>
  <path d="M14.05 9.74881C13.8755 9.74736 13.7065 9.68751 13.57 9.57881L11.77 8.07881C11.6849 8.00832 11.6166 7.91981 11.5699 7.81968C11.5232 7.71955 11.4993 7.6103 11.5 7.49981C11.5002 7.38933 11.5245 7.28022 11.5711 7.18006C11.6177 7.0799 11.6856 6.9911 11.77 6.91981L13.57 5.41981C13.7244 5.29381 13.9221 5.23366 14.1205 5.25238C14.3189 5.27109 14.5019 5.36717 14.63 5.51981C14.6935 5.59577 14.7414 5.68356 14.7707 5.77811C14.8001 5.87266 14.8105 5.9721 14.8012 6.07068C14.7919 6.16925 14.7631 6.265 14.7166 6.35239C14.67 6.43979 14.6066 6.51708 14.53 6.57981L13.42 7.49981L14.53 8.41981C14.6495 8.5182 14.7356 8.65116 14.7766 8.80044C14.8175 8.94971 14.8113 9.10801 14.7587 9.25359C14.7061 9.39918 14.6098 9.52493 14.4829 9.6136C14.356 9.70226 14.2048 9.74949 14.05 9.74881Z" fill="#5A5A5A"/>
  <path d="M7.55078 15.15C7.35227 15.1486 7.16227 15.0692 7.0219 14.9288C6.88153 14.7885 6.80209 14.5985 6.80078 14.4V10.2C6.80209 10.0014 6.88153 9.81144 7.0219 9.67107C7.16227 9.5307 7.35227 9.45126 7.55078 9.44995C7.74929 9.45126 7.93929 9.5307 8.07966 9.67107C8.22003 9.81144 8.29947 10.0014 8.30078 10.2V14.4C8.29947 14.5985 8.22003 14.7885 8.07966 14.9288C7.93929 15.0692 7.74929 15.1486 7.55078 15.15Z" fill="#5A5A5A"/>
  <path d="M7.7 10.65C7.16599 10.65 6.64397 10.4916 6.19996 10.195C5.75595 9.89829 5.40988 9.47661 5.20553 8.98325C5.00117 8.48989 4.9477 7.94701 5.05188 7.42326C5.15606 6.89951 5.41321 6.41841 5.79081 6.04081C6.16841 5.66321 6.64951 5.40606 7.17326 5.30188C7.69701 5.1977 8.23989 5.25117 8.73325 5.45553C9.22661 5.65988 9.64829 6.00595 9.94497 6.44996C10.2416 6.89397 10.4 7.41599 10.4 7.95C10.4 8.66609 10.1155 9.35284 9.60919 9.85919C9.10284 10.3655 8.41609 10.65 7.7 10.65ZM7.7 6.75C7.46266 6.75 7.23066 6.82038 7.03332 6.95224C6.83598 7.0841 6.68217 7.27151 6.59135 7.49078C6.50052 7.71005 6.47676 7.95133 6.52306 8.18411C6.56936 8.41689 6.68365 8.63071 6.85147 8.79853C7.0193 8.96635 7.23312 9.08064 7.46589 9.12694C7.69867 9.17325 7.93995 9.14948 8.15922 9.05866C8.37849 8.96783 8.56591 8.81402 8.69776 8.61669C8.82962 8.41935 8.9 8.18734 8.9 7.95C8.9 7.63174 8.77357 7.32652 8.54853 7.10147C8.32349 6.87643 8.01826 6.75 7.7 6.75Z" fill="#5A5A5A"/>
  <path d="M7.55 18.75C7.04566 18.75 6.55264 18.6005 6.1333 18.3203C5.71395 18.0401 5.38711 17.6418 5.19411 17.1759C5.0011 16.7099 4.95061 16.1972 5.049 15.7025C5.14739 15.2079 5.39025 14.7535 5.74688 14.3969C6.1035 14.0403 6.55787 13.7974 7.05252 13.699C7.54717 13.6006 8.05989 13.6511 8.52584 13.8441C8.9918 14.0371 9.39005 14.364 9.67025 14.7833C9.95045 15.2027 10.1 15.6957 10.1 16.2C10.1003 16.535 10.0345 16.8667 9.90643 17.1762C9.77837 17.4857 9.59055 17.7669 9.35371 18.0037C9.11687 18.2406 8.83565 18.4284 8.52615 18.5565C8.21666 18.6845 7.88495 18.7503 7.55 18.75ZM7.55 15.15C7.34233 15.15 7.13932 15.2116 6.96665 15.327C6.79398 15.4424 6.6594 15.6063 6.57993 15.7982C6.50046 15.9901 6.47966 16.2012 6.52018 16.4049C6.56069 16.6086 6.66069 16.7956 6.80754 16.9425C6.95438 17.0893 7.14148 17.1893 7.34516 17.2299C7.54884 17.2704 7.75996 17.2496 7.95182 17.1701C8.14368 17.0906 8.30767 16.956 8.42304 16.7834C8.53842 16.6107 8.6 16.4077 8.6 16.2C8.6 15.9215 8.48938 15.6545 8.29246 15.4576C8.09555 15.2607 7.82848 15.15 7.55 15.15Z" fill="#5A5A5A"/>
  <path d="M16.4504 18.75C15.946 18.75 15.453 18.6005 15.0337 18.3203C14.6143 18.0401 14.2875 17.6418 14.0945 17.1759C13.9015 16.7099 13.851 16.1972 13.9494 15.7025C14.0478 15.2079 14.2906 14.7535 14.6473 14.3969C15.0039 14.0403 15.4583 13.7974 15.9529 13.699C16.4476 13.6006 16.9603 13.6511 17.4262 13.8441C17.8922 14.0371 18.2904 14.364 18.5706 14.7833C18.8508 15.2027 19.0004 15.6957 19.0004 16.2C19.0007 16.535 18.9349 16.8667 18.8068 17.1762C18.6788 17.4857 18.4909 17.7669 18.2541 18.0037C18.0173 18.2406 17.736 18.4284 17.4265 18.5565C17.117 18.6845 16.7853 18.7503 16.4504 18.75ZM16.4504 15.15C16.2427 15.15 16.0397 15.2116 15.867 15.327C15.6944 15.4424 15.5598 15.6063 15.4803 15.7982C15.4008 15.9901 15.3801 16.2012 15.4206 16.4049C15.4611 16.6086 15.5611 16.7956 15.7079 16.9425C15.8548 17.0893 16.0419 17.1893 16.2455 17.2299C16.4492 17.2704 16.6603 17.2496 16.8522 17.1701C17.0441 17.0906 17.2081 16.956 17.3234 16.7834C17.4388 16.6107 17.5004 16.4077 17.5004 16.2C17.5004 15.9215 17.3898 15.6545 17.1929 15.4576C16.9959 15.2607 16.7289 15.15 16.4504 15.15Z" fill="#5A5A5A"/>
  <path d="M15 22.75H9C3.57 22.75 1.25 20.43 1.25 15V9C1.25 3.57 3.57 1.25 9 1.25H15C20.43 1.25 22.75 3.57 22.75 9V15C22.75 20.43 20.43 22.75 15 22.75ZM9 2.75C4.39 2.75 2.75 4.39 2.75 9V15C2.75 19.61 4.39 21.25 9 21.25H15C19.61 21.25 21.25 19.61 21.25 15V9C21.25 4.39 19.61 2.75 15 2.75H9Z" fill="#5A5A5A"/>
</svg>