<svg xmlns="http://www.w3.org/2000/svg" width="24" height="24" viewBox="0 0 24 24" fill="none">
  <path d="M17.79 22.75H6.21C4.89345 22.7479 3.63157 22.2233 2.70156 21.2914C1.77155 20.3595 1.24947 19.0966 1.25 17.78V10.373C1.28692 9.62491 1.47626 8.89221 1.80642 8.21986C2.13657 7.54751 2.60058 6.94968 3.17 6.46304L8.56 2.26004C9.4124 1.64371 10.4317 1.30039 11.4833 1.27539C12.5348 1.2504 13.5693 1.54491 14.45 2.12004L20.63 6.45004C21.2562 6.93301 21.77 7.54616 22.136 8.24714C22.5021 8.94811 22.7115 9.72019 22.75 10.51V17.79C22.7484 19.105 22.2253 20.3657 21.2955 21.2955C20.3657 22.2254 19.105 22.7484 17.79 22.75ZM9.48 3.44004L4.09 7.64004C3.30616 8.34305 2.82576 9.32285 2.75 10.373V17.783C2.75 18.7016 3.11421 19.5827 3.7628 20.2332C4.41139 20.8836 5.29143 21.2504 6.21 21.253H17.79C18.2446 21.2529 18.6947 21.1632 19.1146 20.9891C19.5345 20.815 19.9161 20.5599 20.2374 20.2383C20.5587 19.9167 20.8135 19.535 20.9872 19.1149C21.161 18.6948 21.2503 18.2446 21.25 17.79V10.51C21.2128 9.96153 21.0621 9.42674 20.8073 8.93957C20.5525 8.4524 20.1993 8.02349 19.77 7.68004L13.59 3.35004C12.9718 2.95973 12.2524 2.76012 11.5214 2.77613C10.7905 2.79213 10.0805 3.02304 9.48 3.44004Z" fill="#5A5A5A"/>
  <path d="M12 18.75C11.8015 18.7487 11.6115 18.6693 11.4711 18.5289C11.3307 18.3885 11.2513 18.1985 11.25 18V15C11.2513 14.8015 11.3307 14.6115 11.4711 14.4711C11.6115 14.3307 11.8015 14.2513 12 14.25C12.1985 14.2513 12.3885 14.3307 12.5289 14.4711C12.6693 14.6115 12.7487 14.8015 12.75 15V18C12.7487 18.1985 12.6693 18.3885 12.5289 18.5289C12.3885 18.6693 12.1985 18.7487 12 18.75Z" fill="#5A5A5A"/>
</svg>