<svg xmlns="http://www.w3.org/2000/svg" width="24" height="24" viewBox="0 0 24 24" fill="none">
  <path d="M15.2605 22.25H8.74047C3.83047 22.25 1.73047 20.15 1.73047 15.24V15.11C1.73047 10.67 3.48047 8.52997 7.40047 8.15797C7.59833 8.14428 7.79388 8.20727 7.94655 8.33388C8.09922 8.46048 8.19731 8.64099 8.22047 8.83797C8.22997 8.93652 8.21988 9.03597 8.1908 9.13061C8.16172 9.22524 8.11422 9.31319 8.05102 9.3894C7.98782 9.46561 7.91018 9.52857 7.82256 9.57466C7.73494 9.62076 7.63907 9.64907 7.54047 9.65797C4.40047 9.94797 3.23047 11.428 3.23047 15.118V15.248C3.23047 19.318 4.67047 20.758 8.74047 20.758H15.2605C19.3305 20.758 20.7705 19.318 20.7705 15.248V15.118C20.7705 11.408 19.5805 9.92797 16.3805 9.65797C16.2811 9.65143 16.1841 9.62512 16.095 9.58058C16.006 9.53605 15.9267 9.47418 15.8619 9.3986C15.797 9.32303 15.7479 9.23527 15.7175 9.14048C15.687 9.04569 15.6758 8.94576 15.6844 8.84657C15.6931 8.74738 15.7214 8.65091 15.7679 8.56283C15.8143 8.47474 15.8778 8.39681 15.9548 8.33361C16.0317 8.2704 16.1205 8.22319 16.2159 8.19475C16.3113 8.16631 16.4115 8.1572 16.5105 8.16797C20.4905 8.50797 22.2705 10.658 22.2705 15.128V15.258C22.2705 20.15 20.1705 22.25 15.2605 22.25Z" fill="white"/>
  <path d="M12 15.63C11.8015 15.6287 11.6115 15.5493 11.4711 15.4089C11.3307 15.2685 11.2513 15.0785 11.25 14.88V2C11.2513 1.80149 11.3307 1.61149 11.4711 1.47112C11.6115 1.33075 11.8015 1.25131 12 1.25C12.1985 1.25131 12.3885 1.33075 12.5289 1.47112C12.6693 1.61149 12.7487 1.80149 12.75 2V14.88C12.7501 14.9785 12.7308 15.0761 12.6932 15.1672C12.6555 15.2582 12.6003 15.341 12.5306 15.4106C12.461 15.4803 12.3782 15.5355 12.2872 15.5732C12.1961 15.6108 12.0985 15.6301 12 15.63Z" fill="white"/>
  <path d="M12.0032 16.7502C11.9047 16.7506 11.8071 16.7313 11.7161 16.6935C11.6251 16.6558 11.5425 16.6003 11.4732 16.5302L8.12121 13.1802C7.98873 13.0381 7.91661 12.85 7.92004 12.6557C7.92347 12.4614 8.00218 12.276 8.13959 12.1386C8.277 12.0012 8.46239 11.9225 8.65669 11.9191C8.85099 11.9156 9.03904 11.9878 9.18121 12.1202L12.0032 14.9392L14.8212 12.1202C14.9634 11.9878 15.1514 11.9156 15.3457 11.9191C15.54 11.9225 15.7254 12.0012 15.8628 12.1386C16.0002 12.276 16.079 12.4614 16.0824 12.6557C16.0858 12.85 16.0137 13.0381 15.8812 13.1802L12.5312 16.5302C12.4621 16.6 12.3799 16.6554 12.2893 16.6932C12.1986 16.7309 12.1014 16.7503 12.0032 16.7502Z" fill="white"/>
</svg>