<svg xmlns="http://www.w3.org/2000/svg" width="18" height="18" viewBox="0 0 18 18" fill="none">
  <path d="M9 17.0625C7.40539 17.0625 5.84659 16.5896 4.52072 15.7037C3.19485 14.8178 2.16146 13.5586 1.55122 12.0854C0.940993 10.6122 0.781329 8.99106 1.09242 7.42709C1.40352 5.86312 2.17139 4.42652 3.29895 3.29895C4.42652 2.17139 5.86312 1.40352 7.42709 1.09242C8.99106 0.781329 10.6122 0.940993 12.0854 1.55122C13.5586 2.16146 14.8178 3.19485 15.7037 4.52072C16.5896 5.84659 17.0625 7.40539 17.0625 9C17.0607 11.1378 16.2107 13.1875 14.6991 14.6991C13.1875 16.2107 11.1378 17.0607 9 17.0625ZM9 2.0625C7.6279 2.0625 6.2866 2.46938 5.14573 3.23168C4.00487 3.99399 3.11567 5.07748 2.59059 6.34514C2.06551 7.6128 1.92812 9.0077 2.19581 10.3534C2.46349 11.6992 3.12422 12.9353 4.09445 13.9056C5.06468 14.8758 6.30082 15.5365 7.64656 15.8042C8.99231 16.0719 10.3872 15.9345 11.6549 15.4094C12.9225 14.8843 14.006 13.9951 14.7683 12.8543C15.5306 11.7134 15.9375 10.3721 15.9375 9C15.9353 7.16073 15.2037 5.39742 13.9031 4.09686C12.6026 2.7963 10.8393 2.06469 9 2.0625Z" fill="#838383"/>
  <path d="M9 10.3125C8.85112 10.3115 8.70862 10.2519 8.60334 10.1467C8.49806 10.0414 8.43848 9.89888 8.4375 9.75V6C8.43848 5.85112 8.49806 5.70862 8.60334 5.60334C8.70862 5.49806 8.85112 5.43848 9 5.4375C9.14888 5.43848 9.29138 5.49806 9.39666 5.60334C9.50194 5.70862 9.56152 5.85112 9.5625 6V9.75C9.56152 9.89888 9.50194 10.0414 9.39666 10.1467C9.29138 10.2519 9.14888 10.3115 9 10.3125Z" fill="#838383"/>
  <path d="M9 12.7537C8.90199 12.7525 8.80517 12.7321 8.715 12.6937C8.6236 12.6534 8.53987 12.5975 8.4675 12.5287C8.3997 12.457 8.34624 12.373 8.31 12.2812C8.27251 12.1933 8.25215 12.0991 8.25 12.0037C8.25069 11.9044 8.27109 11.8063 8.31 11.7149C8.34805 11.6241 8.40131 11.5404 8.4675 11.4674C8.54045 11.4012 8.62415 11.348 8.715 11.3099C8.8976 11.2349 9.1024 11.2349 9.285 11.3099C9.37585 11.348 9.45955 11.4012 9.5325 11.4674C9.59869 11.5404 9.65195 11.6241 9.69 11.7149C9.72891 11.8063 9.74931 11.9044 9.75 12.0037C9.74882 12.1017 9.72843 12.1985 9.69 12.2887C9.65376 12.3805 9.6003 12.4645 9.5325 12.5362C9.45955 12.6024 9.37585 12.6556 9.285 12.6937C9.19483 12.7321 9.09801 12.7525 9 12.7537Z" fill="#838383"/>
</svg>