<svg xmlns="http://www.w3.org/2000/svg" width="24" height="24" viewBox="0 0 24 24" fill="none">
  <path d="M12 2C10.0222 2 8.08879 2.58649 6.4443 3.6853C4.79981 4.78412 3.51809 6.3459 2.76121 8.17317C2.00433 10.0004 1.8063 12.0111 2.19215 13.9509C2.578 15.8907 3.53041 17.6725 4.92894 19.0711C6.32746 20.4696 8.10929 21.422 10.0491 21.8079C11.9889 22.1937 13.9996 21.9957 15.8268 21.2388C17.6541 20.4819 19.2159 19.2002 20.3147 17.5557C21.4135 15.9112 22 13.9778 22 12C21.9958 9.34913 20.9408 6.80805 19.0664 4.93361C17.192 3.05916 14.6509 2.00423 12 2ZM11.25 8C11.25 7.80109 11.329 7.61032 11.4697 7.46967C11.6103 7.32902 11.8011 7.25 12 7.25C12.1989 7.25 12.3897 7.32902 12.5303 7.46967C12.671 7.61032 12.75 7.80109 12.75 8V13C12.75 13.1989 12.671 13.3897 12.5303 13.5303C12.3897 13.671 12.1989 13.75 12 13.75C11.8011 13.75 11.6103 13.671 11.4697 13.5303C11.329 13.3897 11.25 13.1989 11.25 13V8ZM12.92 16.38C12.8717 16.5024 12.8004 16.6144 12.71 16.71C12.6127 16.7983 12.5011 16.8693 12.38 16.92C12.2603 16.9727 12.1308 17 12 17C11.8692 17 11.7398 16.9727 11.62 16.92C11.4989 16.8693 11.3873 16.7983 11.29 16.71C11.1996 16.6144 11.1283 16.5024 11.08 16.38C11.0272 16.2603 11 16.1309 11 16C11 15.8691 11.0272 15.7397 11.08 15.62C11.1249 15.4959 11.1966 15.3832 11.2899 15.2899C11.3832 15.1966 11.4959 15.1249 11.62 15.08C11.8635 14.98 12.1365 14.98 12.38 15.08C12.5041 15.1249 12.6168 15.1966 12.7101 15.2899C12.8034 15.3832 12.8751 15.4959 12.92 15.62C12.9728 15.7397 13.0001 15.8691 13.0001 16C13.0001 16.1309 12.9728 16.2603 12.92 16.38Z" fill="#FFC800"/>
</svg>