<svg width="303" height="303" viewBox="0 0 303 303" fill="none" xmlns="http://www.w3.org/2000/svg">
<path d="M151.5 287.219C124.657 287.219 98.4176 279.259 76.0988 264.346C53.7799 249.433 36.3845 228.237 26.1123 203.437C15.8401 178.638 13.1524 151.349 18.3891 125.023C23.6258 98.6958 36.5518 74.513 55.5324 55.5324C74.513 36.5518 98.6958 23.6258 125.023 18.3891C151.349 13.1524 178.638 15.8401 203.437 26.1123C228.237 36.3845 249.433 53.7799 264.346 76.0988C279.259 98.4176 287.219 124.657 287.219 151.5C287.189 187.486 272.88 221.989 247.434 247.434C221.989 272.88 187.486 287.189 151.5 287.219ZM151.5 34.7188C128.403 34.7188 105.824 41.5679 86.6199 54.4C67.4153 67.2321 52.4471 85.4708 43.6083 106.81C34.7694 128.149 32.4567 151.63 36.9627 174.283C41.4688 196.936 52.5911 217.745 68.9232 234.077C85.2554 250.409 106.064 261.531 128.717 266.037C151.37 270.543 174.851 268.231 196.19 259.392C217.529 250.553 235.768 235.585 248.6 216.38C261.432 197.176 268.281 174.597 268.281 151.5C268.245 120.539 255.929 90.8566 234.036 68.9638C212.144 47.0711 182.461 34.7556 151.5 34.7188Z" fill="#F8BB86"/>
<path d="M151.5 173.594C148.994 173.577 146.595 172.574 144.823 170.802C143.051 169.03 142.048 166.631 142.031 164.125V101C142.048 98.4938 143.051 96.095 144.823 94.3229C146.595 92.5507 148.994 91.5478 151.5 91.5312C154.006 91.5478 156.405 92.5507 158.177 94.3229C159.949 96.095 160.952 98.4938 160.969 101V164.125C160.952 166.631 159.949 169.03 158.177 170.802C156.405 172.574 154.006 173.577 151.5 173.594Z" fill="#F8BB86"/>
<path d="M151.5 214.688C149.85 214.668 148.22 214.325 146.702 213.678C145.164 212.999 143.754 212.06 142.536 210.901C141.395 209.694 140.495 208.279 139.885 206.734C139.254 205.256 138.911 203.67 138.875 202.063C138.887 200.392 139.23 198.74 139.885 197.203C140.525 195.673 141.422 194.264 142.536 193.036C143.764 191.922 145.173 191.025 146.702 190.385C149.776 189.122 153.224 189.122 156.298 190.385C157.827 191.025 159.236 191.922 160.464 193.036C161.578 194.264 162.475 195.673 163.115 197.203C163.77 198.74 164.113 200.392 164.125 202.063C164.105 203.713 163.762 205.343 163.115 206.861C162.505 208.406 161.605 209.82 160.464 211.027C159.236 212.141 157.827 213.038 156.298 213.678C154.78 214.325 153.15 214.668 151.5 214.688Z" fill="#F8BB86"/>
</svg>
