<svg xmlns="http://www.w3.org/2000/svg" width="18" height="18" viewBox="0 0 18 18" fill="none">
  <path d="M9 1.5C7.51664 1.5 6.0666 1.93987 4.83323 2.76398C3.59986 3.58809 2.63856 4.75943 2.07091 6.12987C1.50325 7.50032 1.35472 9.00832 1.64411 10.4632C1.9335 11.918 2.64781 13.2544 3.6967 14.3033C4.7456 15.3522 6.08197 16.0665 7.53683 16.3559C8.99168 16.6453 10.4997 16.4968 11.8701 15.9291C13.2406 15.3614 14.4119 14.4001 15.236 13.1668C16.0601 11.9334 16.5 10.4834 16.5 9C16.4968 7.01185 15.7056 5.10604 14.2998 3.7002C12.894 2.29437 10.9882 1.50317 9 1.5ZM8.4375 6C8.4375 5.85082 8.49677 5.70774 8.60226 5.60225C8.70775 5.49676 8.85082 5.4375 9 5.4375C9.14919 5.4375 9.29226 5.49676 9.39775 5.60225C9.50324 5.70774 9.5625 5.85082 9.5625 6V9.75C9.5625 9.89918 9.50324 10.0423 9.39775 10.1477C9.29226 10.2532 9.14919 10.3125 9 10.3125C8.85082 10.3125 8.70775 10.2532 8.60226 10.1477C8.49677 10.0423 8.4375 9.89918 8.4375 9.75V6ZM9.69 12.285C9.65376 12.3768 9.6003 12.4608 9.5325 12.5325C9.45956 12.5987 9.37586 12.652 9.285 12.69C9.19519 12.7295 9.09813 12.75 9 12.75C8.90187 12.75 8.80481 12.7295 8.715 12.69C8.62415 12.652 8.54045 12.5987 8.4675 12.5325C8.39971 12.4608 8.34625 12.3768 8.31 12.285C8.27041 12.1952 8.24997 12.0981 8.24997 12C8.24997 11.9019 8.27041 11.8048 8.31 11.715C8.34369 11.6219 8.39743 11.5374 8.46742 11.4674C8.53741 11.3974 8.62193 11.3437 8.715 11.31C8.8976 11.235 9.10241 11.235 9.285 11.31C9.37808 11.3437 9.4626 11.3974 9.53259 11.4674C9.60258 11.5374 9.65632 11.6219 9.69 11.715C9.72959 11.8048 9.75004 11.9019 9.75004 12C9.75004 12.0981 9.72959 12.1952 9.69 12.285Z" fill="#FFC800"/>
</svg>