<svg xmlns="http://www.w3.org/2000/svg" width="21" height="20" viewBox="0 0 21 20" fill="none">
  <path d="M6.125 11.6667C8.05525 11.6667 9.625 10.1717 9.625 8.33333C9.625 6.495 8.05525 5 6.125 5C4.19475 5 2.625 6.495 2.625 8.33333C2.625 10.1717 4.19475 11.6667 6.125 11.6667ZM6.125 6.66667C7.09013 6.66667 7.875 7.41417 7.875 8.33333C7.875 9.2525 7.09013 10 6.125 10C5.15988 10 4.375 9.2525 4.375 8.33333C4.375 7.41417 5.15988 6.66667 6.125 6.66667ZM12.25 19.1667C12.25 19.6275 11.858 20 11.375 20C10.892 20 10.5 19.6275 10.5 19.1667C10.5 16.8692 8.53738 15 6.125 15C3.71263 15 1.75 16.8692 1.75 19.1667C1.75 19.6275 1.358 20 0.875 20C0.392 20 0 19.6275 0 19.1667C0 15.9508 2.7475 13.3333 6.125 13.3333C9.5025 13.3333 12.25 15.9508 12.25 19.1667ZM21 4.16667V10.8333C21 13.1308 19.0374 15 16.625 15H13.125C12.642 15 12.25 14.6275 12.25 14.1667V12.5C12.25 12.0392 12.642 11.6667 13.125 11.6667H15.75C16.233 11.6667 16.625 12.0392 16.625 12.5V13.3333C18.0723 13.3333 19.25 12.2117 19.25 10.8333V4.16667C19.25 2.78833 18.0723 1.66667 16.625 1.66667H8.28188C7.34738 1.66667 6.47588 2.14583 6.00775 2.9175C5.76538 3.31583 5.23075 3.45333 4.8125 3.22083C4.39338 2.99083 4.25075 2.48083 4.49313 2.0825C5.27363 0.798333 6.72525 0 8.28275 0H16.6259C19.0383 0 21 1.86917 21 4.16667Z" fill="#5A5A5A"/>
</svg>