<svg xmlns="http://www.w3.org/2000/svg" width="46" height="46" viewBox="0 0 46 46" fill="none">
  <path d="M28.7812 39.5128C28.5947 39.5134 28.4099 39.477 28.2377 39.4055C28.0655 39.334 27.9092 39.2289 27.778 39.0964L15.4376 26.7616C14.4737 25.7902 13.9327 24.4772 13.9327 23.1087C13.9327 21.7402 14.4737 20.4272 15.4376 19.4558L27.778 7.11158C28.0471 6.86083 28.403 6.72432 28.7708 6.73081C29.1385 6.7373 29.4894 6.88628 29.7495 7.14636C30.0096 7.40644 30.1586 7.75732 30.1651 8.12508C30.1715 8.49283 30.035 8.84875 29.7843 9.11784L17.4439 21.4621C17.0074 21.8989 16.7623 22.4912 16.7623 23.1087C16.7623 23.7262 17.0074 24.3185 17.4439 24.7554L29.7843 37.0958C30.0483 37.3629 30.1963 37.7234 30.1963 38.0989C30.1963 38.4745 30.0483 38.8349 29.7843 39.1021C29.5135 39.3602 29.1553 39.5069 28.7812 39.5128Z" fill="#707070"/>
</svg>