<svg xmlns="http://www.w3.org/2000/svg" width="24" height="24" viewBox="0 0 24 24" fill="none">
  <path d="M19.069 14.2399C18.9319 14.3761 18.7463 14.4523 18.553 14.4516C18.3598 14.4509 18.1747 14.3735 18.0385 14.2364C17.9023 14.0993 17.8262 13.9137 17.8268 13.7205C17.8275 13.5272 17.9049 13.3421 18.042 13.2059C18.7578 12.49 19.2453 11.5779 19.4427 10.5849C19.6401 9.59194 19.5387 8.56272 19.1512 7.6274C18.7638 6.69208 18.1077 5.89265 17.2659 5.33021C16.4241 4.76777 15.4344 4.46757 14.422 4.46757C13.4096 4.46757 12.4199 4.76777 11.5781 5.33021C10.7363 5.89265 10.0802 6.69208 9.69274 7.6274C9.30527 8.56272 9.20384 9.59194 9.40129 10.5849C9.59873 11.5779 10.0862 12.49 10.802 13.2059C10.9386 13.3425 11.0153 13.5278 11.0153 13.7209C11.0153 13.9141 10.9386 14.0993 10.802 14.2359C10.6654 14.3725 10.4802 14.4492 10.287 14.4492C10.0938 14.4492 9.90858 14.3725 9.77199 14.2359C8.84996 13.3158 8.22162 12.1429 7.96649 10.8655C7.71137 9.58817 7.84093 8.26384 8.33877 7.06015C8.83662 5.85646 9.68037 4.82752 10.7632 4.10356C11.8461 3.3796 13.1194 2.99316 14.422 2.99316C15.7246 2.99316 16.9979 3.3796 18.0807 4.10356C19.1636 4.82752 20.0074 5.85646 20.5052 7.06015C21.0031 8.26384 21.1326 9.58817 20.8775 10.8655C20.6224 12.1429 19.994 13.3158 19.072 14.2359L19.069 14.2399Z" fill="#158B7F"/>
  <path d="M4.93001 9.76091C4.99693 9.69203 5.07699 9.63727 5.16545 9.59987C5.25391 9.56248 5.34897 9.54321 5.44501 9.54321C5.54105 9.54321 5.63611 9.56248 5.72457 9.59987C5.81303 9.63727 5.89309 9.69203 5.96001 9.76091C6.0289 9.82783 6.08366 9.90789 6.12105 9.99635C6.15845 10.0848 6.17771 10.1799 6.17771 10.2759C6.17771 10.372 6.15845 10.467 6.12105 10.5555C6.08366 10.6439 6.0289 10.724 5.96001 10.7909C5.2442 11.5069 4.75675 12.419 4.55931 13.4119C4.36186 14.4049 4.46329 15.4341 4.85076 16.3694C5.23823 17.3048 5.89435 18.1042 6.73614 18.6666C7.57794 19.2291 8.56761 19.5293 9.58001 19.5293C10.5924 19.5293 11.5821 19.2291 12.4239 18.6666C13.2657 18.1042 13.9218 17.3048 14.3093 16.3694C14.6967 15.4341 14.7982 14.4049 14.6007 13.4119C14.4033 12.419 13.9158 11.5069 13.2 10.7909C13.1311 10.724 13.0764 10.6439 13.039 10.5555C13.0016 10.467 12.9823 10.372 12.9823 10.2759C12.9823 10.1799 13.0016 10.0848 13.039 9.99635C13.0764 9.90789 13.1311 9.82783 13.2 9.76091C13.2669 9.69203 13.347 9.63727 13.4355 9.59987C13.5239 9.56248 13.619 9.54321 13.715 9.54321C13.8111 9.54321 13.9061 9.56248 13.9946 9.59987C14.083 9.63727 14.1631 9.69203 14.23 9.76091C15.152 10.681 15.7804 11.854 16.0355 13.1313C16.2906 14.4087 16.1611 15.733 15.6632 16.9367C15.1654 18.1404 14.3216 19.1693 13.2388 19.8933C12.1559 20.6172 10.8826 21.0037 9.58001 21.0037C8.27743 21.0037 7.00413 20.6172 5.92126 19.8933C4.83839 19.1693 3.99464 18.1404 3.49679 16.9367C2.99895 15.733 2.86939 14.4087 3.12451 13.1313C3.37964 11.854 4.00798 10.681 4.93001 9.76091Z" fill="#158B7F"/>
</svg>