<svg xmlns="http://www.w3.org/2000/svg" width="24" height="24" viewBox="0 0 24 24" fill="none">
  <path d="M12 14.1699C11.2356 14.169 10.4886 13.9413 9.85358 13.5158C9.21853 13.0903 8.72393 12.486 8.43231 11.7794C8.14069 11.0728 8.06516 10.2956 8.21526 9.54602C8.36536 8.79647 8.73436 8.10827 9.27559 7.56844C9.81682 7.02861 10.506 6.6614 11.2559 6.51324C12.0058 6.36507 12.7828 6.44262 13.4887 6.73606C14.1946 7.02951 14.7976 7.52568 15.2214 8.16182C15.6453 8.79797 15.871 9.54552 15.87 10.3099C15.8666 11.3343 15.4574 12.3157 14.7321 13.0391C14.0068 13.7625 13.0244 14.1692 12 14.1699ZM12 7.93994C11.5313 7.93994 11.0731 8.07894 10.6833 8.33936C10.2936 8.59978 9.9898 8.96992 9.81042 9.40298C9.63104 9.83604 9.58411 10.3126 9.67555 10.7723C9.767 11.232 9.99272 11.6543 10.3242 11.9858C10.6556 12.3172 11.0779 12.543 11.5376 12.6344C11.9974 12.7258 12.4739 12.6789 12.907 12.4995C13.34 12.3202 13.7102 12.0164 13.9706 11.6266C14.231 11.2369 14.37 10.7787 14.37 10.3099C14.3687 9.68178 14.1186 9.07973 13.6744 8.63556C13.2302 8.19138 12.6282 7.94126 12 7.93994Z" fill="#5A5A5A"/>
  <path d="M12 22.7601C10.4595 22.7571 8.97969 22.1587 7.87001 21.0901C4.92301 18.2501 1.66001 13.7201 2.89001 8.3301C3.359 6.28037 4.52216 4.45579 6.18242 3.16549C7.84268 1.87519 9.89794 1.19851 12 1.2501H12.01C14.114 1.19811 16.1712 1.87582 17.8323 3.16818C19.4934 4.46054 20.6561 6.28791 21.123 8.3401C22.343 13.7301 19.083 18.2501 16.133 21.0901C15.0226 22.1594 13.5416 22.7578 12 22.7601ZM12 2.7501C10.2367 2.68757 8.5072 3.24442 7.11163 4.32398C5.71605 5.40354 4.74252 6.93767 4.36001 8.6601C3.28001 13.3701 6.24001 17.4301 8.92001 20.0001C9.74615 20.8032 10.8529 21.2524 12.005 21.2524C13.1571 21.2524 14.2639 20.8032 15.09 20.0001C17.76 17.4301 20.72 13.3701 19.66 8.6601C19.2719 6.93679 18.2941 5.40314 16.8955 4.32407C15.4969 3.24501 13.7654 2.68829 12 2.7501Z" fill="#5A5A5A"/>
</svg>