<svg xmlns="http://www.w3.org/2000/svg" width="24" height="24" viewBox="0 0 24 24" fill="none">
  <path d="M15.24 22.27H15.11C10.67 22.27 8.53003 20.52 8.16003 16.6C8.15053 16.5014 8.16061 16.402 8.18969 16.3073C8.21877 16.2127 8.26628 16.1248 8.32947 16.0485C8.39267 15.9723 8.47031 15.9094 8.55793 15.8633C8.64556 15.8172 8.74142 15.7889 8.84003 15.78C9.03828 15.7645 9.23476 15.8269 9.38784 15.9538C9.54091 16.0807 9.63853 16.2623 9.66003 16.46C9.95003 19.6 11.43 20.77 15.12 20.77H15.248C19.318 20.77 20.758 19.33 20.758 15.26V8.73998C20.758 4.66998 19.318 3.22998 15.248 3.22998H15.118C11.408 3.22998 9.92803 4.41998 9.65803 7.61998C9.63644 7.81677 9.53872 7.9973 9.38577 8.12298C9.23282 8.24866 9.03676 8.30951 8.83953 8.29253C8.64229 8.27555 8.45953 8.18208 8.33031 8.03211C8.20108 7.88214 8.13566 7.68756 8.14803 7.48998C8.49003 3.50998 10.64 1.72998 15.11 1.72998H15.24C20.148 1.72998 22.248 3.82998 22.248 8.73998V15.26C22.248 20.17 20.148 22.27 15.24 22.27Z" fill="#EA5148"/>
  <path d="M15 12.75H3.62C3.42149 12.7487 3.23148 12.6693 3.09111 12.5289C2.95074 12.3885 2.87131 12.1985 2.87 12C2.87131 11.8015 2.95074 11.6115 3.09111 11.4711C3.23148 11.3307 3.42149 11.2513 3.62 11.25H15C15.1985 11.2513 15.3885 11.3307 15.5289 11.4711C15.6692 11.6115 15.7487 11.8015 15.75 12C15.7487 12.1985 15.6692 12.3885 15.5289 12.5289C15.3885 12.6693 15.1985 12.7487 15 12.75Z" fill="#EA5148"/>
  <path d="M5.853 16.1022C5.75447 16.1026 5.65687 16.0833 5.56587 16.0455C5.47487 16.0078 5.39231 15.9523 5.323 15.8822L1.971 12.5302C1.83152 12.3891 1.7533 12.1987 1.7533 12.0002C1.7533 11.8018 1.83152 11.6114 1.971 11.4702L5.321 8.12024C5.46317 7.98776 5.65122 7.91563 5.84552 7.91906C6.03982 7.92249 6.22521 8.0012 6.36262 8.13862C6.50003 8.27603 6.57874 8.46141 6.58217 8.65571C6.5856 8.85002 6.51348 9.03806 6.381 9.18024L3.56 12.0022L6.38 14.8222C6.51948 14.9634 6.5977 15.1538 6.5977 15.3522C6.5977 15.5507 6.51948 15.7411 6.38 15.8822C6.31162 15.9527 6.22966 16.0085 6.13907 16.0463C6.04848 16.0841 5.95116 16.1032 5.853 16.1022Z" fill="#EA5148"/>
</svg>