<svg xmlns="http://www.w3.org/2000/svg" width="24" height="24" viewBox="0 0 16 21" fill="none">
  <path d="M0.851884 7.87495C0.327782 7.87495 -0.0792884 7.3867 0.0131503 6.8547C0.317605 5.10382 1.16312 3.47631 2.43437 2.24693C4.07537 0.658799 6.21842 -0.133079 8.47766 0.0182965C12.7358 0.301798 16.0619 4.12644 15.9991 8.6957C15.9652 11.1615 13.9731 13.1258 11.5824 13.1258H9.0959C8.7906 13.4286 8.37844 13.6167 7.92218 13.6167C6.98507 13.6167 6.22606 12.8336 6.22606 11.8667C6.22606 10.8998 6.98507 10.1167 7.92218 10.1167C8.69222 10.1167 9.33505 10.6496 9.54198 11.3758H11.5824C13.0547 11.3758 14.2869 10.1657 14.303 8.64758C14.342 5.01982 11.7207 1.98968 8.36826 1.76568C6.58818 1.65193 4.89036 2.27143 3.59367 3.52531C2.56836 4.51669 1.90772 5.78632 1.6762 7.18107C1.60836 7.58882 1.25217 7.8767 0.851884 7.8767V7.87495ZM7.94338 14.875C4.80979 14.875 2.09854 16.8805 1.19705 19.8642C1.11648 20.1302 1.16312 20.4199 1.32341 20.6439C1.48369 20.8679 1.73726 21 2.00694 21H13.8798C14.1495 21 14.4031 20.8679 14.5634 20.6439C14.7236 20.4199 14.7703 20.1302 14.6897 19.8642C13.7882 16.8805 11.077 14.875 7.94338 14.875ZM10.4316 9.62496H12.4279C12.5424 9.20758 12.6077 8.76833 12.6077 8.31245C12.6077 5.65419 10.5198 3.49993 7.94338 3.49993C5.36697 3.49993 3.27904 5.65419 3.27904 8.31245C3.27904 9.61708 3.78448 10.7983 4.60117 11.6655C4.70378 9.85771 6.14379 8.42008 7.92218 8.42008C8.93222 8.42008 9.82269 8.89345 10.4324 9.62496H10.4316Z" fill="#158B7F"/>
</svg>