<svg xmlns="http://www.w3.org/2000/svg" width="45" height="44" viewBox="0 0 45 44" fill="none">
  <path d="M2.15651 5.80348L3.07275 7.63596C3.41507 8.25637 3.98375 8.72061 4.66012 8.93181C5.33649 9.14301 6.0683 9.08486 6.70282 8.76949C7.33735 8.45412 7.82557 7.90589 8.06562 7.23921C8.30566 6.57253 8.27898 5.83891 7.99114 5.19143L7.0749 3.35894C6.92423 3.02002 6.70653 2.7151 6.4349 2.46253C6.16328 2.20997 5.84334 2.01499 5.49437 1.88934C5.1454 1.76369 4.77461 1.70997 4.40433 1.7314C4.03404 1.75284 3.67193 1.84899 3.33979 2.01407C3.00765 2.17915 2.71235 2.40974 2.47168 2.69196C2.23101 2.97418 2.04995 3.30219 1.9394 3.65623C1.82884 4.01028 1.79108 4.38303 1.8284 4.75206C1.86571 5.12108 1.97732 5.47873 2.15651 5.80348Z" fill="#5A5A5A"/>
  <path d="M20.4927 3.34431L19.5765 5.17679C19.4031 5.50007 19.2961 5.85479 19.262 6.22004C19.2278 6.58529 19.2671 6.95369 19.3775 7.30353C19.4879 7.65336 19.6673 7.97755 19.9049 8.25699C20.1426 8.53644 20.4338 8.76547 20.7614 8.93061C21.089 9.09574 21.4463 9.19364 21.8123 9.21852C22.1783 9.2434 22.5456 9.19476 22.8925 9.07548C23.2394 8.95619 23.5589 8.76867 23.8323 8.52397C24.1056 8.27926 24.3271 7.98232 24.4839 7.65065L25.4001 5.81816C25.5735 5.49489 25.6805 5.14017 25.7147 4.77492C25.7488 4.40966 25.7095 4.04126 25.5991 3.69143C25.4887 3.34159 25.3094 3.0174 25.0717 2.73796C24.834 2.45852 24.5428 2.22948 24.2152 2.06435C23.8876 1.89921 23.5303 1.80132 23.1643 1.77644C22.7983 1.75156 22.431 1.8002 22.0841 1.91948C21.7372 2.03877 21.4177 2.22629 21.1444 2.47099C20.871 2.7157 20.6495 3.01264 20.4927 3.34431Z" fill="#5A5A5A"/>
  <path d="M11.0332 2.74873V4.58121C11.0332 5.31022 11.3228 6.00937 11.8383 6.52486C12.3538 7.04035 13.0529 7.32994 13.7819 7.32994C14.5109 7.32994 15.2101 7.04035 15.7256 6.52486C16.2411 6.00937 16.5307 5.31022 16.5307 4.58121V2.74873C16.5307 2.01972 16.2411 1.32057 15.7256 0.805084C15.2101 0.289597 14.5109 0 13.7819 0C13.0529 0 12.3538 0.289597 11.8383 0.805084C11.3228 1.32057 11.0332 2.01972 11.0332 2.74873Z" fill="#5A5A5A"/>
  <path d="M29.3595 14.6599C25.9562 14.6566 22.6588 15.8428 20.0376 18.0133C19.2758 17.6193 18.4781 17.299 17.6554 17.0568L19.0041 14.3575C19.3646 13.6337 19.4348 12.7994 19.2005 12.0255C18.9661 11.2515 18.4448 10.5964 17.7433 10.1941C16.5391 9.50297 15.1717 9.14675 13.7833 9.16244C12.2968 9.14429 10.8366 9.55531 9.57776 10.3462C8.94614 10.7714 8.49316 11.4142 8.30524 12.152C8.11732 12.8899 8.20761 13.671 8.5589 14.3465L9.91494 17.0568C8.00784 17.61 6.24326 18.5698 4.74266 19.8703C3.24206 21.1708 2.04109 22.781 1.22242 24.5901C0.403744 26.3992 -0.0131898 28.3642 0.000318031 30.3499C0.0138258 32.3355 0.457454 34.2947 1.30066 36.0925C2.14388 37.8902 3.36664 39.484 4.88479 40.7639C6.40294 42.0439 8.18042 42.9796 10.0949 43.5068C12.0093 44.034 14.0153 44.1401 15.9746 43.8177C17.934 43.4954 19.8003 42.7523 21.4449 41.6396C23.3614 42.8756 25.5397 43.6475 27.8068 43.8938C30.0739 44.1402 32.3672 43.8543 34.5044 43.0588C36.6416 42.2634 38.5637 40.9803 40.118 39.3116C41.6723 37.6429 42.8158 35.6346 43.4577 33.4463C44.0997 31.2581 44.2222 28.9503 43.8157 26.7064C43.4092 24.4625 42.4848 22.3444 41.116 20.5204C39.7472 18.6965 37.9718 17.217 35.9309 16.1996C33.89 15.1823 31.6399 14.655 29.3595 14.6599ZM5.53713 30.236C5.53956 28.0498 6.40913 25.9537 7.95506 24.4078C9.501 22.8618 11.597 21.9923 13.7833 21.9898C14.6797 22.0001 15.5683 22.1587 16.4129 22.459C15.1498 24.8297 14.5658 27.5031 14.7252 30.1846C14.8846 32.866 15.7813 35.4514 17.3164 37.6558C16.2157 38.1933 15.0081 38.4757 13.7833 38.4822C11.597 38.4798 9.501 37.6102 7.95506 36.0643C6.40913 34.5184 5.53956 32.4223 5.53713 30.236ZM29.3595 38.4822C27.986 38.475 26.6324 38.1547 25.4013 37.5458C26.9365 35.1257 27.6719 32.2842 27.5036 29.4232C27.3352 26.5622 26.2715 23.8265 24.463 21.6032C25.6624 20.8412 27.0226 20.3689 28.4361 20.2236C29.8495 20.0784 31.2774 20.2642 32.6066 20.7664C33.9358 21.2686 35.1299 22.0733 36.0942 23.1169C37.0585 24.1604 37.7667 25.4142 38.1626 26.7788C38.5584 28.1435 38.6311 29.5816 38.375 30.9792C38.1188 32.3768 37.5408 33.6956 36.6866 34.8311C35.8325 35.9667 34.7257 36.8878 33.454 37.5215C32.1822 38.1552 30.7804 38.4841 29.3595 38.4822Z" fill="#5A5A5A"/>
</svg>