<svg xmlns="http://www.w3.org/2000/svg" width="62" height="62" viewBox="0 0 62 62" fill="none">
  <path d="M30.823 43.024C29.807 43.0299 28.7925 42.9439 27.792 42.767C22.8381 41.9909 18.3603 39.3719 15.2552 35.4346C12.1502 31.4973 10.6472 26.5323 11.0473 21.534C11.4474 16.5356 13.721 11.8729 17.4128 8.47964C21.1046 5.08636 25.942 3.21304 30.9563 3.23482C35.9706 3.25661 40.7916 5.17189 44.4537 8.59711C48.1159 12.0223 50.3489 16.7046 50.7056 21.7062C51.0622 26.7079 49.5162 31.6596 46.377 35.5698C43.2379 39.48 38.7375 42.06 33.777 42.793C32.8004 42.9515 31.8124 43.0288 30.823 43.024ZM30.823 7.064C26.7698 7.04212 22.8588 8.55702 19.8779 11.3036C16.897 14.0501 15.0676 17.8242 14.7583 21.8657C14.4489 25.9072 15.6826 29.9157 18.2107 33.084C20.7388 36.2522 24.3737 38.3447 28.383 38.94C29.9631 39.2227 31.5809 39.2227 33.161 38.94C37.1665 38.3518 40.8008 36.2692 43.3335 33.1109C45.8662 29.9525 47.1094 25.9525 46.8133 21.9149C46.5171 17.8773 44.7036 14.1015 41.7372 11.3465C38.7708 8.59144 34.8714 7.06143 30.823 7.064Z" fill="white"/>
  <path d="M16.618 58.024C16.2634 58.0194 15.9104 57.9765 15.565 57.896C14.7504 57.7106 14.0047 57.2988 13.4139 56.7081C12.8232 56.1173 12.4114 55.3716 12.226 54.557L11.326 50.781C11.2965 50.6631 11.2355 50.5554 11.1495 50.4694C11.0636 50.3835 10.9559 50.3225 10.838 50.293L6.6 49.293C5.82184 49.1117 5.10649 48.7252 4.5284 48.1737C3.95031 47.6222 3.53061 46.9258 3.313 46.157C3.09767 45.3842 3.09122 44.568 3.29431 43.7919C3.49739 43.0157 3.90274 42.3073 4.469 41.739L14.487 31.722C14.686 31.5185 14.928 31.3621 15.1953 31.2644C15.4626 31.1666 15.7484 31.13 16.0317 31.1571C16.315 31.1842 16.5886 31.2745 16.8325 31.4212C17.0764 31.5679 17.2843 31.7674 17.441 32.005C18.6875 33.8589 20.3064 35.4329 22.1945 36.6269C24.0827 37.8209 26.1987 38.6086 28.408 38.94C29.9881 39.2227 31.6059 39.2227 33.186 38.94C35.4047 38.6158 37.5311 37.8313 39.4287 36.6368C41.3263 35.4424 42.9532 33.8643 44.205 32.004C44.3608 31.7649 44.569 31.5643 44.8138 31.4176C45.0587 31.2708 45.3336 31.1817 45.618 31.157C45.9006 31.1325 46.1851 31.1704 46.4514 31.268C46.7177 31.3657 46.9592 31.5206 47.159 31.722L57.176 41.739C57.7423 42.3073 58.1476 43.0157 58.3507 43.7919C58.5538 44.568 58.5473 45.3842 58.332 46.157C58.1144 46.9253 57.695 47.6212 57.1172 48.1723C56.5395 48.7235 55.8246 49.1098 55.047 49.291L50.809 50.291C50.6911 50.3205 50.5834 50.3815 50.4975 50.4674C50.4115 50.5534 50.3505 50.6611 50.321 50.779L49.421 54.555C49.23 55.3657 48.8171 56.1073 48.2285 56.6966C47.6398 57.286 46.8988 57.6998 46.0882 57.8917C45.2777 58.0837 44.4298 58.0462 43.6393 57.7834C42.8489 57.5206 42.1473 57.043 41.613 56.404L30.823 44L20.035 56.432C19.6165 56.9311 19.0937 57.3323 18.5033 57.6074C17.9129 57.8825 17.2693 58.0247 16.618 58.024ZM15.647 36.037L7.192 44.488C7.10636 44.5682 7.04613 44.6718 7.01876 44.7859C6.99138 44.9 6.99807 45.0197 7.038 45.13C7.063 45.2404 7.12027 45.341 7.20253 45.4188C7.28479 45.4966 7.38834 45.5482 7.5 45.567L11.738 46.567C12.5526 46.7524 13.2983 47.1641 13.8891 47.7549C14.4798 48.3457 14.8916 49.0914 15.077 49.906L15.977 53.682C16.0053 53.8005 16.0659 53.9088 16.152 53.995C16.2382 54.0811 16.3465 54.1417 16.465 54.17C16.5805 54.1982 16.7016 54.194 16.8148 54.1579C16.9281 54.1217 17.0292 54.0549 17.107 53.965L26.947 42.638C22.5453 41.7707 18.5644 39.4452 15.647 36.037ZM34.706 42.613L44.544 53.913C44.6166 54.016 44.7193 54.094 44.838 54.1362C44.9568 54.1785 45.0856 54.183 45.207 54.149C45.3259 54.1216 45.4347 54.0613 45.521 53.975C45.6073 53.8887 45.6676 53.7799 45.695 53.661L46.595 49.885C46.7804 49.0704 47.1922 48.3247 47.7829 47.7339C48.3737 47.1431 49.1194 46.7314 49.934 46.546L54.172 45.546C54.2825 45.5186 54.3837 45.4625 54.4656 45.3834C54.5475 45.3044 54.6071 45.2051 54.6383 45.0956C54.6695 44.9862 54.6714 44.8704 54.6436 44.7601C54.6158 44.6497 54.5593 44.5486 54.48 44.467L46.029 36.011C43.1013 39.421 39.1111 41.7465 34.701 42.613H34.706Z" fill="white"/>
  <path d="M35.678 33.109C34.8202 33.0872 33.985 32.8294 33.264 32.364L30.824 30.9L28.384 32.338C26.149 33.674 24.684 32.903 24.146 32.518C23.608 32.133 22.446 30.977 23.046 28.434L23.662 25.788L21.605 23.888C21.0835 23.4371 20.6985 22.8493 20.4937 22.191C20.2889 21.5327 20.2724 20.8302 20.446 20.163C20.6861 19.5145 21.1059 18.9479 21.6563 18.5294C22.2067 18.1109 22.865 17.8579 23.554 17.8L26.305 17.338L27.615 14.461C27.8777 13.8148 28.3188 13.2567 28.8869 12.8519C29.4549 12.4471 30.1265 12.2123 30.823 12.175C31.523 12.2141 32.1972 12.4525 32.7661 12.8621C33.3351 13.2718 33.775 13.8356 34.034 14.487L35.549 17.518L38.092 17.826C38.7795 17.8907 39.4353 18.1463 39.9853 18.5638C40.5354 18.9813 40.9578 19.5442 41.205 20.189C41.3788 20.8558 41.3627 21.5579 41.1584 22.216C40.9541 22.874 40.5699 23.4619 40.049 23.913L37.912 26.045L38.58 28.434C39.171 30.977 38.015 32.134 37.48 32.518C36.964 32.9141 36.3284 33.1226 35.678 33.109ZM24.684 21.55L26.456 23.322C26.8724 23.7609 27.1781 24.2928 27.3478 24.8735C27.5176 25.4542 27.5464 26.0669 27.432 26.661L26.944 28.716L28.999 27.509C29.5596 27.1932 30.1921 27.0273 30.8355 27.0273C31.4789 27.0273 32.1114 27.1932 32.672 27.509L34.727 28.716L34.265 26.661C34.1442 26.069 34.1675 25.4567 34.3328 24.8757C34.4982 24.2946 34.8007 23.7617 35.215 23.322L36.987 21.55L34.753 21.165C34.1941 21.0575 33.6663 20.8264 33.2081 20.4887C32.75 20.1509 32.3731 19.7151 32.105 19.213L30.823 16.696L29.539 19.264C29.2754 19.764 28.9033 20.1988 28.45 20.5366C27.9967 20.8743 27.4736 21.1064 26.919 21.216L24.684 21.55Z" fill="white"/>
</svg>