<svg xmlns="http://www.w3.org/2000/svg" width="48" height="48" viewBox="0 0 48 48" fill="none">
  <path d="M42.4995 36.9402L39.1995 37.7202C38.8383 37.8021 38.5076 37.9845 38.2457 38.2464C37.9838 38.5083 37.8014 38.839 37.7195 39.2002L37.0195 42.1402C36.9364 42.5027 36.7538 42.8347 36.4924 43.0992C36.2309 43.3636 35.9009 43.5499 35.5395 43.6371C35.178 43.7244 34.7994 43.7091 34.4461 43.5931C34.0928 43.477 33.7789 43.2648 33.5395 42.9802L27.5595 36.1002C27.4487 35.9719 27.3724 35.8176 27.3376 35.6517C27.3029 35.4858 27.3109 35.3137 27.3609 35.1518C27.4109 34.9898 27.5012 34.8432 27.6234 34.7257C27.7456 34.6083 27.8957 34.5238 28.0595 34.4802C31.6083 33.6164 34.784 31.6316 37.1155 28.8202C37.2021 28.7105 37.3107 28.6201 37.4343 28.5549C37.5579 28.4897 37.6939 28.4512 37.8333 28.4417C37.9728 28.4323 38.1127 28.4522 38.2439 28.5002C38.3752 28.5482 38.495 28.6231 38.5955 28.7202L43.0355 33.1602C44.5595 34.6802 44.0195 36.5802 42.4995 36.9402Z" fill="white"/>
  <path d="M5.40033 36.9402L8.70033 37.7202C9.06156 37.8021 9.39225 37.9845 9.65416 38.2464C9.91607 38.5083 10.0985 38.839 10.1803 39.2002L10.8803 42.1402C10.9635 42.5027 11.146 42.8347 11.4075 43.0992C11.6689 43.3636 11.9989 43.5499 12.3604 43.6371C12.7219 43.7244 13.1005 43.7091 13.4538 43.5931C13.8071 43.477 14.121 43.2648 14.3603 42.9802L20.3403 36.1002C20.4511 35.9719 20.5275 35.8176 20.5622 35.6517C20.597 35.4858 20.589 35.3137 20.539 35.1518C20.489 34.9898 20.3986 34.8432 20.2764 34.7257C20.1542 34.6083 20.0041 34.5238 19.8403 34.4802C16.2902 33.6172 13.1129 31.6323 10.7803 28.8202C10.6938 28.7105 10.5852 28.6201 10.4615 28.5549C10.3379 28.4897 10.202 28.4512 10.0625 28.4417C9.92307 28.4323 9.78319 28.4522 9.6519 28.5002C9.52062 28.5482 9.40085 28.6231 9.30033 28.7202L4.86033 33.1602C3.34033 34.6802 3.88033 36.5802 5.40033 36.9402Z" fill="white"/>
  <path d="M24.0008 4.00007C20.4662 3.98892 17.0583 5.31656 14.4628 7.71598C11.8672 10.1154 10.2765 13.4086 10.0104 16.9333C9.74434 20.4579 10.8227 23.9526 13.0287 26.7145C15.2346 29.4763 18.4045 31.3005 21.9008 31.8201C23.2905 32.0601 24.7111 32.0601 26.1008 31.8201C29.5919 31.2943 32.7551 29.4678 34.9558 26.7071C37.1564 23.9464 38.2317 20.4556 37.966 16.9352C37.7002 13.4147 36.1131 10.1249 33.523 7.72583C30.9328 5.32675 27.5313 3.99582 24.0008 4.00007ZM30.1208 17.5601L28.4608 19.2201C28.3135 19.3832 28.2061 19.5783 28.1471 19.79C28.0881 20.0017 28.0791 20.2243 28.1208 20.4401L28.6008 22.5001C28.9808 24.1201 28.1208 24.7601 26.6808 23.9001L24.6808 22.7201C24.4778 22.6115 24.2511 22.5547 24.0208 22.5547C23.7906 22.5547 23.5639 22.6115 23.3608 22.7201L21.3608 23.9001C19.9208 24.7401 19.0608 24.1201 19.4408 22.5001L19.9208 20.4401C19.9564 20.2242 19.9444 20.0032 19.8857 19.7925C19.827 19.5818 19.7229 19.3864 19.5808 19.2201L17.8808 17.5601C16.9008 16.5801 17.2208 15.6001 18.5808 15.3801L20.7208 15.0201C20.9174 14.9748 21.1025 14.8892 21.2643 14.7687C21.4261 14.6482 21.5611 14.4954 21.6608 14.3201L22.8408 11.9601C23.4808 10.6801 24.5208 10.6801 25.1608 11.9601L26.3408 14.3201C26.4422 14.498 26.5802 14.6524 26.7457 14.7731C26.9112 14.8937 27.1004 14.9779 27.3008 15.0201L29.4408 15.3801C30.7808 15.6001 31.1008 16.5801 30.1208 17.5601Z" fill="white"/>
</svg>