<svg xmlns="http://www.w3.org/2000/svg" width="24" height="24" viewBox="0 0 24 24" fill="none">
  <path d="M16.3808 22.75H3.24176C2.77139 22.7482 2.308 22.6361 1.88883 22.4227C1.46966 22.2093 1.10639 21.9005 0.828234 21.5212C0.550075 21.1419 0.364778 20.7026 0.287236 20.2387C0.209694 19.7748 0.242069 19.2991 0.38176 18.85L4.59076 5.31997C4.77614 4.70605 5.15449 4.16824 5.66969 3.78635C6.18488 3.40446 6.80946 3.19883 7.45076 3.19997H19.7508C20.3415 3.19785 20.9196 3.37173 21.4111 3.69943C21.9027 4.02714 22.2855 4.49382 22.5108 5.03997C22.761 5.63786 22.8136 6.30009 22.6608 6.92997L19.2908 20.46C19.1358 21.1143 18.7637 21.6968 18.2353 22.1127C17.7069 22.5285 17.0532 22.7532 16.3808 22.75ZM7.46076 4.70997C7.14046 4.71083 6.82885 4.81419 6.57153 5.00493C6.31422 5.19567 6.12471 5.46376 6.03076 5.76997L1.82076 19.3C1.7498 19.5294 1.73456 19.7725 1.7763 20.009C1.81803 20.2455 1.91555 20.4687 2.06076 20.66C2.19799 20.8465 2.37726 20.998 2.58402 21.1022C2.79078 21.2065 3.01921 21.2605 3.25076 21.26H16.3908C16.7254 21.2607 17.0506 21.1486 17.3137 20.9417C17.5768 20.7349 17.7625 20.4454 17.8408 20.12L21.2108 6.57997C21.2941 6.26436 21.2694 5.92996 21.1408 5.62997C21.0298 5.35495 20.8391 5.11942 20.5932 4.95368C20.3472 4.78794 20.0573 4.69958 19.7608 4.69997H7.46076V4.70997Z" fill="#5A5A5A"/>
  <path d="M20.78 22.749H16C15.8011 22.749 15.6103 22.67 15.4697 22.5293C15.329 22.3887 15.25 22.1979 15.25 21.999C15.25 21.8001 15.329 21.6093 15.4697 21.4687C15.6103 21.328 15.8011 21.249 16 21.249H20.78C20.9817 21.2479 21.1811 21.2054 21.3657 21.124C21.5503 21.0426 21.7162 20.9242 21.8531 20.776C21.99 20.6279 22.095 20.4531 22.1615 20.2627C22.2281 20.0723 22.2548 19.8702 22.24 19.669L21.25 6.04901C21.2359 5.85154 21.3006 5.65654 21.4299 5.50663C21.5592 5.35673 21.7426 5.2641 21.94 5.24901C22.137 5.2368 22.331 5.30214 22.4805 5.43108C22.63 5.56002 22.7231 5.74231 22.74 5.93901L23.73 19.559C23.7588 19.9666 23.7035 20.3757 23.5676 20.7611C23.4318 21.1464 23.2181 21.4997 22.94 21.799C22.6664 22.0996 22.3328 22.3394 21.9607 22.503C21.5887 22.6667 21.1864 22.7505 20.78 22.749Z" fill="#5A5A5A"/>
  <path d="M9.67978 7.13C9.61933 7.12829 9.55913 7.1216 9.49978 7.11C9.40386 7.08646 9.31352 7.04424 9.23394 6.98574C9.15436 6.92724 9.0871 6.85362 9.03601 6.76909C8.98492 6.68456 8.951 6.59079 8.93621 6.49313C8.92141 6.39548 8.92603 6.29586 8.94978 6.2L9.98978 1.88C10.0119 1.78251 10.0532 1.6904 10.1113 1.60906C10.1693 1.52772 10.2431 1.45878 10.3281 1.40627C10.4132 1.35376 10.5078 1.31872 10.6066 1.30322C10.7053 1.28772 10.8062 1.29207 10.9032 1.316C11.0003 1.33993 11.0916 1.38296 11.1718 1.44259C11.252 1.50222 11.3196 1.57725 11.3704 1.66328C11.4213 1.74931 11.4546 1.84463 11.4682 1.94365C11.4818 2.04267 11.4756 2.14342 11.4498 2.24L10.4098 6.56C10.3698 6.72319 10.276 6.86817 10.1436 6.97157C10.0112 7.07497 9.8478 7.13078 9.67978 7.13Z" fill="#5A5A5A"/>
  <path d="M16.3788 7.14014C16.3246 7.14339 16.2704 7.13661 16.2188 7.12014C16.0256 7.07579 15.8573 6.95824 15.7491 6.79223C15.6409 6.62623 15.6014 6.42473 15.6388 6.23014L16.5788 1.89014C16.6242 1.70028 16.7418 1.53557 16.9066 1.43094C17.0714 1.3263 17.2705 1.28997 17.4617 1.32963C17.6529 1.36929 17.8211 1.48183 17.9306 1.6434C18.0402 1.80497 18.0826 2.00287 18.0488 2.19514L17.1088 6.53514C17.0775 6.70567 16.9872 6.85975 16.8538 6.97038C16.7203 7.081 16.5521 7.1411 16.3788 7.14014Z" fill="#5A5A5A"/>
  <path d="M15.6992 12.75H7.69922C7.50071 12.7487 7.31071 12.6693 7.17034 12.5289C7.02997 12.3885 6.95053 12.1985 6.94922 12C6.95053 11.8015 7.02997 11.6115 7.17034 11.4711C7.31071 11.3307 7.50071 11.2513 7.69922 11.25H15.6992C15.8977 11.2513 16.0877 11.3307 16.2281 11.4711C16.3685 11.6115 16.4479 11.8015 16.4492 12C16.4479 12.1985 16.3685 12.3885 16.2281 12.5289C16.0877 12.6693 15.8977 12.7487 15.6992 12.75Z" fill="#5A5A5A"/>
  <path d="M14.6992 16.75H6.69922C6.50071 16.7487 6.31071 16.6693 6.17034 16.5289C6.02997 16.3885 5.95053 16.1985 5.94922 16C5.95053 15.8015 6.02997 15.6115 6.17034 15.4711C6.31071 15.3307 6.50071 15.2513 6.69922 15.25H14.6992C14.8977 15.2513 15.0877 15.3307 15.2281 15.4711C15.3685 15.6115 15.4479 15.8015 15.4492 16C15.4479 16.1985 15.3685 16.3885 15.2281 16.5289C15.0877 16.6693 14.8977 16.7487 14.6992 16.75Z" fill="#5A5A5A"/>
</svg>