<svg xmlns="http://www.w3.org/2000/svg" width="46" height="46" viewBox="0 0 46 46" fill="none">
  <path d="M45.462 10.1214L35.8786 0.538031C35.5172 0.188895 35.033 -0.00429452 34.5305 7.2455e-05C34.0279 0.00443943 33.5472 0.206013 33.1918 0.561379C32.8365 0.916744 32.6349 1.39747 32.6305 1.90001C32.6261 2.40256 32.8193 2.88671 33.1685 3.2482L36.6051 6.68478L31.8613 11.4285C30.3493 10.3265 28.5478 9.69116 26.6789 9.6009C24.8101 9.51064 22.9557 9.96941 21.3446 10.9206L26.2953 15.8714C26.4784 16.0482 26.6244 16.2597 26.7248 16.4935C26.8253 16.7273 26.8782 16.9789 26.8804 17.2333C26.8826 17.4878 26.8341 17.7402 26.7377 17.9758C26.6413 18.2113 26.499 18.4253 26.3191 18.6053C26.1391 18.7852 25.9251 18.9276 25.6895 19.0239C25.454 19.1203 25.2016 19.1688 24.9471 19.1666C24.6926 19.1644 24.4411 19.1115 24.2073 19.0111C23.9734 18.9106 23.7619 18.7646 23.5851 18.5815L18.3967 13.3931L15.3569 16.4329L20.5453 21.6214C20.7284 21.7982 20.8744 22.0097 20.9748 22.2435C21.0753 22.4773 21.1282 22.7289 21.1304 22.9833C21.1326 23.2378 21.0841 23.4902 20.9877 23.7258C20.8913 23.9613 20.749 24.1753 20.5691 24.3553C20.3891 24.5352 20.1751 24.6776 19.9395 24.7739C19.704 24.8703 19.4516 24.9188 19.1971 24.9166C18.9426 24.9144 18.6911 24.8615 18.4573 24.7611C18.2234 24.6606 18.0119 24.5146 17.8351 24.3315L12.6467 19.1431L9.60688 22.1868L14.7915 27.3714C14.9745 27.5482 15.1205 27.7597 15.221 27.9935C15.3214 28.2273 15.3743 28.4789 15.3765 28.7333C15.3787 28.9878 15.3302 29.2402 15.2339 29.4758C15.1375 29.7113 14.9952 29.9253 14.8152 30.1053C14.6353 30.2852 14.4213 30.4276 14.1857 30.5239C13.9502 30.6203 13.6978 30.6688 13.4433 30.6666C13.1888 30.6644 12.9373 30.6115 12.7034 30.5111C12.4696 30.4106 12.2581 30.2646 12.0813 30.0815L7.31839 25.3148C6.29986 27.2432 5.76945 29.3918 5.77355 31.5727V37.5144L0.585136 42.7047C0.402075 42.8815 0.256059 43.093 0.155608 43.3268C0.0551575 43.5607 0.00228385 43.8122 7.23671e-05 44.0667C-0.00213911 44.3212 0.0463558 44.5736 0.142728 44.8091C0.239099 45.0447 0.381418 45.2587 0.561379 45.4386C0.74134 45.6186 0.955339 45.7609 1.19089 45.8573C1.42644 45.9536 1.67883 46.0021 1.93332 45.9999C2.18781 45.9977 2.43932 45.9448 2.67316 45.8444C2.907 45.7439 3.1185 45.5979 3.2953 45.4149L8.48372 40.2264H14.4254C16.1877 40.2312 17.9335 39.8863 19.5617 39.2119C21.1899 38.5374 22.6682 37.5468 23.911 36.2973L33.6323 26.5759C35.2421 24.9568 36.22 22.8155 36.3894 20.5386C36.5588 18.2617 35.9086 15.9993 34.5561 14.1598L39.3152 9.39495L42.7518 12.8315C43.1133 13.1807 43.5974 13.3739 44.1 13.3695C44.6025 13.3651 45.0833 13.1635 45.4386 12.8082C45.794 12.4528 45.9956 11.9721 45.9999 11.4696C46.0043 10.967 45.8111 10.4829 45.462 10.1214Z" fill="#5A5A5A"/>
</svg>