<svg xmlns="http://www.w3.org/2000/svg" width="32" height="32" viewBox="0 0 32 32" fill="none">
  <path d="M13.6665 13.373C13.6665 14.093 13.8665 14.1997 14.3199 14.3597L14.9999 14.5997V12.333H14.5999C14.3391 12.3495 14.0951 12.4677 13.9206 12.6622C13.7461 12.8567 13.6548 13.1119 13.6665 13.373Z" fill="white"/>
  <path d="M17 19.6671H17.4C17.6616 19.6526 17.9067 19.535 18.0817 19.34C18.2566 19.1451 18.3471 18.8887 18.3333 18.6271C18.3333 17.9071 18.1333 17.8004 17.68 17.6404L17 17.4004V19.6671Z" fill="white"/>
  <path d="M26.1071 7.30642L23.3738 10.0398C23.2811 10.1328 23.171 10.2066 23.0497 10.257C22.9284 10.3074 22.7984 10.3333 22.6671 10.3333C22.5358 10.3333 22.4058 10.3074 22.2845 10.257C22.1632 10.2066 22.0531 10.1328 21.9604 10.0398C21.7745 9.85157 21.6702 9.59766 21.6702 9.33308C21.6702 9.06851 21.7745 8.8146 21.9604 8.62642L24.6938 5.89308C22.0785 3.64351 18.6932 2.49509 15.249 2.68909C11.8048 2.88309 8.56989 4.40441 6.22382 6.93344C3.87775 9.46247 2.60318 12.8023 2.66788 16.2514C2.73257 19.7004 4.13151 22.9901 6.57077 25.4294C9.01004 27.8687 12.2998 29.2676 15.7488 29.3323C19.1978 29.397 22.5377 28.1224 25.0667 25.7764C27.5958 23.4303 29.1171 20.1953 29.3111 16.7512C29.5051 13.307 28.3567 9.92165 26.1071 7.30642ZM18.3338 15.7597C18.9518 15.9294 19.4905 16.3107 19.8561 16.837C20.2216 17.3634 20.3907 18.0014 20.3338 18.6397C20.3445 19.4309 20.0423 20.1942 19.4929 20.7636C18.9435 21.333 18.1914 21.6622 17.4004 21.6798H17.0004V22.0131C17.0004 22.2783 16.8951 22.5327 16.7075 22.7202C16.52 22.9077 16.2656 23.0131 16.0004 23.0131C15.7352 23.0131 15.4809 22.9077 15.2933 22.7202C15.1058 22.5327 15.0004 22.2783 15.0004 22.0131V21.6798H14.8938C14.0245 21.6636 13.197 21.3039 12.5923 20.6792C11.9876 20.0545 11.655 19.2157 11.6671 18.3464C11.6653 18.0812 11.769 17.8261 11.9553 17.6374C12.1416 17.4486 12.3952 17.3415 12.6604 17.3398C12.9256 17.338 13.1807 17.4416 13.3695 17.6279C13.5583 17.8142 13.6653 18.0679 13.6671 18.3331C13.6537 18.6724 13.7753 19.0031 14.0052 19.253C14.2351 19.5029 14.5546 19.6515 14.8938 19.6664H15.0004V16.7064L13.6671 16.2397C13.0491 16.0701 12.5103 15.6888 12.1448 15.1625C11.7793 14.6361 11.6102 13.9981 11.6671 13.3598C11.6564 12.5686 11.9586 11.8053 12.508 11.2359C13.0574 10.6665 13.8094 10.3373 14.6004 10.3197H15.0004V9.99975C15.0004 9.73453 15.1058 9.48018 15.2933 9.29264C15.4809 9.10511 15.7352 8.99975 16.0004 8.99975C16.2656 8.99975 16.52 9.10511 16.7075 9.29264C16.8951 9.48018 17.0004 9.73453 17.0004 9.99975V10.3331H17.1071C17.9764 10.3492 18.8039 10.709 19.4085 11.3337C20.0132 11.9583 20.3459 12.7971 20.3338 13.6664C20.3338 13.9316 20.2284 14.186 20.0409 14.3735C19.8533 14.5611 19.599 14.6664 19.3338 14.6664C19.0686 14.6664 18.8142 14.5611 18.6267 14.3735C18.4391 14.186 18.3338 13.9316 18.3338 13.6664C18.3471 13.3271 18.2256 12.9964 17.9957 12.7465C17.7658 12.4966 17.4463 12.348 17.1071 12.3331H17.0004V15.2931L18.3338 15.7597Z" fill="white"/>
  <path d="M30.2533 2.28033C30.1479 2.03478 29.9522 1.8391 29.7067 1.73366C29.5867 1.69106 29.4606 1.66854 29.3333 1.66699L24 1.66699C23.7353 1.66874 23.482 1.77466 23.2948 1.96182C23.1077 2.14898 23.0017 2.40232 23 2.66699C23.0017 2.93167 23.1077 3.18501 23.2948 3.37217C23.482 3.55933 23.7353 3.66525 24 3.66699H26.92L24.6933 5.89366C25.1972 6.33085 25.6695 6.80314 26.1067 7.30699L28.3333 5.08033V8.00033C28.3333 8.26554 28.4387 8.5199 28.6262 8.70743C28.8138 8.89497 29.0681 9.00033 29.3333 9.00033C29.5985 9.00033 29.8529 8.89497 30.0404 8.70743C30.228 8.5199 30.3333 8.26554 30.3333 8.00033V2.66699C30.3325 2.53408 30.3053 2.40265 30.2533 2.28033Z" fill="white"/>
</svg>