<svg xmlns="http://www.w3.org/2000/svg" width="32" height="32" viewBox="0 0 32 32" fill="none">
  <path d="M25.5599 8.85336C24.9865 5.96003 22.8399 4.69336 19.8532 4.69336H8.14654C4.62654 4.69336 2.27988 6.45336 2.27988 10.56V17.4267C2.27988 20.3867 3.49321 22.12 5.49321 22.8667C5.80006 22.9808 6.11703 23.0657 6.43988 23.12C7.00066 23.2404 7.57301 23.2985 8.14654 23.2934H19.8665C23.3865 23.2934 25.7332 21.5334 25.7332 17.4267V10.56C25.7405 9.9864 25.6823 9.41381 25.5599 8.85336ZM7.37321 16C7.37321 16.2652 7.26785 16.5196 7.08032 16.7071C6.89278 16.8947 6.63843 17 6.37321 17C6.10799 17 5.85364 16.8947 5.6661 16.7071C5.47857 16.5196 5.37321 16.2652 5.37321 16V12C5.37321 11.7348 5.47857 11.4805 5.6661 11.2929C5.85364 11.1054 6.10799 11 6.37321 11C6.63843 11 6.89278 11.1054 7.08032 11.2929C7.26785 11.4805 7.37321 11.7348 7.37321 12V16ZM13.9999 17.52C13.3037 17.52 12.6231 17.3136 12.0443 16.9268C11.4654 16.54 11.0142 15.9903 10.7478 15.3471C10.4814 14.7039 10.4117 13.9961 10.5475 13.3133C10.6833 12.6305 11.0186 12.0033 11.5109 11.511C12.0031 11.0187 12.6303 10.6835 13.3132 10.5477C13.996 10.4118 14.7037 10.4815 15.3469 10.748C15.9901 11.0144 16.5399 11.4656 16.9267 12.0444C17.3134 12.6233 17.5199 13.3038 17.5199 14C17.5204 14.4624 17.4297 14.9204 17.253 15.3477C17.0763 15.775 16.817 16.1632 16.4901 16.4902C16.1631 16.8172 15.7748 17.0764 15.3475 17.2532C14.9202 17.4299 14.4623 17.5206 13.9999 17.52ZM22.6132 16C22.6132 16.2652 22.5079 16.5196 22.3203 16.7071C22.1328 16.8947 21.8784 17 21.6132 17C21.348 17 21.0936 16.8947 20.9061 16.7071C20.7186 16.5196 20.6132 16.2652 20.6132 16V12C20.6132 11.7348 20.7186 11.4805 20.9061 11.2929C21.0936 11.1054 21.348 11 21.6132 11C21.8784 11 22.1328 11.1054 22.3203 11.2929C22.5079 11.4805 22.6132 11.7348 22.6132 12V16Z" fill="white"/>
  <path d="M29.7332 14.5595V21.4262C29.7332 25.5328 27.3866 27.3062 23.8532 27.3062H12.1466C11.2384 27.3221 10.3349 27.173 9.47991 26.8662C8.87827 26.6554 8.32833 26.3191 7.86658 25.8795C7.8157 25.8293 7.78173 25.7644 7.7694 25.694C7.75708 25.6236 7.767 25.5511 7.7978 25.4865C7.8286 25.422 7.87874 25.3687 7.94124 25.334C8.00375 25.2992 8.07553 25.2849 8.14658 25.2928H19.8532C24.7866 25.2928 27.7199 22.3595 27.7199 17.4395V10.5595C27.7135 10.489 27.7289 10.4183 27.7639 10.3568C27.799 10.2952 27.852 10.2459 27.9159 10.2154C27.9797 10.185 28.0514 10.1748 28.1213 10.1862C28.1911 10.1977 28.2558 10.2302 28.3066 10.2795C29.3217 11.4658 29.8336 13.0014 29.7332 14.5595Z" fill="white"/>
</svg>