<svg xmlns="http://www.w3.org/2000/svg" width="48" height="48" viewBox="0 0 48 48" fill="none">
  <path d="M38.3399 13.28C37.4799 8.94004 34.2599 7.04004 29.7799 7.04004H12.2199C6.93992 7.04004 3.41992 9.68004 3.41992 15.84V26.14C3.41992 30.58 5.23992 33.18 8.23992 34.3C8.70019 34.4713 9.17565 34.5985 9.65992 34.68C10.5011 34.8606 11.3596 34.9478 12.2199 34.94H29.7999C35.0799 34.94 38.5999 32.3 38.5999 26.14V15.84C38.6108 14.9796 38.5236 14.1207 38.3399 13.28ZM11.0599 24C11.0599 24.3979 10.9019 24.7794 10.6206 25.0607C10.3393 25.342 9.95775 25.5 9.55992 25.5C9.1621 25.5 8.78057 25.342 8.49926 25.0607C8.21796 24.7794 8.05992 24.3979 8.05992 24V18C8.05992 17.6022 8.21796 17.2207 8.49926 16.9394C8.78057 16.6581 9.1621 16.5 9.55992 16.5C9.95775 16.5 10.3393 16.6581 10.6206 16.9394C10.9019 17.2207 11.0599 17.6022 11.0599 18V24ZM20.9999 26.28C19.9556 26.28 18.9348 25.9704 18.0665 25.3902C17.1982 24.81 16.5215 23.9854 16.1218 23.0206C15.7222 22.0558 15.6176 20.9942 15.8214 19.97C16.0251 18.9457 16.528 18.0049 17.2664 17.2665C18.0048 16.5281 18.9456 16.0252 19.9698 15.8215C20.9941 15.6178 22.0557 15.7223 23.0205 16.122C23.9853 16.5216 24.8099 17.1983 25.3901 18.0666C25.9703 18.9349 26.2799 19.9558 26.2799 21C26.2807 21.6936 26.1447 22.3806 25.8796 23.0215C25.6145 23.6625 25.2257 24.2449 24.7352 24.7353C24.2448 25.2258 23.6624 25.6147 23.0214 25.8797C22.3805 26.1448 21.6935 26.2808 20.9999 26.28ZM33.9199 24C33.9199 24.3979 33.7619 24.7794 33.4806 25.0607C33.1993 25.342 32.8177 25.5 32.4199 25.5C32.0221 25.5 31.6406 25.342 31.3593 25.0607C31.078 24.7794 30.9199 24.3979 30.9199 24V18C30.9199 17.6022 31.078 17.2207 31.3593 16.9394C31.6406 16.6581 32.0221 16.5 32.4199 16.5C32.8177 16.5 33.1993 16.6581 33.4806 16.9394C33.7619 17.2207 33.9199 17.6022 33.9199 18V24Z" fill="white"/>
  <path d="M44.6 21.8402V32.1402C44.6 38.3002 41.08 40.9602 35.78 40.9602H18.22C16.8577 40.9841 15.5024 40.7605 14.22 40.3002C13.3175 39.9841 12.4926 39.4796 11.8 38.8202C11.7237 38.7449 11.6727 38.6476 11.6542 38.542C11.6357 38.4363 11.6506 38.3276 11.6968 38.2308C11.743 38.134 11.8182 38.054 11.912 38.0019C12.0057 37.9499 12.1134 37.9283 12.22 37.9402H29.78C37.18 37.9402 41.58 33.5402 41.58 26.1602V15.8402C41.5704 15.7345 41.5935 15.6284 41.646 15.5361C41.6985 15.4438 41.7781 15.3699 41.8739 15.3241C41.9697 15.2784 42.0772 15.2631 42.182 15.2803C42.2868 15.2975 42.3838 15.3463 42.46 15.4202C43.9827 17.1996 44.7505 19.5031 44.6 21.8402Z" fill="white"/>
</svg>