<svg xmlns="http://www.w3.org/2000/svg" width="48" height="48" viewBox="0 0 48 48" fill="none">
  <path d="M38.3419 13.28C37.4819 8.93998 34.2619 7.03998 29.7819 7.03998H12.2219C6.94187 7.03998 3.42188 9.67998 3.42188 15.84V26.14C3.42188 30.58 5.24188 33.18 8.24188 34.3C8.70215 34.4712 9.1776 34.5984 9.66187 34.68C10.503 34.8605 11.3616 34.9477 12.2219 34.94H29.8019C35.0819 34.94 38.6019 32.3 38.6019 26.14V15.84C38.6128 14.9795 38.5255 14.1207 38.3419 13.28ZM11.0619 24C11.0619 24.3978 10.9038 24.7793 10.6225 25.0606C10.3412 25.3419 9.9597 25.5 9.56187 25.5C9.16405 25.5 8.78252 25.3419 8.50121 25.0606C8.21991 24.7793 8.06187 24.3978 8.06187 24V18C8.06187 17.6022 8.21991 17.2206 8.50121 16.9393C8.78252 16.658 9.16405 16.5 9.56187 16.5C9.9597 16.5 10.3412 16.658 10.6225 16.9393C10.9038 17.2206 11.0619 17.6022 11.0619 18V24ZM21.0019 26.28C19.9576 26.28 18.9368 25.9703 18.0685 25.3901C17.2002 24.81 16.5234 23.9853 16.1238 23.0205C15.7242 22.0558 15.6196 20.9941 15.8233 19.9699C16.0271 18.9457 16.5299 18.0049 17.2684 17.2665C18.0068 16.528 18.9476 16.0252 19.9718 15.8214C20.996 15.6177 22.0576 15.7223 23.0224 16.1219C23.9872 16.5215 24.8119 17.1983 25.392 18.0666C25.9722 18.9349 26.2819 19.9557 26.2819 21C26.2827 21.6936 26.1466 22.3805 25.8816 23.0215C25.6165 23.6624 25.2276 24.2448 24.7372 24.7353C24.2467 25.2257 23.6643 25.6146 23.0234 25.8797C22.3824 26.1447 21.6955 26.2808 21.0019 26.28ZM33.9219 24C33.9219 24.3978 33.7638 24.7793 33.4825 25.0606C33.2012 25.3419 32.8197 25.5 32.4219 25.5C32.024 25.5 31.6425 25.3419 31.3612 25.0606C31.0799 24.7793 30.9219 24.3978 30.9219 24V18C30.9219 17.6022 31.0799 17.2206 31.3612 16.9393C31.6425 16.658 32.024 16.5 32.4219 16.5C32.8197 16.5 33.2012 16.658 33.4825 16.9393C33.7638 17.2206 33.9219 17.6022 33.9219 18V24Z" fill="#5A5A5A"/>
  <path d="M44.6019 21.84V32.14C44.6019 38.3 41.0819 40.96 35.7819 40.96H18.2219C16.8596 40.9839 15.5043 40.7602 14.2219 40.3C13.3195 39.9838 12.4945 39.4793 11.8019 38.82C11.7256 38.7446 11.6747 38.6474 11.6562 38.5417C11.6377 38.4361 11.6526 38.3273 11.6988 38.2305C11.745 38.1337 11.8202 38.0537 11.9139 38.0017C12.0077 37.9496 12.1153 37.928 12.2219 37.94H29.7819C37.1819 37.94 41.5819 33.54 41.5819 26.16V15.84C41.5724 15.7343 41.5954 15.6281 41.648 15.5359C41.7005 15.4436 41.78 15.3696 41.8758 15.3239C41.9717 15.2782 42.0792 15.2629 42.184 15.28C42.2887 15.2972 42.3857 15.3461 42.4619 15.42C43.9846 17.1994 44.7524 19.5029 44.6019 21.84Z" fill="#5A5A5A"/>
</svg>