<svg xmlns="http://www.w3.org/2000/svg" width="36" height="44" viewBox="0 0 36 44" fill="none">
  <path d="M36 38.5C36 41.5378 33.5826 44 30.6 44H9C4.0302 44 0 39.8952 0 34.8333V33H30.6C33.5826 33 36 35.4622 36 38.5ZM36 9.11717V31.2125C34.7418 30.2463 33.255 29.6358 31.689 29.4452C31.3308 29.37 30.9654 29.3333 30.6 29.3333H0V9.16667C0 4.10483 4.0302 0 9 0H27.0594C31.9986 0 36.0018 4.0865 36 9.11717ZM18.6948 22.495C16.2792 20.9715 14.4 18.3352 14.4 14.6685C14.4 11.0018 16.2792 8.3655 18.6948 6.842C19.2474 6.49367 19.0242 5.62283 18.3762 5.55133C17.8488 5.49267 17.307 5.48533 16.7508 5.5385C12.2742 5.973 8.7498 10.0962 9 14.6685C8.7498 19.2408 12.276 23.364 16.7508 23.7985C17.307 23.8517 17.8488 23.8462 18.3762 23.7857C19.0224 23.7123 19.2474 22.8433 18.6948 22.495ZM27.0468 13.288C27.0468 13.0368 26.847 12.8333 26.6004 12.8333H23.7276L22.9194 9.68367C22.8636 9.46733 22.6728 9.317 22.4532 9.317C22.2336 9.317 22.0428 9.46733 21.987 9.68367L21.177 12.8333H18.2844C18.0378 12.8333 17.838 13.0368 17.838 13.288C17.838 13.453 17.9262 13.6052 18.0666 13.684L20.3868 14.9985L19.4886 17.8585C19.4274 18.0528 19.494 18.2637 19.6542 18.3865C19.8234 18.5167 20.0574 18.5148 20.2248 18.3828L22.4532 16.6283L24.6798 18.381C24.8436 18.5093 25.0722 18.5167 25.2414 18.3957C25.4124 18.2728 25.4862 18.051 25.4196 17.8475L24.5124 15.0407L26.8218 13.6803C26.9604 13.5997 27.0468 13.4493 27.0468 13.288Z" fill="#5A5A5A"/>
</svg>