<svg xmlns="http://www.w3.org/2000/svg" width="24" height="24" viewBox="0 0 24 24" fill="none">
  <path d="M12 22.75C9.81261 22.7479 7.71542 21.878 6.16871 20.3313C4.62199 18.7846 3.75212 16.6874 3.75 14.5V9.5C3.75 7.31196 4.61919 5.21354 6.16637 3.66637C7.71354 2.11919 9.81196 1.25 12 1.25C14.188 1.25 16.2865 2.11919 17.8336 3.66637C19.3808 5.21354 20.25 7.31196 20.25 9.5V14.5C20.2479 16.6874 19.378 18.7846 17.8313 20.3313C16.2846 21.878 14.1874 22.7479 12 22.75ZM12 2.75C10.2106 2.75265 8.49525 3.46465 7.22995 4.72995C5.96465 5.99525 5.25265 7.7106 5.25 9.5V14.5C5.25 16.2902 5.96116 18.0071 7.22703 19.273C8.4929 20.5388 10.2098 21.25 12 21.25C13.7902 21.25 15.5071 20.5388 16.773 19.273C18.0388 18.0071 18.75 16.2902 18.75 14.5V9.5C18.7474 7.7106 18.0353 5.99525 16.77 4.72995C15.5048 3.46465 13.7894 2.75265 12 2.75Z" fill="#5A5A5A"/>
  <path d="M12 11.75C11.4035 11.7492 10.8317 11.5119 10.4099 11.0901C9.9881 10.6683 9.75079 10.0965 9.75 9.5V7.5C9.75 6.90326 9.98705 6.33097 10.409 5.90901C10.831 5.48705 11.4033 5.25 12 5.25C12.5967 5.25 13.169 5.48705 13.591 5.90901C14.0129 6.33097 14.25 6.90326 14.25 7.5V9.5C14.2492 10.0965 14.0119 10.6683 13.5901 11.0901C13.1683 11.5119 12.5965 11.7492 12 11.75ZM12 6.75C11.8015 6.75131 11.6115 6.83075 11.4711 6.97112C11.3307 7.11149 11.2513 7.30149 11.25 7.5V9.5C11.25 9.69891 11.329 9.88968 11.4697 10.0303C11.6103 10.171 11.8011 10.25 12 10.25C12.1989 10.25 12.3897 10.171 12.5303 10.0303C12.671 9.88968 12.75 9.69891 12.75 9.5V7.5C12.7487 7.30149 12.6693 7.11149 12.5289 6.97112C12.3885 6.83075 12.1985 6.75131 12 6.75Z" fill="#5A5A5A"/>
  <path d="M12 6.75C11.8015 6.74869 11.6115 6.66925 11.4711 6.52888C11.3307 6.38851 11.2513 6.19851 11.25 6V2C11.2513 1.80149 11.3307 1.61149 11.4711 1.47112C11.6115 1.33075 11.8015 1.25131 12 1.25C12.1985 1.25131 12.3885 1.33075 12.5289 1.47112C12.6693 1.61149 12.7487 1.80149 12.75 2V6C12.7487 6.19851 12.6693 6.38851 12.5289 6.52888C12.3885 6.66925 12.1985 6.74869 12 6.75Z" fill="#5A5A5A"/>
</svg>