<svg xmlns="http://www.w3.org/2000/svg" width="24" height="24" viewBox="0 0 24 24" fill="none">
  <path d="M11.9199 22.75C9.79378 22.75 7.71537 22.1195 5.94755 20.9383C4.17972 19.7571 2.80186 18.0782 1.98822 16.1139C1.17458 14.1495 0.961694 11.9881 1.37648 9.90278C1.79128 7.81749 2.81511 5.90202 4.31853 4.39861C5.82194 2.89519 7.73741 1.87135 9.82271 1.45656C11.908 1.04177 14.0695 1.25466 16.0338 2.0683C17.9981 2.88194 19.677 4.2598 20.8582 6.02762C22.0395 7.79545 22.6699 9.87386 22.6699 12C22.666 14.8499 21.5321 17.5819 19.5169 19.597C17.5018 21.6122 14.7698 22.746 11.9199 22.75ZM11.9199 2.75C10.0904 2.75 8.30206 3.29251 6.7809 4.30891C5.25975 5.32531 4.07415 6.76997 3.37404 8.46018C2.67393 10.1504 2.49075 12.0103 2.84766 13.8046C3.20458 15.5989 4.08555 17.2471 5.37919 18.5407C6.67282 19.8344 8.32102 20.7154 10.1153 21.0723C11.9097 21.4292 13.7695 21.246 15.4597 20.5459C17.15 19.8458 18.5946 18.6602 19.611 17.139C20.6274 15.6179 21.1699 13.8295 21.1699 12C21.167 9.54765 20.1915 7.19656 18.4575 5.46248C16.7234 3.7284 14.3723 2.75292 11.9199 2.75Z" fill="#5A5A5A"/>
  <path d="M15.9199 12.75H7.91992C7.72141 12.7487 7.53141 12.6693 7.39104 12.5289C7.25067 12.3885 7.17123 12.1985 7.16992 12C7.17123 11.8015 7.25067 11.6115 7.39104 11.4711C7.53141 11.3307 7.72141 11.2513 7.91992 11.25H15.9199C16.1188 11.25 16.3096 11.329 16.4503 11.4697C16.5909 11.6103 16.6699 11.8011 16.6699 12C16.6699 12.1989 16.5909 12.3897 16.4503 12.5303C16.3096 12.671 16.1188 12.75 15.9199 12.75Z" fill="#5A5A5A"/>
</svg>