<svg width="48" height="48" viewBox="0 0 48 48" fill="none" xmlns="http://www.w3.org/2000/svg">
<g id="vuesax/bold/note-2">
<path id="Vector" d="M27.1007 40.3198C26.5807 40.5398 26.0207 40.7398 25.4207 40.9398L22.2607 41.9798C14.3207 44.5398 10.1407 42.3998 7.56068 34.4598L5.00068 26.5598C2.44068 18.6198 4.56068 14.4198 12.5007 11.8598L15.5727 10.8398C15.164 11.9156 14.8299 13.0182 14.5727 14.1398L12.6127 22.5198C10.4127 31.9398 13.6327 37.1398 23.0527 39.3798L27.1007 40.3198Z" fill="white"/>
<path id="Vector_2" d="M34.3384 6.42002L31.0004 5.64002C24.3204 4.06002 20.3404 5.36002 18.0004 10.2C17.3455 11.6073 16.8492 13.083 16.5204 14.6L14.5604 22.98C12.6004 31.34 15.1804 35.46 23.5204 37.44L26.8804 38.24C27.9446 38.5042 29.0279 38.6848 30.1204 38.78C36.3604 39.38 39.6804 36.46 41.3604 29.24L43.3204 20.88C45.2804 12.52 42.7204 8.38002 34.3384 6.42002ZM30.5784 26.66C30.4946 26.9827 30.3054 27.2681 30.0409 27.471C29.7764 27.6739 29.4517 27.7827 29.1184 27.78C28.9909 27.7756 28.8639 27.7622 28.7384 27.74L22.9184 26.26C22.7279 26.2114 22.549 26.1258 22.3916 26.008C22.2343 25.8903 22.1017 25.7427 22.0014 25.5737C21.9011 25.4047 21.8351 25.2176 21.8071 25.0231C21.7792 24.8286 21.7898 24.6304 21.8384 24.44C21.8869 24.2496 21.9726 24.0706 22.0903 23.9133C22.2081 23.756 22.3557 23.6234 22.5247 23.5231C22.6937 23.4228 22.8808 23.3568 23.0753 23.3288C23.2698 23.3008 23.4679 23.3114 23.6584 23.36L29.4784 24.84C29.6708 24.8861 29.8522 24.97 30.012 25.0867C30.1718 25.2034 30.3068 25.3507 30.4093 25.52C30.5118 25.6892 30.5797 25.8772 30.6091 26.0728C30.6384 26.2685 30.6287 26.4681 30.5804 26.66H30.5784ZM36.4384 19.9C36.3546 20.2227 36.1654 20.5081 35.9009 20.711C35.6364 20.9139 35.3117 21.0227 34.9784 21.02C34.8509 21.0156 34.7239 21.0022 34.5984 20.98L24.8984 18.52C24.5138 18.4219 24.184 18.175 23.9814 17.8337C23.7789 17.4924 23.7202 17.0846 23.8184 16.7C23.9165 16.3155 24.1634 15.9856 24.5047 15.7831C24.846 15.5805 25.2538 15.5219 25.6384 15.62L35.3384 18.08C35.532 18.1239 35.7149 18.2064 35.876 18.3225C36.0371 18.4387 36.1731 18.5861 36.276 18.7559C36.3788 18.9258 36.4464 19.1147 36.4746 19.3112C36.5029 19.5078 36.4912 19.7081 36.4404 19.9H36.4384Z" fill="white"/>
</g>
</svg>
