<svg xmlns="http://www.w3.org/2000/svg" width="30" height="30" viewBox="0 0 30 30" fill="none">
  <path d="M19.7631 25.225C19.4208 25.2262 19.0786 25.2095 18.7381 25.175C18.0128 25.1121 17.2938 24.9909 16.5881 24.8125L14.4881 24.3125C8.72558 22.95 6.83808 19.9 8.18808 14.15L9.41308 8.91252C9.62958 7.89337 9.96522 6.90324 10.4131 5.96252C12.5631 1.52502 16.6756 1.92502 19.6006 2.61252L21.6881 3.10002C24.6131 3.78752 26.4631 4.87502 27.5006 6.53752C28.5381 8.20002 28.6881 10.3375 28.0006 13.2625L26.7756 18.4875C25.7006 23.0638 23.4631 25.225 19.7631 25.225ZM16.3968 4.06377C15.4854 4.0034 14.5783 4.2334 13.8057 4.72074C13.0332 5.20808 12.4349 5.9277 12.0968 6.77627C11.719 7.59733 11.4299 8.45636 11.2343 9.33877L10.0093 14.5763C8.89683 19.3013 10.1843 21.3638 14.9093 22.4888L17.0093 22.9888C17.6299 23.1396 18.2608 23.2441 18.8968 23.3013C22.2968 23.6388 23.9843 22.1513 24.9343 18.0638L26.1593 12.8388C26.7218 10.4263 26.6468 8.73877 25.8968 7.52627C25.1468 6.31377 23.6718 5.48877 21.2468 4.92627L19.1631 4.43877C18.2588 4.20643 17.3304 4.08058 16.3968 4.06377Z" fill="#313131"/>
  <path d="M10.4123 27.8175C7.19982 27.8175 5.14982 25.8925 3.83732 21.83L2.23732 16.8875C0.46232 11.3875 2.04982 8.2875 7.52482 6.5125L9.49982 5.875C10.0157 5.7048 10.5417 5.56703 11.0748 5.4625C11.2463 5.42481 11.4251 5.43783 11.5894 5.49997C11.7536 5.56212 11.8962 5.67071 11.9998 5.8125C12.1039 5.95284 12.1681 6.11868 12.1857 6.29249C12.2033 6.46631 12.1736 6.64165 12.0998 6.8C11.719 7.61436 11.4338 8.47005 11.2498 9.35L10.0248 14.5875C8.91232 19.3125 10.1998 21.375 14.9248 22.5L17.0248 23C17.6454 23.1508 18.2763 23.2553 18.9123 23.3125C19.1064 23.3305 19.2905 23.4071 19.4401 23.5321C19.5896 23.6571 19.6977 23.8247 19.7498 24.0125C19.7989 24.1994 19.7893 24.3968 19.7222 24.578C19.6551 24.7591 19.5338 24.9152 19.3748 25.025C18.3911 25.6604 17.3221 26.1528 16.1998 26.4875L14.2248 27.1375C12.9956 27.5553 11.7102 27.7846 10.4123 27.8175ZM9.72482 7.78L8.11232 8.305C3.64982 9.7425 2.58732 11.8425 4.02482 16.3175L5.62482 21.255C7.07482 25.7175 9.17482 26.7925 13.6373 25.355L15.6123 24.705C15.6873 24.68 15.7498 24.655 15.8248 24.63L14.4998 24.3175C8.73732 22.955 6.84982 19.905 8.19982 14.155L9.42482 8.9175C9.51232 8.5125 9.61232 8.125 9.72482 7.775V7.78Z" fill="#313131"/>
  <path d="M21.8587 13.1378C21.779 13.135 21.6997 13.1267 21.6212 13.1128L15.5624 11.5753C15.4434 11.5449 15.3316 11.4914 15.2332 11.4178C15.1349 11.3442 15.052 11.252 14.9894 11.1464C14.8628 10.933 14.8261 10.6782 14.8874 10.4378C14.9488 10.1975 15.1031 9.99131 15.3164 9.86472C15.5297 9.73814 15.7846 9.70148 16.0249 9.76281L22.0874 11.3003C22.3084 11.3552 22.5017 11.4891 22.6308 11.6767C22.7599 11.8643 22.8159 12.0926 22.7882 12.3186C22.7606 12.5447 22.6511 12.7528 22.4806 12.9037C22.31 13.0546 22.0902 13.1379 21.8624 13.1378H21.8587Z" fill="#313131"/>
  <path d="M18.2011 17.3628C18.1215 17.3601 18.0421 17.3517 17.9636 17.3378L14.3261 16.4128C14.2071 16.3825 14.0952 16.329 13.9969 16.2554C13.8986 16.1818 13.8157 16.0895 13.753 15.9839C13.6264 15.7706 13.5898 15.5157 13.6511 15.2753C13.7124 15.035 13.8667 14.8288 14.0801 14.7022C14.2934 14.5757 14.5483 14.539 14.7886 14.6003L18.4261 15.5253C18.6663 15.5869 18.8723 15.7412 18.9989 15.9545C19.1254 16.1677 19.1622 16.4225 19.1011 16.6628C19.0533 16.8646 18.938 17.044 18.7743 17.1713C18.6107 17.2986 18.4084 17.3661 18.2011 17.3628Z" fill="#313131"/>
</svg>