<svg xmlns="http://www.w3.org/2000/svg" width="24" height="24" viewBox="0 0 24 24" fill="none">
  <path d="M12.0191 20.53C9.68425 20.5324 7.36435 20.1576 5.14909 19.42C4.75069 19.2947 4.38561 19.0813 4.08093 18.7957C3.77625 18.51 3.53979 18.1595 3.38909 17.77C3.24796 17.3792 3.19889 16.9612 3.24572 16.5484C3.29255 16.1356 3.43401 15.7392 3.65909 15.39L4.80909 13.48C5.08112 12.963 5.23805 12.3933 5.26909 11.81V8.91998C5.26909 7.12977 5.98025 5.41288 7.24612 4.14701C8.51199 2.88114 10.2289 2.16998 12.0191 2.16998C13.8093 2.16998 15.5262 2.88114 16.7921 4.14701C18.0579 5.41288 18.7691 7.12977 18.7691 8.91998V11.81C18.8018 12.3959 18.9575 12.9683 19.2261 13.49L20.3661 15.39C20.5783 15.745 20.7081 16.1431 20.7462 16.555C20.7843 16.9669 20.7296 17.382 20.5861 17.77C20.4445 18.1565 20.217 18.5058 19.9208 18.7916C19.6246 19.0774 19.2674 19.2923 18.8761 19.42C16.6654 20.158 14.3497 20.5329 12.0191 20.53ZM12.0191 3.66998C10.6272 3.67157 9.29275 4.2252 8.30853 5.20943C7.32431 6.19365 6.77068 7.52808 6.76909 8.91998V11.81C6.73344 12.6636 6.50434 13.4979 6.09909 14.25L4.94909 16.16C4.84211 16.318 4.77293 16.4985 4.74692 16.6875C4.7209 16.8765 4.73876 17.069 4.79909 17.25C4.87193 17.4284 4.98457 17.5878 5.12842 17.7161C5.27227 17.8443 5.44351 17.938 5.62909 17.99C9.7775 19.3899 14.2707 19.3899 18.4191 17.99C18.5961 17.932 18.7576 17.8343 18.8911 17.7043C19.0245 17.5743 19.1265 17.4155 19.1891 17.24C19.2549 17.0641 19.2801 16.8756 19.2628 16.6885C19.2455 16.5015 19.1861 16.3208 19.0891 16.16L17.9391 14.25C17.5317 13.4951 17.3025 12.6571 17.2691 11.8V8.91998C17.2692 8.23051 17.1335 7.54776 16.8697 6.91074C16.6059 6.27372 16.2192 5.69491 15.7317 5.20738C15.2442 4.71985 14.6653 4.33314 14.0283 4.06935C13.3913 3.80556 12.7086 3.66985 12.0191 3.66998Z" fill="#5A5A5A"/>
  <path d="M13.8802 3.94C13.8092 3.93986 13.7385 3.92976 13.6702 3.91C13.3942 3.83298 13.1136 3.77286 12.8302 3.73C12.0133 3.61726 11.1818 3.6786 10.3902 3.91C10.2557 3.95174 10.1121 3.95443 9.97613 3.91777C9.84014 3.88111 9.71734 3.8066 9.62203 3.70291C9.52671 3.59921 9.46279 3.47059 9.43769 3.332C9.41259 3.19341 9.42735 3.05054 9.48024 2.92C9.67904 2.40684 10.0286 1.96592 10.4829 1.65532C10.9372 1.34472 11.4749 1.179 12.0252 1.18C12.5769 1.17603 13.1166 1.34049 13.5722 1.65141C14.0279 1.96234 14.3778 2.40491 14.5752 2.92C14.6256 3.05037 14.6391 3.19206 14.6144 3.3296C14.5898 3.46715 14.5278 3.59528 14.4352 3.7C14.3636 3.77525 14.2775 3.83528 14.1822 3.87652C14.0868 3.91776 13.9841 3.93935 13.8802 3.94Z" fill="#5A5A5A"/>
  <path d="M12.0195 22.81C11.0256 22.8076 10.073 22.4122 9.36953 21.71C8.66737 21.0065 8.27194 20.0539 8.26953 19.06H9.76953C9.77169 19.6562 10.0088 20.2275 10.4295 20.65C10.852 21.0707 11.4233 21.3078 12.0195 21.31C12.616 21.3092 13.1879 21.0719 13.6096 20.6501C14.0314 20.2283 14.2687 19.6565 14.2695 19.06H15.7695C15.7693 20.0545 15.3741 21.0082 14.6709 21.7114C13.9677 22.4146 13.014 22.8097 12.0195 22.81Z" fill="#5A5A5A"/>
</svg>