<svg xmlns="http://www.w3.org/2000/svg" width="24" height="24" viewBox="0 0 24 24" fill="none">
  <path d="M12 10.5199C11.8015 10.5186 11.6115 10.4392 11.4711 10.2988C11.3307 10.1585 11.2513 9.96845 11.25 9.76994V6.43994C11.2513 6.24143 11.3307 6.05143 11.4711 5.91106C11.6115 5.77069 11.8015 5.69125 12 5.68994C12.1985 5.69125 12.3885 5.77069 12.5289 5.91106C12.6693 6.05143 12.7487 6.24143 12.75 6.43994V9.76994C12.7501 9.86847 12.7308 9.96606 12.6932 10.0571C12.6555 10.1482 12.6003 10.2309 12.5306 10.3006C12.461 10.3702 12.3782 10.4255 12.2872 10.4631C12.1961 10.5008 12.0985 10.5201 12 10.5199Z" fill="#5A5A5A"/>
  <path d="M12.02 20.35C9.43694 20.3525 6.87046 19.9371 4.42002 19.12C3.98996 18.9881 3.59547 18.7603 3.26633 18.4536C2.9372 18.147 2.68201 17.7696 2.52002 17.35C2.37262 16.9256 2.32216 16.4736 2.37234 16.0271C2.42252 15.5806 2.57208 15.1511 2.81002 14.77L4.08002 12.65C4.39478 12.0635 4.57578 11.4147 4.61002 10.75V8.64999C4.61002 6.68474 5.39072 4.79997 6.78036 3.41033C8.17001 2.02068 10.0548 1.23999 12.02 1.23999C13.9853 1.23999 15.87 2.02068 17.2597 3.41033C18.6493 4.79997 19.43 6.68474 19.43 8.64999V10.75C19.4656 11.4145 19.6465 12.063 19.96 12.65L21.23 14.77C21.4592 15.1518 21.5998 15.5801 21.6412 16.0235C21.6826 16.4669 21.6238 16.9139 21.4693 17.3315C21.3147 17.7491 21.0683 18.1266 20.7482 18.4362C20.4281 18.7458 20.0426 18.9795 19.62 19.12C17.1708 19.9419 14.6035 20.3574 12.02 20.35ZM12.02 2.74999C10.453 2.75131 8.95054 3.3744 7.84248 4.48245C6.73443 5.5905 6.11135 7.09297 6.11002 8.65999V10.76C6.07727 11.6959 5.82371 12.6108 5.37002 13.43L4.10002 15.56C3.97486 15.7477 3.89445 15.9616 3.86498 16.1852C3.83551 16.4089 3.85776 16.6363 3.93002 16.85C4.01566 17.0577 4.14754 17.2431 4.31563 17.3921C4.48372 17.5411 4.68359 17.6498 4.90002 17.71C9.53024 19.24 14.5298 19.24 19.16 17.71C19.3693 17.6435 19.5604 17.5294 19.7183 17.3768C19.8761 17.2241 19.9965 17.0369 20.07 16.83C20.1474 16.623 20.1769 16.4012 20.1561 16.1812C20.1353 15.9612 20.0648 15.7488 19.95 15.56L18.68 13.44C18.2263 12.6208 17.9728 11.7059 17.94 10.77V8.66999C17.9369 7.10088 17.3121 5.59695 16.2026 4.48742C15.0931 3.37789 13.5891 2.75316 12.02 2.74999Z" fill="#5A5A5A"/>
  <path d="M11.9999 22.9001C10.9194 22.8945 9.8847 22.4633 9.11992 21.7001C8.35665 20.9353 7.92551 19.9005 7.91992 18.8201H9.41992C9.42342 19.5032 9.69656 20.1573 10.1799 20.6401C10.6627 21.1234 11.3168 21.3966 11.9999 21.4001C12.6837 21.3985 13.339 21.1262 13.8225 20.6427C14.306 20.1592 14.5783 19.5038 14.5799 18.8201H16.0799C16.0789 19.9018 15.6487 20.939 14.8837 21.7039C14.1188 22.4688 13.0817 22.899 11.9999 22.9001Z" fill="#5A5A5A"/>
</svg>