<svg xmlns="http://www.w3.org/2000/svg" width="24" height="24" viewBox="0 0 24 24" fill="none">
  <path d="M17 21.75H7C2.59 21.75 1.25 20.41 1.25 16V8C1.25 3.59 2.59 2.25 7 2.25H17C21.41 2.25 22.75 3.59 22.75 8V16C22.75 20.41 21.41 21.75 17 21.75ZM7 3.75C3.42 3.75 2.75 4.43 2.75 8V16C2.75 19.57 3.42 20.25 7 20.25H17C20.58 20.25 21.25 19.57 21.25 16V8C21.25 4.43 20.58 3.75 17 3.75H7Z" fill="#5A5A5A"/>
  <path d="M19 8.75H14C13.8015 8.74869 13.6115 8.66925 13.4711 8.52888C13.3307 8.38851 13.2513 8.19851 13.25 8C13.2513 7.80149 13.3307 7.61149 13.4711 7.47112C13.6115 7.33075 13.8015 7.25131 14 7.25H19C19.1985 7.25131 19.3885 7.33075 19.5289 7.47112C19.6693 7.61149 19.7487 7.80149 19.75 8C19.7487 8.19851 19.6693 8.38851 19.5289 8.52888C19.3885 8.66925 19.1985 8.74869 19 8.75Z" fill="#5A5A5A"/>
  <path d="M19 12.75H15C14.8015 12.7487 14.6115 12.6693 14.4711 12.5289C14.3307 12.3885 14.2513 12.1985 14.25 12C14.2513 11.8015 14.3307 11.6115 14.4711 11.4711C14.6115 11.3307 14.8015 11.2513 15 11.25H19C19.1985 11.2513 19.3885 11.3307 19.5289 11.4711C19.6693 11.6115 19.7487 11.8015 19.75 12C19.7487 12.1985 19.6693 12.3885 19.5289 12.5289C19.3885 12.6693 19.1985 12.7487 19 12.75Z" fill="#5A5A5A"/>
  <path d="M19 16.75H17C16.8015 16.7487 16.6115 16.6693 16.4711 16.5289C16.3307 16.3885 16.2513 16.1985 16.25 16C16.2513 15.8015 16.3307 15.6115 16.4711 15.4711C16.6115 15.3307 16.8015 15.2513 17 15.25H19C19.1985 15.2513 19.3885 15.3307 19.5289 15.4711C19.6693 15.6115 19.7487 15.8015 19.75 16C19.7487 16.1985 19.6693 16.3885 19.5289 16.5289C19.3885 16.6693 19.1985 16.7487 19 16.75Z" fill="#5A5A5A"/>
  <path d="M8.5 12.0399C7.99368 12.0399 7.49873 11.8898 7.07774 11.6085C6.65675 11.3272 6.32863 10.9274 6.13487 10.4596C5.94111 9.99181 5.89042 9.47708 5.98919 8.98049C6.08797 8.4839 6.33179 8.02775 6.68981 7.66973C7.04783 7.31171 7.50398 7.06789 8.00057 6.96911C8.49716 6.87033 9.01189 6.92103 9.47967 7.11479C9.94745 7.30855 10.3473 7.63667 10.6286 8.05766C10.9099 8.47865 11.06 8.9736 11.06 9.47992C11.0587 10.1585 10.7885 10.8088 10.3087 11.2887C9.82893 11.7685 9.17855 12.0386 8.5 12.0399ZM8.5 8.41992C8.29036 8.41992 8.08542 8.48209 7.9111 8.59857C7.73678 8.71504 7.60092 8.88059 7.52069 9.07428C7.44046 9.26797 7.41947 9.4811 7.46037 9.68672C7.50127 9.89234 7.60223 10.0812 7.75047 10.2295C7.89871 10.3777 8.08759 10.4787 8.29321 10.5196C8.49883 10.5605 8.71196 10.5395 8.90565 10.4592C9.09934 10.379 9.26489 10.2431 9.38136 10.0688C9.49784 9.89451 9.56 9.68957 9.56 9.47992C9.55817 9.19936 9.4459 8.93081 9.24751 8.73242C9.04912 8.53403 8.78057 8.42176 8.5 8.41992Z" fill="#5A5A5A"/>
  <path d="M12.0002 17.0808C11.8133 17.08 11.6333 17.0101 11.4948 16.8846C11.3563 16.759 11.2692 16.5867 11.2502 16.4008C11.1948 15.8726 10.9584 15.3799 10.5811 15.0062C10.2038 14.6326 9.70883 14.401 9.18018 14.3508C8.72105 14.3108 8.25931 14.3108 7.80018 14.3508C7.27098 14.3995 6.77517 14.6306 6.39757 15.0046C6.01997 15.3785 5.78405 15.8721 5.73018 16.4008C5.72033 16.4989 5.69126 16.5941 5.64462 16.6809C5.59798 16.7678 5.53469 16.8446 5.45836 16.907C5.38203 16.9694 5.29415 17.0162 5.19975 17.0446C5.10535 17.073 5.00628 17.0826 4.90818 17.0728C4.71006 17.0529 4.52796 16.9551 4.40194 16.8009C4.27591 16.6468 4.21629 16.4489 4.23618 16.2508C4.32266 15.3753 4.71208 14.5576 5.33721 13.9387C5.96234 13.3197 6.78394 12.9385 7.66018 12.8608C8.21238 12.8107 8.76798 12.8107 9.32018 12.8608C10.1934 12.9447 11.0106 13.3282 11.6332 13.9461C12.2559 14.564 12.6456 15.3783 12.7362 16.2508C12.7555 16.4482 12.6958 16.6453 12.5703 16.7989C12.4448 16.9526 12.2635 17.0503 12.0662 17.0708C12.0451 17.0784 12.0226 17.0818 12.0002 17.0808Z" fill="#5A5A5A"/>
</svg>