<svg xmlns="http://www.w3.org/2000/svg" width="100" height="100" viewBox="0 0 58 70" fill="none">
  <path d="M17.342 46.9875C17.342 48.3583 16.153 49.4958 14.761 49.4958H12.354V44.4792H14.79C16.182 44.4792 17.371 45.6167 17.371 46.9875H17.342ZM37.7 23.3333H56.666C55.651 20.6792 54.114 18.2292 52.055 16.1583L41.963 5.97917C39.904 3.90833 37.468 2.3625 34.829 1.34167V20.4167C34.829 22.0208 36.134 23.3333 37.729 23.3333H37.7ZM29.261 44.4792H26.825V54.6875H29.261C30.653 54.6875 31.842 53.55 31.842 52.1792V46.9875C31.842 45.6167 30.653 44.4792 29.261 44.4792ZM58 30.5958V55.4167C58 63.4667 51.504 70 43.5 70H14.5C6.496 70 0 63.4667 0 55.4167V14.5833C0 6.53333 6.496 0 14.5 0H27.579C28.043 0 28.507 0.0291667 29 0.0583333V20.4167C29 25.2292 32.915 29.1667 37.7 29.1667H57.942C57.971 29.6333 58 30.1 58 30.5958ZM20.967 46.9875C20.967 43.6042 18.183 40.8333 14.761 40.8333H11.6C10.005 40.8333 8.7 42.1458 8.7 43.75V56.7C8.7 57.7208 9.512 58.5083 10.498 58.5083C11.484 58.5083 12.296 57.6917 12.296 56.7V53.1417H14.732C18.154 53.1417 20.938 50.3708 20.938 46.9875H20.967ZM35.467 46.9875C35.467 43.6042 32.683 40.8333 29.261 40.8333H26.1C24.505 40.8333 23.2 42.1458 23.2 43.75V56.7C23.2 57.7208 24.012 58.3333 24.998 58.3333C25.984 58.3333 29.232 58.3333 29.232 58.3333C32.654 58.3333 35.438 55.5625 35.438 52.1792V46.9875H35.467ZM49.358 42.6708C49.358 41.65 48.546 40.8625 47.56 40.8625H40.861C39.846 40.8625 39.063 41.6792 39.063 42.6708V56.7C39.063 57.7208 39.875 58.5083 40.861 58.5083C41.847 58.5083 42.659 57.6917 42.659 56.7V51.45H46.255C47.27 51.45 48.053 50.6333 48.053 49.6417C48.053 48.65 47.241 47.8333 46.255 47.8333H42.659V44.5083H47.56C48.575 44.5083 49.358 43.6917 49.358 42.7V42.6708Z" fill="#5A5A5A"/>
</svg>