<svg xmlns="http://www.w3.org/2000/svg" width="48" height="48" viewBox="0 0 48 48" fill="none">
  <rect opacity="0.1" width="48" height="48" rx="4" fill="#7BBC67"/>
  <path d="M15.8261 36.3705C15.0206 36.3859 14.24 36.0913 13.6455 35.5476C13.2836 35.1885 13.0108 34.7497 12.8489 34.2663C12.6869 33.7829 12.6404 33.2683 12.713 32.7636L13.2204 28.3202C13.3624 27.3722 13.7769 26.486 14.4135 25.7693L25.673 13.8516C28.4844 10.8756 31.4192 10.7933 34.3952 13.6048C37.3712 16.4162 37.4535 19.3511 34.6421 22.3271L23.3854 34.2448C22.7047 34.9198 21.8422 35.382 20.9031 35.5751L16.4871 36.3293C16.254 36.343 16.0455 36.3705 15.8261 36.3705ZM30.0752 13.5911C29.5037 13.6513 28.9506 13.8285 28.4504 14.1116C27.9502 14.3947 27.5136 14.7777 27.1678 15.2368L15.9084 27.1682C15.5857 27.5664 15.3645 28.0371 15.2638 28.5396L14.7564 32.983C14.7195 33.1704 14.7275 33.3638 14.78 33.5474C14.8325 33.731 14.9278 33.8995 15.0581 34.039C15.2053 34.1599 15.3784 34.2451 15.564 34.288C15.7496 34.3308 15.9426 34.3301 16.1278 34.2859L20.5438 33.5316C21.0398 33.4086 21.4971 33.1634 21.8741 32.8185L33.1335 20.9008C34.8341 19.0905 35.4512 17.4173 32.969 15.0859C32.2353 14.2306 31.1974 13.6944 30.0752 13.5911Z" fill="#7BBC67"/>
  <path d="M32.009 24.6169H31.913C29.8345 24.4133 27.8828 23.5237 26.3657 22.0885C24.8485 20.6533 23.8521 18.754 23.5335 16.69C23.4947 16.4195 23.5634 16.1445 23.725 15.9241C23.8865 15.7036 24.1279 15.5552 24.3975 15.5106C24.6681 15.4718 24.943 15.5405 25.1635 15.702C25.384 15.8635 25.5324 16.105 25.577 16.3746C25.8281 17.9883 26.6082 19.4728 27.7948 20.5949C28.9814 21.7169 30.5072 22.4129 32.1324 22.5735C32.403 22.6015 32.6516 22.7355 32.8238 22.9462C32.9959 23.1569 33.0777 23.4272 33.0513 23.698C33.017 23.9509 32.8928 24.1829 32.7013 24.3517C32.5099 24.5204 32.2641 24.6146 32.009 24.6169Z" fill="#7BBC67"/>
</svg>