<svg width="28" height="28" viewBox="0 0 28 28" fill="none" xmlns="http://www.w3.org/2000/svg">
<circle cx="14" cy="14" r="14" fill="#158B7F"/>
<path d="M8.69216 11.375C8.26632 11.375 7.93558 10.9797 8.01068 10.549C8.25805 9.13166 8.94504 7.81416 9.97792 6.81894C11.3112 5.53331 13.0525 4.89227 14.8881 5.01481C18.3478 5.24431 21.0503 8.34045 20.9993 12.0394C20.9717 14.0355 19.3531 15.6257 17.4107 15.6257H15.3904C15.1424 15.8708 14.8075 16.0231 14.4368 16.0231C13.6754 16.0231 13.0587 15.3891 13.0587 14.6064C13.0587 13.8237 13.6754 13.1897 14.4368 13.1897C15.0624 13.1897 15.5847 13.6211 15.7529 14.209H17.4107C18.6069 14.209 19.6081 13.2294 19.6212 12.0004C19.6529 9.06366 17.523 6.61069 14.7992 6.42936C13.3529 6.33727 11.9734 6.83878 10.9199 7.85382C10.0868 8.65637 9.55002 9.68416 9.36191 10.8133C9.30679 11.1433 9.01739 11.3764 8.69216 11.3764V11.375ZM14.454 17.0416C11.908 17.0416 9.70506 18.6652 8.9726 21.0806C8.90714 21.2959 8.94504 21.5304 9.07527 21.7117C9.2055 21.893 9.41152 22 9.63064 22H19.2774C19.4965 22 19.7025 21.893 19.8327 21.7117C19.963 21.5304 20.0009 21.2959 19.9354 21.0806C19.2029 18.6652 17 17.0416 14.454 17.0416ZM16.4757 12.7916H18.0977C18.1907 12.4538 18.2438 12.0982 18.2438 11.7291C18.2438 9.5772 16.5473 7.83328 14.454 7.83328C12.3607 7.83328 10.6642 9.5772 10.6642 11.7291C10.6642 12.7853 11.0749 13.7415 11.7384 14.4435C11.8218 12.98 12.9918 11.8163 14.4368 11.8163C15.2574 11.8163 15.9809 12.1995 16.4764 12.7916H16.4757Z" fill="white"/>
</svg>
