<svg xmlns="http://www.w3.org/2000/svg" width="21" height="25" viewBox="0 0 21 25" fill="none">
  <path d="M18.8475 5.77083L15.183 2.13542C13.797 0.760417 11.949 0 9.9855 0H5.25C2.352 0 0 2.33333 0 5.20833V19.7917C0 22.6667 2.352 25 5.25 25H15.75C18.648 25 21 22.6667 21 19.7917V10.9271C21 8.97917 20.2335 7.14583 18.8475 5.77083ZM17.367 7.23958C17.703 7.57292 17.9865 7.9375 18.2175 8.33333H13.6605C13.083 8.33333 12.6105 7.86458 12.6105 7.29167V2.77083C13.0095 3 13.377 3.28125 13.713 3.61458L17.3775 7.25L17.367 7.23958ZM18.9 19.7917C18.9 21.5104 17.4825 22.9167 15.75 22.9167H5.25C3.5175 22.9167 2.1 21.5104 2.1 19.7917V5.20833C2.1 3.48958 3.5175 2.08333 5.25 2.08333H9.9855C10.1535 2.08333 10.332 2.08333 10.5 2.10417V7.29167C10.5 9.01042 11.9175 10.4167 13.65 10.4167H18.879C18.9 10.5833 18.9 10.75 18.9 10.9271V19.7917ZM8.4 20.8333C7.8225 20.8333 7.35 20.3646 7.35 19.7917V14.5833C7.35 13.4375 8.295 12.5 9.45 12.5H10.5C12.2325 12.5 13.65 13.9062 13.65 15.625C13.65 17.3438 12.2325 18.75 10.5 18.75H9.45V19.7917C9.45 20.3646 8.9775 20.8333 8.4 20.8333ZM9.45 16.6667H10.5C11.0775 16.6667 11.55 16.1979 11.55 15.625C11.55 15.0521 11.0775 14.5833 10.5 14.5833H9.45V16.6667Z" fill="#5A5A5A"/>
</svg>