<svg xmlns="http://www.w3.org/2000/svg" width="24" height="24" viewBox="0 0 24 24" fill="none">
  <path d="M18.1005 17.75H5.9005C5.40852 17.8015 4.91123 17.7425 4.44496 17.5773C3.97869 17.4121 3.5552 17.1449 3.20541 16.7951C2.85563 16.4453 2.58837 16.0218 2.42316 15.5555C2.25796 15.0893 2.19896 14.592 2.2505 14.1V2C2.25181 1.80149 2.33125 1.61149 2.47162 1.47112C2.61199 1.33075 2.80199 1.25131 3.0005 1.25L21.0005 1.25C21.199 1.25131 21.389 1.33075 21.5294 1.47112C21.6698 1.61149 21.7492 1.80149 21.7505 2V14.1C21.802 14.592 21.743 15.0893 21.5778 15.5555C21.4126 16.0218 21.1454 16.4453 20.7956 16.7951C20.4458 17.1449 20.0223 17.4121 19.556 17.5773C19.0898 17.7425 18.5925 17.8015 18.1005 17.75ZM3.7505 2.75V14.1C3.7505 15.59 4.4105 16.25 5.9005 16.25H18.0905C19.5805 16.25 20.2405 15.59 20.2405 14.1V2.75H3.7505Z" fill="#5A5A5A"/>
  <path d="M22 2.75H2C1.80149 2.74869 1.61149 2.66925 1.47112 2.52888C1.33075 2.38851 1.25131 2.19851 1.25 2C1.25131 1.80149 1.33075 1.61149 1.47112 1.47112C1.61149 1.33075 1.80149 1.25131 2 1.25L22 1.25C22.1985 1.25131 22.3885 1.33075 22.5289 1.47112C22.6693 1.61149 22.7487 1.80149 22.75 2C22.7487 2.19851 22.6693 2.38851 22.5289 2.52888C22.3885 2.66925 22.1985 2.74869 22 2.75Z" fill="#5A5A5A"/>
  <path d="M7.99949 22.75C7.83029 22.7503 7.66597 22.6933 7.53337 22.5882C7.40077 22.4831 7.30772 22.3361 7.26942 22.1713C7.23112 22.0065 7.24982 21.8336 7.32249 21.6808C7.39515 21.528 7.51748 21.4043 7.66949 21.33L11.2475 19.54V17C11.2475 16.8011 11.3265 16.6103 11.4672 16.4697C11.6078 16.329 11.7986 16.25 11.9975 16.25C12.1964 16.25 12.3872 16.329 12.5278 16.4697C12.6685 16.6103 12.7475 16.8011 12.7475 17V20C12.7467 20.1397 12.707 20.2764 12.6328 20.3948C12.5586 20.5131 12.4529 20.6084 12.3275 20.67L8.32749 22.67C8.22549 22.7208 8.11342 22.7481 7.99949 22.75Z" fill="#5A5A5A"/>
  <path d="M15.9993 22.7501C15.8847 22.7485 15.7719 22.7211 15.6693 22.6701L11.6693 20.6701C11.4921 20.5793 11.3573 20.423 11.2938 20.2342C11.2303 20.0455 11.243 19.8395 11.3293 19.6601C11.42 19.4828 11.5764 19.348 11.7651 19.2845C11.9538 19.221 12.1599 19.2337 12.3393 19.3201L16.3393 21.3201C16.4915 21.3963 16.6134 21.5217 16.6853 21.6759C16.7573 21.8301 16.775 22.0041 16.7356 22.1697C16.6963 22.3353 16.6021 22.4827 16.4685 22.588C16.3348 22.6933 16.1695 22.7505 15.9993 22.7501Z" fill="#5A5A5A"/>
  <path d="M7.50054 11.7491C7.39004 11.749 7.28089 11.7248 7.18071 11.6782C7.08053 11.6315 6.99174 11.5636 6.92054 11.4791C6.85702 11.4031 6.80919 11.3153 6.77982 11.2208C6.75044 11.1262 6.74011 11.0268 6.7494 10.9282C6.7587 10.8296 6.78746 10.7339 6.834 10.6465C6.88054 10.5591 6.94394 10.4818 7.02054 10.4191L10.1705 7.79006C10.3088 7.67347 10.4707 7.58809 10.645 7.53977C10.8193 7.49145 11.002 7.48131 11.1805 7.51006C11.359 7.54111 11.5286 7.61093 11.6771 7.71459C11.8257 7.81826 11.9498 7.95325 12.0405 8.11006L13.0905 9.86006L16.0205 7.42006C16.1749 7.29406 16.3727 7.23391 16.5711 7.25262C16.7694 7.27134 16.9525 7.36741 17.0805 7.52006C17.1441 7.59601 17.1919 7.6838 17.2213 7.77835C17.2506 7.87291 17.261 7.97235 17.2517 8.07092C17.2424 8.16949 17.2136 8.26525 17.1671 8.35264C17.1206 8.44003 17.0571 8.51733 16.9805 8.58006L13.8305 11.2101C13.6923 11.3267 13.5304 11.412 13.3561 11.4603C13.1818 11.5087 12.9991 11.5188 12.8205 11.4901C12.642 11.459 12.4725 11.3892 12.3239 11.2855C12.1754 11.1819 12.0513 11.0469 11.9605 10.8901L10.9105 9.14006L7.98054 11.5801C7.8439 11.6884 7.67492 11.7479 7.50054 11.7491Z" fill="#5A5A5A"/>
</svg>