<svg xmlns="http://www.w3.org/2000/svg" width="24" height="24" viewBox="0 0 24 24" fill="none">
  <path d="M7 5C7 4.20435 7.31607 3.44129 7.87868 2.87868C8.44129 2.31607 9.20435 2 10 2H14C14.7956 2 15.5587 2.31607 16.1213 2.87868C16.6839 3.44129 17 4.20435 17 5C17 5.26522 16.8946 5.51957 16.7071 5.70711C16.5196 5.89464 16.2652 6 16 6H8C7.73478 6 7.48043 5.89464 7.29289 5.70711C7.10536 5.51957 7 5.26522 7 5Z" fill="white"/>
  <path d="M17.75 15C17.7487 15.1985 17.6693 15.3885 17.5289 15.5289C17.3885 15.6693 17.1985 15.7487 17 15.75H16V19C16 19.7956 15.6839 20.5587 15.1213 21.1213C14.5587 21.6839 13.7956 22 13 22H11C10.2044 22 9.44129 21.6839 8.87868 21.1213C8.31607 20.5587 8 19.7956 8 19V15.75H7C6.80149 15.7487 6.61149 15.6693 6.47112 15.5289C6.33075 15.3885 6.25131 15.1985 6.25 15C6.25131 14.8015 6.33075 14.6115 6.47112 14.4711C6.61149 14.3307 6.80149 14.2513 7 14.25H17C17.1985 14.2513 17.3885 14.3307 17.5289 14.4711C17.6693 14.6115 17.7487 14.8015 17.75 15Z" fill="white"/>
  <path d="M18.0002 7.00022H6.00022C5.59272 6.94208 5.17727 6.9796 4.78678 7.1098C4.39628 7.24 4.04145 7.45932 3.75039 7.75039C3.45932 8.04145 3.24 8.39628 3.1098 8.78678C2.9796 9.17727 2.94208 9.59272 3.00022 10.0002V15.0002C2.94208 15.4077 2.9796 15.8232 3.1098 16.2137C3.24 16.6042 3.45932 16.959 3.75039 17.2501C4.04145 17.5411 4.39628 17.7604 4.78678 17.8906C5.17727 18.0208 5.59272 18.0584 6.00022 18.0002H7.00022V16.7502C6.53609 16.7502 6.09097 16.5658 5.76278 16.2377C5.4346 15.9095 5.25022 15.4643 5.25022 15.0002C5.25022 14.5361 5.4346 14.091 5.76278 13.7628C6.09097 13.4346 6.53609 13.2502 7.00022 13.2502H17.0002C17.4643 13.2502 17.9095 13.4346 18.2377 13.7628C18.5658 14.091 18.7502 14.5361 18.7502 15.0002C18.7502 15.4643 18.5658 15.9095 18.2377 16.2377C17.9095 16.5658 17.4643 16.7502 17.0002 16.7502V18.0002H18.0002C18.4077 18.0584 18.8232 18.0208 19.2137 17.8906C19.6042 17.7604 19.959 17.5411 20.2501 17.2501C20.5411 16.959 20.7604 16.6042 20.8906 16.2137C21.0208 15.8232 21.0584 15.4077 21.0002 15.0002V10.0002C21.0584 9.59272 21.0208 9.17727 20.8906 8.78678C20.7604 8.39628 20.5411 8.04145 20.2501 7.75039C19.959 7.45932 19.6042 7.24 19.2137 7.1098C18.8232 6.9796 18.4077 6.94208 18.0002 7.00022ZM10.0002 11.7502H7.00022C6.80131 11.7502 6.61054 11.6712 6.46989 11.5306C6.32924 11.3899 6.25022 11.1991 6.25022 11.0002C6.25022 10.8013 6.32924 10.6105 6.46989 10.4699C6.61054 10.3292 6.80131 10.2502 7.00022 10.2502H10.0002C10.1991 10.2502 10.3899 10.3292 10.5306 10.4699C10.6712 10.6105 10.7502 10.8013 10.7502 11.0002C10.7502 11.1991 10.6712 11.3899 10.5306 11.5306C10.3899 11.6712 10.1991 11.7502 10.0002 11.7502Z" fill="white"/>
</svg>