<svg xmlns="http://www.w3.org/2000/svg" width="24" height="24" viewBox="0 0 24 24" fill="none">
  <path d="M9.16039 11.62H9.08039C9.02081 11.61 8.95997 11.61 8.90039 11.62C7.54895 11.5819 6.26681 11.0134 5.33124 10.0374C4.39566 9.06139 3.88185 7.75637 3.9009 6.40452C3.91996 5.05268 4.47035 3.76266 5.43305 2.81342C6.39576 1.86419 7.69341 1.33203 9.04539 1.33203C10.3974 1.33203 11.695 1.86419 12.6577 2.81342C13.6204 3.76266 14.1708 5.05268 14.1899 6.40452C14.2089 7.75637 13.6951 9.06139 12.7595 10.0374C11.824 11.0134 10.5418 11.5819 9.19039 11.62H9.16039ZM9.00039 2.74999C8.03143 2.74465 7.09933 3.12108 6.40582 3.7978C5.71231 4.47453 5.31316 5.39712 5.29476 6.36593C5.27635 7.33473 5.64017 8.27181 6.30749 8.97439C6.9748 9.67697 7.89192 10.0885 8.86039 10.12C8.96681 10.1097 9.07397 10.1097 9.18039 10.12C10.1431 10.0752 11.05 9.65518 11.7068 8.94998C12.3637 8.24477 12.7183 7.31041 12.6948 6.34696C12.6713 5.38351 12.2714 4.46757 11.5809 3.79527C10.8904 3.12297 9.96413 2.74776 9.00039 2.74999Z" fill="#5A5A5A"/>
  <path d="M16.5403 11.75C16.51 11.7516 16.4796 11.7482 16.4503 11.74C16.2477 11.7637 16.0437 11.7084 15.8809 11.5854C15.718 11.4625 15.6089 11.2814 15.5763 11.08C15.5621 10.9844 15.567 10.887 15.5907 10.7933C15.6145 10.6997 15.6566 10.6117 15.7147 10.5344C15.7727 10.4572 15.8456 10.3923 15.9289 10.3435C16.0123 10.2946 16.1046 10.2629 16.2003 10.25C16.3203 10.24 16.4503 10.24 16.5603 10.24C17.2765 10.2013 17.9492 9.88467 18.4353 9.35738C18.9215 8.8301 19.1825 8.13388 19.163 7.41697C19.1434 6.70006 18.8448 6.01911 18.3307 5.51911C17.8165 5.0191 17.1275 4.73956 16.4103 4.74C16.3123 4.74119 16.2151 4.72294 16.1242 4.68629C16.0333 4.64965 15.9506 4.59535 15.8809 4.52653C15.8111 4.4577 15.7557 4.37573 15.7179 4.28535C15.68 4.19498 15.6605 4.09799 15.6603 4C15.6616 3.80149 15.7411 3.61149 15.8814 3.47112C16.0218 3.33075 16.2118 3.25131 16.4103 3.25C17.5368 3.25238 18.6164 3.70091 19.4129 4.49742C20.2094 5.29394 20.6579 6.37356 20.6603 7.5C20.6634 8.60066 20.2384 9.65938 19.4752 10.4525C18.7119 11.2455 17.6703 11.7108 16.5703 11.75H16.5403Z" fill="#5A5A5A"/>
  <path d="M9.16961 22.5499C7.25577 22.5856 5.37278 22.0645 3.74961 21.0499C3.12024 20.6883 2.59288 20.173 2.21687 19.5522C1.84085 18.9313 1.62848 18.2252 1.59961 17.4999C1.6293 16.7722 1.84183 16.0636 2.21759 15.4397C2.59336 14.8158 3.12024 14.2965 3.74961 13.9299C5.38879 12.9532 7.26147 12.4375 9.16961 12.4375C11.0778 12.4375 12.9504 12.9532 14.5896 13.9299C15.2176 14.2932 15.7438 14.8089 16.1196 15.4294C16.4954 16.0499 16.7086 16.7552 16.7396 17.4799C16.7099 18.2077 16.4974 18.9162 16.1216 19.5402C15.7459 20.1641 15.219 20.6833 14.5896 21.0499C12.9659 22.0634 11.0833 22.5844 9.16961 22.5499ZM4.57961 15.1899C4.15868 15.4221 3.80266 15.7561 3.54412 16.1614C3.28558 16.5667 3.13275 17.0303 3.09961 17.5099C3.13536 17.9862 3.28945 18.446 3.5479 18.8476C3.80634 19.2493 4.16097 19.58 4.57961 19.8099C5.97027 20.6299 7.5552 21.0624 9.16961 21.0624C10.784 21.0624 12.3689 20.6299 13.7596 19.8099C14.1805 19.5777 14.5366 19.2437 14.7951 18.8384C15.0536 18.4331 15.2065 17.9695 15.2396 17.4899C15.2039 17.0137 15.0498 16.5539 14.7913 16.1522C14.5329 15.7506 14.1782 15.4198 13.7596 15.1899C12.3673 14.3747 10.783 13.945 9.16961 13.945C7.5562 13.945 5.9719 14.3747 4.57961 15.1899Z" fill="#5A5A5A"/>
  <path d="M18.3403 20.75C18.1677 20.7512 18.0001 20.6918 17.8667 20.5821C17.7333 20.4725 17.6426 20.3196 17.6103 20.15C17.5716 19.9553 17.6106 19.7532 17.719 19.5868C17.8274 19.4205 17.9965 19.3032 18.1903 19.26C18.7917 19.1453 19.3593 18.8957 19.8503 18.53C20.1079 18.3608 20.322 18.1331 20.4749 17.8655C20.6278 17.5978 20.7153 17.2979 20.7303 16.99C20.7162 16.6844 20.63 16.3866 20.4788 16.1207C20.3276 15.8548 20.1157 15.6284 19.8603 15.46C19.3728 15.101 18.8133 14.8519 18.2203 14.73C18.1238 14.7083 18.0325 14.6679 17.9516 14.6109C17.8707 14.5539 17.8018 14.4816 17.7489 14.398C17.642 14.2293 17.6065 14.0249 17.6503 13.83C17.6941 13.6351 17.8135 13.4655 17.9822 13.3586C18.151 13.2517 18.3554 13.2162 18.5503 13.26C19.3549 13.4259 20.1129 13.7673 20.7703 14.26C21.2101 14.5692 21.5713 14.9773 21.8249 15.4514C22.0784 15.9255 22.2173 16.4525 22.2303 16.99C22.2143 17.5294 22.0731 18.0576 21.818 18.5331C21.5629 19.0086 21.2008 19.4184 20.7603 19.73C20.0941 20.233 19.3206 20.5753 18.5003 20.73C18.4485 20.7459 18.3944 20.7526 18.3403 20.75Z" fill="#5A5A5A" />
</svg>