<svg xmlns="http://www.w3.org/2000/svg" width="24" height="24" viewBox="0 0 24 24" fill="none">
  <path d="M12 22.745C11.3155 22.7468 10.6427 22.5674 10.05 22.225L4.10997 18.795C3.51922 18.4509 3.02856 17.9585 2.68655 17.3666C2.34453 16.7746 2.16302 16.1036 2.15997 15.42V8.57998C2.16215 7.89549 2.34325 7.22346 2.68531 6.63056C3.02737 6.03766 3.51849 5.54449 4.10997 5.19998L10.05 1.76998C10.6423 1.42611 11.3151 1.245 12 1.245C12.6849 1.245 13.3576 1.42611 13.95 1.76998L19.89 5.19998C20.4815 5.54449 20.9726 6.03766 21.3146 6.63056C21.6567 7.22346 21.8378 7.89549 21.84 8.57998V15.42C21.8378 16.1045 21.6567 16.7765 21.3146 17.3694C20.9726 17.9623 20.4815 18.4555 19.89 18.8L13.95 22.23C13.3568 22.5706 12.684 22.7483 12 22.745ZM12 2.74498C11.5791 2.74686 11.1659 2.85706 10.8 3.06498L4.85997 6.49998C4.49531 6.71122 4.19253 7.01454 3.98193 7.37957C3.77133 7.74461 3.66031 8.15856 3.65997 8.57998V15.42C3.66161 15.8411 3.77318 16.2546 3.98365 16.6194C4.19412 16.9842 4.49619 17.2877 4.85997 17.5L10.8 20.93C11.1646 21.1412 11.5786 21.2525 12 21.2525C12.4214 21.2525 12.8353 21.1412 13.2 20.93L19.14 17.5C19.5046 17.2887 19.8074 16.9854 20.018 16.6204C20.2286 16.2554 20.3396 15.8414 20.34 15.42V8.57998C20.3383 8.15882 20.2268 7.74538 20.0163 7.38057C19.8058 7.01576 19.5038 6.71222 19.14 6.49998L13.2 3.06998C12.8346 2.86032 12.4213 2.74838 12 2.74498Z" fill="#5A5A5A"/>
  <path d="M12 11.75C11.3908 11.75 10.7953 11.5693 10.2888 11.2309C9.78232 10.8925 9.38755 10.4114 9.15444 9.84863C8.92132 9.28584 8.86032 8.66655 8.97917 8.06909C9.09801 7.47163 9.39135 6.92282 9.8221 6.49208C10.2528 6.06133 10.8016 5.76799 11.3991 5.64915C11.9966 5.53031 12.6159 5.5913 13.1786 5.82442C13.7414 6.05754 14.2225 6.45231 14.5609 6.95881C14.8993 7.46531 15.08 8.0608 15.08 8.66997C15.0797 9.48675 14.7551 10.27 14.1776 10.8476C13.6 11.4251 12.8168 11.7497 12 11.75ZM12 7.08997C11.6875 7.08997 11.382 7.18263 11.1222 7.35625C10.8624 7.52986 10.6598 7.77662 10.5403 8.06533C10.4207 8.35403 10.3894 8.67172 10.4503 8.97821C10.5113 9.2847 10.6618 9.56623 10.8828 9.7872C11.1037 10.0082 11.3853 10.1586 11.6917 10.2196C11.9982 10.2806 12.3159 10.2493 12.6046 10.1297C12.8933 10.0101 13.1401 9.8076 13.3137 9.54777C13.4873 9.28794 13.58 8.98246 13.58 8.66997C13.5792 8.25117 13.4125 7.84975 13.1163 7.55361C12.8202 7.25748 12.4188 7.09076 12 7.08997Z" fill="#5A5A5A"/>
  <path d="M16 17.41C15.8015 17.4087 15.6115 17.3293 15.4711 17.1889C15.3307 17.0485 15.2513 16.8585 15.25 16.66C15.25 15.28 13.79 14.15 12 14.15C10.21 14.15 8.75 15.28 8.75 16.66C8.74869 16.8585 8.66925 17.0485 8.52888 17.1889C8.38851 17.3293 8.19851 17.4087 8 17.41C7.80149 17.4087 7.61149 17.3293 7.47112 17.1889C7.33075 17.0485 7.25131 16.8585 7.25 16.66C7.25 14.45 9.38 12.65 12 12.65C14.62 12.65 16.75 14.45 16.75 16.66C16.7487 16.8585 16.6693 17.0485 16.5289 17.1889C16.3885 17.3293 16.1985 17.4087 16 17.41Z" fill="#5A5A5A"/>
</svg>