<svg xmlns="http://www.w3.org/2000/svg" width="48" height="48" viewBox="0 0 48 48" fill="none">
  <path d="M18.0005 4.00005C15.5097 4.00884 13.1221 4.99636 11.3528 6.74961C9.58349 8.50286 8.57425 10.8813 8.54275 13.372C8.51126 15.8626 9.46004 18.2658 11.1844 20.0633C12.9089 21.8607 15.2707 22.9083 17.7605 22.9801C17.9065 22.96 18.0545 22.96 18.2005 22.9801H18.3405C20.8405 22.9102 23.2118 21.8565 24.9393 20.048C26.6667 18.2395 27.6106 15.8223 27.5658 13.3217C27.521 10.8212 26.4911 8.43938 24.7001 6.6939C22.909 4.94842 20.5014 3.98034 18.0005 4.00005Z" fill="white"/>
  <path d="M28.16 28.3C25.0893 26.4739 21.5828 25.51 18.01 25.51C14.4373 25.51 10.9308 26.4739 7.86004 28.3C6.71488 28.9607 5.75401 29.8984 5.06559 31.0271C4.37718 32.1559 3.98328 33.4394 3.92004 34.76C3.98179 36.0732 4.37327 37.3497 5.05837 38.4717C5.74347 39.5937 6.70011 40.5251 7.84004 41.18C10.8809 43.0868 14.4114 44.0667 18 44C21.5887 44.0667 25.1191 43.0868 28.16 41.18C29.3017 40.5171 30.2588 39.5784 30.9437 38.4498C31.6285 37.3212 32.0193 36.0387 32.08 34.72C32.0141 33.4078 31.6209 32.1329 30.9363 31.0116C30.2516 29.8903 29.2972 28.9581 28.16 28.3Z" fill="white"/>
  <path d="M39.9799 14.6801C40.1447 16.5303 39.5838 18.3721 38.4157 19.8164C37.2476 21.2607 35.5637 22.1944 33.7199 22.4201H33.6199C33.5051 22.4124 33.3899 22.426 33.2799 22.4601C31.4428 22.5762 29.6313 21.9819 28.2199 20.8001C29.2746 19.8523 30.0945 18.6724 30.6151 17.3535C31.1358 16.0345 31.3428 14.6127 31.2199 13.2001C31.0826 11.6401 30.5529 10.1402 29.6799 8.84008C30.7278 8.32925 31.8843 8.08124 33.0495 8.11749C34.2147 8.15373 35.3535 8.47314 36.3676 9.04812C37.3817 9.6231 38.2405 10.4364 38.8699 11.4176C39.4993 12.3989 39.8803 13.5186 39.9799 14.6801Z" fill="white"/>
  <path d="M43.9795 33.1801C43.8498 34.2032 43.4624 35.1766 42.8538 36.0092C42.2451 36.8417 41.435 37.5061 40.4995 37.9401C38.3334 39.0574 35.9149 39.5949 33.4795 39.5001C34.8519 38.3189 35.7241 36.6603 35.9195 34.8601C35.9721 33.5439 35.694 32.2356 35.1105 31.0547C34.527 29.8738 33.6568 28.8579 32.5795 28.1001C31.1902 27.0203 29.6373 26.1696 27.9795 25.5801C30.245 24.9352 32.627 24.8107 34.9474 25.2159C37.2678 25.6211 39.4666 26.5455 41.3795 27.9201C42.2217 28.506 42.9019 29.2957 43.3565 30.2155C43.8111 31.1352 44.0255 32.1551 43.9795 33.1801Z" fill="white"/>
</svg>