<svg xmlns="http://www.w3.org/2000/svg" width="24" height="24" viewBox="0 0 24 24" fill="none">
  <path d="M8.67 22.75H2C1.80149 22.7487 1.61149 22.6693 1.47112 22.5289C1.33075 22.3885 1.25131 22.1985 1.25 22V16C1.24974 15.6388 1.32069 15.2811 1.4588 14.9473C1.5969 14.6135 1.79946 14.3103 2.05487 14.0549C2.31028 13.7995 2.61355 13.5969 2.94731 13.4588C3.28107 13.3207 3.63879 13.2497 4 13.25H8.67C8.86851 13.2513 9.05851 13.3307 9.19888 13.4711C9.33925 13.6115 9.41869 13.8015 9.42 14V22C9.41869 22.1985 9.33925 22.3885 9.19888 22.5289C9.05851 22.6693 8.86851 22.7487 8.67 22.75ZM2.75 21.25H7.92V14.75H4C3.66848 14.75 3.35054 14.8817 3.11612 15.1161C2.8817 15.3505 2.75 15.6685 2.75 16V21.25Z" fill="#5A5A5A"/>
  <path d="M15.33 22.75H8.66C8.4615 22.7487 8.27149 22.6693 8.13112 22.5289C7.99075 22.3885 7.91131 22.1985 7.91 22V12C7.90974 11.6388 7.98069 11.2811 8.1188 10.9473C8.25691 10.6135 8.45946 10.3103 8.71487 10.0549C8.97029 9.79946 9.27355 9.5969 9.60731 9.4588C9.94108 9.32069 10.2988 9.24974 10.66 9.25H13.33C13.6912 9.24974 14.0489 9.32069 14.3827 9.4588C14.7165 9.5969 15.0197 9.79946 15.2751 10.0549C15.5305 10.3103 15.7331 10.6135 15.8712 10.9473C16.0093 11.2811 16.0803 11.6388 16.08 12V22C16.0801 22.0985 16.0608 22.1961 16.0232 22.2872C15.9855 22.3782 15.9303 22.461 15.8606 22.5306C15.791 22.6003 15.7082 22.6555 15.6172 22.6932C15.5261 22.7308 15.4285 22.7501 15.33 22.75ZM9.42 21.25H14.59V12C14.59 11.6685 14.4583 11.3505 14.2239 11.1161C13.9895 10.8817 13.6715 10.75 13.34 10.75H10.67C10.3385 10.75 10.0205 10.8817 9.78612 11.1161C9.5517 11.3505 9.42 11.6685 9.42 12V21.25Z" fill="#5A5A5A"/>
  <path d="M22 22.75H15.33C15.1315 22.7487 14.9415 22.6693 14.8011 22.5289C14.6607 22.3885 14.5813 22.1985 14.58 22V17C14.5813 16.8015 14.6607 16.6115 14.8011 16.4711C14.9415 16.3307 15.1315 16.2513 15.33 16.25H20C20.3612 16.2497 20.7189 16.3207 21.0527 16.4588C21.3864 16.5969 21.6897 16.7995 21.9451 17.0549C22.2005 17.3103 22.4031 17.6135 22.5412 17.9473C22.6793 18.2811 22.7502 18.6388 22.75 19V22C22.7487 22.1985 22.6692 22.3885 22.5289 22.5289C22.3885 22.6693 22.1985 22.7487 22 22.75ZM16.08 21.25H21.25V19C21.25 18.6685 21.1183 18.3505 20.8839 18.1161C20.6494 17.8817 20.3315 17.75 20 17.75H16.08V21.25Z" fill="#5A5A5A"/>
  <path d="M13.7 8.34899C13.3878 8.33918 13.084 8.24595 12.82 8.07899L12 7.58899L11.19 8.06899C10.9683 8.23961 10.6991 8.33706 10.4196 8.34781C10.14 8.35856 9.8641 8.28209 9.62999 8.12899C9.413 7.95345 9.256 7.71475 9.18074 7.44598C9.10549 7.17721 9.11571 6.89169 9.20999 6.62899L9.39999 5.79899L8.71999 5.11899C8.52616 4.9526 8.38372 4.73445 8.30934 4.49006C8.23496 4.24567 8.23172 3.98515 8.29999 3.73899C8.38869 3.50037 8.54254 3.29141 8.74406 3.13585C8.94558 2.9803 9.18669 2.88438 9.43999 2.85899L10.31 2.70899L10.8 1.72699C10.896 1.49007 11.0605 1.28721 11.2725 1.14437C11.4845 1.00154 11.7344 0.925232 11.99 0.925232C12.2456 0.925232 12.4954 1.00154 12.7074 1.14437C12.9194 1.28721 13.084 1.49007 13.18 1.72699L13.67 2.70699L14.54 2.85699C14.7938 2.88076 15.0357 2.97607 15.2375 3.13185C15.4393 3.28762 15.5927 3.49747 15.68 3.73699C15.7458 3.98329 15.7414 4.2431 15.6672 4.487C15.5929 4.7309 15.4519 4.94914 15.26 5.11699L14.58 5.79699L14.77 6.62699C14.8639 6.89131 14.8739 7.17816 14.7987 7.4484C14.7236 7.71864 14.5669 7.9591 14.35 8.13699C14.1643 8.28055 13.9346 8.35545 13.7 8.34899ZM12 6.07899C12.2387 6.07688 12.4736 6.13905 12.68 6.25899L13.24 6.58899L13.12 6.04899C13.0751 5.8286 13.0844 5.60061 13.1471 5.38462C13.2099 5.16862 13.3241 4.97109 13.48 4.80899L13.99 4.29899L13.36 4.18899C13.1548 4.14901 12.9612 4.06359 12.7933 3.939C12.6255 3.81441 12.4877 3.65381 12.39 3.46899L12 2.71899L11.62 3.46899C11.5223 3.65381 11.3845 3.81441 11.2166 3.939C11.0488 4.06359 10.8552 4.14901 10.65 4.18899L10.02 4.28899L10.53 4.79899C10.6839 4.96243 10.7967 5.16007 10.8593 5.37564C10.9219 5.59121 10.9324 5.81856 10.89 6.03899L10.77 6.57899L11.33 6.24899C11.5331 6.13107 11.7652 6.0722 12 6.07899Z" fill="#5A5A5A"/>
</svg>