<svg xmlns="http://www.w3.org/2000/svg" width="48" height="48" viewBox="0 0 48 48" fill="none">
  <path d="M13.34 28H8C6.94011 28.0032 5.92453 28.4256 5.17507 29.1751C4.42561 29.9245 4.00317 30.9401 4 32L4 42C4 42.5304 4.21071 43.0391 4.58579 43.4142C4.96086 43.7893 5.46957 44 6 44H13.34C13.8704 44 14.3791 43.7893 14.7542 43.4142C15.1293 43.0391 15.34 42.5304 15.34 42V30C15.34 29.4696 15.1293 28.9609 14.7542 28.5858C14.3791 28.2107 13.8704 28 13.34 28Z" fill="white"/>
  <path d="M26.6603 20H21.3203C20.2604 20.0032 19.2448 20.4256 18.4954 21.1751C17.7459 21.9245 17.3235 22.9401 17.3203 24V42C17.3203 42.5304 17.531 43.0391 17.9061 43.4142C18.2812 43.7893 18.7899 44 19.3203 44H28.6603C29.1907 44 29.6995 43.7893 30.0745 43.4142C30.4496 43.0391 30.6603 42.5304 30.6603 42V24C30.6603 22.9391 30.2389 21.9217 29.4887 21.1716C28.7386 20.4214 27.7212 20 26.6603 20Z" fill="white"/>
  <path d="M40.0002 34H34.6602C34.1297 34 33.621 34.2107 33.2459 34.5858C32.8709 34.9609 32.6602 35.4696 32.6602 36V42C32.6602 42.5304 32.8709 43.0391 33.2459 43.4142C33.621 43.7893 34.1297 44 34.6602 44H42.0002C42.5306 44 43.0393 43.7893 43.4144 43.4142C43.7894 43.0391 44.0002 42.5304 44.0002 42V38C43.997 36.9401 43.5745 35.9245 42.8251 35.1751C42.0756 34.4256 41.06 34.0032 40.0002 34Z" fill="white"/>
  <path d="M30.0206 9.69771C30.3039 9.4573 30.5154 9.14339 30.6319 8.79053C30.7483 8.43767 30.7652 8.05953 30.6806 7.69771C30.5432 7.3516 30.3107 7.05147 30.0098 6.83202C29.709 6.61258 29.3521 6.48281 28.9806 6.45771L27.0606 6.13771C26.9377 6.10223 26.8314 6.02426 26.7606 5.91771L25.7006 3.79971C25.5773 3.44438 25.3464 3.13628 25.0399 2.91823C24.7335 2.70018 24.3667 2.58301 23.9906 2.58301C23.6145 2.58301 23.2477 2.70018 22.9413 2.91823C22.6348 3.13628 22.4039 3.44438 22.2806 3.79971L21.2206 5.91971C21.1917 5.97379 21.1519 6.02128 21.1037 6.05916C21.0555 6.09703 21 6.12446 20.9406 6.13971L19.0206 6.45971C18.65 6.48802 18.2946 6.61905 17.9944 6.83807C17.6941 7.0571 17.4608 7.35548 17.3206 7.69971C17.236 8.06153 17.2529 8.43967 17.3693 8.79253C17.4858 9.14539 17.6973 9.4593 17.9806 9.69971L19.4606 11.1997C19.5476 11.3064 19.5905 11.4424 19.5806 11.5797L19.1606 13.4197C18.8406 14.7997 19.3606 15.4197 19.7006 15.6597C20.0536 15.8737 20.4642 15.9731 20.876 15.9445C21.2878 15.9158 21.6806 15.7605 22.0006 15.4997L23.8006 14.4397C23.8666 14.41 23.9382 14.3947 24.0106 14.3947C24.083 14.3947 24.1546 14.41 24.2206 14.4397L26.0006 15.4997C26.4108 15.7718 26.8887 15.9241 27.3806 15.9397C27.7019 15.9389 28.0155 15.8413 28.2806 15.6597C28.6206 15.4197 29.1406 14.7997 28.8206 13.4197L28.4006 11.5797C28.3942 11.5116 28.4015 11.4428 28.4221 11.3776C28.4427 11.3123 28.4762 11.2518 28.5206 11.1997L30.0206 9.69771Z" fill="white"/>
</svg>