<svg xmlns="http://www.w3.org/2000/svg" width="24" height="24" viewBox="0 0 24 24" fill="none">
  <path d="M12 22.75C11.5945 22.7405 11.1969 22.6361 10.8392 22.445C10.4814 22.254 10.1734 21.9817 9.94 21.65L8.93 20.3C8.83992 20.1703 8.72251 20.0619 8.58602 19.9824C8.44953 19.9029 8.29729 19.8543 8.14 19.84C7.98179 19.8388 7.82511 19.8711 7.68032 19.9349C7.53552 19.9987 7.4059 20.0924 7.3 20.21L6.73 19.7L7.28 20.21C5.84 21.75 4.73 21.63 4.2 21.42C3.67 21.21 2.75 20.52 2.75 18.3V7.04C2.75 2.6 4.03 1.25 8.22 1.25H15.78C19.97 1.25 21.25 2.6 21.25 7.04V18.3C21.25 20.51 20.34 21.2 19.8 21.42C19.26 21.64 18.17 21.75 16.72 20.21C16.6178 20.0854 16.4874 19.9868 16.3396 19.9225C16.1918 19.8582 16.0309 19.8299 15.87 19.84C15.7113 19.8542 15.5576 19.9026 15.4194 19.9821C15.2813 20.0615 15.1621 20.17 15.07 20.3L14.06 21.65C13.8266 21.9817 13.5186 22.254 13.1608 22.445C12.8031 22.6361 12.4055 22.7405 12 22.75ZM8.08 18.33H8.21C8.58654 18.3562 8.95274 18.4646 9.28277 18.6478C9.6128 18.8309 9.8986 19.0843 10.12 19.39L11.13 20.74C11.22 20.8888 11.347 21.0119 11.4985 21.0973C11.65 21.1828 11.821 21.2276 11.995 21.2276C12.169 21.2276 12.34 21.1828 12.4915 21.0973C12.643 21.0119 12.77 20.8888 12.86 20.74L13.87 19.39C14.089 19.0798 14.3755 18.8233 14.7079 18.6397C15.0403 18.4561 15.4099 18.3502 15.7891 18.33C16.1683 18.3098 16.5471 18.3758 16.8971 18.523C17.2471 18.6702 17.5593 18.8948 17.81 19.18C18.57 19.99 19.07 20.09 19.24 20.02C19.48 19.92 19.74 19.34 19.74 18.3V7.04C19.74 3.43 19.11 2.75 15.77 2.75H8.22C4.88 2.75 4.25 3.43 4.25 7.04V18.3C4.25 19.35 4.51 19.93 4.75 20.02C4.92 20.09 5.42 19.99 6.18 19.18C6.42354 18.9182 6.71725 18.708 7.04365 18.562C7.37006 18.416 7.72249 18.3371 8.08 18.33Z" fill="#5A5A5A"/>
  <path d="M16 7.75H8C7.80149 7.74869 7.61149 7.66925 7.47112 7.52888C7.33075 7.38851 7.25131 7.19851 7.25 7C7.25131 6.80149 7.33075 6.61149 7.47112 6.47112C7.61149 6.33075 7.80149 6.25131 8 6.25H16C16.1985 6.25131 16.3885 6.33075 16.5289 6.47112C16.6693 6.61149 16.7487 6.80149 16.75 7C16.7487 7.19851 16.6693 7.38851 16.5289 7.52888C16.3885 7.66925 16.1985 7.74869 16 7.75Z" fill="#5A5A5A"/>
  <path d="M15 11.75H9C8.80149 11.7487 8.61149 11.6693 8.47112 11.5289C8.33075 11.3885 8.25131 11.1985 8.25 11C8.25131 10.8015 8.33075 10.6115 8.47112 10.4711C8.61149 10.3307 8.80149 10.2513 9 10.25H15C15.1985 10.2513 15.3885 10.3307 15.5289 10.4711C15.6693 10.6115 15.7487 10.8015 15.75 11C15.7487 11.1985 15.6693 11.3885 15.5289 11.5289C15.3885 11.6693 15.1985 11.7487 15 11.75Z" fill="#5A5A5A"/>
</svg>