<svg xmlns="http://www.w3.org/2000/svg" width="18" height="18" viewBox="0 0 18 18" fill="none">
  <path d="M6.68236 15.5026C6.60846 15.5029 6.53526 15.4884 6.46701 15.4601C6.39876 15.4318 6.33684 15.3901 6.28486 15.3376C6.18025 15.2318 6.12158 15.089 6.12158 14.9401C6.12158 14.7913 6.18025 14.6485 6.28486 14.5426L11.1749 9.65263C11.3478 9.47951 11.4449 9.24483 11.4449 9.00013C11.4449 8.75543 11.3478 8.52075 11.1749 8.34763L6.28561 3.45838C6.18818 3.35149 6.13567 3.21117 6.13899 3.06658C6.1423 2.92199 6.20118 2.78423 6.3034 2.68191C6.40563 2.57959 6.54333 2.52058 6.68792 2.51713C6.83251 2.51368 6.97287 2.56605 7.07986 2.66338L11.9721 7.55263C12.1625 7.74255 12.3134 7.96818 12.4164 8.21657C12.5194 8.46497 12.5723 8.73124 12.5721 9.00013C12.574 9.26927 12.5218 9.53605 12.4188 9.78468C12.3157 10.0333 12.1638 10.2587 11.9721 10.4476L7.08211 15.3376C6.97457 15.4413 6.8317 15.5003 6.68236 15.5026Z" fill="#5A5A5A"/>
</svg>