<svg xmlns="http://www.w3.org/2000/svg" width="8" height="14" viewBox="0 0 8 14" fill="none">
  <path d="M7.20018 5.48989L5.23018 3.51989L2.02018 0.309889C1.8682 0.160691 1.67558 0.0596608 1.46644 0.0194559C1.2573 -0.0207489 1.04094 0.00165978 0.84448 0.0838744C0.648019 0.166089 0.480189 0.304453 0.362018 0.481631C0.243847 0.658808 0.180591 0.866919 0.180176 1.07989V12.9199C0.180197 13.1331 0.24348 13.3414 0.362011 13.5186C0.480543 13.6958 0.64899 13.8338 0.84602 13.9152C1.04305 13.9966 1.2598 14.0177 1.46882 13.9758C1.67784 13.9339 1.86972 13.8309 2.02018 13.6799L7.20018 8.49789C7.59808 8.09848 7.82149 7.55767 7.82149 6.99389C7.82149 6.4301 7.59808 5.8893 7.20018 5.48989Z" fill="#158B7F"/>
</svg>