<svg xmlns="http://www.w3.org/2000/svg" width="46" height="46" viewBox="0 0 46 46" fill="none">
  <path d="M17.0399 39.5127C16.8535 39.5134 16.6687 39.4769 16.4965 39.4054C16.3243 39.334 16.168 39.2289 16.0368 39.0964C15.7728 38.8292 15.6248 38.4688 15.6248 38.0932C15.6248 37.7176 15.7728 37.3572 16.0368 37.0901L28.3772 24.7497C28.8137 24.3128 29.0588 23.7205 29.0588 23.103C29.0588 22.4855 28.8137 21.8932 28.3772 21.4564L16.0387 9.11782C15.7928 8.84806 15.6603 8.49396 15.6687 8.12907C15.677 7.76417 15.8256 7.41652 16.0836 7.15831C16.3416 6.9001 16.6891 6.75118 17.054 6.74247C17.4189 6.73376 17.7731 6.86594 18.0431 7.11155L30.3892 19.4501C30.8695 19.9294 31.2506 20.4988 31.5104 21.1256C31.7702 21.7525 31.9038 22.4244 31.9033 23.103C31.9081 23.7822 31.7765 24.4555 31.5164 25.0829C31.2563 25.7103 30.873 26.2792 30.3892 26.7559L18.0487 39.0964C17.7774 39.3579 17.4168 39.5068 17.0399 39.5127Z" fill="#707070"/>
</svg>