<svg xmlns="http://www.w3.org/2000/svg" width="24" height="24" viewBox="0 0 24 24" fill="none">
  <path d="M12 15.75C11.2583 15.75 10.5333 15.5301 9.91661 15.118C9.29993 14.706 8.81928 14.1203 8.53545 13.4351C8.25162 12.7498 8.17736 11.9958 8.32206 11.2684C8.46675 10.541 8.8239 9.8728 9.34835 9.34835C9.8728 8.8239 10.541 8.46675 11.2684 8.32206C11.9958 8.17736 12.7498 8.25162 13.4351 8.53545C14.1203 8.81928 14.706 9.29993 15.118 9.91661C15.5301 10.5333 15.75 11.2583 15.75 12C15.7497 12.9945 15.3546 13.9482 14.6514 14.6514C13.9482 15.3546 12.9945 15.7497 12 15.75ZM12 9.75C11.555 9.75 11.12 9.88196 10.75 10.1292C10.38 10.3764 10.0916 10.7278 9.92127 11.139C9.75098 11.5501 9.70642 12.0025 9.79323 12.439C9.88005 12.8754 10.0943 13.2763 10.409 13.591C10.7237 13.9057 11.1246 14.12 11.561 14.2068C11.9975 14.2936 12.4499 14.249 12.861 14.0787C13.2722 13.9084 13.6236 13.62 13.8708 13.25C14.118 12.88 14.25 12.445 14.25 12C14.2492 11.4035 14.0119 10.8317 13.5901 10.4099C13.1683 9.9881 12.5965 9.7508 12 9.75Z" fill="#5A5A5A"/>
  <path d="M15.21 22.19C14.9976 22.1881 14.7862 22.1612 14.58 22.11C13.9646 21.9448 13.4374 21.5467 13.11 21L12.99 20.8C12.4 19.78 11.59 19.78 11 20.8L10.89 20.99C10.7313 21.265 10.5197 21.5057 10.2674 21.6983C10.0151 21.8909 9.72705 22.0315 9.42 22.112C9.11396 22.1966 8.7939 22.2181 8.4793 22.1751C8.1647 22.1322 7.86213 22.0256 7.59 21.862L5.87 20.872C5.26023 20.5217 4.81449 19.9437 4.63073 19.2649C4.44696 18.5861 4.54022 17.8621 4.89 17.252C5.0256 17.0753 5.11492 16.8674 5.14984 16.6474C5.18477 16.4274 5.1642 16.2021 5.09 15.992C4.94592 15.822 4.7615 15.6908 4.55361 15.6104C4.34572 15.5301 4.121 15.5031 3.9 15.532C3.19724 15.5307 2.52366 15.2508 2.02692 14.7537C1.53018 14.2566 1.25079 13.5828 1.25 12.88L1.25 11.12C1.25132 10.4176 1.53094 9.74435 2.02763 9.24766C2.52431 8.75098 3.19758 8.47136 3.9 8.47003C4.12083 8.49919 4.34544 8.47256 4.55331 8.39255C4.76119 8.31254 4.94571 8.18172 5.09 8.01203C5.16671 7.80236 5.18861 7.57657 5.1536 7.35606C5.1186 7.13556 5.02787 6.92765 4.89 6.75203C4.54158 6.14256 4.44813 5.4201 4.63 4.74203C4.71693 4.40371 4.87166 4.08655 5.08481 3.80981C5.29796 3.53306 5.56508 3.30247 5.87 3.13203L7.6 2.14003C8.15353 1.82016 8.81107 1.73212 9.42926 1.89509C10.0474 2.05807 10.5761 2.45884 10.9 3.01003L11.02 3.21003C11.61 4.23003 12.42 4.23003 13.01 3.21003L13.12 3.02003C13.2796 2.74498 13.4921 2.50418 13.745 2.31147C13.998 2.11875 14.2866 1.97793 14.5942 1.89709C14.9018 1.81624 15.2223 1.79697 15.5373 1.84038C15.8524 1.88379 16.1557 1.98902 16.43 2.15003L18.15 3.14003C18.7598 3.49033 19.2055 4.0684 19.3893 4.74719C19.573 5.42598 19.4798 6.14997 19.13 6.76003C18.9944 6.9368 18.9051 7.14463 18.8702 7.36466C18.8352 7.58469 18.8558 7.80997 18.93 8.02003C19.0741 8.19008 19.2585 8.32129 19.4664 8.40165C19.6743 8.48201 19.899 8.50896 20.12 8.48003C20.8224 8.48136 21.4957 8.76098 21.9924 9.25766C22.4891 9.75435 22.7687 10.4276 22.77 11.13V12.89C22.7687 13.5925 22.4891 14.2657 21.9924 14.7624C21.4957 15.2591 20.8224 15.5387 20.12 15.54C19.899 15.5111 19.6743 15.5381 19.4664 15.6184C19.2585 15.6988 19.0741 15.83 18.93 16C18.8533 16.2097 18.8314 16.4355 18.8664 16.656C18.9014 16.8765 18.9921 17.0844 19.13 17.26C19.3048 17.561 19.4178 17.8937 19.4625 18.2388C19.5071 18.584 19.4825 18.9345 19.39 19.27C19.3031 19.6084 19.1483 19.9255 18.9352 20.2023C18.722 20.479 18.4549 20.7096 18.15 20.88L16.42 21.87C16.0505 22.0781 15.634 22.1882 15.21 22.19ZM12 18.49C12.4853 18.5206 12.9535 18.6804 13.3562 18.953C13.7589 19.2255 14.0813 19.6009 14.29 20.04L14.4 20.23C14.5225 20.4363 14.7209 20.5864 14.9527 20.648C15.1845 20.7097 15.4312 20.6781 15.64 20.56L17.37 19.56C17.6356 19.4074 17.8298 19.1557 17.91 18.86C17.9498 18.7149 17.9606 18.5634 17.9418 18.4141C17.9229 18.2648 17.8747 18.1207 17.8 17.99C17.5253 17.5889 17.3621 17.122 17.3269 16.6371C17.2918 16.1522 17.386 15.6666 17.6 15.23C17.8696 14.8248 18.2426 14.499 18.6804 14.2863C19.1182 14.0736 19.6048 13.9816 20.09 14.02C20.2412 14.0208 20.3911 13.9916 20.531 13.9341C20.6709 13.8766 20.798 13.7919 20.9049 13.685C21.0119 13.578 21.0966 13.4509 21.1541 13.3111C21.2116 13.1712 21.2408 13.0213 21.24 12.87V11.112C21.24 10.807 21.1188 10.5145 20.9032 10.2989C20.6875 10.0832 20.395 9.96203 20.09 9.96203C19.6048 10.0004 19.1182 9.90851 18.6804 9.69578C18.2426 9.48305 17.8696 9.15724 17.6 8.75203C17.386 8.31547 17.2918 7.82992 17.3269 7.345C17.3621 6.86008 17.5253 6.39319 17.8 5.99203C17.8747 5.8614 17.9229 5.7173 17.9418 5.568C17.9606 5.41871 17.9498 5.26715 17.91 5.12203C17.8309 4.82875 17.6408 4.57772 17.38 4.42203L15.65 3.43203C15.5456 3.37084 15.4302 3.33082 15.3104 3.31429C15.1905 3.29776 15.0686 3.30502 14.9515 3.33568C14.8345 3.36633 14.7247 3.41976 14.6283 3.49293C14.532 3.56609 14.451 3.65753 14.39 3.76203L14.28 3.95203C14.0713 4.39121 13.7489 4.76654 13.3462 5.03909C12.9435 5.31164 12.4753 5.47148 11.99 5.50203C11.5047 5.47148 11.0365 5.31164 10.6338 5.03909C10.2311 4.76654 9.9087 4.39121 9.7 3.95203L9.59 3.75203C9.46573 3.54767 9.26661 3.39987 9.03501 3.34011C8.80342 3.28034 8.55764 3.31332 8.35 3.43203L6.62 4.43203C6.35443 4.58469 6.16024 4.83642 6.08 5.13203C6.04016 5.27715 6.02937 5.42871 6.04825 5.578C6.06712 5.7273 6.1153 5.8714 6.19 6.00203C6.46469 6.40319 6.62794 6.87008 6.66308 7.355C6.69822 7.83992 6.60398 8.32547 6.39 8.76203C6.12037 9.16724 5.74738 9.49305 5.30961 9.70578C4.87185 9.91851 4.3852 10.0104 3.9 9.97203C3.74893 9.97124 3.59919 10.0004 3.45944 10.0578C3.31969 10.1152 3.19269 10.1997 3.08577 10.3064C2.97885 10.4131 2.89413 10.54 2.8365 10.6796C2.77887 10.8193 2.74947 10.969 2.75 11.12V12.88C2.75 13.185 2.87116 13.4775 3.08683 13.6932C3.30249 13.9089 3.595 14.03 3.9 14.03C4.3852 13.9916 4.87185 14.0836 5.30961 14.2963C5.74738 14.509 6.12037 14.8348 6.39 15.24C6.60398 15.6766 6.69822 16.1622 6.66308 16.6471C6.62794 17.132 6.46469 17.5989 6.19 18C6.1153 18.1307 6.06712 18.2748 6.04825 18.4241C6.02937 18.5734 6.04016 18.7249 6.08 18.87C6.1591 19.1633 6.34916 19.4144 6.61 19.57L8.34 20.56C8.44225 20.6226 8.55613 20.6637 8.67474 20.6808C8.79335 20.698 8.91421 20.691 9.03 20.66C9.26873 20.5964 9.47322 20.4421 9.6 20.23L9.71 20.04C9.9204 19.6021 10.2432 19.2279 10.6456 18.9556C11.0479 18.6833 11.5153 18.5226 12 18.49Z" fill="#5A5A5A"/>
</svg>