<svg xmlns="http://www.w3.org/2000/svg" width="13" height="22" viewBox="0 0 13 22" fill="none">
  <path d="M10.1187 7.57086L8.37996 5.83211L7.31829 4.76665C7.1019 4.55079 6.80873 4.42957 6.50308 4.42957C6.19743 4.42957 5.90426 4.55079 5.68787 4.76665L2.88204 7.57086C2.80076 7.65256 2.74545 7.75646 2.72306 7.8695C2.70066 7.98254 2.71219 8.09969 2.75618 8.2062C2.80017 8.31271 2.87467 8.40384 2.97032 8.46813C3.06596 8.53242 3.17847 8.567 3.29371 8.56753H9.70704C9.82251 8.56752 9.93538 8.53324 10.0314 8.46903C10.1273 8.40483 10.2021 8.31359 10.2462 8.20686C10.2903 8.10014 10.3017 7.98273 10.279 7.86951C10.2563 7.75629 10.2005 7.65235 10.1187 7.57086Z" fill="#5A5A5A"/>
  <path d="M9.70661 13.0975H3.29328C3.17781 13.0975 3.06494 13.1318 2.96896 13.196C2.87299 13.2602 2.79823 13.3515 2.75415 13.4582C2.71006 13.5649 2.69864 13.6823 2.72134 13.7955C2.74403 13.9088 2.79981 14.0127 2.88161 14.0942L5.68799 16.9C5.90438 17.1159 6.19755 17.2371 6.5032 17.2371C6.80884 17.2371 7.10201 17.1159 7.3184 16.9L8.38549 15.833L10.1242 14.0942C10.2051 14.0118 10.2598 13.9075 10.2816 13.7941C10.3033 13.6808 10.2912 13.5636 10.2466 13.4571C10.202 13.3507 10.1269 13.2598 10.0309 13.1958C9.93482 13.1318 9.82202 13.0977 9.70661 13.0975Z" fill="#5A5A5A"/>
</svg>