<svg xmlns="http://www.w3.org/2000/svg" width="24" height="24" viewBox="0 0 24 24" fill="none">
  <path d="M8 5.75C7.80149 5.74869 7.61149 5.66925 7.47112 5.52888C7.33075 5.38851 7.25131 5.19851 7.25 5V2C7.25131 1.80149 7.33075 1.61149 7.47112 1.47112C7.61149 1.33075 7.80149 1.25131 8 1.25C8.19851 1.25131 8.38851 1.33075 8.52888 1.47112C8.66925 1.61149 8.74869 1.80149 8.75 2V5C8.74869 5.19851 8.66925 5.38851 8.52888 5.52888C8.38851 5.66925 8.19851 5.74869 8 5.75Z" fill="#5A5A5A"/>
  <path d="M16 5.75C15.8015 5.74869 15.6115 5.66925 15.4711 5.52888C15.3307 5.38851 15.2513 5.19851 15.25 5V2C15.2513 1.80149 15.3307 1.61149 15.4711 1.47112C15.6115 1.33075 15.8015 1.25131 16 1.25C16.1985 1.25131 16.3885 1.33075 16.5289 1.47112C16.6693 1.61149 16.7487 1.80149 16.75 2V5C16.7487 5.19851 16.6693 5.38851 16.5289 5.52888C16.3885 5.66925 16.1985 5.74869 16 5.75Z" fill="#5A5A5A"/>
  <path d="M15 11.75H7C6.80149 11.7487 6.61149 11.6693 6.47112 11.5289C6.33075 11.3885 6.25131 11.1985 6.25 11C6.25131 10.8015 6.33075 10.6115 6.47112 10.4711C6.61149 10.3307 6.80149 10.2513 7 10.25H15C15.1985 10.2513 15.3885 10.3307 15.5289 10.4711C15.6693 10.6115 15.7487 10.8015 15.75 11C15.7487 11.1985 15.6693 11.3885 15.5289 11.5289C15.3885 11.6693 15.1985 11.7487 15 11.75Z" fill="#5A5A5A"/>
  <path d="M12 15.75H7C6.80149 15.7487 6.61149 15.6693 6.47112 15.5289C6.33075 15.3885 6.25131 15.1985 6.25 15C6.25131 14.8015 6.33075 14.6115 6.47112 14.4711C6.61149 14.3307 6.80149 14.2513 7 14.25H12C12.1985 14.2513 12.3885 14.3307 12.5289 14.4711C12.6693 14.6115 12.7487 14.8015 12.75 15C12.7487 15.1985 12.6693 15.3885 12.5289 15.5289C12.3885 15.6693 12.1985 15.7487 12 15.75Z" fill="#5A5A5A"/>
  <path d="M15 22.75H9C3.38 22.75 2.25 20.1 2.25 15.82V9.65C2.25 4.91 3.85 2.98 7.96 2.75H16C20.15 2.98 21.75 4.91 21.75 9.65V16C21.75 16.1989 21.671 16.3897 21.5303 16.5303C21.3897 16.671 21.1989 16.75 21 16.75C20.8011 16.75 20.6103 16.671 20.4697 16.5303C20.329 16.3897 20.25 16.1989 20.25 16V9.65C20.25 5.29 18.8 4.41 15.96 4.25H8C5.2 4.41 3.75 5.29 3.75 9.65V15.82C3.75 19.65 4.48 21.25 9 21.25H15C15.1989 21.25 15.3897 21.329 15.5303 21.4697C15.671 21.6103 15.75 21.8011 15.75 22C15.75 22.1989 15.671 22.3897 15.5303 22.5303C15.3897 22.671 15.1989 22.75 15 22.75Z" fill="#5A5A5A"/>
  <path d="M14.9993 22.7498C14.8008 22.7485 14.6108 22.6691 14.4705 22.5287C14.3301 22.3883 14.2506 22.1983 14.2493 21.9998V18.9998C14.1902 18.4931 14.2465 17.9795 14.4141 17.4977C14.5817 17.0158 14.8561 16.5781 15.2168 16.2173C15.5776 15.8566 16.0153 15.5821 16.4972 15.4146C16.9791 15.247 17.4926 15.1907 17.9993 15.2498H20.9993C21.1471 15.249 21.2918 15.2923 21.4147 15.3743C21.5377 15.4562 21.6333 15.5731 21.6893 15.7098C21.7461 15.8471 21.7612 15.9981 21.7327 16.1439C21.7043 16.2897 21.6335 16.4239 21.5293 16.5298L15.5293 22.5298C15.4598 22.5995 15.3772 22.6548 15.2862 22.6926C15.1953 22.7303 15.0978 22.7498 14.9993 22.7498ZM17.9993 16.7498C16.4193 16.7498 15.7493 17.4198 15.7493 18.9998V20.1898L19.1893 16.7498H17.9993Z" fill="#5A5A5A"/>
</svg>