<svg xmlns="http://www.w3.org/2000/svg" width="24" height="24" viewBox="0 0 24 24" fill="none">
  <path d="M7 8.75H4C3.63879 8.75026 3.28107 8.67931 2.94731 8.54121C2.61355 8.4031 2.31028 8.20054 2.05487 7.94513C1.79946 7.68972 1.5969 7.38646 1.4588 7.05269C1.32069 6.71893 1.24974 6.36121 1.25 6V4C1.24974 3.63879 1.32069 3.28107 1.4588 2.94731C1.5969 2.61355 1.79946 2.31028 2.05487 2.05487C2.31028 1.79946 2.61355 1.5969 2.94731 1.4588C3.28107 1.32069 3.63879 1.24974 4 1.25H7C7.36121 1.24974 7.71893 1.32069 8.05269 1.4588C8.38646 1.5969 8.68972 1.79946 8.94513 2.05487C9.20054 2.31028 9.4031 2.61355 9.54121 2.94731C9.67931 3.28107 9.75026 3.63879 9.75 4V6C9.75026 6.36121 9.67931 6.71893 9.54121 7.05269C9.4031 7.38646 9.20054 7.68972 8.94513 7.94513C8.68972 8.20054 8.38646 8.4031 8.05269 8.54121C7.71893 8.67931 7.36121 8.75026 7 8.75ZM4 2.75C3.66848 2.75 3.35054 2.8817 3.11612 3.11612C2.8817 3.35054 2.75 3.66848 2.75 4V6C2.75 6.16415 2.78233 6.3267 2.84515 6.47836C2.90797 6.63001 3.00004 6.76781 3.11612 6.88388C3.35054 7.1183 3.66848 7.25 4 7.25H7C7.16415 7.25 7.3267 7.21767 7.47836 7.15485C7.63001 7.09203 7.76781 6.99996 7.88388 6.88388C7.99996 6.76781 8.09203 6.63001 8.15485 6.47836C8.21767 6.3267 8.25 6.16415 8.25 6V4C8.25 3.66848 8.1183 3.35054 7.88388 3.11612C7.64946 2.8817 7.33152 2.75 7 2.75H4Z" fill="#158B7F"/>
  <path d="M20.8 7.75H17.2C16.6831 7.74921 16.1875 7.54351 15.822 7.17798C15.4565 6.81246 15.2508 6.31693 15.25 5.8V4.2C15.2508 3.68307 15.4565 3.18754 15.822 2.82202C16.1875 2.45649 16.6831 2.25079 17.2 2.25L20.8 2.25C21.3169 2.25079 21.8125 2.45649 22.178 2.82202C22.5435 3.18754 22.7492 3.68307 22.75 4.2V5.8C22.7505 6.05623 22.7004 6.31003 22.6026 6.54686C22.5048 6.78368 22.3612 6.99885 22.18 7.18003C21.9989 7.36121 21.7837 7.50483 21.5469 7.60264C21.31 7.70045 21.0562 7.75053 20.8 7.75ZM17.2 3.75C17.0815 3.75279 16.9687 3.8011 16.8849 3.8849C16.8011 3.96869 16.7528 4.08153 16.75 4.2V5.8C16.7528 5.91847 16.8011 6.03131 16.8849 6.1151C16.9687 6.1989 17.0815 6.24721 17.2 6.25H20.8C20.9185 6.24721 21.0313 6.1989 21.1151 6.1151C21.1989 6.03131 21.2472 5.91847 21.25 5.8V4.2C21.2472 4.08153 21.1989 3.96869 21.1151 3.8849C21.0313 3.8011 20.9185 3.75279 20.8 3.75H17.2Z" fill="#158B7F"/>
  <path d="M20.8 15.25H17.2C16.6831 15.2492 16.1875 15.0435 15.822 14.678C15.4565 14.3125 15.2508 13.8169 15.25 13.3V11.7C15.2508 11.1831 15.4565 10.6875 15.822 10.322C16.1875 9.95649 16.6831 9.75079 17.2 9.75H20.8C21.3169 9.75079 21.8125 9.95649 22.178 10.322C22.5435 10.6875 22.7492 11.1831 22.75 11.7V13.3C22.7505 13.5562 22.7004 13.81 22.6026 14.0469C22.5048 14.2837 22.3612 14.4989 22.18 14.68C21.9989 14.8612 21.7837 15.0048 21.5469 15.1026C21.31 15.2004 21.0562 15.2505 20.8 15.25ZM17.2 11.25C17.0815 11.2528 16.9687 11.3011 16.8849 11.3849C16.8011 11.4687 16.7528 11.5815 16.75 11.7V13.3C16.7528 13.4185 16.8011 13.5313 16.8849 13.6151C16.9687 13.6989 17.0815 13.7472 17.2 13.75H20.8C20.9185 13.7472 21.0313 13.6989 21.1151 13.6151C21.1989 13.5313 21.2472 13.4185 21.25 13.3V11.7C21.2472 11.5815 21.1989 11.4687 21.1151 11.3849C21.0313 11.3011 20.9185 11.2528 20.8 11.25H17.2Z" fill="#158B7F"/>
  <path d="M16 5.75H9C8.80149 5.74869 8.61149 5.66925 8.47112 5.52888C8.33075 5.38851 8.25131 5.19851 8.25 5C8.25131 4.80149 8.33075 4.61149 8.47112 4.47112C8.61149 4.33075 8.80149 4.25131 9 4.25H16C16.1985 4.25131 16.3885 4.33075 16.5289 4.47112C16.6693 4.61149 16.7487 4.80149 16.75 5C16.7487 5.19851 16.6693 5.38851 16.5289 5.52888C16.3885 5.66925 16.1985 5.74869 16 5.75Z" fill="#158B7F"/>
  <path d="M12.5 5V18C12.5016 18.5299 12.7128 19.0377 13.0875 19.4125C13.4623 19.7872 13.9701 19.9984 14.5 20H16" fill="white"/>
  <path d="M16 20.75H14.5C14.1388 20.7503 13.7811 20.6793 13.4473 20.5412C13.1135 20.4031 12.8103 20.2005 12.5549 19.9451C12.2995 19.6897 12.0969 19.3865 11.9588 19.0527C11.8207 18.7189 11.7497 18.3612 11.75 18V5C11.7513 4.80149 11.8307 4.61149 11.9711 4.47112C12.1115 4.33075 12.3015 4.25131 12.5 4.25C12.6985 4.25131 12.8885 4.33075 13.0289 4.47112C13.1693 4.61149 13.2487 4.80149 13.25 5V18C13.25 18.3315 13.3817 18.6495 13.6161 18.8839C13.8505 19.1183 14.1685 19.25 14.5 19.25H16C16.1989 19.25 16.3897 19.329 16.5303 19.4697C16.671 19.6103 16.75 19.8011 16.75 20C16.75 20.1989 16.671 20.3897 16.5303 20.5303C16.3897 20.671 16.1989 20.75 16 20.75Z" fill="#158B7F"/>
  <path d="M16 13.25H12.5C12.3015 13.2487 12.1115 13.1693 11.9711 13.0289C11.8307 12.8885 11.7513 12.6985 11.75 12.5C11.7513 12.3015 11.8307 12.1115 11.9711 11.9711C12.1115 11.8307 12.3015 11.7513 12.5 11.75H16C16.1985 11.7513 16.3885 11.8307 16.5289 11.9711C16.6693 12.1115 16.7487 12.3015 16.75 12.5C16.7487 12.6985 16.6693 12.8885 16.5289 13.0289C16.3885 13.1693 16.1985 13.2487 16 13.25Z" fill="#158B7F"/>
  <path d="M20.8 22.75H17.2C16.6831 22.7492 16.1875 22.5435 15.822 22.178C15.4565 21.8125 15.2508 21.3169 15.25 20.8V19.2C15.2508 18.6831 15.4565 18.1875 15.822 17.822C16.1875 17.4565 16.6831 17.2508 17.2 17.25H20.8C21.3169 17.2508 21.8125 17.4565 22.178 17.822C22.5435 18.1875 22.7492 18.6831 22.75 19.2V20.8C22.7505 21.0562 22.7004 21.31 22.6026 21.5469C22.5048 21.7837 22.3612 21.9989 22.18 22.18C21.9989 22.3612 21.7837 22.5048 21.5469 22.6026C21.31 22.7004 21.0562 22.7505 20.8 22.75ZM17.2 18.75C17.0815 18.7528 16.9687 18.8011 16.8849 18.8849C16.8011 18.9687 16.7528 19.0815 16.75 19.2V20.8C16.7528 20.9185 16.8011 21.0313 16.8849 21.1151C16.9687 21.1989 17.0815 21.2472 17.2 21.25H20.8C20.9185 21.2472 21.0313 21.1989 21.1151 21.1151C21.1989 21.0313 21.2472 20.9185 21.25 20.8V19.2C21.2472 19.0815 21.1989 18.9687 21.1151 18.8849C21.0313 18.8011 20.9185 18.7528 20.8 18.75H17.2Z" fill="#158B7F"/>
</svg>