<svg xmlns="http://www.w3.org/2000/svg" width="259" height="258" viewBox="0 0 259 258" fill="none">
  <path d="M128.998 257.999C121.321 258.058 113.875 255.378 107.998 250.439L89.0375 234.119C86.3194 232.181 83.1253 231.02 79.7975 230.759H59.1575C50.6282 230.759 42.4482 227.371 36.417 221.339C30.3858 215.308 26.9975 207.128 26.9975 198.599V178.079C26.735 174.788 25.5726 171.633 23.6375 168.959L7.43754 149.879C2.66342 143.99 0.0581055 136.64 0.0581055 129.059C0.0581055 121.478 2.66342 114.128 7.43754 108.239L23.6375 89.1589C25.5726 86.4845 26.735 83.3295 26.9975 80.0389V59.3989C26.9975 50.8695 30.3858 42.6895 36.417 36.6583C42.4482 30.6271 50.6282 27.2389 59.1575 27.2389H79.9175C83.233 26.9223 86.4131 25.7659 89.1575 23.8789L108.118 7.55887C114.002 2.67389 121.41 0 129.058 0C136.706 0 144.113 2.67389 149.998 7.55887L168.958 23.8789C171.676 25.8164 174.87 26.9779 178.198 27.2389H198.598C207.127 27.2389 215.307 30.6271 221.338 36.6583C227.369 42.6895 230.758 50.8695 230.758 59.3989V79.7989C231.062 83.1367 232.264 86.3298 234.238 89.0389L250.558 107.999C255.443 113.883 258.116 121.291 258.116 128.939C258.116 136.587 255.443 143.994 250.558 149.879L234.238 168.839C232.264 171.548 231.062 174.741 230.758 178.079V198.479C230.758 207.008 227.369 215.188 221.338 221.219C215.307 227.251 207.127 230.639 198.598 230.639H178.198C174.882 230.955 171.702 232.112 168.958 233.999L149.998 250.319C144.16 255.34 136.697 258.07 128.998 257.999ZM59.1575 45.2389C55.404 45.2452 51.8061 46.7391 49.1519 49.3932C46.4978 52.0474 45.0039 55.6453 44.9975 59.3989V79.9189C44.73 87.4834 42.0376 94.7615 37.3175 100.679L21.1175 119.759C19.076 122.383 17.9677 125.614 17.9677 128.939C17.9677 132.264 19.076 135.494 21.1175 138.119L37.3175 157.199C42.019 163.127 44.7091 170.398 44.9975 177.959V198.479C45.0039 202.232 46.4978 205.83 49.1519 208.484C51.8061 211.139 55.404 212.633 59.1575 212.639H79.9175C87.5784 212.892 94.9491 215.63 100.918 220.439L119.878 236.759C122.525 238.8 125.774 239.908 129.118 239.908C132.461 239.908 135.71 238.8 138.358 236.759L157.318 220.439C163.314 215.68 170.668 212.948 178.318 212.639H198.718C202.471 212.633 206.069 211.139 208.723 208.484C211.377 205.83 212.871 202.232 212.878 198.479V178.079C213.131 170.418 215.868 163.047 220.678 157.079L236.998 138.119C239.039 135.471 240.146 132.222 240.146 128.879C240.146 125.536 239.039 122.286 236.998 119.639L220.678 100.679C215.868 94.7104 213.131 87.3397 212.878 79.6789V59.3989C212.871 55.6453 211.377 52.0474 208.723 49.3932C206.069 46.7391 202.471 45.2452 198.718 45.2389H178.318C170.657 44.9859 163.286 42.2482 157.318 37.4389L138.358 21.1189C135.71 19.0774 132.461 17.9702 129.118 17.9702C125.774 17.9702 122.525 19.0774 119.878 21.1189L100.858 37.5589C94.84 42.2648 87.4913 44.9523 79.8575 45.2389H59.1575Z" fill="#7BBC67"/>
</svg>