<svg xmlns="http://www.w3.org/2000/svg" width="106" height="77" viewBox="0 0 106 77" fill="none">
  <path d="M38.4713 76.0304C37.2896 76.03 36.1197 75.7967 35.0284 75.3437C33.9371 74.8907 32.9458 74.2269 32.1113 73.3904L3.08325 44.3504C2.19901 43.5265 1.48978 42.5329 0.997878 41.4289C0.505974 40.3249 0.241472 39.1331 0.220151 37.9247C0.198829 36.7163 0.421125 35.5159 0.873777 34.3953C1.32643 33.2746 2.00016 32.2566 2.85479 31.402C3.70941 30.5473 4.72742 29.8736 5.84808 29.421C6.96874 28.9683 8.16909 28.746 9.37752 28.7673C10.586 28.7886 11.7777 29.0531 12.8817 29.5451C13.9857 30.037 14.9793 30.7462 15.8032 31.6304L38.4832 54.3104L90.0832 2.71042C91.7893 1.12066 94.0459 0.255185 96.3775 0.296324C98.7091 0.337463 100.934 1.28201 102.583 2.93096C104.232 4.57992 105.176 6.80454 105.217 9.13615C105.258 11.4678 104.393 13.7243 102.803 15.4304L44.8672 73.3904C44.0284 74.2312 43.0313 74.8975 41.9335 75.3506C40.8357 75.8037 39.6589 76.0348 38.4713 76.0304Z" fill="#7BBC67"/>
</svg>