<svg width="24" height="24" viewBox="0 0 24 24" fill="none" xmlns="http://www.w3.org/2000/svg">
<g id="vuesax/outline/tag-right">
<g id="tag-right">
<path id="Vector" d="M14.67 21.6499H4.21996C3.68903 21.6502 3.16772 21.5082 2.71024 21.2388C2.25275 20.9694 1.87579 20.5823 1.61855 20.1179C1.36132 19.6534 1.2332 19.1285 1.24751 18.5978C1.26183 18.0671 1.41806 17.5498 1.69996 17.0999L4.46996 12.6699C4.57833 12.4632 4.63494 12.2333 4.63494 11.9999C4.63494 11.7665 4.57833 11.5366 4.46996 11.3299L1.69996 6.89993C1.41545 6.45058 1.25779 5.93262 1.24371 5.40096C1.22963 4.86929 1.35964 4.34372 1.61996 3.87993C1.87453 3.41367 2.25076 3.02516 2.70859 2.75574C3.16643 2.48632 3.68875 2.34608 4.21996 2.34993H15.66C16.1604 2.36909 16.6493 2.50581 17.0871 2.74903C17.5249 2.99225 17.8993 3.33514 18.18 3.74993L22.36 10.4299C22.6345 10.9112 22.7679 11.46 22.7449 12.0136C22.722 12.5672 22.5435 13.1031 22.23 13.5599L17.05 20.4599C16.7598 20.8151 16.3977 21.1048 15.9875 21.3099C15.5772 21.515 15.1282 21.6309 14.67 21.6499ZM4.21996 3.84993C3.95612 3.84715 3.69653 3.91647 3.4692 4.05041C3.24186 4.18434 3.05541 4.37781 2.92996 4.60993C2.80099 4.8404 2.73663 5.10142 2.74367 5.36543C2.75071 5.62944 2.82889 5.88666 2.96996 6.10993L5.74296 10.5399C5.99858 10.9877 6.13302 11.4944 6.13302 12.0099C6.13302 12.5255 5.99858 13.0322 5.74296 13.4799L2.97296 17.9099C2.83189 18.1332 2.75371 18.3904 2.74667 18.6544C2.73963 18.9184 2.80399 19.1795 2.93296 19.4099C3.05841 19.6421 3.24486 19.8355 3.4722 19.9695C3.69953 20.1034 3.95912 20.1727 4.22296 20.1699H14.673C15.127 20.1304 15.5489 19.9194 15.853 19.5799L21.033 12.6799C21.1673 12.4677 21.2436 12.2239 21.2541 11.973C21.2647 11.722 21.2091 11.4727 21.093 11.2499L16.913 4.56993C16.7658 4.37245 16.5782 4.20871 16.3626 4.0897C16.147 3.9707 15.9085 3.89917 15.663 3.87993H4.21996V3.84993Z" fill="#313131"/>
</g>
</g>
</svg>
