<svg xmlns="http://www.w3.org/2000/svg" width="24" height="24" viewBox="0 0 24 24" fill="none">
  <path d="M9.32992 2.34995H19.7799C20.3108 2.34968 20.8322 2.49163 21.2896 2.76106C21.7471 3.03049 22.1241 3.41756 22.3813 3.88201C22.6386 4.34647 22.7667 4.87135 22.7524 5.40209C22.738 5.93282 22.5818 6.45004 22.2999 6.89995L19.5299 11.3299C19.4216 11.5367 19.3649 11.7666 19.3649 11.9999C19.3649 12.2333 19.4216 12.4632 19.5299 12.6699L22.2999 17.0999C22.5844 17.5493 22.7421 18.0673 22.7562 18.5989C22.7703 19.1306 22.6402 19.6562 22.3799 20.1199C22.1253 20.5862 21.7491 20.9747 21.2913 21.2441C20.8334 21.5136 20.3111 21.6538 19.7799 21.6499H8.33992C7.83946 21.6308 7.35055 21.4941 6.91275 21.2508C6.47495 21.0076 6.10058 20.6647 5.81992 20.2499L1.63992 13.5699C1.36537 13.0887 1.23194 12.5398 1.25494 11.9863C1.27793 11.4327 1.45641 10.8968 1.76992 10.4399L6.94992 3.53995C7.24008 3.18475 7.60219 2.89506 8.01242 2.68995C8.42264 2.48484 8.87167 2.36896 9.32992 2.34995ZM19.7799 20.1499C20.0438 20.1527 20.3033 20.0834 20.5307 19.9495C20.758 19.8155 20.9445 19.6221 21.0699 19.3899C21.1989 19.1595 21.2633 18.8985 21.2562 18.6344C21.2492 18.3704 21.171 18.1132 21.0299 17.8899L18.2569 13.4599C18.0013 13.0122 17.8669 12.5055 17.8669 11.9899C17.8669 11.4744 18.0013 10.9677 18.2569 10.5199L21.0269 6.08995C21.168 5.86668 21.2462 5.60946 21.2532 5.34545C21.2603 5.08144 21.1959 4.82042 21.0669 4.58995C20.9415 4.35782 20.755 4.16436 20.5277 4.03042C20.3003 3.89649 20.0408 3.82717 19.7769 3.82995H9.32692C8.87289 3.8695 8.45097 4.08046 8.14692 4.41995L2.96692 11.3199C2.83255 11.5322 2.75629 11.776 2.74576 12.0269C2.73522 12.2779 2.7908 12.5272 2.90692 12.7499L7.08692 19.4299C7.23403 19.6274 7.42168 19.7912 7.63727 19.9102C7.85286 20.0292 8.09141 20.1007 8.33692 20.1199H19.7799V20.1499Z" fill="#313131"/>
</svg>