<svg xmlns="http://www.w3.org/2000/svg" width="48" height="48" viewBox="0 0 48 48" fill="none">
  <path d="M32.38 4H15.62C8.34 4 4 8.34 4 15.62V32.38C4 39.66 8.34 44 15.62 44H32.38C39.66 44 44 39.66 44 32.38V15.62C44 8.34 39.66 4 32.38 4ZM19.94 29.8L15.44 34.3C15.3014 34.44 15.1363 34.5511 14.9543 34.6266C14.7723 34.7022 14.577 34.7407 14.38 34.74C14.1827 34.7427 13.9869 34.705 13.8046 34.6293C13.6223 34.5537 13.4574 34.4416 13.32 34.3L11.82 32.8C11.6777 32.6625 11.5646 32.4978 11.4873 32.3157C11.4101 32.1336 11.3702 31.9378 11.3702 31.74C11.3702 31.5422 11.4101 31.3464 11.4873 31.1643C11.5646 30.9822 11.6777 30.8175 11.82 30.68C12.1023 30.401 12.4831 30.2446 12.88 30.2446C13.2769 30.2446 13.6577 30.401 13.94 30.68L14.38 31.12L17.82 27.68C17.9573 27.5326 18.1229 27.4144 18.3069 27.3324C18.4909 27.2505 18.6895 27.2064 18.891 27.2028C19.0924 27.1993 19.2924 27.2363 19.4792 27.3118C19.666 27.3872 19.8356 27.4995 19.9781 27.6419C20.1205 27.7844 20.2328 27.954 20.3082 28.1408C20.3837 28.3276 20.4207 28.5276 20.4172 28.729C20.4136 28.9305 20.3695 29.1291 20.2876 29.3131C20.2056 29.4971 20.0874 29.6627 19.94 29.8ZM19.94 15.8L15.44 20.3C15.3014 20.44 15.1363 20.5511 14.9543 20.6266C14.7723 20.7022 14.577 20.7407 14.38 20.74C14.1827 20.7427 13.9869 20.705 13.8046 20.6293C13.6223 20.5537 13.4574 20.4416 13.32 20.3L11.82 18.8C11.6777 18.6625 11.5646 18.4978 11.4873 18.3157C11.4101 18.1336 11.3702 17.9378 11.3702 17.74C11.3702 17.5422 11.4101 17.3464 11.4873 17.1643C11.5646 16.9822 11.6777 16.8175 11.82 16.68C12.1023 16.401 12.4831 16.2446 12.88 16.2446C13.2769 16.2446 13.6577 16.401 13.94 16.68L14.38 17.12L17.82 13.68C17.9573 13.5326 18.1229 13.4144 18.3069 13.3324C18.4909 13.2505 18.6895 13.2064 18.891 13.2028C19.0924 13.1993 19.2924 13.2363 19.4792 13.3118C19.666 13.3872 19.8356 13.4995 19.9781 13.6419C20.1205 13.7844 20.2328 13.954 20.3082 14.1408C20.3837 14.3276 20.4207 14.5276 20.4172 14.729C20.4136 14.9305 20.3695 15.1291 20.2876 15.3131C20.2056 15.4971 20.0874 15.6627 19.94 15.8ZM35.12 33.24H24.62C24.2222 33.24 23.8406 33.082 23.5593 32.8007C23.278 32.5194 23.12 32.1378 23.12 31.74C23.12 31.3422 23.278 30.9606 23.5593 30.6793C23.8406 30.398 24.2222 30.24 24.62 30.24H35.12C35.5178 30.24 35.8994 30.398 36.1807 30.6793C36.462 30.9606 36.62 31.3422 36.62 31.74C36.62 32.1378 36.462 32.5194 36.1807 32.8007C35.8994 33.082 35.5178 33.24 35.12 33.24ZM35.12 19.24H24.62C24.2222 19.24 23.8406 19.082 23.5593 18.8007C23.278 18.5194 23.12 18.1378 23.12 17.74C23.12 17.3422 23.278 16.9606 23.5593 16.6793C23.8406 16.398 24.2222 16.24 24.62 16.24H35.12C35.5178 16.24 35.8994 16.398 36.1807 16.6793C36.462 16.9606 36.62 17.3422 36.62 17.74C36.62 18.1378 36.462 18.5194 36.1807 18.8007C35.8994 19.082 35.5178 19.24 35.12 19.24Z" fill="white"/>
</svg>