<svg width="30" height="30" viewBox="0 0 30 30" fill="none" xmlns="http://www.w3.org/2000/svg">
<path d="M20.2375 2.5H9.7625C5.2125 2.5 2.5 5.2125 2.5 9.7625V20.225C2.5 24.7875 5.2125 27.5 9.7625 27.5H20.225C24.775 27.5 27.4875 24.7875 27.4875 20.2375V9.7625C27.5 5.2125 24.7875 2.5 20.2375 2.5ZM20.975 12.125L13.8875 19.2125C13.8006 19.2997 13.6974 19.3689 13.5837 19.4162C13.47 19.4634 13.3481 19.4877 13.225 19.4877C13.1019 19.4877 12.98 19.4634 12.8663 19.4162C12.7526 19.3689 12.6494 19.2997 12.5625 19.2125L9.025 15.675C8.93289 15.5892 8.85901 15.4857 8.80777 15.3707C8.75653 15.2557 8.72898 15.1315 8.72676 15.0057C8.72454 14.8798 8.7477 14.7547 8.79485 14.638C8.842 14.5213 8.91218 14.4152 9.0012 14.3262C9.09023 14.2372 9.19627 14.167 9.313 14.1198C9.42974 14.0727 9.55477 14.0495 9.68065 14.0518C9.80653 14.054 9.93067 14.0815 10.0457 14.1328C10.1607 14.184 10.2642 14.2579 10.35 14.35L13.225 17.225L19.65 10.8C19.8277 10.6344 20.0628 10.5442 20.3057 10.5485C20.5485 10.5528 20.7803 10.6512 20.952 10.823C21.1238 10.9947 21.2222 11.2265 21.2265 11.4693C21.2308 11.7122 21.1406 11.9473 20.975 12.125Z" fill="#158B7F"/>
</svg>
