<svg xmlns="http://www.w3.org/2000/svg" width="20" height="20" viewBox="0 0 20 20" fill="none">
  <path d="M9.99935 1.66667C8.35118 1.66667 6.74001 2.15541 5.3696 3.07109C3.99919 3.98677 2.93109 5.28826 2.30036 6.81097C1.66963 8.33369 1.5046 10.0092 1.82614 11.6258C2.14769 13.2423 2.94136 14.7271 4.1068 15.8926C5.27223 17.058 6.75709 17.8517 8.3736 18.1732C9.99011 18.4948 11.6657 18.3297 13.1884 17.699C14.7111 17.0683 16.0126 16.0002 16.9283 14.6298C17.8439 13.2593 18.3327 11.6482 18.3327 10C18.3292 7.79095 17.4501 5.67338 15.888 4.11134C14.326 2.5493 12.2084 1.67019 9.99935 1.66667ZM13.9827 8.08333L9.25769 12.8083C9.19977 12.8665 9.13094 12.9126 9.05515 12.9441C8.97936 12.9756 8.89809 12.9918 8.81602 12.9918C8.73395 12.9918 8.65268 12.9756 8.57689 12.9441C8.5011 12.9126 8.43227 12.8665 8.37435 12.8083L6.01602 10.45C5.95461 10.3928 5.90536 10.3238 5.8712 10.2471C5.83704 10.1705 5.81867 10.0877 5.81719 10.0038C5.81571 9.91985 5.83115 9.83649 5.86258 9.75867C5.89402 9.68085 5.9408 9.61015 6.00015 9.5508C6.0595 9.49145 6.1302 9.44467 6.20802 9.41323C6.28584 9.3818 6.3692 9.36636 6.45312 9.36784C6.53704 9.36932 6.6198 9.38769 6.69647 9.42185C6.77313 9.45601 6.84213 9.50526 6.89935 9.56667L8.81602 11.4833L13.0994 7.2C13.2178 7.0896 13.3745 7.0295 13.5365 7.03236C13.6984 7.03521 13.8529 7.10081 13.9674 7.21532C14.0819 7.32983 14.1475 7.48432 14.1503 7.64623C14.1532 7.80815 14.0931 7.96486 13.9827 8.08333Z" fill="#158B7F"/>
</svg>