<svg xmlns="http://www.w3.org/2000/svg" width="29" height="29" viewBox="0 0 29 29" fill="none">
  <path d="M14.4997 27.4896C12.2293 27.4896 10.0099 26.8163 8.1222 25.555C6.23446 24.2937 4.76314 22.5009 3.89431 20.4033C3.02548 18.3058 2.79816 15.9977 3.24108 13.7709C3.68401 11.5442 4.77729 9.49882 6.38268 7.89343C7.98807 6.28803 10.0335 5.19475 12.2602 4.75182C14.4869 4.3089 16.795 4.53622 18.8926 5.40505C20.9901 6.27389 22.7829 7.7452 24.0443 9.63294C25.3056 11.5207 25.9788 13.7401 25.9788 16.0104C25.976 19.054 24.7656 21.9721 22.6135 24.1242C20.4614 26.2764 17.5433 27.4867 14.4997 27.4896ZM14.4997 6.34376C12.5878 6.34376 10.7188 6.9107 9.12917 7.97288C7.53949 9.03507 6.30049 10.5448 5.56884 12.3111C4.8372 14.0775 4.64576 16.0211 5.01876 17.8963C5.39175 19.7714 6.31241 21.4939 7.66431 22.8458C9.01622 24.1977 10.7387 25.1184 12.6138 25.4913C14.489 25.8643 16.4326 25.6729 18.199 24.9413C19.9653 24.2096 21.475 22.9706 22.5372 21.3809C23.5994 19.7913 24.1663 17.9223 24.1663 16.0104C24.1628 13.4477 23.1433 10.991 21.3312 9.17894C19.5191 7.36685 17.0624 6.34727 14.4997 6.34376Z" fill="#313131"/>
  <path d="M14.5 16.6147C14.2601 16.6131 14.0305 16.5171 13.8609 16.3475C13.6913 16.1779 13.5953 15.9483 13.5938 15.7084V9.66675C13.5953 9.42688 13.6913 9.1973 13.8609 9.02768C14.0305 8.85807 14.2601 8.76208 14.5 8.7605C14.7399 8.76208 14.9695 8.85807 15.1391 9.02768C15.3087 9.1973 15.4047 9.42688 15.4062 9.66675V15.7084C15.4047 15.9483 15.3087 16.1779 15.1391 16.3475C14.9695 16.5171 14.7399 16.6131 14.5 16.6147Z" fill="#313131"/>
  <path d="M18.125 3.323H10.875C10.6351 3.32141 10.4055 3.22543 10.2359 3.05581C10.0663 2.8862 9.97033 2.65661 9.96875 2.41675C9.97033 2.17688 10.0663 1.9473 10.2359 1.77768C10.4055 1.60807 10.6351 1.51208 10.875 1.5105L18.125 1.5105C18.3649 1.51208 18.5945 1.60807 18.7641 1.77768C18.9337 1.9473 19.0297 2.17688 19.0312 2.41675C19.0297 2.65661 18.9337 2.8862 18.7641 3.05581C18.5945 3.22543 18.3649 3.32141 18.125 3.323Z" fill="#313131"/>
</svg>