<svg width="48" height="48" viewBox="0 0 48 48" fill="none" xmlns="http://www.w3.org/2000/svg">
<path d="M29.7793 6.90001H18.2193C18.03 6.90081 17.8424 6.8641 17.6673 6.79202C17.4923 6.71993 17.3332 6.61389 17.1993 6.48002C17.0654 6.34614 16.9594 6.18708 16.8873 6.01201C16.8152 5.83695 16.7785 5.64934 16.7793 5.46001C16.7772 5.0756 16.9276 4.70604 17.1975 4.43235C17.4675 4.15866 17.8349 4.00318 18.2193 4.00001H29.7793C29.9686 3.99922 30.1563 4.03592 30.3313 4.10801C30.5064 4.18009 30.6654 4.28613 30.7993 4.42001C30.9332 4.55388 31.0392 4.71294 31.1113 4.88801C31.1834 5.06308 31.2201 5.25069 31.2193 5.44001C31.2214 5.82442 31.0711 6.19399 30.8011 6.46768C30.5312 6.74137 30.1637 6.89684 29.7793 6.90001Z" fill="white"/>
<path d="M39.9403 30.0003H34.0603C33.5145 29.9497 32.9643 30.0201 32.4487 30.2063C31.9332 30.3924 31.465 30.6899 31.0775 31.0775C30.6899 31.465 30.3924 31.9332 30.2063 32.4487C30.0201 32.9643 29.9497 33.5145 30.0003 34.0603V39.9403C29.9497 40.486 30.0201 41.0362 30.2063 41.5518C30.3924 42.0673 30.6899 42.5355 31.0775 42.9231C31.465 43.3106 31.9332 43.6081 32.4487 43.7942C32.9643 43.9804 33.5145 44.0508 34.0603 44.0003H39.9403C40.486 44.0508 41.0362 43.9804 41.5518 43.7942C42.0673 43.6081 42.5355 43.3106 42.9231 42.9231C43.3106 42.5355 43.6081 42.0673 43.7942 41.5518C43.9804 41.0362 44.0508 40.486 44.0003 39.9403V34.0603C44.0508 33.5145 43.9804 32.9643 43.7942 32.4487C43.6081 31.9332 43.3106 31.465 42.9231 31.0775C42.5355 30.6899 42.0673 30.3924 41.5518 30.2063C41.0362 30.0201 40.486 29.9497 39.9403 30.0003ZM39.3803 38.9203L37.0203 40.2803C36.5988 40.5412 36.1158 40.6861 35.6203 40.7003C35.2976 40.7042 34.9799 40.6213 34.7003 40.4603C34.362 40.2307 34.091 39.9151 33.9152 39.546C33.7395 39.1769 33.6653 38.7676 33.7003 38.3603V35.6403C33.6653 35.2329 33.7395 34.8236 33.9152 34.4545C34.091 34.0854 34.362 33.7698 34.7003 33.5403C35.0678 33.3602 35.4768 33.282 35.8848 33.3136C36.2928 33.3453 36.6849 33.4857 37.0203 33.7203L39.3803 35.0803C39.7497 35.2559 40.0662 35.526 40.298 35.8631C40.5297 36.2002 40.6685 36.5924 40.7003 37.0003C40.6728 37.4093 40.5357 37.8034 40.3035 38.1412C40.0712 38.4791 39.7523 38.7481 39.3803 38.9203Z" fill="white"/>
<path d="M28.0002 39.9398V34.0598C27.954 33.2519 28.0792 32.4434 28.3674 31.6873C28.6556 30.9312 29.1004 30.2445 29.6726 29.6723C30.2448 29.1001 30.9315 28.6553 31.6876 28.3671C32.4438 28.0788 33.2523 27.9537 34.0602 27.9998H39.9402C40.383 27.9983 40.8249 28.0384 41.2602 28.1198C41.3002 27.6398 41.3402 27.1598 41.3402 26.6598C41.3402 23.2303 40.3232 19.8778 38.4178 17.0262C36.5125 14.1747 33.8044 11.9522 30.6359 10.6398C27.4674 9.32734 23.9809 8.98395 20.6173 9.65302C17.2537 10.3221 14.164 11.9736 11.7389 14.3986C9.31389 16.8236 7.66242 19.9133 6.99335 23.277C6.32428 26.6406 6.66767 30.1271 7.98009 33.2956C9.29252 36.464 11.515 39.1722 14.3666 41.0775C17.2181 42.9829 20.5706 43.9998 24.0002 43.9998C25.6523 43.9864 27.2946 43.7441 28.8802 43.2798C28.2881 42.2674 27.9838 41.1125 28.0002 39.9398ZM25.5002 25.9998C25.5002 26.3977 25.3421 26.7792 25.0608 27.0605C24.7795 27.3418 24.398 27.4998 24.0002 27.4998C23.6023 27.4998 23.2208 27.3418 22.9395 27.0605C22.6582 26.7792 22.5002 26.3977 22.5002 25.9998V15.9998C22.5002 15.602 22.6582 15.2205 22.9395 14.9392C23.2208 14.6579 23.6023 14.4998 24.0002 14.4998C24.398 14.4998 24.7795 14.6579 25.0608 14.9392C25.3421 15.2205 25.5002 15.602 25.5002 15.9998V25.9998Z" fill="white"/>
</svg>
