<svg xmlns="http://www.w3.org/2000/svg" width="24" height="24" viewBox="0 0 24 24" fill="none">
  <path d="M11.9998 4.6499C10.2841 4.64892 8.60656 5.15673 7.17941 6.10913C5.75227 7.06153 4.63959 8.41574 3.98209 10.0005C3.32458 11.5853 3.15179 13.3294 3.48554 15.0124C3.8193 16.6954 4.64462 18.2416 5.85714 19.4555C7.06966 20.6694 8.61492 21.4965 10.2975 21.8322C11.9801 22.1679 13.7245 21.9971 15.31 21.3415C16.8955 20.6858 18.251 19.5747 19.205 18.1486C20.1591 16.7226 20.6688 15.0457 20.6698 13.3299C20.6696 11.0296 19.7564 8.82351 18.1308 7.19604C16.5052 5.56857 14.3001 4.65282 11.9998 4.6499ZM12.7498 12.9999C12.7498 13.1988 12.6708 13.3896 12.5302 13.5302C12.3895 13.6709 12.1987 13.7499 11.9998 13.7499C11.8009 13.7499 11.6101 13.6709 11.4695 13.5302C11.3288 13.3896 11.2498 13.1988 11.2498 12.9999V7.9999C11.2498 7.80099 11.3288 7.61023 11.4695 7.46957C11.6101 7.32892 11.8009 7.2499 11.9998 7.2499C12.1987 7.2499 12.3895 7.32892 12.5302 7.46957C12.6708 7.61023 12.7498 7.80099 12.7498 7.9999V12.9999Z" fill="white"/>
  <path d="M14.8901 3.45001H9.11015C9.01548 3.4504 8.92168 3.43205 8.83415 3.39601C8.74661 3.35997 8.66708 3.30695 8.60015 3.24001C8.53321 3.17307 8.48019 3.09354 8.44415 3.00601C8.4081 2.91847 8.38975 2.82467 8.39015 2.73001C8.38908 2.5378 8.46428 2.35302 8.59925 2.21617C8.73422 2.07933 8.91795 2.00159 9.11015 2.00001H14.8901C14.9848 1.99961 15.0786 2.01796 15.1661 2.054C15.2537 2.09005 15.3332 2.14307 15.4001 2.21C15.4671 2.27694 15.5201 2.35647 15.5561 2.44401C15.5922 2.53154 15.6105 2.62534 15.6101 2.72001C15.6112 2.91221 15.536 3.09699 15.401 3.23384C15.2661 3.37068 15.0823 3.44842 14.8901 3.45001Z" fill="white"/>
</svg>