<svg xmlns="http://www.w3.org/2000/svg" width="24" height="24" viewBox="0 0 24 24" fill="none">
  <path d="M12 22.75C10.1211 22.75 8.28435 22.1928 6.72209 21.149C5.15982 20.1051 3.94218 18.6214 3.22315 16.8855C2.50412 15.1496 2.31598 13.2395 2.68254 11.3966C3.0491 9.55383 3.95389 7.86109 5.28249 6.53249C6.61109 5.20389 8.30383 4.2991 10.1466 3.93254C11.9895 3.56598 13.8996 3.75412 15.6355 4.47315C17.3714 5.19218 18.8551 6.40982 19.899 7.97209C20.9428 9.53435 21.5 11.3711 21.5 13.25C21.4976 15.7688 20.496 18.1838 18.7149 19.9649C16.9338 21.746 14.5188 22.7476 12 22.75ZM12 5.25C10.4178 5.25 8.87104 5.7192 7.55544 6.59825C6.23985 7.4773 5.21447 8.72673 4.60897 10.1885C4.00347 11.6503 3.84504 13.2589 4.15372 14.8107C4.4624 16.3626 5.22433 17.788 6.34315 18.9069C7.46197 20.0257 8.88743 20.7876 10.4393 21.0963C11.9911 21.405 13.5997 21.2465 15.0615 20.641C16.5233 20.0355 17.7727 19.0102 18.6518 17.6946C19.5308 16.379 20 14.8323 20 13.25C19.9971 11.1292 19.1533 9.09602 17.6536 7.59636C16.154 6.0967 14.1208 5.25291 12 5.25Z" fill="#5A5A5A"/>
  <path d="M12 13.75C11.8015 13.7487 11.6115 13.6693 11.4711 13.5289C11.3307 13.3885 11.2513 13.1985 11.25 13V8C11.2513 7.80149 11.3307 7.61149 11.4711 7.47112C11.6115 7.33075 11.8015 7.25131 12 7.25C12.1985 7.25131 12.3885 7.33075 12.5289 7.47112C12.6693 7.61149 12.7487 7.80149 12.75 8V13C12.7487 13.1985 12.6693 13.3885 12.5289 13.5289C12.3885 13.6693 12.1985 13.7487 12 13.75Z" fill="#5A5A5A"/>
  <path d="M15 2.75H9C8.80149 2.74869 8.61149 2.66925 8.47112 2.52888C8.33075 2.38851 8.25131 2.19851 8.25 2C8.25131 1.80149 8.33075 1.61149 8.47112 1.47112C8.61149 1.33075 8.80149 1.25131 9 1.25L15 1.25C15.1985 1.25131 15.3885 1.33075 15.5289 1.47112C15.6693 1.61149 15.7487 1.80149 15.75 2C15.7487 2.19851 15.6693 2.38851 15.5289 2.52888C15.3885 2.66925 15.1985 2.74869 15 2.75Z" fill="#5A5A5A"/>
</svg>