<svg xmlns="http://www.w3.org/2000/svg" width="24" height="24" viewBox="0 0 24 24" fill="none">
  <path d="M21.0702 5.23C19.4602 5.07 17.8502 4.95 16.2302 4.86V4.85L16.0102 3.55C15.8602 2.63 15.6402 1.25 13.3002 1.25H10.6802C8.34624 1.25 8.13024 2.57 7.97024 3.54L7.76024 4.82C6.83024 4.88 5.90024 4.94 4.97024 5.03L2.93024 5.23C2.73265 5.24857 2.55053 5.34486 2.42394 5.4977C2.29736 5.65055 2.23667 5.84741 2.25524 6.045C2.2738 6.24259 2.3701 6.42471 2.52294 6.55129C2.67578 6.67788 2.87265 6.73856 3.07024 6.72L5.11024 6.52C10.3775 6.06531 15.6769 6.13566 20.9302 6.73H21.0102C21.1971 6.72924 21.3772 6.65936 21.5156 6.53382C21.6541 6.40827 21.7412 6.23594 21.7602 6.05C21.7753 5.85024 21.7115 5.65253 21.5825 5.49925C21.4535 5.34596 21.2696 5.24931 21.0702 5.23Z" fill="white"/>
  <path d="M19.2279 8.14001C19.1102 8.01711 18.969 7.91922 18.8126 7.8522C18.6563 7.78519 18.488 7.75043 18.3179 7.75001H5.67987C5.50961 7.7495 5.34104 7.78384 5.18454 7.85091C5.02804 7.91798 4.88693 8.01636 4.76987 8.14001C4.65306 8.26596 4.56262 8.41402 4.50389 8.57545C4.44516 8.73688 4.41931 8.90843 4.42787 9.08001L5.04787 19.34C5.15787 20.86 5.29787 22.76 8.78787 22.76H15.2079C18.6979 22.76 18.8379 20.87 18.9479 19.34L19.5679 9.09001C19.5774 8.91699 19.5522 8.74382 19.4938 8.58067C19.4354 8.41753 19.345 8.2677 19.2279 8.14001ZM13.6599 17.75H10.3279C10.129 17.75 9.93819 17.671 9.79754 17.5303C9.65689 17.3897 9.57787 17.1989 9.57787 17C9.57787 16.8011 9.65689 16.6103 9.79754 16.4697C9.93819 16.329 10.129 16.25 10.3279 16.25H13.6579C13.8568 16.25 14.0475 16.329 14.1882 16.4697C14.3289 16.6103 14.4079 16.8011 14.4079 17C14.4079 17.1989 14.3289 17.3897 14.1882 17.5303C14.0475 17.671 13.8568 17.75 13.6579 17.75H13.6599ZM14.4999 13.75H9.49987C9.30096 13.75 9.11019 13.671 8.96954 13.5303C8.82889 13.3897 8.74987 13.1989 8.74987 13C8.74987 12.8011 8.82889 12.6103 8.96954 12.4697C9.11019 12.329 9.30096 12.25 9.49987 12.25H14.4999C14.6988 12.25 14.8895 12.329 15.0302 12.4697C15.1709 12.6103 15.2499 12.8011 15.2499 13C15.2499 13.1989 15.1709 13.3897 15.0302 13.5303C14.8895 13.671 14.6988 13.75 14.4999 13.75Z" fill="white"/>
</svg>