<svg xmlns="http://www.w3.org/2000/svg" width="186" height="12" viewBox="0 0 186 12" fill="none">
  <path d="M185.018 4.39555C185.018 4.39555 132.216 0.892578 86.4253 0.892578C40.6344 0.892578 3.18999 3.62478 1.85434 4.39555C1.12703 4.86004 0.568744 5.54619 0.262109 6.35246C-0.0445255 7.15873 -0.083208 8.04224 0.15181 8.87219C0.352755 9.59384 0.774418 10.2347 1.35779 10.7051C1.94117 11.1755 2.65709 11.4519 3.40541 11.4957C4.47966 11.4603 41.1684 7.11257 86.4253 6.04638C131.682 4.98019 184.293 7.28918 185.018 7.28582C185.457 7.07052 185.8 6.6985 185.978 6.24318C186.07 5.73867 185.899 4.58781 185.018 4.39329" fill="#158B7F"/>
</svg>