<svg xmlns="http://www.w3.org/2000/svg" width="35" height="35" viewBox="0 0 35 35" fill="none">
  <rect opacity="0.1" width="35" height="35" rx="4" fill="#FFC800"/>
  <path d="M9.85156 22.07V26.6533" stroke="#FFC800" stroke-width="1.5" stroke-linecap="round" stroke-linejoin="round"/>
  <path d="M27.1664 18C27.1664 20.4312 26.2006 22.7627 24.4815 24.4818C22.7624 26.2009 20.4308 27.1667 17.9997 27.1667C12.9397 27.1667 9.85053 22.07 9.85053 22.07H13.9939M8.83303 18C8.83037 16.7955 9.06566 15.6023 9.52539 14.4889C9.98511 13.3756 10.6602 12.364 11.512 11.5123C12.3637 10.6605 13.3753 9.98542 14.4886 9.52569C15.602 9.06596 16.7952 8.83068 17.9997 8.83334C19.8262 8.87659 21.6149 9.36307 23.2117 10.2509C24.8086 11.1387 26.1657 12.4013 27.1664 13.93M27.1664 13.93V9.34667M27.1664 13.93H23.0964" stroke="#FFC800" stroke-width="1.5" stroke-linecap="round" stroke-linejoin="round"/>
</svg>