<svg xmlns="http://www.w3.org/2000/svg" width="24" height="24" viewBox="0 0 24 24" fill="none">
  <path d="M3.11035 16.4399V21.4399" stroke="#5A5A5A" stroke-width="1.5" stroke-linecap="round" stroke-linejoin="round"/>
  <path d="M22 12C22 14.6522 20.9465 17.1957 19.0711 19.0711C17.1957 20.9465 14.6522 22 12 22C6.48002 22 3.11002 16.44 3.11002 16.44H7.63002M2.00002 12C1.99712 10.686 2.2538 9.38433 2.75532 8.16976C3.25684 6.9552 3.99332 5.85165 4.92249 4.92249C5.85165 3.99332 6.9552 3.25684 8.16976 2.75532C9.38433 2.2538 10.686 1.99712 12 2.00002C13.9926 2.04721 15.9439 2.57792 17.6859 3.54647C19.4279 4.51502 20.9084 5.89239 22 7.56002M22 7.56002V2.56002M22 7.56002H17.56" stroke="#5A5A5A" stroke-width="1.5" stroke-linecap="round" stroke-linejoin="round"/>
</svg>