<svg xmlns="http://www.w3.org/2000/svg" width="24" height="24" viewBox="0 0 24 24" fill="none">
  <path d="M12.0002 22.745C11.3157 22.7468 10.6429 22.5674 10.0502 22.225L4.11016 18.795C3.51941 18.4509 3.02875 17.9585 2.68673 17.3666C2.34472 16.7746 2.1632 16.1036 2.16016 15.42V8.57998C2.16233 7.89549 2.34343 7.22346 2.68549 6.63056C3.02755 6.03766 3.51868 5.54449 4.11016 5.19998L10.0502 1.76998C10.6425 1.42611 11.3152 1.245 12.0002 1.245C12.6851 1.245 13.3578 1.42611 13.9502 1.76998L19.8902 5.19998C20.4816 5.54449 20.9728 6.03766 21.3148 6.63056C21.6569 7.22346 21.838 7.89549 21.8402 8.57998V15.42C21.838 16.1045 21.6569 16.7765 21.3148 17.3694C20.9728 17.9623 20.4816 18.4555 19.8902 18.8L13.9502 22.23C13.357 22.5706 12.6842 22.7483 12.0002 22.745ZM12.0002 2.74498C11.5793 2.74686 11.1661 2.85706 10.8002 3.06498L4.86016 6.49998C4.49549 6.71122 4.19271 7.01454 3.98211 7.37957C3.77152 7.74461 3.66049 8.15856 3.66016 8.57998V15.42C3.6618 15.8411 3.77337 16.2546 3.98383 16.6194C4.1943 16.9842 4.49637 17.2877 4.86016 17.5L10.8002 20.93C11.1648 21.1412 11.5787 21.2525 12.0002 21.2525C12.4216 21.2525 12.8355 21.1412 13.2002 20.93L19.1402 17.5C19.5048 17.2887 19.8076 16.9854 20.0182 16.6204C20.2288 16.2554 20.3398 15.8414 20.3402 15.42V8.57998C20.3385 8.15882 20.2269 7.74538 20.0165 7.38057C19.806 7.01576 19.5039 6.71222 19.1402 6.49998L13.2002 3.06998C12.8347 2.86032 12.4214 2.74838 12.0002 2.74498Z" fill="#5A5A5A"/>
  <path d="M11.9999 11.75C11.3908 11.75 10.7953 11.5693 10.2888 11.2309C9.78226 10.8925 9.38749 10.4114 9.15437 9.84863C8.92126 9.28584 8.86026 8.66655 8.9791 8.06909C9.09795 7.47163 9.39129 6.92282 9.82203 6.49208C10.2528 6.06133 10.8016 5.76799 11.399 5.64915C11.9965 5.53031 12.6158 5.5913 13.1786 5.82442C13.7414 6.05754 14.2224 6.45231 14.5608 6.95881C14.8993 7.46531 15.0799 8.0608 15.0799 8.66997C15.0797 9.48675 14.7551 10.27 14.1775 10.8476C13.6 11.4251 12.8167 11.7497 11.9999 11.75ZM11.9999 7.08997C11.6874 7.08997 11.382 7.18263 11.1221 7.35625C10.8623 7.52986 10.6598 7.77662 10.5402 8.06533C10.4206 8.35403 10.3893 8.67172 10.4503 8.97821C10.5112 9.2847 10.6617 9.56623 10.8827 9.7872C11.1037 10.0082 11.3852 10.1586 11.6917 10.2196C11.9982 10.2806 12.3159 10.2493 12.6046 10.1297C12.8933 10.0101 13.14 9.8076 13.3136 9.54777C13.4873 9.28794 13.5799 8.98246 13.5799 8.66997C13.5791 8.25117 13.4124 7.84975 13.1163 7.55361C12.8201 7.25748 12.4187 7.09076 11.9999 7.08997Z" fill="#5A5A5A"/>
  <path d="M16 17.41C15.8015 17.4087 15.6115 17.3293 15.4711 17.1889C15.3307 17.0485 15.2513 16.8585 15.25 16.66C15.25 15.28 13.79 14.15 12 14.15C10.21 14.15 8.75 15.28 8.75 16.66C8.74869 16.8585 8.66925 17.0485 8.52888 17.1889C8.38851 17.3293 8.19851 17.4087 8 17.41C7.80149 17.4087 7.61149 17.3293 7.47112 17.1889C7.33075 17.0485 7.25131 16.8585 7.25 16.66C7.25 14.45 9.38 12.65 12 12.65C14.62 12.65 16.75 14.45 16.75 16.66C16.7487 16.8585 16.6693 17.0485 16.5289 17.1889C16.3885 17.3293 16.1985 17.4087 16 17.41Z" fill="#5A5A5A"/>
</svg>