<svg width="26" height="26" viewBox="0 0 26 26" fill="none" xmlns="http://www.w3.org/2000/svg">
<path d="M15.88 11.938H16.499C18.429 11.938 19.999 10.368 19.999 8.438V4.5C19.999 2.57 18.429 1 16.499 1H9.499C7.569 1 5.999 2.57 5.999 4.5V8.438C5.999 10.368 7.569 11.938 9.499 11.938H10.153C10.275 11.938 10.393 11.982 10.484 12.062L12.318 13.679C12.513 13.852 12.757 13.938 13.001 13.938C13.243 13.938 13.483 13.853 13.674 13.683L15.552 12.059C15.642 11.981 15.76 11.938 15.88 11.938ZM12.982 12.93L11.145 11.311C10.871 11.071 10.519 10.938 10.154 10.938H9.5C8.122 10.938 7 9.817 7 8.438V4.5C7 3.121 8.122 2 9.5 2H16.5C17.878 2 19 3.121 19 4.5V8.438C19 9.817 17.878 10.938 16.5 10.938H15.881C15.52 10.938 15.172 11.068 14.9 11.303L12.983 12.93H12.982ZM16.851 5.355L13.787 8.38C13.413 8.749 12.922 8.934 12.431 8.934C11.94 8.934 11.452 8.751 11.079 8.384L9.554 6.893C9.357 6.7 9.353 6.383 9.546 6.186C9.739 5.989 10.057 5.987 10.253 6.178L11.779 7.67C12.139 8.024 12.725 8.024 13.084 7.67L16.148 4.645C16.344 4.45 16.66 4.453 16.855 4.649C17.049 4.845 17.047 5.163 16.85 5.356L16.851 5.355ZM7.694 17.506C7.408 16.859 7.009 16.722 6.5 16.722C5.991 16.722 5.591 16.859 5.298 17.526L3.944 21.56C3.826 21.912 4.088 22.277 4.46 22.277C4.693 22.277 4.899 22.129 4.975 21.909L5.229 21.166H7.773L8.027 21.909C8.102 22.129 8.309 22.277 8.541 22.277C8.913 22.277 9.175 21.912 9.056 21.56L7.694 17.505V17.506ZM5.607 20.055L6.332 17.934C6.354 17.887 6.444 17.832 6.499 17.832C6.556 17.832 6.641 17.879 6.659 17.915L7.391 20.054L5.607 20.055ZM21.507 19.206C21.65 18.952 21.73 18.657 21.721 18.343C21.697 17.432 20.92 16.721 20.009 16.721H19.161C18.073 16.721 17.278 17.517 17.278 18.499V20.499C17.278 21.481 18.074 22.277 19.056 22.277H20.568C21.443 22.277 22.203 21.62 22.273 20.747C22.325 20.102 22.006 19.525 21.508 19.206H21.507ZM18.389 18.388C18.389 18.081 18.638 17.832 18.945 17.832H20.031C20.321 17.832 20.58 18.043 20.609 18.331C20.642 18.662 20.381 18.943 20.056 18.943H18.389V18.387V18.388ZM20.587 21.166H18.944C18.637 21.166 18.389 20.917 18.389 20.61V20.054H20.611C20.936 20.054 21.197 20.335 21.164 20.666C21.135 20.954 20.877 21.166 20.587 21.166ZM6.5 13.999C3.467 13.999 1 16.467 1 19.499C1 22.531 3.467 24.999 6.5 24.999C9.533 24.999 12 22.531 12 19.499C12 16.467 9.533 13.999 6.5 13.999ZM6.5 23.999C4.019 23.999 2 21.98 2 19.499C2 17.018 4.019 14.999 6.5 14.999C8.981 14.999 11 17.018 11 19.499C11 21.98 8.981 23.999 6.5 23.999ZM19.5 13.999C16.467 13.999 14 16.467 14 19.499C14 22.531 16.467 24.999 19.5 24.999C22.533 24.999 25 22.531 25 19.499C25 16.467 22.533 13.999 19.5 13.999ZM19.5 23.999C17.019 23.999 15 21.98 15 19.499C15 17.018 17.019 14.999 19.5 14.999C21.981 14.999 24 17.018 24 19.499C24 21.98 21.981 23.999 19.5 23.999Z" fill="#5A5A5A" />
</svg>
