<svg width="23" height="22" viewBox="0 0 23 22" fill="none" xmlns="http://www.w3.org/2000/svg">
<path d="M6.70805 12.8333C8.82205 12.8333 10.5412 11.1888 10.5412 9.16667C10.5412 7.1445 8.82205 5.5 6.70805 5.5C4.59406 5.5 2.87488 7.1445 2.87488 9.16667C2.87488 11.1888 4.59406 12.8333 6.70805 12.8333ZM6.70805 7.33333C7.76505 7.33333 8.62464 8.15558 8.62464 9.16667C8.62464 10.1778 7.76505 11 6.70805 11C5.65106 11 4.79147 10.1778 4.79147 9.16667C4.79147 8.15558 5.65106 7.33333 6.70805 7.33333ZM13.4161 21.0833C13.4161 21.5903 12.9868 22 12.4578 22C11.9288 22 11.4995 21.5903 11.4995 21.0833C11.4995 18.5561 9.35007 16.5 6.70805 16.5C4.06604 16.5 1.91659 18.5561 1.91659 21.0833C1.91659 21.5903 1.48727 22 0.958293 22C0.429315 22 0 21.5903 0 21.0833C0 17.5459 3.00904 14.6667 6.70805 14.6667C10.4071 14.6667 13.4161 17.5459 13.4161 21.0833ZM22.999 4.58333V11.9167C22.999 14.4439 20.8496 16.5 18.2076 16.5H14.3744C13.8454 16.5 13.4161 16.0903 13.4161 15.5833V13.75C13.4161 13.2431 13.8454 12.8333 14.3744 12.8333H17.2493C17.7783 12.8333 18.2076 13.2431 18.2076 13.75V14.6667C19.7926 14.6667 21.0825 13.4328 21.0825 11.9167V4.58333C21.0825 3.06717 19.7926 1.83333 18.2076 1.83333H9.07025C8.04679 1.83333 7.09233 2.36042 6.57964 3.20925C6.3142 3.64742 5.72868 3.79867 5.27061 3.54292C4.81159 3.28992 4.65539 2.72892 4.92084 2.29075C5.77563 0.878167 7.36544 0 9.07121 0H18.2085C20.8505 0 22.999 2.05608 22.999 4.58333Z" fill="#5A5A5A"/>
</svg>
