<svg width="24" height="17" viewBox="0 0 24 17" fill="none" xmlns="http://www.w3.org/2000/svg">
<path d="M8.5792 17C8.34199 16.9999 8.10713 16.9537 7.88804 16.864C7.66896 16.7742 7.46996 16.6427 7.30242 16.477L0.484915 9.74718C0.165769 9.40921 -0.00797713 8.96218 0.000281486 8.50029C0.00854011 8.0384 0.198158 7.59771 0.529188 7.27105C0.860218 6.94439 1.30681 6.75728 1.77489 6.74913C2.24296 6.74098 2.69597 6.91243 3.03847 7.22736L8.5792 12.6949L20.9615 0.47851C21.304 0.163579 21.757 -0.00787176 22.2251 0.000277768C22.6932 0.0084273 23.1398 0.195541 23.4708 0.522198C23.8018 0.848855 23.9915 1.28955 23.9997 1.75144C24.008 2.21333 23.8342 2.66036 23.5151 2.99833L16.6855 9.73768L9.85598 16.477C9.68844 16.6427 9.48944 16.7742 9.27036 16.864C9.05127 16.9537 8.81641 16.9999 8.5792 17Z" fill="#158B7F"/>
</svg>
