<svg xmlns="http://www.w3.org/2000/svg" width="18" height="18" viewBox="0 0 18 18" fill="none">
  <path d="M16.1703 8.05428L15.154 6.86928C14.9415 6.5984 14.8183 6.26819 14.8015 5.92428V4.64778C14.7999 4.26437 14.6469 3.89711 14.3758 3.62599C14.1047 3.35487 13.7374 3.20186 13.354 3.20028H12.079C11.7354 3.1822 11.4055 3.05917 11.134 2.84778L9.94526 1.82928C9.67714 1.61444 9.34383 1.49738 9.00025 1.49738C8.65668 1.49738 8.32337 1.61444 8.05525 1.82928L6.87776 2.85678C6.60388 3.06284 6.27497 3.18292 5.93275 3.20178H4.63526C4.2521 3.20336 3.88506 3.35616 3.61399 3.62696C3.34291 3.89775 3.18973 4.26463 3.18775 4.64778V5.93028C3.16881 6.27019 3.04867 6.59668 2.84275 6.86778L1.83025 8.06178C1.61891 8.32856 1.50391 8.65893 1.50391 8.99928C1.50391 9.33963 1.61891 9.67 1.83025 9.93678L2.84275 11.1293C3.04867 11.4004 3.16881 11.7269 3.18775 12.0668V13.3478C3.18933 13.7312 3.34235 14.0985 3.61346 14.3696C3.88458 14.6407 4.25184 14.7937 4.63526 14.7953H5.92901C6.27264 14.8134 6.60247 14.9364 6.874 15.1478L8.059 16.1678C8.32712 16.3826 8.66043 16.4997 9.004 16.4997C9.34758 16.4997 9.68089 16.3826 9.94901 16.1678L11.134 15.1478C11.4049 14.9352 11.7351 14.8121 12.079 14.7953H13.354C13.7374 14.7937 14.1047 14.6407 14.3758 14.3696C14.6469 14.0985 14.7999 13.7312 14.8015 13.3478V12.0728C14.8196 11.7291 14.9426 11.3993 15.154 11.1278L16.174 9.94278C16.3861 9.67357 16.5012 9.34063 16.5005 8.99788C16.4998 8.65513 16.3835 8.32265 16.1703 8.05428ZM12.1203 7.58178L8.49776 11.2043C8.44563 11.2566 8.38369 11.2981 8.31547 11.3265C8.24726 11.3548 8.17412 11.3694 8.10026 11.3694C8.02639 11.3694 7.95325 11.3548 7.88504 11.3265C7.81682 11.2981 7.75488 11.2566 7.70275 11.2043L5.88775 9.38928C5.79534 9.28189 5.74686 9.14359 5.75199 9.002C5.75712 8.86042 5.81549 8.72599 5.91543 8.62557C6.01538 8.52515 6.14953 8.46615 6.29109 8.46035C6.43265 8.45455 6.57118 8.50238 6.67901 8.59428L8.09651 10.0118L11.3215 6.78678C11.4281 6.68742 11.5692 6.63333 11.7149 6.6359C11.8606 6.63847 11.9997 6.69751 12.1027 6.80057C12.2058 6.90363 12.2648 7.04266 12.2674 7.18839C12.27 7.33412 12.2159 7.47515 12.1165 7.58178H12.1203Z" fill="#158B7F"/>
</svg>