<svg width="350" height="350" viewBox="0 0 350 350" fill="none" xmlns="http://www.w3.org/2000/svg">
<path d="M264.6 106.792C253.708 100.828 242.361 98.4341 229.978 99.9671C214.725 101.85 202.678 104.069 188.083 98.3851C175.812 93.6111 164.605 86.4851 152.901 80.5771C128.961 68.4321 105.196 64.6731 87.2481 88.6271C77.7001 101.374 70.4481 116.011 65.4431 131.453C57.3511 156.366 50.7011 183.953 54.3481 209.972C58.9611 242.956 87.2481 258.44 121.086 246.491C134.771 241.661 147.98 234.591 162.575 232.568C193.116 228.326 218.288 256.368 254.912 249.55C318.038 237.818 313.376 133.497 264.6 106.792Z" fill="#158B7F"/>
<path opacity="0.7" d="M264.6 106.792C253.708 100.828 242.361 98.4341 229.978 99.9671C214.725 101.85 202.678 104.069 188.083 98.3851C175.812 93.6111 164.605 86.4851 152.901 80.5771C128.961 68.4321 105.196 64.6731 87.2481 88.6271C77.7001 101.374 70.4481 116.011 65.4431 131.453C57.3511 156.366 50.7011 183.953 54.3481 209.972C58.9611 242.956 87.2481 258.44 121.086 246.491C134.771 241.661 147.98 234.591 162.575 232.568C193.116 228.326 218.288 256.368 254.912 249.55C318.038 237.818 313.376 133.497 264.6 106.792Z" fill="white"/>
<path d="M274.155 79.9189C269.71 77.4899 267.694 79.5129 266.077 77.4899C264.46 75.4669 270.522 70.2169 258.377 64.9669C258.377 64.9669 257.572 53.6549 241.003 53.2489C224.434 52.8429 228.9 64.5609 224.455 67.3889C220.01 70.2169 218.799 65.7999 214.354 68.5999C209.909 71.3999 211.932 77.0839 208.299 77.8889C204.666 78.6939 199.808 74.2559 195.363 77.0839C190.918 79.9119 190.918 82.3339 188.902 82.3339C186.886 82.3339 182.84 80.7169 180.418 82.3339C177.996 83.9509 175.161 85.9739 175.161 85.9739H277.361C277.361 85.9739 278.6 82.3409 274.155 79.9189Z" fill="#158B7F"/>
<path opacity="0.5" d="M274.155 79.9189C269.71 77.4899 267.694 79.5129 266.077 77.4899C264.46 75.4669 270.522 70.2169 258.377 64.9669C258.377 64.9669 257.572 53.6549 241.003 53.2489C224.434 52.8429 228.9 64.5609 224.455 67.3889C220.01 70.2169 218.799 65.7999 214.354 68.5999C209.909 71.3999 211.932 77.0839 208.299 77.8889C204.666 78.6939 199.808 74.2559 195.363 77.0839C190.918 79.9119 190.918 82.3339 188.902 82.3339C186.886 82.3339 182.84 80.7169 180.418 82.3339C177.996 83.9509 175.161 85.9739 175.161 85.9739H277.361C277.361 85.9739 278.6 82.3409 274.155 79.9189Z" fill="white"/>
<path d="M158.256 170.73C155.134 169.029 153.713 170.443 152.579 169.029C151.445 167.615 155.701 163.919 147.189 160.23C147.189 160.23 146.622 152.285 134.981 151.998C123.34 151.711 126.469 159.943 123.347 161.931C120.225 163.919 119.378 160.797 116.256 162.785C113.134 164.773 114.548 168.742 112 169.309C109.452 169.876 106.036 166.754 102.9 168.742C99.7639 170.73 99.7779 172.431 98.3639 172.431C96.9499 172.431 94.1009 171.297 92.3999 172.431C90.6989 173.565 88.7109 174.986 88.7109 174.986H160.524C160.524 174.986 161.378 172.431 158.256 170.73Z" fill="white"/>
<path opacity="0.5" d="M158.256 170.73C155.134 169.029 153.713 170.443 152.579 169.029C151.445 167.615 155.701 163.919 147.189 160.23C147.189 160.23 146.622 152.285 134.981 151.998C123.34 151.711 126.469 159.943 123.347 161.931C120.225 163.919 119.378 160.797 116.256 162.785C113.134 164.773 114.548 168.742 112 169.309C109.452 169.876 106.036 166.754 102.9 168.742C99.7639 170.73 99.7779 172.431 98.3639 172.431C96.9499 172.431 94.1009 171.297 92.3999 172.431C90.6989 173.565 88.7109 174.986 88.7109 174.986H160.524C160.524 174.986 161.378 172.431 158.256 170.73Z" fill="white"/>
<path d="M247.009 289.009H291.249C290.402 283.598 286.923 284.55 286.461 276.164C286.23 271.964 290.143 266.714 289.8 261.17C289.52 256.599 285.019 251.916 284.669 246.687C284.354 241.969 288.169 236.733 287.826 231.651C287.469 226.849 282.926 222.236 282.499 217.238C282.107 212.338 285.873 207.081 285.425 202.153C284.977 197.225 280.336 192.696 279.825 187.838C279.314 182.847 282.961 177.471 282.401 172.697C281.813 167.622 277.025 163.24 276.374 158.564C275.674 153.363 279.041 147.805 278.25 143.311C277.277 137.809 272.153 133.826 271.075 129.766C269.066 122.199 269.318 114.912 266.945 114.436C264.418 113.932 263.837 121.079 261.919 129.066C260.953 133.077 255.948 137.144 255.122 142.653C254.457 147.112 257.999 152.537 257.418 157.717C256.9 162.358 252.231 166.817 251.776 171.864C251.349 176.61 255.136 181.839 254.765 186.802C254.401 191.625 249.865 196.224 249.564 201.124C249.263 206.024 253.155 211.148 252.889 215.985C252.616 220.941 248.171 225.624 247.94 230.391C247.702 235.438 251.685 240.527 251.489 245.203C251.272 250.39 246.89 255.136 246.729 259.672C246.533 265.174 250.572 270.249 250.446 274.442C250.18 283.542 246.015 281.645 245.868 288.967L247.009 289.009Z" fill="#158B7F"/>
<path d="M266 128.975V286.965" stroke="black" stroke-miterlimit="10"/>
<path d="M272.909 145.537L265.706 151.76L259.812 143.899" stroke="black" stroke-miterlimit="10"/>
<path d="M272.909 173.04L265.706 179.256L259.812 171.402" stroke="black" stroke-miterlimit="10"/>
<path d="M272.909 198.898L265.706 205.121L259.812 197.26" stroke="black" stroke-miterlimit="10"/>
<path d="M272.909 229.677L265.706 235.893L259.812 228.039" stroke="black" stroke-miterlimit="10"/>
<path d="M272.909 260.778L265.706 266.994L259.812 259.14" stroke="black" stroke-miterlimit="10"/>
<path d="M216.874 289.009H251.027C250.369 284.809 247.688 285.565 247.331 279.097C247.149 275.835 250.166 271.803 249.907 267.519C249.69 264.019 246.218 260.372 245.945 256.319C245.7 252.679 248.668 248.619 248.381 244.713C248.108 241.003 244.587 237.447 244.272 233.59C243.957 229.733 246.876 225.743 246.533 221.942C246.19 218.141 242.599 214.641 242.221 210.896C241.829 207.039 244.643 202.895 244.209 199.199C243.754 195.286 240.058 191.905 239.561 188.3C239.001 184.282 241.619 179.991 241.003 176.526C240.254 172.277 236.299 169.197 235.473 166.068C233.919 160.23 234.115 154.595 232.281 154.231C230.328 153.839 229.88 159.355 228.403 165.529C227.661 168.623 223.79 171.766 223.153 176.029C222.642 179.473 225.372 183.659 224.924 187.656C224.525 191.24 220.927 194.656 220.57 198.576C220.241 202.237 223.167 206.276 222.88 210.105C222.6 213.829 219.107 217.378 218.862 221.158C218.617 224.938 221.662 228.9 221.431 232.631C221.2 236.362 217.791 240.072 217.616 243.754C217.427 247.646 220.5 251.573 220.353 255.185C220.185 259.189 216.804 262.885 216.678 266.385C216.524 270.627 219.646 274.554 219.548 277.781C219.338 284.781 216.125 283.346 216.013 288.981L216.874 289.009Z" fill="#158B7F"/>
<path d="M231.539 165.48V287.434" stroke="black" stroke-miterlimit="10"/>
<path d="M236.866 178.262L231.308 183.064L226.758 176.995" stroke="black" stroke-miterlimit="10"/>
<path d="M236.866 199.486L231.308 204.288L226.758 198.226" stroke="black" stroke-miterlimit="10"/>
<path d="M236.866 219.45L231.308 224.252L226.758 218.19" stroke="black" stroke-miterlimit="10"/>
<path d="M236.866 243.208L231.308 248.01L226.758 241.941" stroke="black" stroke-miterlimit="10"/>
<path d="M236.866 267.218L231.308 272.013L226.758 265.951" stroke="black" stroke-miterlimit="10"/>
<path d="M186.431 288.68V147.154H193.9V288.68" fill="#2E353A"/>
<path d="M186.431 288.68V147.154H193.9V288.68" stroke="#2E353A" stroke-linecap="round" stroke-linejoin="round"/>
<path d="M182.7 288.68V147.154H190.169V288.68" fill="#158B7F"/>
<path d="M182.7 288.68V147.154H190.169V288.68" stroke="#2E353A" stroke-linecap="round" stroke-linejoin="round"/>
<g style="mix-blend-mode:multiply" opacity="0.3">
<path d="M190.169 147.154H182.7V163.954H190.169V147.154Z" fill="#2E353A"/>
</g>
<path d="M214.571 91.9031H159.229L183.351 151.151H238.7V116.025C238.7 112.857 238.076 109.719 236.863 106.792C235.65 103.865 233.873 101.206 231.632 98.9658C229.392 96.7257 226.732 94.9491 223.804 93.7373C220.877 92.5254 217.739 91.9022 214.571 91.9031Z" fill="#158B7F" stroke="#2E353A" stroke-linecap="round" stroke-linejoin="round"/>
<g style="mix-blend-mode:multiply" opacity="0.3">
<path d="M179.13 140.777L183.33 151.151H238.7V116.025C238.7 115.493 238.7 114.961 238.644 114.436H179.144L179.13 140.777Z" fill="black"/>
</g>
<path d="M214.165 114.436H208.341" stroke="#2E353A" stroke-linecap="round" stroke-linejoin="round"/>
<path d="M238.644 114.436H221.018" stroke="#2E353A" stroke-linecap="round" stroke-linejoin="round"/>
<path d="M159.229 91.9031C165.629 91.9031 171.766 94.4452 176.291 98.9703C180.816 103.495 183.358 109.633 183.358 116.032V151.158H135.1V116.025C135.102 109.627 137.645 103.491 142.17 98.9678C146.695 94.4443 152.831 91.9031 159.229 91.9031Z" fill="#2E353A" stroke="#2E353A" stroke-linecap="round" stroke-linejoin="round"/>
<path d="M183.351 147.154H141.771V151.151H183.351V147.154Z" fill="#158B7F" stroke="#2E353A" stroke-linecap="round" stroke-linejoin="round"/>
<path d="M183.351 147.154H97.3V151.151H183.351V147.154Z" fill="#158B7F" stroke="#2E353A" stroke-linecap="round" stroke-linejoin="round"/>
<path opacity="0.3" d="M183.351 147.154H141.771V151.151H183.351V147.154Z" fill="black"/>
<path d="M218.169 77.623H200.9V89.754H218.169V77.623Z" fill="#2E353A" stroke="#2E353A" stroke-linecap="round" stroke-linejoin="round"/>
<path d="M202.3 77.623H198.569V115.423H202.3V77.623Z" fill="white" stroke="#2E353A" stroke-linecap="round" stroke-linejoin="round"/>
<path d="M200.431 120.554C202.751 120.554 204.631 118.674 204.631 116.354C204.631 114.034 202.751 112.154 200.431 112.154C198.111 112.154 196.231 114.034 196.231 116.354C196.231 118.674 198.111 120.554 200.431 120.554Z" fill="#2E353A" stroke="#2E353A" stroke-linecap="round" stroke-linejoin="round"/>
<path d="M138.838 101.605C148.582 106.554 165.522 114.485 181.146 118.475" stroke="white" stroke-linecap="round" stroke-linejoin="round" stroke-dasharray="2 4"/>
<path d="M130.662 97.3C130.662 97.3 133.784 99.0641 138.838 101.633" stroke="#2E353A" stroke-linecap="round" stroke-linejoin="round" stroke-dasharray="2 4"/>
<path d="M127.155 97.0411L134.162 80.395L83.3491 67.998L127.155 97.0411Z" fill="white" stroke="#2E353A" stroke-width="1.2629" stroke-linecap="round" stroke-linejoin="round"/>
<path d="M130.571 82.4111L127.155 97.0411L83.3491 67.998L130.571 82.4111Z" fill="#158B7F" stroke="#2E353A" stroke-width="1.2629" stroke-linecap="round" stroke-linejoin="round"/>
<path d="M130.571 82.411L122.598 89.243L83.3491 67.998L130.571 82.411Z" fill="white" stroke="#2E353A" stroke-width="1.2629" stroke-linecap="round" stroke-linejoin="round"/>
<path d="M134.162 80.395L141.26 77.511L83.3491 67.998L134.162 80.395Z" fill="white" stroke="#2E353A" stroke-width="1.2629" stroke-linecap="round" stroke-linejoin="round"/>
<path d="M117.285 94.451L118.93 95.4591" stroke="#2E353A" stroke-linecap="round" stroke-linejoin="round"/>
<path d="M108.311 88.9491L113.82 92.3231" stroke="#2E353A" stroke-linecap="round" stroke-linejoin="round"/>
<path d="M102.123 128.905V110.852L153.769 119.154L102.123 128.905Z" fill="white" stroke="#2E353A" stroke-width="1.2629" stroke-linecap="round" stroke-linejoin="round"/>
<path d="M104.65 114.1L102.123 128.905L153.769 119.154L104.65 114.1Z" fill="#158B7F" stroke="#2E353A" stroke-width="1.2629" stroke-linecap="round" stroke-linejoin="round"/>
<path d="M104.65 114.1L109.347 123.487L153.769 119.154L104.65 114.1Z" fill="white" stroke="#2E353A" stroke-width="1.2629" stroke-linecap="round" stroke-linejoin="round"/>
<path d="M102.123 110.852L96.7051 105.434L153.769 119.154L102.123 110.852Z" fill="white" stroke="#2E353A" stroke-width="1.2629" stroke-linecap="round" stroke-linejoin="round"/>
<path d="M120.617 128.569L125.097 127.659" stroke="#2E353A" stroke-linecap="round" stroke-linejoin="round"/>
<path d="M104.881 131.768L116.144 129.479" stroke="#2E353A" stroke-linecap="round" stroke-linejoin="round"/>
<path d="M95.9001 127.792C95.9001 127.792 55.3001 134.792 47.6001 171.192C39.9001 207.592 80.5001 209.692 87.5001 192.192C94.5001 174.692 63.7001 167.692 56.7001 184.492C49.7001 201.292 70.7001 229.992 99.4001 231.392C123.249 232.554 190.113 204.715 231.7 197.68C231.7 197.68 262.5 189.154 310.1 191.023" stroke="#2E353A" stroke-linecap="round" stroke-linejoin="round" stroke-dasharray="2 4"/>
<path d="M296.331 241.892H308" stroke="#2E353A" stroke-linecap="round" stroke-linejoin="round"/>
<path d="M296.331 259.154H308" stroke="#2E353A" stroke-linecap="round" stroke-linejoin="round"/>
<path d="M50.6311 258.692H294.931V242.354H50.6311" fill="white"/>
<path d="M50.6311 258.692H294.931V242.354H50.6311" stroke="#2E353A" stroke-linecap="round" stroke-linejoin="round"/>
<path d="M67.613 288.792V206.598C67.6132 206.397 67.6542 206.197 67.7336 206.012C67.813 205.826 67.9292 205.659 68.075 205.52L74.459 199.507C74.7465 199.238 75.1286 199.094 75.522 199.106C75.9154 199.118 76.2882 199.285 76.559 199.57L82.159 205.527C82.4131 205.804 82.5553 206.166 82.558 206.542V288.792" fill="#2E353A"/>
<path d="M67.613 288.792V206.598C67.6132 206.397 67.6542 206.197 67.7336 206.012C67.813 205.826 67.9292 205.659 68.075 205.52L74.459 199.507C74.7465 199.238 75.1286 199.094 75.522 199.106C75.9154 199.118 76.2882 199.285 76.559 199.57L82.159 205.527C82.4131 205.804 82.5553 206.166 82.558 206.542V288.792" stroke="#2E353A" stroke-linecap="round" stroke-linejoin="round"/>
<path d="M65.8 289.492V206.598C65.7998 206.396 65.8414 206.196 65.9221 206.01C66.0028 205.825 66.1209 205.658 66.269 205.52L72.653 199.507C72.795 199.373 72.9619 199.268 73.1443 199.199C73.3268 199.13 73.5211 199.097 73.7161 199.103C73.9112 199.109 74.1032 199.153 74.2811 199.233C74.459 199.313 74.6194 199.428 74.753 199.57L80.3531 205.527C80.6101 205.802 80.7527 206.165 80.7521 206.542V289.492" fill="white"/>
<path d="M65.8 289.492V206.598C65.7998 206.396 65.8414 206.196 65.9221 206.01C66.0028 205.825 66.1209 205.658 66.269 205.52L72.6531 199.507C72.795 199.373 72.9619 199.268 73.1443 199.199C73.3268 199.13 73.5211 199.097 73.7161 199.103C73.9112 199.109 74.1032 199.153 74.2811 199.233C74.459 199.313 74.6194 199.428 74.753 199.57L80.3531 205.527C80.6101 205.802 80.7527 206.165 80.7521 206.542V289.492" stroke="#2E353A" stroke-linecap="round" stroke-linejoin="round"/>
<path d="M121.443 288.792V206.598C121.443 206.396 121.484 206.197 121.564 206.012C121.643 205.826 121.759 205.659 121.905 205.52L128.296 199.507C128.438 199.373 128.605 199.268 128.787 199.199C128.97 199.13 129.164 199.097 129.359 199.103C129.554 199.109 129.746 199.153 129.924 199.233C130.102 199.313 130.262 199.428 130.396 199.57L135.996 205.527C136.253 205.802 136.396 206.165 136.395 206.542V288.792" fill="#2E353A"/>
<path d="M121.443 288.792V206.598C121.443 206.396 121.484 206.197 121.564 206.012C121.643 205.826 121.759 205.659 121.905 205.52L128.296 199.507C128.438 199.373 128.605 199.268 128.787 199.199C128.97 199.13 129.164 199.097 129.359 199.103C129.554 199.109 129.746 199.153 129.924 199.233C130.102 199.313 130.262 199.428 130.396 199.57L135.996 205.527C136.253 205.802 136.396 206.165 136.395 206.542V288.792" stroke="#2E353A" stroke-linecap="round" stroke-linejoin="round"/>
<path d="M119.931 289.492V206.598C119.931 206.396 119.972 206.196 120.053 206.01C120.134 205.825 120.252 205.658 120.4 205.52L126.784 199.507C127.072 199.238 127.454 199.094 127.847 199.106C128.241 199.118 128.613 199.285 128.884 199.57L134.484 205.527C134.743 205.802 134.888 206.165 134.89 206.542V289.492" fill="white"/>
<path d="M119.931 289.492V206.598C119.931 206.396 119.972 206.196 120.053 206.01C120.134 205.825 120.252 205.658 120.4 205.52L126.784 199.507C127.072 199.238 127.454 199.094 127.847 199.106C128.241 199.118 128.613 199.285 128.884 199.57L134.484 205.527C134.743 205.802 134.888 206.165 134.89 206.542V289.492" stroke="#2E353A" stroke-linecap="round" stroke-linejoin="round"/>
<path d="M175.574 288.792V206.598C175.574 206.396 175.616 206.196 175.696 206.01C175.777 205.825 175.895 205.658 176.043 205.52L182.427 199.507C182.715 199.238 183.097 199.094 183.49 199.106C183.884 199.118 184.256 199.285 184.527 199.57L190.127 205.527C190.386 205.802 190.531 206.165 190.533 206.542V289.492" fill="#2E353A"/>
<path d="M175.574 288.792V206.598C175.574 206.396 175.616 206.196 175.696 206.01C175.777 205.825 175.895 205.658 176.043 205.52L182.427 199.507C182.715 199.238 183.097 199.094 183.49 199.106C183.884 199.118 184.256 199.285 184.527 199.57L190.127 205.527C190.386 205.802 190.531 206.165 190.533 206.542V289.492" stroke="#2E353A" stroke-linecap="round" stroke-linejoin="round"/>
<path d="M174.069 289.492V206.598C174.069 206.396 174.11 206.197 174.19 206.012C174.269 205.826 174.385 205.659 174.531 205.52L180.922 199.507C181.064 199.373 181.231 199.268 181.413 199.199C181.596 199.13 181.79 199.097 181.985 199.103C182.18 199.109 182.372 199.153 182.55 199.233C182.728 199.313 182.888 199.428 183.022 199.57L188.622 205.527C188.879 205.802 189.022 206.165 189.021 206.542V289.492" fill="white"/>
<path d="M174.069 289.492V206.598C174.069 206.396 174.11 206.197 174.19 206.012C174.269 205.826 174.385 205.659 174.531 205.52L180.922 199.507C181.064 199.373 181.231 199.268 181.413 199.199C181.596 199.13 181.79 199.097 181.985 199.103C182.18 199.109 182.372 199.153 182.55 199.233C182.728 199.313 182.888 199.428 183.022 199.57L188.622 205.527C188.879 205.802 189.022 206.165 189.021 206.542V289.492" stroke="#2E353A" stroke-linecap="round" stroke-linejoin="round"/>
<path d="M229.712 288.792V206.598C229.712 206.397 229.753 206.197 229.833 206.012C229.912 205.826 230.028 205.659 230.174 205.52L236.558 199.507C236.846 199.238 237.228 199.094 237.621 199.106C238.015 199.118 238.387 199.285 238.658 199.57L244.258 205.527C244.512 205.804 244.654 206.166 244.657 206.542V288.792" fill="#2E353A"/>
<path d="M229.712 288.792V206.598C229.712 206.397 229.753 206.197 229.833 206.012C229.912 205.826 230.028 205.659 230.174 205.52L236.558 199.507C236.846 199.238 237.228 199.094 237.621 199.106C238.015 199.118 238.387 199.285 238.658 199.57L244.258 205.527C244.512 205.804 244.654 206.166 244.657 206.542V288.792" stroke="#2E353A" stroke-linecap="round" stroke-linejoin="round"/>
<path d="M228.2 289.492V206.598C228.2 206.396 228.242 206.196 228.322 206.01C228.403 205.825 228.521 205.658 228.669 205.52L235.053 199.507C235.195 199.373 235.362 199.268 235.544 199.199C235.727 199.13 235.921 199.097 236.116 199.103C236.311 199.109 236.503 199.153 236.681 199.233C236.859 199.313 237.02 199.428 237.153 199.57L242.753 205.527C243.01 205.802 243.153 206.165 243.152 206.542V289.492" fill="white"/>
<path d="M228.2 289.492V206.598C228.2 206.396 228.242 206.196 228.322 206.01C228.403 205.825 228.521 205.658 228.669 205.52L235.053 199.507C235.195 199.373 235.362 199.268 235.544 199.199C235.727 199.13 235.921 199.097 236.116 199.103C236.311 199.109 236.503 199.153 236.681 199.233C236.859 199.313 237.02 199.428 237.153 199.57L242.753 205.527C243.01 205.802 243.153 206.165 243.152 206.542V289.492" stroke="#2E353A" stroke-linecap="round" stroke-linejoin="round"/>
<path d="M283.843 288.792V206.598C283.843 206.396 283.884 206.197 283.964 206.012C284.043 205.826 284.159 205.659 284.305 205.52L290.696 199.507C290.838 199.373 291.005 199.268 291.187 199.199C291.37 199.13 291.564 199.097 291.759 199.103C291.954 199.109 292.146 199.153 292.324 199.233C292.502 199.313 292.662 199.428 292.796 199.57L298.396 205.527C298.653 205.802 298.796 206.165 298.795 206.542V288.792" fill="#2E353A"/>
<path d="M283.843 288.792V206.598C283.843 206.396 283.884 206.197 283.964 206.012C284.043 205.826 284.159 205.659 284.305 205.52L290.696 199.507C290.838 199.373 291.005 199.268 291.187 199.199C291.37 199.13 291.564 199.097 291.759 199.103C291.954 199.109 292.146 199.153 292.324 199.233C292.502 199.313 292.662 199.428 292.796 199.57L298.396 205.527C298.653 205.802 298.796 206.165 298.795 206.542V288.792" stroke="#2E353A" stroke-linecap="round" stroke-linejoin="round"/>
<path d="M282.331 289.492V206.598C282.331 206.396 282.372 206.196 282.453 206.01C282.534 205.825 282.652 205.658 282.8 205.52L289.184 199.507C289.472 199.238 289.854 199.094 290.247 199.106C290.64 199.118 291.013 199.285 291.284 199.57L296.884 205.527C297.143 205.802 297.288 206.165 297.29 206.542V289.492" fill="white"/>
<path d="M282.331 289.492V206.598C282.331 206.396 282.372 206.196 282.453 206.01C282.534 205.825 282.652 205.658 282.8 205.52L289.184 199.507C289.472 199.238 289.854 199.094 290.247 199.106C290.64 199.118 291.013 199.285 291.284 199.57L296.884 205.527C297.143 205.802 297.288 206.165 297.29 206.542V289.492" stroke="#2E353A" stroke-linecap="round" stroke-linejoin="round"/>
<path d="M74.7461 199.57V205.562" stroke="#2E353A" stroke-linecap="round" stroke-linejoin="round"/>
<path d="M77.1472 202.664V216.846" stroke="#2E353A" stroke-linecap="round" stroke-linejoin="round"/>
<path d="M122.878 203.826V221.767" stroke="#2E353A" stroke-linecap="round" stroke-linejoin="round"/>
<path d="M125.195 201.509V209.321" stroke="#2E353A" stroke-linecap="round" stroke-linejoin="round"/>
<path d="M180.922 199.507V217.14" stroke="#2E353A" stroke-linecap="round" stroke-linejoin="round"/>
<path d="M184.247 200.928V226.982" stroke="#2E353A" stroke-linecap="round" stroke-linejoin="round"/>
<path d="M230.846 203.826V223.503" stroke="#2E353A" stroke-linecap="round" stroke-linejoin="round"/>
<path d="M238.371 201.509V206.43" stroke="#2E353A" stroke-linecap="round" stroke-linejoin="round"/>
<path d="M287.287 201.215V211.638" stroke="#2E353A" stroke-linecap="round" stroke-linejoin="round"/>
<path d="M293.657 202.377V232.477" stroke="#2E353A" stroke-linecap="round" stroke-linejoin="round"/>
<path d="M282.079 246.372H275.709" stroke="#2E353A" stroke-linecap="round" stroke-linejoin="round"/>
<path d="M282.079 251.293H259.791" stroke="#2E353A" stroke-linecap="round" stroke-linejoin="round"/>
<path d="M199.003 251.293H188.874" stroke="#2E353A" stroke-linecap="round" stroke-linejoin="round"/>
<path d="M145.747 251.293H135.618" stroke="#2E353A" stroke-linecap="round" stroke-linejoin="round"/>
<path d="M65.5692 248.689H55.4402" stroke="#2E353A" stroke-linecap="round" stroke-linejoin="round"/>
<path d="M65.5691 253.316H61.5161" stroke="#2E353A" stroke-linecap="round" stroke-linejoin="round"/>
<path d="M193.795 248.689H188.874" stroke="#2E353A" stroke-linecap="round" stroke-linejoin="round"/>
<path d="M139.958 254.184H135.037" stroke="#2E353A" stroke-linecap="round" stroke-linejoin="round"/>
<path d="M119.406 254.184H114.485" stroke="#2E353A" stroke-linecap="round" stroke-linejoin="round"/>
<path d="M301.756 251.293H297.416" stroke="#2E353A" stroke-linecap="round" stroke-linejoin="round"/>
<path d="M307.545 251.293H304.941" stroke="#2E353A" stroke-linecap="round" stroke-linejoin="round"/>
<path d="M80.5001 221.2C80.5001 221.2 78.7501 236.243 76.6501 251.636C74.5501 267.029 78.4001 282.779 79.4501 284.179" stroke="#2E353A" stroke-linecap="round" stroke-linejoin="round"/>
<path d="M73.5771 251.65C73.9131 248.647 74.1931 246.75 74.1931 246.75" stroke="#2E353A" stroke-linecap="round" stroke-linejoin="round"/>
<path d="M78.7431 282.429C78.7431 282.429 72.4431 281.029 72.4431 269.829C72.4431 265.23 72.7371 260.519 73.0871 256.529" stroke="#2E353A" stroke-linecap="round" stroke-linejoin="round"/>
<path d="M131.6 203.35C131.6 203.35 133 204.4 130.55 216.3C128.1 228.2 128.45 245.7 131.6 255.5" stroke="#2E353A" stroke-linecap="round" stroke-linejoin="round"/>
<path d="M135.1 225.4C135.1 225.4 131.6 235.9 134.05 250.6" stroke="#2E353A" stroke-linecap="round" stroke-linejoin="round"/>
<path d="M175 232.043C175 232.043 176.75 242.193 178.5 252.686C180.25 263.179 178.85 277.886 177.45 281.729C176.05 285.572 174.65 288.729 174.65 288.729" stroke="#2E353A" stroke-linecap="round" stroke-linejoin="round"/>
<path d="M181.594 283.584C180.033 288.372 178.094 282.779 178.094 282.779" stroke="#2E353A" stroke-linecap="round" stroke-linejoin="round"/>
<path d="M181.531 247.8C181.531 247.8 184.828 264.817 182.966 277.627" stroke="#2E353A" stroke-linecap="round" stroke-linejoin="round"/>
<path d="M174.3 253.4C174.3 253.4 177.8 260.75 174.65 267.75" stroke="#2E353A" stroke-linecap="round" stroke-linejoin="round"/>
<path d="M239.61 254.436C240.079 256.576 240.694 258.681 241.451 260.736" stroke="#2E353A" stroke-linecap="round" stroke-linejoin="round"/>
<path d="M242.501 218.05C240.28 225.1 238.871 232.38 238.301 239.75C238.092 243.479 238.301 247.219 238.924 250.901" stroke="#2E353A" stroke-linecap="round" stroke-linejoin="round"/>
<path d="M235.851 250.236C235.851 250.236 239.001 262.136 240.751 266.336C242.501 270.536 241.801 280.679 239.701 285.579" stroke="#2E353A" stroke-linecap="round" stroke-linejoin="round"/>
<path d="M283.087 223.3C283.087 223.3 290.087 235.9 283.437 256.543" stroke="#2E353A" stroke-linecap="round" stroke-linejoin="round"/>
<path d="M289.52 244.818C289.562 248.752 289.212 253.736 287.637 257.936C284.487 266.336 283.087 269.136 283.087 269.136" stroke="#2E353A" stroke-linecap="round" stroke-linejoin="round"/>
<path d="M289.037 238C289.037 238 289.268 239.505 289.408 241.822" stroke="#2E353A" stroke-linecap="round" stroke-linejoin="round"/>
</svg>
