<svg width="288" height="288" viewBox="0 0 288 288" fill="none" xmlns="http://www.w3.org/2000/svg">
<path d="M129.471 182.03C128.29 182.03 127.12 181.797 126.028 181.344C124.937 180.891 123.946 180.227 123.111 179.39L94.0832 150.35C93.199 149.526 92.4898 148.533 91.9979 147.429C91.506 146.325 91.2415 145.133 91.2202 143.925C91.1988 142.716 91.4211 141.516 91.8738 140.395C92.3264 139.275 93.0002 138.257 93.8548 137.402C94.7094 136.547 95.7274 135.874 96.8481 135.421C97.9687 134.968 99.1691 134.746 100.378 134.767C101.586 134.789 102.778 135.053 103.882 135.545C104.986 136.037 105.979 136.746 106.803 137.63L129.483 160.31L181.083 108.71C182.789 107.121 185.046 106.255 187.378 106.296C189.709 106.337 191.934 107.282 193.583 108.931C195.232 110.58 196.176 112.805 196.217 115.136C196.258 117.468 195.393 119.724 193.803 121.43L135.867 179.39C135.028 180.231 134.031 180.897 132.933 181.351C131.836 181.804 130.659 182.035 129.471 182.03Z" fill="#7BBC67"/>
<path d="M143.998 272.999C136.321 273.058 128.875 270.378 122.998 265.439L104.038 249.119C101.319 247.181 98.1253 246.02 94.7975 245.759H74.1575C65.6282 245.759 57.4482 242.371 51.417 236.339C45.3858 230.308 41.9975 222.128 41.9975 213.599V193.079C41.735 189.788 40.5726 186.633 38.6375 183.959L22.4375 164.879C17.6634 158.99 15.0581 151.64 15.0581 144.059C15.0581 136.478 17.6634 129.128 22.4375 123.239L38.6375 104.159C40.5726 101.484 41.735 98.3295 41.9975 95.0389V74.3989C41.9975 65.8695 45.3858 57.6895 51.417 51.6583C57.4482 45.6271 65.6282 42.2389 74.1575 42.2389H94.9175C98.233 41.9223 101.413 40.7659 104.158 38.8789L123.118 22.5589C129.002 17.6739 136.41 15 144.058 15C151.706 15 159.113 17.6739 164.998 22.5589L183.958 38.8789C186.676 40.8164 189.87 41.9779 193.198 42.2389H213.598C222.127 42.2389 230.307 45.6271 236.338 51.6583C242.369 57.6895 245.758 65.8695 245.758 74.3989V94.7989C246.062 98.1367 247.264 101.33 249.238 104.039L265.558 122.999C270.443 128.883 273.116 136.291 273.116 143.939C273.116 151.587 270.443 158.994 265.558 164.879L249.238 183.839C247.264 186.548 246.062 189.741 245.758 193.079V213.479C245.758 222.008 242.369 230.188 236.338 236.219C230.307 242.251 222.127 245.639 213.598 245.639H193.198C189.882 245.955 186.702 247.112 183.958 248.999L164.998 265.319C159.16 270.34 151.697 273.07 143.998 272.999ZM74.1575 60.2389C70.404 60.2452 66.8061 61.7391 64.1519 64.3932C61.4978 67.0474 60.0039 70.6453 59.9975 74.3989V94.9189C59.73 102.483 57.0376 109.762 52.3175 115.679L36.1175 134.759C34.076 137.383 32.9677 140.614 32.9677 143.939C32.9677 147.264 34.076 150.494 36.1175 153.119L52.3175 172.199C57.019 178.127 59.7091 185.398 59.9975 192.959V213.479C60.0039 217.232 61.4978 220.83 64.1519 223.484C66.8061 226.139 70.404 227.633 74.1575 227.639H94.9175C102.578 227.892 109.949 230.63 115.918 235.439L134.878 251.759C137.525 253.8 140.774 254.908 144.118 254.908C147.461 254.908 150.71 253.8 153.358 251.759L172.318 235.439C178.314 230.68 185.668 227.948 193.318 227.639H213.718C217.471 227.633 221.069 226.139 223.723 223.484C226.377 220.83 227.871 217.232 227.878 213.479V193.079C228.131 185.418 230.868 178.047 235.678 172.079L251.998 153.119C254.039 150.471 255.146 147.222 255.146 143.879C255.146 140.536 254.039 137.286 251.998 134.639L235.678 115.679C230.868 109.71 228.131 102.34 227.878 94.6789V74.3989C227.871 70.6453 226.377 67.0474 223.723 64.3932C221.069 61.7391 217.471 60.2452 213.718 60.2389H193.318C185.657 59.9859 178.286 57.2482 172.318 52.4389L153.358 36.1189C150.71 34.0774 147.461 32.9702 144.118 32.9702C140.774 32.9702 137.525 34.0774 134.878 36.1189L115.858 52.5589C109.84 57.2648 102.491 59.9523 94.8575 60.2389H74.1575Z" fill="#7BBC67"/>
</svg>
