<svg xmlns="http://www.w3.org/2000/svg" width="32" height="32" viewBox="0 0 32 32" fill="none">
  <path d="M15.9203 2.94169L12.7069 10.427H9.49359C8.96991 10.4217 8.4471 10.4708 7.93359 10.5737L9.26693 7.37369L9.32026 7.25369L9.40026 7.04035C9.43081 6.95822 9.46643 6.87807 9.50693 6.80035C11.0536 3.20835 12.7869 2.09369 15.9203 2.94169Z" fill="white"/>
  <path d="M24.9735 10.787L24.9468 10.7737C24.1535 10.5457 23.3323 10.4291 22.5068 10.427H14.1602L17.1602 3.45368L17.2002 3.36035C17.3868 3.42702 17.5868 3.52035 17.7868 3.58702L20.7335 4.82702C22.0595 5.28532 23.257 6.05322 24.2268 7.06702C24.3468 7.22702 24.4535 7.37368 24.5602 7.54702C24.6785 7.72302 24.7684 7.91648 24.8268 8.12035C24.8786 8.23148 24.9188 8.34765 24.9468 8.46702C25.1509 9.22577 25.16 10.0238 24.9735 10.787Z" fill="white"/>
  <path d="M16.6934 23.5468H17.0267C17.2295 23.5364 17.42 23.4467 17.5573 23.297C17.6945 23.1473 17.7673 22.9497 17.76 22.7468C17.76 22.1868 17.6 22.1068 17.2534 21.9734L16.6934 21.7734V23.5468Z" fill="white"/>
  <path d="M24.3868 12.6935C23.7759 12.5164 23.1429 12.4266 22.5068 12.4269H9.49348C8.61339 12.4215 7.74172 12.5985 6.93348 12.9469C5.76296 13.4504 4.76549 14.2857 4.06414 15.3495C3.3628 16.4134 2.98829 17.6593 2.98682 18.9335L2.98682 21.5335C2.98911 21.8502 3.01138 22.1664 3.05348 22.4802C3.34682 26.7202 5.61348 28.9824 9.85348 29.2669C10.1672 29.3099 10.4835 29.3322 10.8001 29.3335H21.2001C26.1335 29.3335 28.7335 26.9869 28.9868 22.3202C29.0001 22.0669 29.0135 21.8002 29.0135 21.5335V18.9335C29.0116 17.5353 28.5611 16.1745 27.7283 15.0512C26.8955 13.928 25.7242 13.1016 24.3868 12.6935ZM17.7068 20.6669C18.1529 20.7893 18.5417 21.0648 18.805 21.4451C19.0683 21.8254 19.1893 22.2863 19.1468 22.7469C19.1518 23.0298 19.1008 23.3109 18.9968 23.5741C18.8928 23.8373 18.7379 24.0773 18.541 24.2805C18.344 24.4837 18.1088 24.6459 17.849 24.758C17.5892 24.8701 17.3098 24.9297 17.0268 24.9335H16.6935V25.2269C16.6935 25.4108 16.6204 25.5871 16.4904 25.7171C16.3604 25.8472 16.184 25.9202 16.0001 25.9202C15.8163 25.9202 15.6399 25.8472 15.5099 25.7171C15.3799 25.5871 15.3068 25.4108 15.3068 25.2269V24.9335H15.1868C14.5579 24.9213 13.9594 24.6605 13.5222 24.2083C13.085 23.7561 12.8446 23.1492 12.8535 22.5202C12.8535 22.3363 12.9265 22.16 13.0566 22.0299C13.1866 21.8999 13.3629 21.8269 13.5468 21.8269C13.7307 21.8269 13.9071 21.8999 14.0371 22.0299C14.1671 22.16 14.2401 22.3363 14.2401 22.5202C14.2318 22.7813 14.3263 23.0352 14.5034 23.2272C14.6805 23.4193 14.9259 23.5341 15.1868 23.5469H15.3068V21.2935L14.2935 20.9335C13.8474 20.8112 13.4586 20.5357 13.1953 20.1553C12.932 19.775 12.811 19.3142 12.8535 18.8535C12.8485 18.5706 12.8995 18.2895 13.0035 18.0263C13.1075 17.7631 13.2624 17.5231 13.4593 17.3199C13.6563 17.1167 13.8915 16.9545 14.1513 16.8424C14.4111 16.7303 14.6905 16.6707 14.9735 16.6669H15.3068V16.3735C15.3068 16.1897 15.3799 16.0133 15.5099 15.8833C15.6399 15.7533 15.8163 15.6802 16.0001 15.6802C16.184 15.6802 16.3604 15.7533 16.4904 15.8833C16.6204 16.0133 16.6935 16.1897 16.6935 16.3735V16.6669H16.8135C17.4424 16.6791 18.0409 16.9399 18.4781 17.3921C18.9153 17.8443 19.1557 18.4512 19.1468 19.0802C19.1468 19.2641 19.0738 19.4404 18.9437 19.5705C18.8137 19.7005 18.6374 19.7735 18.4535 19.7735C18.2696 19.7735 18.0932 19.7005 17.9632 19.5705C17.8332 19.4404 17.7601 19.2641 17.7601 19.0802C17.7685 18.8191 17.674 18.5652 17.4969 18.3732C17.3198 18.1811 17.0744 18.0663 16.8135 18.0535H16.6935V20.3069L17.7068 20.6669Z" fill="white"/>
  <path d="M14.2396 18.8537C14.2396 19.4137 14.3996 19.4937 14.7463 19.627L15.3063 19.827V18.0537H14.973C14.8722 18.0576 14.7731 18.0815 14.6816 18.1239C14.59 18.1664 14.5078 18.2265 14.4396 18.3009C14.3714 18.3753 14.3186 18.4624 14.2843 18.5573C14.25 18.6522 14.2348 18.7529 14.2396 18.8537Z" fill="white"/>
</svg>