<svg xmlns="http://www.w3.org/2000/svg" width="18" height="18" viewBox="0 0 18 18" fill="none">
  <path d="M14.632 4.38751L10.177 1.81501C9.81749 1.60861 9.41022 1.5 8.99571 1.5C8.5812 1.5 8.17392 1.60861 7.81446 1.81501L3.36696 4.38751C3.00824 4.59541 2.71056 4.89408 2.50387 5.25349C2.29717 5.61291 2.18873 6.0204 2.18946 6.43501V11.565C2.19062 11.9792 2.29985 12.386 2.50636 12.7451C2.71287 13.1042 3.00951 13.4032 3.36696 13.6125L7.82196 16.185C8.18142 16.3914 8.5887 16.5 9.00321 16.5C9.41772 16.5 9.82499 16.3914 10.1845 16.185L14.6395 13.6125C14.9982 13.4046 15.2958 13.1059 15.5025 12.7465C15.7092 12.3871 15.8177 11.9796 15.817 11.565V6.43501C15.8137 6.02032 15.7028 5.61359 15.495 5.25467C15.2873 4.89574 14.9899 4.59693 14.632 4.38751ZM8.43696 5.81251C8.43696 5.66333 8.49622 5.52026 8.60171 5.41477C8.7072 5.30928 8.85027 5.25001 8.99946 5.25001C9.14864 5.25001 9.29171 5.30928 9.3972 5.41477C9.50269 5.52026 9.56196 5.66333 9.56196 5.81251V9.75001C9.56196 9.8992 9.50269 10.0423 9.3972 10.1478C9.29171 10.2533 9.14864 10.3125 8.99946 10.3125C8.85027 10.3125 8.7072 10.2533 8.60171 10.1478C8.49622 10.0423 8.43696 9.8992 8.43696 9.75001V5.81251ZM9.68946 12.4725C9.65141 12.5634 9.59815 12.6471 9.53196 12.72C9.42703 12.825 9.29307 12.896 9.14736 12.9241C9.00164 12.9522 8.85086 12.936 8.71446 12.8775C8.62267 12.8413 8.53866 12.7878 8.46696 12.72C8.40096 12.6454 8.34545 12.5621 8.30196 12.4725C8.26583 12.3819 8.24799 12.285 8.24946 12.1875C8.24888 11.9883 8.32706 11.7969 8.46696 11.655C8.53866 11.5872 8.62267 11.5338 8.71446 11.4975C8.85104 11.4401 9.00157 11.4244 9.14707 11.4524C9.29256 11.4804 9.42649 11.5509 9.53196 11.655C9.59975 11.7267 9.65321 11.8107 9.68946 11.9025C9.72905 11.9923 9.74949 12.0894 9.74949 12.1875C9.74949 12.2857 9.72905 12.3827 9.68946 12.4725Z" fill="#EA5148"/>
</svg>