<svg xmlns="http://www.w3.org/2000/svg" width="21" height="19" viewBox="0 0 21 19" fill="none">
  <path d="M20.0087 0.125H6.20033C5.69876 0.125 5.29199 0.531771 5.29199 1.03333V4.81406H20.917V1.03333C20.917 0.531771 20.5102 0.125 20.0087 0.125Z" fill="#2D92D4"/>
  <path d="M5.29199 14.2156V17.9667C5.29199 18.4682 5.69876 18.875 6.1998 18.875H20.0087C20.5102 18.875 20.917 18.4682 20.917 17.9667V14.2156H5.29199Z" fill="#2150A9"/>
  <path d="M5.29199 4.81409H20.917V9.50263H5.29199V4.81409Z" fill="#2D83D4"/>
  <path d="M5.29199 9.50262H20.917V14.2162H5.29199V9.50262Z" fill="#2E70C9"/>
  <path d="M9.62415 14.7084H0.958529C0.475195 14.7084 0.0830078 14.3162 0.0830078 13.8328V5.16721C0.0830078 4.68387 0.475195 4.29169 0.958529 4.29169H9.62415C10.1075 4.29169 10.4997 4.68387 10.4997 5.16721V13.8328C10.4997 14.3162 10.1075 14.7084 9.62415 14.7084Z" fill="#00488D"/>
  <path d="M7.5847 6.89581L6.77949 10.6791L5.8873 6.89581H4.74824L3.82793 10.7963L2.99824 6.89581H1.97949L3.20033 12.1041H4.42533L5.31751 8.09946L6.21022 12.1041H7.38262L8.60345 6.89581H7.5847Z" fill="white"/>
</svg>