<svg xmlns="http://www.w3.org/2000/svg" width="21" height="25" viewBox="0 0 21 25" fill="none">
  <path d="M18.8475 5.77083L15.1935 2.13542C13.8075 0.760417 11.9595 0 9.996 0H5.25C2.352 0 0 2.33333 0 5.20833V19.7917C0 22.6667 2.352 25 5.25 25H15.75C18.648 25 21 22.6667 21 19.7917V10.9271C21 8.97917 20.2335 7.14583 18.8475 5.77083ZM17.367 7.23958C17.703 7.57292 17.9865 7.9375 18.2175 8.33333H13.6605C13.083 8.33333 12.6105 7.86458 12.6105 7.29167V2.77083C13.0095 3 13.377 3.28125 13.713 3.61458L17.367 7.25V7.23958ZM18.9 19.7917C18.9 21.5104 17.4825 22.9167 15.75 22.9167H5.25C3.5175 22.9167 2.1 21.5104 2.1 19.7917V5.20833C2.1 3.48958 3.5175 2.08333 5.25 2.08333H9.9855C10.1535 2.08333 10.332 2.08333 10.5 2.10417V7.29167C10.5 9.01042 11.9175 10.4167 13.65 10.4167H18.879C18.9 10.5833 18.9 10.75 18.9 10.9271V19.7917ZM15.456 13.7917L13.965 19.6875C13.8075 20.3229 13.251 20.7812 12.5895 20.8229C11.928 20.8646 11.319 20.4896 11.0775 19.875L10.5 18.4375L9.9225 19.875C9.6915 20.4583 9.135 20.8229 8.5155 20.8229C8.484 20.8229 8.442 20.8229 8.4105 20.8229C7.749 20.7812 7.203 20.3229 7.035 19.6771L5.5545 13.7812C5.418 13.2187 5.754 12.6562 6.321 12.5208C6.8775 12.3854 7.455 12.7187 7.5915 13.2812L8.6415 17.4479L9.534 15.2292C9.6915 14.8333 10.08 14.5729 10.5105 14.5729C10.941 14.5729 11.3295 14.8333 11.487 15.2292L12.369 17.4479L13.4295 13.2812C13.566 12.7187 14.1435 12.3854 14.7 12.5208C15.267 12.6562 15.603 13.2292 15.4665 13.7812L15.456 13.7917Z" fill="#5A5A5A"/>
</svg>