<svg xmlns="http://www.w3.org/2000/svg" width="24" height="24" viewBox="0 0 24 24" fill="none">
  <path d="M14.2002 12.45H9.2002C9.00169 12.4486 8.81168 12.3692 8.67131 12.2288C8.53094 12.0885 8.45151 11.8985 8.4502 11.7C8.45151 11.5014 8.53094 11.3114 8.67131 11.1711C8.81168 11.0307 9.00169 10.9513 9.2002 10.95H14.2002C14.3987 10.9513 14.5887 11.0307 14.7291 11.1711C14.8694 11.3114 14.9489 11.5014 14.9502 11.7C14.9489 11.8985 14.8694 12.0885 14.7291 12.2288C14.5887 12.3692 14.3987 12.4486 14.2002 12.45Z" fill="#5A5A5A"/>
  <path d="M11.7002 14.95C11.5017 14.9486 11.3117 14.8692 11.1713 14.7288C11.0309 14.5885 10.9515 14.3985 10.9502 14.2V9.19995C10.9515 9.00144 11.0309 8.81144 11.1713 8.67107C11.3117 8.5307 11.5017 8.45126 11.7002 8.44995C11.8987 8.45126 12.0887 8.5307 12.2291 8.67107C12.3694 8.81144 12.4489 9.00144 12.4502 9.19995V14.2C12.4489 14.3985 12.3694 14.5885 12.2291 14.7288C12.0887 14.8692 11.8987 14.9486 11.7002 14.95Z" fill="#5A5A5A"/>
  <path d="M11.5 21.75C9.47275 21.75 7.49101 21.1489 5.80541 20.0226C4.11981 18.8963 2.80604 17.2955 2.03024 15.4225C1.25444 13.5496 1.05146 11.4886 1.44696 9.50033C1.84245 7.51202 2.81867 5.68565 4.25216 4.25216C5.68565 2.81867 7.51202 1.84245 9.50033 1.44696C11.4886 1.05146 13.5496 1.25444 15.4225 2.03024C17.2955 2.80604 18.8963 4.11981 20.0226 5.80541C21.1489 7.49101 21.75 9.47275 21.75 11.5C21.7463 14.2173 20.6652 16.8223 18.7438 18.7438C16.8223 20.6652 14.2173 21.7463 11.5 21.75ZM11.5 2.75C9.76942 2.75 8.0777 3.26318 6.63877 4.22465C5.19984 5.18611 4.07833 6.55267 3.41606 8.15152C2.75379 9.75038 2.58051 11.5097 2.91813 13.207C3.25575 14.9044 4.08911 16.4635 5.31282 17.6872C6.53653 18.9109 8.09563 19.7443 9.79296 20.0819C11.4903 20.4195 13.2496 20.2462 14.8485 19.584C16.4473 18.9217 17.8139 17.8002 18.7754 16.3612C19.7368 14.9223 20.25 13.2306 20.25 11.5C20.2474 9.18017 19.3246 6.95611 17.6843 5.31574C16.0439 3.67537 13.8198 2.75265 11.5 2.75Z" fill="#5A5A5A"/>
  <path d="M22.0012 22.7529C21.9027 22.7533 21.8051 22.734 21.7141 22.6963C21.6231 22.6585 21.5405 22.603 21.4712 22.5329L19.4712 20.5329C19.3304 20.3924 19.2512 20.2016 19.251 20.0027C19.2508 19.8037 19.3297 19.6128 19.4702 19.4719C19.6108 19.3311 19.8015 19.2519 20.0005 19.2517C20.1995 19.2515 20.3904 19.3304 20.5312 19.4709L22.5312 21.4709C22.6707 21.6121 22.7489 21.8025 22.7489 22.0009C22.7489 22.1994 22.6707 22.3898 22.5312 22.5309C22.4621 22.6013 22.3796 22.6572 22.2886 22.6953C22.1976 22.7335 22.0999 22.753 22.0012 22.7529Z" fill="#5A5A5A"/>
</svg>